G04 Layer_Color=8388736*
%FSLAX44Y44*%
%MOMM*%
G71*
G01*
G75*
%ADD39R,0.7032X1.0032*%
%ADD40R,1.0032X0.7032*%
%ADD41O,0.5032X2.3032*%
%ADD42O,2.3032X0.5032*%
%ADD43R,2.8702X2.7432*%
%ADD44R,0.9652X1.4732*%
%ADD45R,1.0032X1.9032*%
%ADD46R,0.9532X0.7532*%
%ADD47R,0.7032X0.7532*%
%ADD48R,1.1032X1.4032*%
%ADD49C,1.9032*%
%ADD50C,3.7032*%
%ADD51C,4.0132*%
%ADD52C,2.2352*%
%ADD53C,3.7592*%
%ADD54C,1.9812*%
%ADD55C,1.8542*%
%ADD56C,2.2032*%
%ADD57O,1.2192X1.7272*%
%ADD58C,1.4732*%
D39*
X699890Y368300D02*
D03*
X714890D02*
D03*
X933330Y185420D02*
D03*
X918330D02*
D03*
X1641990Y222250D02*
D03*
X1626990D02*
D03*
X1521580Y273050D02*
D03*
X1536580D02*
D03*
X485020Y316230D02*
D03*
X470020D02*
D03*
X1537850Y227330D02*
D03*
X1522850D02*
D03*
X1536580Y356870D02*
D03*
X1521580D02*
D03*
X1641990Y201930D02*
D03*
X1626990D02*
D03*
Y314960D02*
D03*
X1641990D02*
D03*
X1521580D02*
D03*
X1536580D02*
D03*
Y378460D02*
D03*
X1521580D02*
D03*
X1318380Y332740D02*
D03*
X1333380D02*
D03*
X1521580Y293370D02*
D03*
X1536580D02*
D03*
X1641990Y292100D02*
D03*
X1626990D02*
D03*
X1537850Y208280D02*
D03*
X1522850D02*
D03*
X1626990Y241300D02*
D03*
X1641990D02*
D03*
X1537850Y247650D02*
D03*
X1522850D02*
D03*
X1286660Y332270D02*
D03*
X1301660D02*
D03*
X1536580Y336550D02*
D03*
X1521580D02*
D03*
X1641990Y273050D02*
D03*
X1626990D02*
D03*
X980320Y369570D02*
D03*
X965320D02*
D03*
D40*
X949960Y204590D02*
D03*
Y219590D02*
D03*
X722630Y300870D02*
D03*
Y285870D02*
D03*
X623570Y203320D02*
D03*
Y218320D02*
D03*
X1085850Y222130D02*
D03*
Y207130D02*
D03*
X443230Y232290D02*
D03*
Y217290D02*
D03*
X393700Y232290D02*
D03*
Y217290D02*
D03*
X115570Y231020D02*
D03*
Y216020D02*
D03*
X138430Y231020D02*
D03*
Y216020D02*
D03*
X492760Y232290D02*
D03*
Y217290D02*
D03*
X1275080Y222130D02*
D03*
Y207130D02*
D03*
X193040Y231020D02*
D03*
Y216020D02*
D03*
X1436370Y222130D02*
D03*
Y207130D02*
D03*
X1129030Y222130D02*
D03*
Y207130D02*
D03*
X1212850Y222130D02*
D03*
Y207130D02*
D03*
X1457960Y222130D02*
D03*
Y207130D02*
D03*
X468630Y232290D02*
D03*
Y217290D02*
D03*
X722630Y313810D02*
D03*
Y328810D02*
D03*
X234950Y216020D02*
D03*
Y231020D02*
D03*
X1169670Y222130D02*
D03*
Y207130D02*
D03*
X290830Y231020D02*
D03*
Y216020D02*
D03*
X1358900Y222130D02*
D03*
Y207130D02*
D03*
X599440Y203320D02*
D03*
Y218320D02*
D03*
X603250Y283090D02*
D03*
Y268090D02*
D03*
X544830Y232290D02*
D03*
Y217290D02*
D03*
X1234440Y222130D02*
D03*
Y207130D02*
D03*
X753110Y183000D02*
D03*
Y198000D02*
D03*
X646430Y218320D02*
D03*
Y203320D02*
D03*
X1399540Y222130D02*
D03*
Y207130D02*
D03*
X1493520Y222130D02*
D03*
Y207130D02*
D03*
X791210Y183000D02*
D03*
Y198000D02*
D03*
X772160Y183000D02*
D03*
Y198000D02*
D03*
X1189990Y222130D02*
D03*
Y207130D02*
D03*
X690880Y203320D02*
D03*
Y218320D02*
D03*
X1475740Y222130D02*
D03*
Y207130D02*
D03*
X624840Y283090D02*
D03*
Y268090D02*
D03*
X518160Y232290D02*
D03*
Y217290D02*
D03*
X1107440Y222130D02*
D03*
Y207130D02*
D03*
X215900Y231020D02*
D03*
Y216020D02*
D03*
X1253490Y222130D02*
D03*
Y207130D02*
D03*
X266700Y231020D02*
D03*
Y216020D02*
D03*
X1376680Y222130D02*
D03*
Y207130D02*
D03*
X1295400Y222130D02*
D03*
Y207130D02*
D03*
X1418590Y222130D02*
D03*
Y207130D02*
D03*
X419100Y232290D02*
D03*
Y217290D02*
D03*
X708660Y218320D02*
D03*
Y203320D02*
D03*
X367030Y231020D02*
D03*
Y216020D02*
D03*
X339090Y231020D02*
D03*
Y216020D02*
D03*
X161290D02*
D03*
Y231020D02*
D03*
X313690Y216020D02*
D03*
Y231020D02*
D03*
X734060Y183000D02*
D03*
Y198000D02*
D03*
X1315720Y222130D02*
D03*
Y207130D02*
D03*
X1149350Y222130D02*
D03*
Y207130D02*
D03*
X1339850Y222130D02*
D03*
Y207130D02*
D03*
D41*
X811220Y371910D02*
D03*
X816220D02*
D03*
X821220D02*
D03*
X826220D02*
D03*
X831220D02*
D03*
X836220D02*
D03*
X841220D02*
D03*
X846220D02*
D03*
X851220D02*
D03*
X856220D02*
D03*
X861220D02*
D03*
X866220D02*
D03*
X871220D02*
D03*
X876220D02*
D03*
X881220D02*
D03*
X886220D02*
D03*
X891220D02*
D03*
X896220D02*
D03*
X901220D02*
D03*
X906220D02*
D03*
X911220D02*
D03*
X916220D02*
D03*
X921220D02*
D03*
X926220D02*
D03*
X931220D02*
D03*
Y219910D02*
D03*
X926220D02*
D03*
X921220D02*
D03*
X916220D02*
D03*
X911220D02*
D03*
X906220D02*
D03*
X901220D02*
D03*
X896220D02*
D03*
X891220D02*
D03*
X886220D02*
D03*
X881220D02*
D03*
X876220D02*
D03*
X871220D02*
D03*
X866220D02*
D03*
X861220D02*
D03*
X856220D02*
D03*
X851220D02*
D03*
X846220D02*
D03*
X841220D02*
D03*
X836220D02*
D03*
X831220D02*
D03*
X826220D02*
D03*
X821220D02*
D03*
X816220D02*
D03*
X811220D02*
D03*
D42*
X947220Y355910D02*
D03*
Y350910D02*
D03*
Y345910D02*
D03*
Y340910D02*
D03*
Y335910D02*
D03*
Y330910D02*
D03*
Y325910D02*
D03*
Y320910D02*
D03*
Y315910D02*
D03*
Y310910D02*
D03*
Y305910D02*
D03*
Y300910D02*
D03*
Y295910D02*
D03*
Y290910D02*
D03*
Y285910D02*
D03*
Y280910D02*
D03*
Y275910D02*
D03*
Y270910D02*
D03*
Y265910D02*
D03*
Y260910D02*
D03*
Y255910D02*
D03*
Y250910D02*
D03*
Y245910D02*
D03*
Y240910D02*
D03*
Y235910D02*
D03*
X795220D02*
D03*
Y240910D02*
D03*
Y245910D02*
D03*
Y250910D02*
D03*
Y255910D02*
D03*
Y260910D02*
D03*
Y265910D02*
D03*
Y270910D02*
D03*
Y275910D02*
D03*
Y280910D02*
D03*
Y285910D02*
D03*
Y290910D02*
D03*
Y295910D02*
D03*
Y300910D02*
D03*
Y305910D02*
D03*
Y310910D02*
D03*
Y315910D02*
D03*
Y320910D02*
D03*
Y325910D02*
D03*
Y330910D02*
D03*
Y335910D02*
D03*
Y340910D02*
D03*
Y345910D02*
D03*
Y350910D02*
D03*
Y355910D02*
D03*
D43*
X1389380Y344170D02*
D03*
Y389890D02*
D03*
D44*
X1412875Y344170D02*
D03*
Y389890D02*
D03*
D45*
X470680Y375920D02*
D03*
X504680D02*
D03*
D46*
X567690Y233680D02*
D03*
X670560Y218440D02*
D03*
D47*
X567690Y208280D02*
D03*
X670560Y193040D02*
D03*
D48*
X665850Y293340D02*
D03*
Y321340D02*
D03*
X680350Y293340D02*
D03*
Y321340D02*
D03*
D49*
X979650Y159560D02*
D03*
Y129560D02*
D03*
X1039650D02*
D03*
X1009650D02*
D03*
X1039650Y159560D02*
D03*
X1009650D02*
D03*
X1119590Y157000D02*
D03*
X1149590D02*
D03*
X1179590D02*
D03*
X1209590D02*
D03*
X1119590Y127000D02*
D03*
X1149590D02*
D03*
X1179590D02*
D03*
X1209590D02*
D03*
X901220Y159560D02*
D03*
X871220D02*
D03*
X841220D02*
D03*
Y129560D02*
D03*
X901220D02*
D03*
X871220D02*
D03*
D50*
X1009650Y86360D02*
D03*
X1187990Y83800D02*
D03*
X1141190D02*
D03*
X871220Y86360D02*
D03*
D51*
X62230Y383540D02*
D03*
Y64770D02*
D03*
X1652270Y383540D02*
D03*
Y64770D02*
D03*
X638810Y85090D02*
D03*
X1303020D02*
D03*
X746760D02*
D03*
X1408430Y86360D02*
D03*
X533400Y85090D02*
D03*
D52*
X1574800Y158242D02*
D03*
Y128270D02*
D03*
X443230Y158242D02*
D03*
Y128270D02*
D03*
X139700Y158242D02*
D03*
Y128270D02*
D03*
X214630Y158242D02*
D03*
Y128270D02*
D03*
X367030Y158242D02*
D03*
Y128270D02*
D03*
X290830Y158242D02*
D03*
Y128270D02*
D03*
X1498600Y158242D02*
D03*
Y128270D02*
D03*
D53*
X1574800Y85090D02*
D03*
X443230D02*
D03*
X139700D02*
D03*
X214630D02*
D03*
X367030D02*
D03*
X290830D02*
D03*
X1498600D02*
D03*
D54*
X653796Y158242D02*
D03*
X623824D02*
D03*
X653796Y128270D02*
D03*
X623824D02*
D03*
X1318006Y158242D02*
D03*
X1288034D02*
D03*
X1318006Y128270D02*
D03*
X1288034D02*
D03*
X761746Y158242D02*
D03*
X731774D02*
D03*
X761746Y128270D02*
D03*
X731774D02*
D03*
X1423416Y159512D02*
D03*
X1393444D02*
D03*
X1423416Y129540D02*
D03*
X1393444D02*
D03*
X548386Y158242D02*
D03*
X518414D02*
D03*
X548386Y128270D02*
D03*
X518414D02*
D03*
D55*
X173990Y369570D02*
D03*
Y344170D02*
D03*
X199390D02*
D03*
Y369570D02*
D03*
X250190D02*
D03*
Y344170D02*
D03*
X224790D02*
D03*
Y369570D02*
D03*
X326390D02*
D03*
Y344170D02*
D03*
X351790D02*
D03*
Y369570D02*
D03*
X300990D02*
D03*
Y344170D02*
D03*
X275590D02*
D03*
Y369570D02*
D03*
X402590D02*
D03*
Y344170D02*
D03*
X377190D02*
D03*
Y369570D02*
D03*
D56*
X1197610Y347980D02*
D03*
X1172210D02*
D03*
X1146810D02*
D03*
X758190Y277860D02*
D03*
Y326660D02*
D03*
X1286510Y358140D02*
D03*
X1261110D02*
D03*
X1311910D02*
D03*
X1337310D02*
D03*
D57*
X985520Y194310D02*
D03*
X1010920D02*
D03*
X1036320D02*
D03*
X1061720D02*
D03*
X985520Y273050D02*
D03*
X1061720D02*
D03*
X1010920D02*
D03*
X1036320D02*
D03*
D58*
X918210Y326390D02*
D03*
Y308610D02*
D03*
X946150Y373380D02*
D03*
X901700Y284480D02*
D03*
X866140Y346710D02*
D03*
X822960Y246380D02*
D03*
X1508760Y302260D02*
D03*
X1475740Y240030D02*
D03*
X1418590Y238760D02*
D03*
X1358900Y241300D02*
D03*
X1295400D02*
D03*
X1234440Y242570D02*
D03*
X1169670Y240030D02*
D03*
X1107440D02*
D03*
X1626870Y335280D02*
D03*
X1628140Y186690D02*
D03*
X1508760Y271780D02*
D03*
X840740Y346710D02*
D03*
X104140Y186690D02*
D03*
X1586230D02*
D03*
X702310Y285750D02*
D03*
X701040Y303530D02*
D03*
X651510Y184150D02*
D03*
X642620Y264160D02*
D03*
X645160Y284480D02*
D03*
X1508760Y237490D02*
D03*
X1315720Y187960D02*
D03*
X1253490D02*
D03*
X1365250D02*
D03*
X1139190D02*
D03*
X624840Y184150D02*
D03*
X1607820Y186690D02*
D03*
X525780Y374650D02*
D03*
X1454150Y369570D02*
D03*
X991870Y346710D02*
D03*
X502920Y316230D02*
D03*
X643890Y302260D02*
D03*
X1085850Y187960D02*
D03*
X1436370Y186690D02*
D03*
X1189990Y187960D02*
D03*
X1106170D02*
D03*
X822960Y265430D02*
D03*
X838200Y194310D02*
D03*
X821690D02*
D03*
X855980D02*
D03*
X248920Y186690D02*
D03*
X326390D02*
D03*
X406400D02*
D03*
X175260D02*
D03*
X1146810Y304800D02*
D03*
X918210Y344170D02*
D03*
X900430Y326390D02*
D03*
X901700Y264160D02*
D03*
X1508760Y321310D02*
D03*
Y344492D02*
D03*
X530860Y316230D02*
D03*
X367030Y250190D02*
D03*
X292100Y248920D02*
D03*
X215900D02*
D03*
X443230Y250190D02*
D03*
X567690D02*
D03*
M02*
