G04 Layer_Physical_Order=1*
G04 Layer_Color=255*
%FSLAX44Y44*%
%MOMM*%
G71*
G01*
G75*
%ADD10R,0.5000X0.8000*%
%ADD11R,0.8000X0.5000*%
%ADD12O,0.3000X2.1000*%
%ADD13O,2.1000X0.3000*%
%ADD14R,2.6670X2.5400*%
%ADD15R,0.7620X1.2700*%
%ADD16R,0.8000X1.7000*%
%ADD17R,0.7500X0.5500*%
%ADD18R,0.5000X0.5500*%
%ADD19R,0.9000X1.2000*%
%ADD20C,0.2540*%
%ADD21C,0.3810*%
%ADD22C,1.7000*%
%ADD23C,3.5000*%
%ADD24C,3.8100*%
%ADD25C,2.0320*%
%ADD26C,3.5560*%
%ADD27C,1.7780*%
%ADD28C,1.6510*%
%ADD29C,2.0000*%
%ADD30O,1.0160X1.5240*%
%ADD31C,1.2700*%
G36*
X1064752Y319932D02*
X1064266Y318759D01*
X959831D01*
X959128Y320029D01*
X959303Y320910D01*
X959069Y322090D01*
X958400Y323090D01*
Y323730D01*
X959069Y324730D01*
X959303Y325910D01*
X959128Y326791D01*
X959831Y328061D01*
X1056623D01*
X1064752Y319932D01*
D02*
G37*
G36*
X1501882Y317339D02*
X1503144Y315694D01*
X1503368Y315523D01*
X1502937Y314253D01*
X1454653D01*
X1454167Y315426D01*
X1457203Y318461D01*
X1501417D01*
X1501882Y317339D01*
D02*
G37*
G36*
X985343Y297222D02*
X974616Y286494D01*
X973998Y285570D01*
X973781Y284480D01*
X973781Y284480D01*
Y258210D01*
X960379Y244808D01*
X959208Y245433D01*
X959303Y245910D01*
X959069Y247090D01*
X958400Y248090D01*
Y248730D01*
X959069Y249730D01*
X959303Y250910D01*
X959069Y252090D01*
X958810Y252476D01*
X958505Y253410D01*
X958810Y254344D01*
X959069Y254730D01*
X959303Y255910D01*
X959069Y257090D01*
X958400Y258090D01*
Y258730D01*
X959069Y259730D01*
X959303Y260910D01*
X959069Y262090D01*
X958810Y262476D01*
X958505Y263410D01*
X958810Y264344D01*
X959069Y264730D01*
X959303Y265910D01*
X959069Y267090D01*
X958810Y267476D01*
X958505Y268410D01*
X958810Y269344D01*
X959069Y269730D01*
X959303Y270910D01*
X959069Y272090D01*
X958400Y273090D01*
Y273730D01*
X959069Y274730D01*
X959303Y275910D01*
X959069Y277090D01*
X958810Y277476D01*
X958505Y278410D01*
X958810Y279344D01*
X959069Y279730D01*
X959303Y280910D01*
X959069Y282090D01*
X958400Y283090D01*
Y283730D01*
X959069Y284730D01*
X959303Y285910D01*
X959069Y287090D01*
X958810Y287476D01*
X958505Y288410D01*
X958810Y289344D01*
X959069Y289730D01*
X959303Y290910D01*
X959069Y292090D01*
X958810Y292476D01*
X958505Y293410D01*
X958810Y294344D01*
X959069Y294730D01*
X959303Y295910D01*
X959069Y297090D01*
X959045Y297125D01*
X959724Y298395D01*
X984857D01*
X985343Y297222D01*
D02*
G37*
G36*
X870040Y208062D02*
X871220Y207827D01*
X872400Y208062D01*
X872786Y208320D01*
X873720Y208625D01*
X874654Y208320D01*
X875040Y208062D01*
X876220Y207827D01*
X877400Y208062D01*
X877786Y208320D01*
X878720Y208625D01*
X879654Y208320D01*
X880040Y208062D01*
X881220Y207827D01*
X882101Y208002D01*
X883371Y207299D01*
Y201600D01*
X867500Y185729D01*
X859157D01*
X858905Y186999D01*
X859951Y187432D01*
X861596Y188694D01*
X862858Y190339D01*
X863651Y192255D01*
X863922Y194310D01*
X863651Y196366D01*
X862858Y198281D01*
X861596Y199926D01*
X859951Y201188D01*
X858036Y201981D01*
X855980Y202252D01*
X853924Y201981D01*
X852802Y201516D01*
X847551Y206768D01*
X847798Y207998D01*
X848942Y208552D01*
X849654Y208320D01*
X850040Y208062D01*
X851220Y207827D01*
X852400Y208062D01*
X853400Y208730D01*
X854040D01*
X855040Y208062D01*
X856220Y207827D01*
X857400Y208062D01*
X858400Y208730D01*
X859040D01*
X860040Y208062D01*
X861220Y207827D01*
X862400Y208062D01*
X863400Y208730D01*
X864040D01*
X865040Y208062D01*
X866220Y207827D01*
X867400Y208062D01*
X868400Y208730D01*
X869040D01*
X870040Y208062D01*
D02*
G37*
G36*
X905896Y411405D02*
X906422Y410135D01*
X895142Y398855D01*
X895011Y398660D01*
X894206Y397854D01*
X893588Y396930D01*
X893371Y395840D01*
X893371Y395840D01*
Y384521D01*
X892101Y383818D01*
X891220Y383993D01*
X890040Y383759D01*
X889040Y383090D01*
X888400D01*
X887400Y383759D01*
X886220Y383993D01*
X885040Y383759D01*
X884040Y383090D01*
X883400D01*
X882400Y383759D01*
X881220Y383993D01*
X880040Y383759D01*
X879040Y383090D01*
X878400D01*
X877400Y383759D01*
X876220Y383993D01*
X875040Y383759D01*
X874040Y383090D01*
X873400D01*
X872400Y383759D01*
X871220Y383993D01*
X870040Y383759D01*
X869040Y383090D01*
X868400D01*
X867400Y383759D01*
X866220Y383993D01*
X865040Y383759D01*
X864040Y383090D01*
X863400D01*
X862400Y383759D01*
X861220Y383993D01*
X860040Y383759D01*
X859040Y383090D01*
X858400D01*
X857400Y383759D01*
X856220Y383993D01*
X855040Y383759D01*
X854040Y383090D01*
X853400D01*
X852400Y383759D01*
X851220Y383993D01*
X850339Y383818D01*
X849069Y384521D01*
Y386347D01*
X848852Y387438D01*
X848234Y388362D01*
X848234Y388362D01*
X833122Y403474D01*
X832197Y404092D01*
X831107Y404309D01*
X831107Y404309D01*
X680860D01*
X680860Y404309D01*
X679770Y404092D01*
X678846Y403474D01*
X565494Y290123D01*
X217544D01*
X217544Y290123D01*
X216454Y289906D01*
X215530Y289288D01*
X215530Y289288D01*
X161285Y235044D01*
X155766D01*
Y226996D01*
X166814D01*
Y232515D01*
X218724Y284425D01*
X281397D01*
X281883Y283252D01*
X233675Y235044D01*
X229426D01*
Y226996D01*
X240474D01*
Y233785D01*
X287050Y280361D01*
X357343D01*
X357829Y279188D01*
X313685Y235044D01*
X308166D01*
Y226996D01*
X319214D01*
Y232515D01*
X362996Y276297D01*
X433169D01*
X433655Y275124D01*
X394845Y236314D01*
X388176D01*
Y228266D01*
X399224D01*
Y232635D01*
X438822Y272233D01*
X568935D01*
X569421Y271060D01*
X542255Y243895D01*
X477386D01*
X476296Y243678D01*
X475372Y243060D01*
X475372Y243060D01*
X468625Y236314D01*
X463106D01*
Y228266D01*
X474154D01*
Y233785D01*
X478566Y238197D01*
X485309D01*
X486220Y237330D01*
X486220Y236927D01*
Y233560D01*
X492760D01*
X499300D01*
Y236927D01*
X499300Y237330D01*
X500211Y238197D01*
X543435D01*
X543435Y238197D01*
X544526Y238414D01*
X545450Y239032D01*
X557569Y251151D01*
X558772Y250557D01*
X558723Y250190D01*
X559029Y247869D01*
X559925Y245707D01*
X561350Y243850D01*
X563207Y242425D01*
X565369Y241529D01*
X566420Y241390D01*
Y250190D01*
X567690D01*
Y251460D01*
X576489D01*
X576351Y252511D01*
X575455Y254673D01*
X574030Y256530D01*
X572173Y257955D01*
X570011Y258851D01*
X567690Y259157D01*
X567323Y259108D01*
X566729Y260311D01*
X688773Y382355D01*
X807138D01*
X808172Y381085D01*
X808137Y380910D01*
Y362910D01*
X808371Y361731D01*
Y357051D01*
X807101Y356925D01*
X807068Y357090D01*
X806400Y358090D01*
X805400Y358759D01*
X804220Y358993D01*
X786220D01*
X785040Y358759D01*
X784040Y358090D01*
X783372Y357090D01*
X783137Y355910D01*
X783372Y354730D01*
X784040Y353730D01*
Y353090D01*
X783372Y352090D01*
X783137Y350910D01*
X783372Y349730D01*
X784040Y348730D01*
Y348090D01*
X783372Y347090D01*
X783137Y345910D01*
X783372Y344730D01*
X784040Y343730D01*
Y343090D01*
X783372Y342090D01*
X783137Y340910D01*
X783372Y339730D01*
X784040Y338730D01*
Y338090D01*
X783372Y337090D01*
X783231Y336384D01*
X781984Y335885D01*
X781935Y335884D01*
X756394Y361424D01*
X755470Y362042D01*
X754380Y362259D01*
X754380Y362259D01*
X719970D01*
X718914Y362776D01*
Y373824D01*
X710866D01*
Y362776D01*
X709810Y362259D01*
X704930D01*
Y367030D01*
X694850D01*
Y362259D01*
X680720D01*
X680720Y362259D01*
X679630Y362042D01*
X678706Y361424D01*
X678706Y361424D01*
X641876Y324594D01*
X641258Y323670D01*
X641041Y322580D01*
X641041Y322580D01*
Y309603D01*
X639919Y309138D01*
X638274Y307876D01*
X637012Y306231D01*
X636219Y304315D01*
X635948Y302260D01*
X636219Y300205D01*
X637012Y298289D01*
X638274Y296644D01*
X639919Y295382D01*
X641834Y294589D01*
X643890Y294318D01*
X645946Y294589D01*
X647861Y295382D01*
X649506Y296644D01*
X650768Y298289D01*
X651561Y300205D01*
X651832Y302260D01*
X651561Y304315D01*
X650768Y306231D01*
X649506Y307876D01*
X647861Y309138D01*
X646739Y309603D01*
Y321400D01*
X681900Y356561D01*
X753200D01*
X766189Y343573D01*
X765663Y342303D01*
X715374D01*
X714284Y342086D01*
X713360Y341468D01*
X713360Y341468D01*
X710456Y338564D01*
X709838Y337640D01*
X709621Y336550D01*
X709621Y336550D01*
Y317500D01*
X709621Y317500D01*
X709838Y316410D01*
X710456Y315486D01*
X714146Y311796D01*
X714146Y311796D01*
X715070Y311178D01*
X716090Y310975D01*
Y308770D01*
X721360D01*
Y313810D01*
Y318850D01*
X716090D01*
X715319Y319800D01*
Y335370D01*
X716554Y336605D01*
X750245D01*
X750653Y335403D01*
X749971Y334879D01*
X748124Y332472D01*
X747787Y331659D01*
X728154D01*
Y332834D01*
X717106D01*
Y324786D01*
X728154D01*
Y325961D01*
X746659D01*
X746963Y323652D01*
X748124Y320848D01*
X749971Y318441D01*
X752378Y316594D01*
X755182Y315433D01*
X755341Y315412D01*
Y313690D01*
X755341Y313690D01*
X755558Y312600D01*
X756176Y311676D01*
X768956Y298896D01*
X768956Y298896D01*
X769880Y298278D01*
X770970Y298061D01*
X770970Y298061D01*
X777376D01*
X777903Y296791D01*
X767142Y286031D01*
X766409Y286079D01*
X764002Y287926D01*
X761198Y289087D01*
X758190Y289483D01*
X755182Y289087D01*
X752378Y287926D01*
X749971Y286079D01*
X748124Y283672D01*
X746963Y280868D01*
X746942Y280709D01*
X731820D01*
X728154Y284375D01*
Y289894D01*
X717106D01*
Y281846D01*
X722625D01*
X728626Y275846D01*
X728626Y275846D01*
X729550Y275228D01*
X730640Y275011D01*
X730640Y275011D01*
X746942D01*
X746963Y274852D01*
X748124Y272048D01*
X749971Y269641D01*
X752378Y267794D01*
X755182Y266633D01*
X758190Y266237D01*
X761198Y266633D01*
X764002Y267794D01*
X766409Y269641D01*
X768256Y272048D01*
X769417Y274852D01*
X769813Y277860D01*
X769490Y280321D01*
X781540Y292371D01*
X782224Y292275D01*
X783144Y290945D01*
X783137Y290910D01*
X783372Y289730D01*
X784040Y288730D01*
Y288090D01*
X783372Y287090D01*
X783137Y285910D01*
X783372Y284730D01*
X784040Y283730D01*
Y283090D01*
X783372Y282090D01*
X783137Y280910D01*
X783372Y279730D01*
X784040Y278730D01*
Y278090D01*
X783372Y277090D01*
X783137Y275910D01*
X783372Y274730D01*
X784040Y273730D01*
Y273090D01*
X783372Y272090D01*
X783137Y270910D01*
X783372Y269730D01*
X783480Y269568D01*
X783981Y268677D01*
X783156Y267940D01*
X783133Y267924D01*
X783133Y267924D01*
X779912Y264703D01*
X779294Y263779D01*
X779077Y262689D01*
X779077Y262689D01*
Y259132D01*
X779077Y259131D01*
X779294Y258041D01*
X779912Y257117D01*
X783133Y253896D01*
X783156Y253880D01*
X783981Y253143D01*
X783480Y252253D01*
X783372Y252090D01*
X783137Y250910D01*
X783372Y249730D01*
X784040Y248730D01*
Y248090D01*
X783372Y247090D01*
X783137Y245910D01*
X783312Y245029D01*
X782609Y243759D01*
X606099D01*
Y264066D01*
X608774D01*
Y272114D01*
X597726D01*
Y264066D01*
X600401D01*
Y243759D01*
X575561D01*
X574935Y245029D01*
X575455Y245707D01*
X576351Y247869D01*
X576489Y248920D01*
X568960D01*
Y241390D01*
X569669Y241484D01*
X570316Y240432D01*
X570337Y240355D01*
X567935Y237954D01*
X562416D01*
Y236529D01*
X546220D01*
X545140Y236314D01*
X539306D01*
Y228266D01*
X550354D01*
Y230831D01*
X562416D01*
Y229406D01*
X572964D01*
Y234925D01*
X576100Y238061D01*
X728204D01*
X728730Y236791D01*
X724403Y232465D01*
X675386D01*
X675386Y232465D01*
X674296Y232248D01*
X673372Y231630D01*
X673372Y231630D01*
X668546Y226804D01*
X667928Y225880D01*
X667711Y224790D01*
X667711Y224790D01*
Y222714D01*
X665286D01*
Y221169D01*
X651954D01*
Y222344D01*
X640906D01*
Y214296D01*
X651954D01*
Y215471D01*
X656823D01*
X657309Y214298D01*
X654576Y211564D01*
X653958Y210640D01*
X653741Y209550D01*
X653741Y209550D01*
Y193075D01*
X652471Y191965D01*
X651510Y192092D01*
X649454Y191821D01*
X647539Y191028D01*
X645894Y189766D01*
X644632Y188121D01*
X643839Y186206D01*
X643568Y184150D01*
X643839Y182094D01*
X644632Y180179D01*
X645894Y178534D01*
X647539Y177272D01*
X649454Y176479D01*
X651510Y176208D01*
X653566Y176479D01*
X655481Y177272D01*
X657126Y178534D01*
X658388Y180179D01*
X659181Y182094D01*
X659452Y184150D01*
X659181Y186206D01*
X658702Y187362D01*
X659222Y188140D01*
X659439Y189230D01*
X659439Y189230D01*
Y208370D01*
X664421Y213352D01*
X665286Y214166D01*
Y214166D01*
X665286Y214166D01*
X675834D01*
Y222714D01*
X674309D01*
X673783Y223984D01*
X676566Y226767D01*
X725583D01*
X725583Y226767D01*
X726674Y226984D01*
X727598Y227602D01*
X733057Y233061D01*
X785041D01*
X786220Y232827D01*
X804220D01*
X805400Y233062D01*
X806400Y233730D01*
X807068Y234730D01*
X807303Y235910D01*
X807068Y237090D01*
X806400Y238090D01*
Y238730D01*
X806855Y239411D01*
X808011Y239585D01*
X808325Y239536D01*
X813656Y234206D01*
X813656Y234206D01*
X814209Y233836D01*
X814222Y233803D01*
X814253Y232563D01*
X814209Y232425D01*
X813307Y231823D01*
X812998Y231359D01*
X812400Y231758D01*
X811220Y231993D01*
X810040Y231758D01*
X809040Y231090D01*
X808372Y230090D01*
X808137Y228910D01*
Y210910D01*
X808372Y209730D01*
X809040Y208730D01*
X810040Y208062D01*
X811220Y207827D01*
X812400Y208062D01*
X812998Y208461D01*
X813307Y207997D01*
X814644Y207104D01*
X814950Y207043D01*
Y219910D01*
X817490D01*
Y207043D01*
X817796Y207104D01*
X819133Y207997D01*
X819442Y208461D01*
X820040Y208062D01*
X821220Y207827D01*
X822400Y208062D01*
X822786Y208320D01*
X823720Y208625D01*
X824654Y208320D01*
X825040Y208062D01*
X826220Y207827D01*
X826996Y207981D01*
X827622Y206811D01*
X822904Y202092D01*
X821690Y202252D01*
X819634Y201981D01*
X817719Y201188D01*
X816074Y199926D01*
X814812Y198281D01*
X814019Y196366D01*
X813748Y194310D01*
X814019Y192255D01*
X814812Y190339D01*
X816074Y188694D01*
X817719Y187432D01*
X818765Y186999D01*
X818513Y185729D01*
X808900D01*
X806759Y187870D01*
Y201930D01*
X806759Y201930D01*
X806542Y203020D01*
X805924Y203944D01*
X802114Y207754D01*
X801190Y208372D01*
X800100Y208589D01*
X800100Y208589D01*
X744220D01*
X744220Y208589D01*
X743130Y208372D01*
X742206Y207754D01*
X742206Y207754D01*
X740936Y206484D01*
X740318Y205560D01*
X740101Y204470D01*
X740101Y204470D01*
Y203080D01*
X739584Y202024D01*
X738831Y202024D01*
X728536D01*
Y200849D01*
X726749D01*
Y215900D01*
X726749Y215900D01*
X726532Y216990D01*
X725914Y217914D01*
X725914Y217914D01*
X723494Y220334D01*
X722570Y220952D01*
X721480Y221169D01*
X721480Y221169D01*
X714184D01*
Y222344D01*
X703136D01*
Y221169D01*
X696404D01*
Y222344D01*
X685356D01*
Y214296D01*
X696404D01*
Y215471D01*
X703136D01*
Y214296D01*
X714184D01*
Y215471D01*
X720300D01*
X721051Y214720D01*
Y198120D01*
X721051Y198120D01*
X721051Y198120D01*
Y166116D01*
X721051Y166116D01*
X721268Y165026D01*
X721886Y164102D01*
X722624Y163364D01*
X721628Y160961D01*
X721270Y158242D01*
X721628Y155523D01*
X722677Y152990D01*
X724347Y150815D01*
X726522Y149145D01*
X729055Y148096D01*
X731774Y147738D01*
X734493Y148096D01*
X737026Y149145D01*
X739201Y150815D01*
X740871Y152990D01*
X741920Y155523D01*
X742278Y158242D01*
X741920Y160961D01*
X740871Y163494D01*
X739201Y165669D01*
X737026Y167339D01*
X734493Y168388D01*
X731774Y168746D01*
X729055Y168388D01*
X727805Y167870D01*
X726749Y168575D01*
Y195151D01*
X728536D01*
Y193976D01*
X738831D01*
X739584Y193976D01*
X740101Y192920D01*
Y188080D01*
X739584Y187024D01*
X728536D01*
Y178976D01*
X739584D01*
Y179372D01*
X740530Y180151D01*
X741620Y180368D01*
X742544Y180986D01*
X744964Y183406D01*
X744964Y183406D01*
X745300Y183908D01*
X746570Y183523D01*
Y177960D01*
X751840D01*
Y183000D01*
X754380D01*
Y177960D01*
X759151D01*
Y168404D01*
X759027Y168388D01*
X756494Y167339D01*
X754319Y165669D01*
X752649Y163494D01*
X751600Y160961D01*
X751242Y158242D01*
X751600Y155523D01*
X752649Y152990D01*
X754319Y150815D01*
X756494Y149145D01*
X759027Y148096D01*
X761746Y147738D01*
X764465Y148096D01*
X766998Y149145D01*
X769173Y150815D01*
X770843Y152990D01*
X771892Y155523D01*
X772250Y158242D01*
X771892Y160961D01*
X770843Y163494D01*
X769173Y165669D01*
X766998Y167339D01*
X764849Y168229D01*
Y195151D01*
X766636D01*
Y193976D01*
X777684D01*
Y195151D01*
X785686D01*
Y193976D01*
X796734D01*
Y201621D01*
X796734Y202024D01*
X797645Y202891D01*
X798920D01*
X801061Y200750D01*
Y186929D01*
X800532Y186278D01*
X799985Y185853D01*
X799934Y185849D01*
X796734D01*
Y187024D01*
X785686D01*
Y178976D01*
X796734D01*
Y180151D01*
X798800D01*
X803166Y175786D01*
X803166Y175786D01*
X804090Y175168D01*
X805180Y174951D01*
X869950D01*
X869950Y174951D01*
X871040Y175168D01*
X871964Y175786D01*
X893554Y197376D01*
X893554Y197376D01*
X894172Y198300D01*
X894389Y199390D01*
X894389Y199390D01*
Y207085D01*
X895659Y207938D01*
X896220Y207827D01*
X897400Y208062D01*
X897786Y208320D01*
X898720Y208625D01*
X899654Y208320D01*
X900040Y208062D01*
X901220Y207827D01*
X902400Y208062D01*
X902786Y208320D01*
X903720Y208625D01*
X904654Y208320D01*
X905040Y208062D01*
X906220Y207827D01*
X907400Y208062D01*
X907786Y208320D01*
X908720Y208625D01*
X909654Y208320D01*
X910040Y208062D01*
X911220Y207827D01*
X912400Y208062D01*
X912786Y208320D01*
X913720Y208625D01*
X914654Y208320D01*
X915040Y208062D01*
X916220Y207827D01*
X917400Y208062D01*
X917786Y208320D01*
X918720Y208625D01*
X919654Y208320D01*
X920040Y208062D01*
X921220Y207827D01*
X922101Y208002D01*
X923371Y207299D01*
Y206040D01*
X916316Y198984D01*
X915698Y198060D01*
X915481Y196970D01*
X915481Y196970D01*
Y190944D01*
X914306D01*
Y180026D01*
X914306Y179896D01*
X913992Y178756D01*
X886920D01*
X886920Y178756D01*
X885582Y178490D01*
X884448Y177732D01*
X884448Y177732D01*
X875396Y168680D01*
X873837Y169326D01*
X871220Y169671D01*
X868603Y169326D01*
X866165Y168316D01*
X864071Y166709D01*
X862464Y164615D01*
X861454Y162177D01*
X861109Y159560D01*
X861454Y156943D01*
X862464Y154505D01*
X864071Y152411D01*
X866165Y150804D01*
X868603Y149794D01*
X871220Y149450D01*
X873837Y149794D01*
X876275Y150804D01*
X878369Y152411D01*
X879976Y154505D01*
X880986Y156943D01*
X881330Y159560D01*
X880986Y162177D01*
X880340Y163736D01*
X888368Y171764D01*
X992502D01*
X1000530Y163736D01*
X999884Y162177D01*
X999539Y159560D01*
X999884Y156943D01*
X1000894Y154505D01*
X1002501Y152411D01*
X1004595Y150804D01*
X1007033Y149794D01*
X1008916Y149546D01*
X1008833Y148276D01*
X980467D01*
X980384Y149546D01*
X982267Y149794D01*
X984705Y150804D01*
X986799Y152411D01*
X988406Y154505D01*
X989416Y156943D01*
X989761Y159560D01*
X989416Y162177D01*
X988406Y164615D01*
X986799Y166709D01*
X984705Y168316D01*
X982267Y169326D01*
X979650Y169671D01*
X977033Y169326D01*
X974595Y168316D01*
X972501Y166709D01*
X970894Y164615D01*
X969884Y162177D01*
X969539Y159560D01*
X969884Y156943D01*
X970894Y154505D01*
X972501Y152411D01*
X974595Y150804D01*
X977033Y149794D01*
X978916Y149546D01*
X978833Y148276D01*
X917448D01*
X910340Y155384D01*
X910986Y156943D01*
X911330Y159560D01*
X910986Y162177D01*
X909976Y164615D01*
X908369Y166709D01*
X906275Y168316D01*
X903837Y169326D01*
X901220Y169671D01*
X898603Y169326D01*
X896165Y168316D01*
X894071Y166709D01*
X892464Y164615D01*
X891454Y162177D01*
X891109Y159560D01*
X891454Y156943D01*
X892464Y154505D01*
X894071Y152411D01*
X896165Y150804D01*
X898603Y149794D01*
X901220Y149450D01*
X903837Y149794D01*
X905396Y150440D01*
X913528Y142308D01*
X914662Y141550D01*
X916000Y141284D01*
X916000Y141284D01*
X1005786D01*
X1006039Y140014D01*
X1004082Y139203D01*
X1001776Y137434D01*
X1000007Y135128D01*
X998894Y132442D01*
X998682Y130830D01*
X1020618D01*
X1020406Y132442D01*
X1019293Y135128D01*
X1017524Y137434D01*
X1015218Y139203D01*
X1013261Y140014D01*
X1013514Y141284D01*
X1024870D01*
X1026208Y141550D01*
X1027342Y142308D01*
X1035474Y150440D01*
X1037033Y149794D01*
X1039650Y149450D01*
X1042267Y149794D01*
X1044705Y150804D01*
X1046799Y152411D01*
X1048406Y154505D01*
X1049416Y156943D01*
X1049761Y159560D01*
X1049416Y162177D01*
X1048406Y164615D01*
X1046799Y166709D01*
X1044705Y168316D01*
X1042267Y169326D01*
X1039816Y169649D01*
Y186129D01*
X1041030Y187060D01*
X1042089Y188440D01*
X1042754Y190046D01*
X1042981Y191770D01*
Y196850D01*
X1042754Y198574D01*
X1042089Y200180D01*
X1041030Y201560D01*
X1039650Y202619D01*
X1038044Y203284D01*
X1036320Y203511D01*
X1034596Y203284D01*
X1032990Y202619D01*
X1031610Y201560D01*
X1030551Y200180D01*
X1029886Y198574D01*
X1029659Y196850D01*
Y191770D01*
X1029886Y190046D01*
X1030551Y188440D01*
X1031610Y187060D01*
X1032824Y186129D01*
Y166957D01*
X1032501Y166709D01*
X1030894Y164615D01*
X1029884Y162177D01*
X1029539Y159560D01*
X1029884Y156943D01*
X1030530Y155384D01*
X1023422Y148276D01*
X1010467D01*
X1010384Y149546D01*
X1012267Y149794D01*
X1014705Y150804D01*
X1016799Y152411D01*
X1018406Y154505D01*
X1019416Y156943D01*
X1019761Y159560D01*
X1019416Y162177D01*
X1018406Y164615D01*
X1016799Y166709D01*
X1014705Y168316D01*
X1014416Y168436D01*
Y186129D01*
X1015630Y187060D01*
X1016689Y188440D01*
X1017354Y190046D01*
X1017581Y191770D01*
Y196850D01*
X1017354Y198574D01*
X1016689Y200180D01*
X1015630Y201560D01*
X1014250Y202619D01*
X1012644Y203284D01*
X1010920Y203511D01*
X1009196Y203284D01*
X1007589Y202619D01*
X1006210Y201560D01*
X1005151Y200180D01*
X1004486Y198574D01*
X1004259Y196850D01*
Y191770D01*
X1004486Y190046D01*
X1005151Y188440D01*
X1006210Y187060D01*
X1007424Y186129D01*
Y169377D01*
X1007033Y169326D01*
X1005474Y168680D01*
X996422Y177732D01*
X995288Y178490D01*
X993950Y178756D01*
X939589D01*
X938370Y178880D01*
X938370Y180026D01*
Y184150D01*
X933330D01*
X928290D01*
X928290Y178880D01*
X927071Y178756D01*
X922668D01*
X922354Y179896D01*
X922354Y180026D01*
Y190944D01*
X921179D01*
Y195790D01*
X928234Y202846D01*
X928234Y202846D01*
X928852Y203770D01*
X929069Y204860D01*
X929069Y204860D01*
Y207299D01*
X930339Y208002D01*
X931220Y207827D01*
X932400Y208062D01*
X933400Y208730D01*
X934069Y209730D01*
X934303Y210910D01*
Y217061D01*
X944436D01*
Y215566D01*
X955484D01*
Y217061D01*
X981600D01*
X982671Y215990D01*
Y202818D01*
X982189Y202619D01*
X980810Y201560D01*
X979751Y200180D01*
X979086Y198574D01*
X978859Y196850D01*
Y191770D01*
X979086Y190046D01*
X979751Y188440D01*
X980810Y187060D01*
X982189Y186001D01*
X983796Y185336D01*
X985520Y185109D01*
X987244Y185336D01*
X988850Y186001D01*
X990230Y187060D01*
X991289Y188440D01*
X991954Y190046D01*
X992181Y191770D01*
Y196850D01*
X991954Y198574D01*
X991289Y200180D01*
X990230Y201560D01*
X988850Y202619D01*
X988369Y202818D01*
Y217170D01*
X988369Y217170D01*
X988152Y218260D01*
X987534Y219184D01*
X987534Y219184D01*
X984794Y221924D01*
X983870Y222542D01*
X982780Y222759D01*
X982780Y222759D01*
X955484D01*
Y223614D01*
X944436D01*
Y222759D01*
X934303D01*
Y228910D01*
X934069Y230089D01*
Y234769D01*
X935339Y234895D01*
X935371Y234730D01*
X936040Y233730D01*
X937040Y233062D01*
X938220Y232827D01*
X956220D01*
X957399Y233061D01*
X964890D01*
X964890Y233061D01*
X965980Y233278D01*
X966904Y233896D01*
X987534Y254526D01*
X987534Y254526D01*
X988152Y255450D01*
X988369Y256540D01*
Y264542D01*
X988850Y264741D01*
X990230Y265800D01*
X991289Y267180D01*
X991954Y268786D01*
X992181Y270510D01*
Y275590D01*
X991954Y277314D01*
X991289Y278920D01*
X990230Y280300D01*
X988850Y281359D01*
X987244Y282024D01*
X985520Y282251D01*
X983796Y282024D01*
X982189Y281359D01*
X980810Y280300D01*
X980749Y280220D01*
X979479Y280651D01*
Y283300D01*
X990510Y294331D01*
X1036410D01*
X1055070Y275672D01*
X1055059Y275590D01*
Y270510D01*
X1055286Y268786D01*
X1055951Y267180D01*
X1057010Y265800D01*
X1058390Y264741D01*
X1059996Y264076D01*
X1061720Y263849D01*
X1063444Y264076D01*
X1065051Y264741D01*
X1066430Y265800D01*
X1067489Y267180D01*
X1068154Y268786D01*
X1068381Y270510D01*
Y273707D01*
X1069637Y274272D01*
X1070301Y273757D01*
Y234830D01*
X1070301Y234830D01*
X1070518Y233740D01*
X1071136Y232816D01*
X1080326Y223625D01*
Y218106D01*
X1091374D01*
Y226154D01*
X1085855D01*
X1075999Y236010D01*
Y275295D01*
X1075999Y275296D01*
X1075782Y276386D01*
X1075164Y277310D01*
X1075164Y277310D01*
X1050337Y302138D01*
X1050863Y303408D01*
X1064034D01*
X1136792Y230650D01*
X1136792Y230650D01*
X1136821Y230631D01*
X1143826Y223625D01*
Y218106D01*
X1154874D01*
Y226154D01*
X1149355D01*
X1140830Y234678D01*
X1140802Y234697D01*
X1128315Y247184D01*
X1128801Y248357D01*
X1163833D01*
X1164264Y247087D01*
X1163330Y246370D01*
X1161905Y244513D01*
X1161009Y242351D01*
X1160871Y241300D01*
X1178469D01*
X1178331Y242351D01*
X1177435Y244513D01*
X1176010Y246370D01*
X1175076Y247087D01*
X1175507Y248357D01*
X1182594D01*
X1207326Y223625D01*
Y218106D01*
X1218374D01*
Y226154D01*
X1212855D01*
X1187761Y251248D01*
X1188247Y252421D01*
X1231834D01*
X1232119Y251231D01*
X1229957Y250335D01*
X1228100Y248910D01*
X1226675Y247053D01*
X1225779Y244891D01*
X1225640Y243840D01*
X1243240D01*
X1243101Y244891D01*
X1242205Y247053D01*
X1240780Y248910D01*
X1238923Y250335D01*
X1236761Y251231D01*
X1237046Y252421D01*
X1240760D01*
X1269556Y223625D01*
Y218106D01*
X1280604D01*
Y226154D01*
X1275085D01*
X1245165Y256074D01*
X1245651Y257247D01*
X1295624D01*
X1332756Y220116D01*
X1333680Y219498D01*
X1334326Y219370D01*
Y218106D01*
X1345374D01*
Y226154D01*
X1334775D01*
X1300791Y260138D01*
X1301277Y261311D01*
X1372960D01*
X1396691Y237580D01*
Y226154D01*
X1394016D01*
Y218106D01*
X1405064D01*
Y226154D01*
X1402389D01*
Y238760D01*
X1402389Y238760D01*
X1402172Y239850D01*
X1401554Y240774D01*
X1401554Y240774D01*
X1376154Y266174D01*
X1375830Y266391D01*
X1376215Y267661D01*
X1403440D01*
X1423292Y247810D01*
X1422572Y246733D01*
X1420911Y247421D01*
X1419860Y247560D01*
Y240030D01*
X1427390D01*
X1427251Y241081D01*
X1426563Y242742D01*
X1427640Y243462D01*
X1450986Y220116D01*
X1450986Y220116D01*
X1451910Y219498D01*
X1452436Y219393D01*
Y218106D01*
X1463484D01*
Y226154D01*
X1453005D01*
X1407688Y271471D01*
X1408214Y272741D01*
X1466708D01*
X1493814Y245636D01*
X1494738Y245018D01*
X1495829Y244801D01*
X1495829Y244801D01*
X1503268D01*
X1503699Y243531D01*
X1503144Y243106D01*
X1501882Y241461D01*
X1501089Y239545D01*
X1500818Y237490D01*
X1501089Y235434D01*
X1501553Y234312D01*
X1493395Y226154D01*
X1487996D01*
Y218106D01*
X1499044D01*
Y223745D01*
X1504641Y229342D01*
X1505911Y228817D01*
Y222370D01*
X1505911Y222370D01*
X1506128Y221280D01*
X1506746Y220356D01*
X1518826Y208275D01*
Y202756D01*
X1524218D01*
X1524704Y201583D01*
X1521550Y198429D01*
X1471930D01*
X1471930Y198429D01*
X1470840Y198212D01*
X1469916Y197594D01*
X1469916Y197594D01*
X1447375Y175054D01*
X1447120Y175105D01*
X1446702Y176483D01*
X1459974Y189756D01*
X1459974Y189756D01*
X1460592Y190680D01*
X1460809Y191770D01*
X1460809Y191770D01*
Y203106D01*
X1463484D01*
Y204281D01*
X1470216D01*
Y203106D01*
X1481264D01*
Y204281D01*
X1487996D01*
Y203106D01*
X1499044D01*
Y204915D01*
X1499344Y205116D01*
X1499962Y206040D01*
X1500179Y207130D01*
X1499962Y208220D01*
X1499344Y209144D01*
X1499044Y209345D01*
Y211154D01*
X1487996D01*
Y209979D01*
X1481264D01*
Y211154D01*
X1470216D01*
Y209979D01*
X1463484D01*
Y211154D01*
X1452436D01*
Y203106D01*
X1455111D01*
Y192950D01*
X1444440Y182279D01*
X1443364Y182999D01*
X1444041Y184634D01*
X1444312Y186690D01*
X1444041Y188745D01*
X1443248Y190661D01*
X1443184Y190745D01*
X1448544Y196106D01*
X1448544Y196106D01*
X1449162Y197030D01*
X1449379Y198120D01*
Y217170D01*
X1449379Y217170D01*
X1449162Y218260D01*
X1448544Y219184D01*
X1443584Y224144D01*
X1442660Y224762D01*
X1441894Y224914D01*
Y226154D01*
X1430846D01*
Y218106D01*
X1441565D01*
X1443681Y215990D01*
Y199300D01*
X1438650Y194268D01*
X1438425Y194361D01*
X1436370Y194632D01*
X1434315Y194361D01*
X1432399Y193568D01*
X1430754Y192306D01*
X1429492Y190661D01*
X1428699Y188745D01*
X1428428Y186690D01*
X1428699Y184634D01*
X1429492Y182719D01*
X1430754Y181074D01*
X1431309Y180649D01*
X1430878Y179379D01*
X1390650D01*
X1390650Y179379D01*
X1389560Y179162D01*
X1388636Y178544D01*
X1388636Y178544D01*
X1356450Y146359D01*
X1303274D01*
X1303274Y146359D01*
X1302184Y146142D01*
X1301260Y145524D01*
X1301260Y145524D01*
X1293156Y137421D01*
X1290753Y138416D01*
X1288034Y138774D01*
X1285315Y138416D01*
X1282782Y137367D01*
X1280607Y135697D01*
X1278937Y133522D01*
X1277888Y130989D01*
X1277530Y128270D01*
X1277888Y125551D01*
X1278937Y123018D01*
X1280607Y120843D01*
X1282782Y119173D01*
X1285315Y118124D01*
X1288034Y117766D01*
X1290753Y118124D01*
X1293286Y119173D01*
X1295461Y120843D01*
X1297131Y123018D01*
X1298180Y125551D01*
X1298538Y128270D01*
X1298180Y130989D01*
X1297184Y133392D01*
X1304454Y140661D01*
X1314850D01*
X1315022Y139406D01*
X1312242Y138254D01*
X1309854Y136422D01*
X1308022Y134034D01*
X1306870Y131254D01*
X1306645Y129540D01*
X1329367D01*
X1329142Y131254D01*
X1327990Y134034D01*
X1326158Y136422D01*
X1323770Y138254D01*
X1320990Y139406D01*
X1321162Y140661D01*
X1357630D01*
X1357630Y140661D01*
X1358720Y140878D01*
X1359644Y141496D01*
X1383015Y164867D01*
X1384092Y164147D01*
X1383298Y162231D01*
X1382940Y159512D01*
X1383298Y156793D01*
X1384347Y154260D01*
X1386017Y152085D01*
X1388192Y150415D01*
X1390725Y149366D01*
X1393444Y149008D01*
X1396163Y149366D01*
X1398696Y150415D01*
X1400871Y152085D01*
X1402541Y154260D01*
X1403590Y156793D01*
X1403948Y159512D01*
X1403590Y162231D01*
X1402594Y164634D01*
X1406562Y168601D01*
X1416179D01*
X1416587Y167399D01*
X1415989Y166939D01*
X1414319Y164764D01*
X1413270Y162231D01*
X1412912Y159512D01*
X1413270Y156793D01*
X1414319Y154260D01*
X1415989Y152085D01*
X1416830Y151439D01*
X1416399Y150169D01*
X1411224D01*
X1410134Y149952D01*
X1409210Y149334D01*
X1409210Y149334D01*
X1398566Y138691D01*
X1396163Y139686D01*
X1393444Y140044D01*
X1390725Y139686D01*
X1388192Y138637D01*
X1386017Y136967D01*
X1384347Y134792D01*
X1383298Y132259D01*
X1382940Y129540D01*
X1383298Y126821D01*
X1384347Y124288D01*
X1386017Y122113D01*
X1388192Y120443D01*
X1390725Y119394D01*
X1393444Y119036D01*
X1396163Y119394D01*
X1398696Y120443D01*
X1400871Y122113D01*
X1402541Y124288D01*
X1403590Y126821D01*
X1403948Y129540D01*
X1403590Y132259D01*
X1402594Y134662D01*
X1412404Y144471D01*
X1446530D01*
X1446530Y144471D01*
X1447620Y144688D01*
X1448544Y145306D01*
X1480730Y177491D01*
X1543304D01*
X1543304Y177491D01*
X1544394Y177708D01*
X1545318Y178326D01*
X1556748Y189756D01*
X1556748Y189756D01*
X1557366Y190680D01*
X1557583Y191770D01*
X1557583Y191770D01*
Y307257D01*
X1557366Y308347D01*
X1556748Y309272D01*
X1556748Y309272D01*
X1539429Y326591D01*
Y331026D01*
X1540604D01*
Y342074D01*
X1539429D01*
Y351346D01*
X1540604D01*
Y362394D01*
X1539429D01*
Y372936D01*
X1540604D01*
Y383984D01*
X1532556D01*
Y372936D01*
X1533731D01*
Y362394D01*
X1532556D01*
Y351346D01*
X1533731D01*
Y342074D01*
X1532556D01*
Y331026D01*
X1533731D01*
Y325411D01*
X1533731Y325411D01*
X1533948Y324321D01*
X1534566Y323397D01*
X1536305Y321657D01*
X1535819Y320484D01*
X1532556D01*
Y309436D01*
X1533731D01*
Y298894D01*
X1532556D01*
Y287846D01*
X1533731D01*
Y278574D01*
X1532556D01*
Y267526D01*
X1538075D01*
X1547821Y257780D01*
Y201840D01*
X1538060Y192079D01*
X1524805D01*
X1524420Y193349D01*
X1524744Y193566D01*
X1533935Y202756D01*
X1541874D01*
Y213804D01*
X1540699D01*
Y221806D01*
X1541874D01*
Y232854D01*
X1540699D01*
Y242126D01*
X1541874D01*
Y253174D01*
X1533826D01*
Y242126D01*
X1535001D01*
Y232854D01*
X1533826D01*
Y221806D01*
X1535001D01*
Y213804D01*
X1533826D01*
Y210569D01*
X1533416Y210294D01*
X1533416Y210294D01*
X1528047Y204926D01*
X1526874Y205412D01*
Y213804D01*
X1521355D01*
X1511609Y223550D01*
Y230147D01*
X1512731Y230612D01*
X1514376Y231874D01*
X1515638Y233519D01*
X1516431Y235434D01*
X1516702Y237490D01*
X1516431Y239545D01*
X1515638Y241461D01*
X1514376Y243106D01*
X1513821Y243531D01*
X1514252Y244801D01*
X1518826D01*
Y242126D01*
X1526874D01*
Y253174D01*
X1518826D01*
Y250499D01*
X1497009D01*
X1469903Y277604D01*
X1468979Y278222D01*
X1467888Y278439D01*
X1467888Y278439D01*
X1467767D01*
X1467281Y279612D01*
X1487080Y299411D01*
X1501417D01*
X1501882Y298289D01*
X1503144Y296644D01*
X1504789Y295382D01*
X1506705Y294589D01*
X1508760Y294318D01*
X1510815Y294589D01*
X1512731Y295382D01*
X1514376Y296644D01*
X1515270Y297810D01*
X1516540Y297378D01*
Y294640D01*
X1520310D01*
Y299910D01*
X1517616D01*
X1516560Y301180D01*
X1516702Y302260D01*
X1516431Y304315D01*
X1515638Y306231D01*
X1514829Y307285D01*
X1515455Y308555D01*
X1518024D01*
X1518024Y308555D01*
X1519114Y308772D01*
X1520038Y309390D01*
X1520085Y309436D01*
X1525604D01*
Y320484D01*
X1517874D01*
X1516913Y321161D01*
X1516691Y321396D01*
X1516431Y323366D01*
X1515638Y325281D01*
X1514376Y326926D01*
X1512731Y328188D01*
X1510815Y328981D01*
X1508760Y329252D01*
X1506705Y328981D01*
X1504789Y328188D01*
X1503144Y326926D01*
X1501882Y325281D01*
X1501417Y324159D01*
X1456023D01*
X1456023Y324159D01*
X1454933Y323942D01*
X1454008Y323324D01*
X1423220Y292536D01*
X1422339Y292634D01*
X1421857Y293878D01*
X1503590Y375611D01*
X1517556D01*
Y372936D01*
X1525604D01*
Y383984D01*
X1517556D01*
Y381309D01*
X1502410D01*
X1501320Y381092D01*
X1500396Y380474D01*
X1500396Y380474D01*
X1416394Y296473D01*
X1150601D01*
X1150348Y297743D01*
X1150781Y297922D01*
X1152426Y299184D01*
X1153688Y300829D01*
X1154481Y302745D01*
X1154752Y304800D01*
X1154481Y306856D01*
X1153688Y308771D01*
X1152426Y310416D01*
X1150781Y311678D01*
X1150306Y311875D01*
Y336955D01*
X1152622Y337914D01*
X1155029Y339761D01*
X1156876Y342168D01*
X1158037Y344972D01*
X1158343Y347295D01*
X1158357Y347400D01*
X1159638D01*
X1159652Y347295D01*
X1159993Y344706D01*
X1161256Y341656D01*
X1163266Y339036D01*
X1165886Y337026D01*
X1168936Y335763D01*
X1170940Y335499D01*
Y347980D01*
Y360461D01*
X1168936Y360197D01*
X1165886Y358934D01*
X1163266Y356924D01*
X1161256Y354304D01*
X1159993Y351254D01*
X1159652Y348665D01*
X1159638Y348560D01*
X1158357D01*
X1158343Y348665D01*
X1158037Y350988D01*
X1156876Y353792D01*
X1155029Y356199D01*
X1152622Y358046D01*
X1149818Y359207D01*
X1146810Y359603D01*
X1143802Y359207D01*
X1140998Y358046D01*
X1138591Y356199D01*
X1136744Y353792D01*
X1135583Y350988D01*
X1135187Y347980D01*
X1135583Y344972D01*
X1136744Y342168D01*
X1138591Y339761D01*
X1140998Y337914D01*
X1143314Y336955D01*
Y311875D01*
X1142839Y311678D01*
X1141194Y310416D01*
X1139932Y308771D01*
X1139139Y306856D01*
X1138868Y304800D01*
X1139139Y302745D01*
X1139932Y300829D01*
X1141194Y299184D01*
X1142839Y297922D01*
X1143272Y297743D01*
X1143019Y296473D01*
X1136500D01*
X1066469Y366504D01*
X1065544Y367122D01*
X1064454Y367339D01*
X1064454Y367339D01*
X1030677D01*
X987880Y410135D01*
X988406Y411405D01*
X1636490Y411405D01*
X1636848Y410135D01*
X1634149Y408481D01*
X1630471Y405339D01*
X1627329Y401661D01*
X1624801Y397536D01*
X1622950Y393067D01*
X1621821Y388363D01*
X1621441Y383540D01*
X1621821Y378717D01*
X1622950Y374013D01*
X1624801Y369544D01*
X1627329Y365419D01*
X1630471Y361741D01*
X1634149Y358599D01*
X1638274Y356071D01*
X1642743Y354220D01*
X1647447Y353091D01*
X1652270Y352711D01*
X1657093Y353091D01*
X1661797Y354220D01*
X1666266Y356071D01*
X1666402Y356154D01*
X1667510Y355534D01*
Y92776D01*
X1666402Y92156D01*
X1666266Y92239D01*
X1661797Y94090D01*
X1657093Y95219D01*
X1652270Y95599D01*
X1647447Y95219D01*
X1642743Y94090D01*
X1638274Y92239D01*
X1634149Y89711D01*
X1630471Y86569D01*
X1627329Y82891D01*
X1624801Y78766D01*
X1622950Y74297D01*
X1621821Y69593D01*
X1621441Y64770D01*
X1621821Y59947D01*
X1622950Y55243D01*
X1624801Y50774D01*
X1627329Y46649D01*
X1630471Y42971D01*
X1634149Y39829D01*
X1636849Y38174D01*
X1636491Y36904D01*
X78009Y36904D01*
X77651Y38174D01*
X80351Y39829D01*
X84029Y42971D01*
X87171Y46649D01*
X89699Y50774D01*
X91550Y55243D01*
X92680Y59947D01*
X93059Y64770D01*
X92680Y69593D01*
X91550Y74297D01*
X89699Y78766D01*
X87171Y82891D01*
X84029Y86569D01*
X80351Y89711D01*
X76226Y92239D01*
X71757Y94090D01*
X67053Y95219D01*
X62230Y95599D01*
X57407Y95219D01*
X52703Y94090D01*
X49512Y92768D01*
X48457Y93476D01*
X49327Y354477D01*
X50384Y355180D01*
X52703Y354220D01*
X57407Y353091D01*
X62230Y352711D01*
X67053Y353091D01*
X71757Y354220D01*
X76226Y356071D01*
X80351Y358599D01*
X84029Y361741D01*
X87171Y365419D01*
X89699Y369544D01*
X91550Y374013D01*
X92680Y378717D01*
X93059Y383540D01*
X92680Y388363D01*
X91550Y393067D01*
X89699Y397536D01*
X87171Y401661D01*
X84029Y405339D01*
X80351Y408481D01*
X77964Y409944D01*
X78321Y411214D01*
X318460Y411405D01*
X905896Y411405D01*
D02*
G37*
G36*
X894822Y260189D02*
X896084Y258544D01*
X897729Y257282D01*
X899644Y256489D01*
X901700Y256218D01*
X903755Y256489D01*
X905671Y257282D01*
X905755Y257346D01*
X928371Y234730D01*
Y232521D01*
X927101Y231818D01*
X926220Y231993D01*
X925040Y231758D01*
X924040Y231090D01*
X923400D01*
X922400Y231758D01*
X921220Y231993D01*
X920040Y231758D01*
X919040Y231090D01*
X918400D01*
X917400Y231758D01*
X916220Y231993D01*
X915040Y231758D01*
X914040Y231090D01*
X913400D01*
X912400Y231758D01*
X911220Y231993D01*
X910040Y231758D01*
X909040Y231090D01*
X908400D01*
X907400Y231758D01*
X906220Y231993D01*
X905040Y231758D01*
X904040Y231090D01*
X903400D01*
X902400Y231758D01*
X901220Y231993D01*
X900040Y231758D01*
X899040Y231090D01*
X898400D01*
X897400Y231758D01*
X896220Y231993D01*
X895040Y231758D01*
X894040Y231090D01*
X893400D01*
X892400Y231758D01*
X891220Y231993D01*
X890040Y231758D01*
X889040Y231090D01*
X888400D01*
X887400Y231758D01*
X886220Y231993D01*
X885040Y231758D01*
X884040Y231090D01*
X883400D01*
X882400Y231758D01*
X881220Y231993D01*
X880040Y231758D01*
X879040Y231090D01*
X878400D01*
X877400Y231758D01*
X876220Y231993D01*
X875040Y231758D01*
X874040Y231090D01*
X873400D01*
X872400Y231758D01*
X871220Y231993D01*
X870040Y231758D01*
X869040Y231090D01*
X868400D01*
X867400Y231758D01*
X866220Y231993D01*
X865040Y231758D01*
X864040Y231090D01*
X863400D01*
X862400Y231758D01*
X861220Y231993D01*
X860040Y231758D01*
X859040Y231090D01*
X858400D01*
X857400Y231758D01*
X856220Y231993D01*
X855040Y231758D01*
X854040Y231090D01*
X853400D01*
X852400Y231758D01*
X851220Y231993D01*
X850040Y231758D01*
X849040Y231090D01*
X848400D01*
X847400Y231758D01*
X846220Y231993D01*
X845040Y231758D01*
X844040Y231090D01*
X843400D01*
X842400Y231758D01*
X841220Y231993D01*
X840040Y231758D01*
X839040Y231090D01*
X838400D01*
X837400Y231758D01*
X836220Y231993D01*
X835040Y231758D01*
X834040Y231090D01*
X833400D01*
X832400Y231758D01*
X831220Y231993D01*
X830040Y231758D01*
X829040Y231090D01*
X828400D01*
X827400Y231758D01*
X826220Y231993D01*
X826105Y231970D01*
X825072Y233051D01*
X825155Y233371D01*
X827457D01*
X827457Y233371D01*
X828548Y233588D01*
X829472Y234206D01*
X836404Y241138D01*
X836404Y241138D01*
X837022Y242062D01*
X837239Y243153D01*
X837239Y243153D01*
Y261311D01*
X894357D01*
X894822Y260189D01*
D02*
G37*
G36*
X983938Y377283D02*
X983452Y376110D01*
X981590D01*
Y370840D01*
X985360D01*
Y374202D01*
X986533Y374688D01*
X1019066Y342156D01*
X1019066Y342156D01*
X1019990Y341538D01*
X1021080Y341321D01*
X1021080Y341321D01*
X1054857D01*
X1056247Y339932D01*
X1055760Y338759D01*
X996427D01*
X996331Y338935D01*
X996097Y340029D01*
X997486Y341094D01*
X998748Y342739D01*
X999541Y344655D01*
X999812Y346710D01*
X999541Y348765D01*
X998748Y350681D01*
X997486Y352326D01*
X995841Y353588D01*
X993925Y354381D01*
X991870Y354652D01*
X989815Y354381D01*
X987899Y353588D01*
X986254Y352326D01*
X984992Y350681D01*
X984199Y348765D01*
X983928Y346710D01*
X984149Y345029D01*
X983361Y343759D01*
X965534D01*
X965007Y345029D01*
X967334Y347356D01*
X967334Y347356D01*
X967952Y348280D01*
X968169Y349370D01*
Y364046D01*
X969344D01*
Y375094D01*
X961296D01*
Y364046D01*
X962471D01*
Y350550D01*
X961337Y349416D01*
X960917Y349640D01*
X947220D01*
X934353D01*
X934414Y349334D01*
X935307Y347997D01*
X935771Y347688D01*
X935371Y347090D01*
X935137Y345910D01*
X935371Y344730D01*
X936040Y343730D01*
Y343090D01*
X935371Y342090D01*
X935137Y340910D01*
X935371Y339730D01*
X935630Y339344D01*
X935935Y338410D01*
X935630Y337476D01*
X935371Y337090D01*
X935137Y335910D01*
X935371Y334730D01*
X936040Y333730D01*
Y333090D01*
X935371Y332090D01*
X935137Y330910D01*
X935312Y330029D01*
X934609Y328759D01*
X925752D01*
X925088Y330361D01*
X923826Y332006D01*
X922181Y333268D01*
X920266Y334061D01*
X919766Y334127D01*
Y335408D01*
X920531Y335509D01*
X922693Y336405D01*
X924550Y337830D01*
X925975Y339687D01*
X926871Y341849D01*
X927010Y342900D01*
X909410D01*
X909549Y341849D01*
X910445Y339687D01*
X911870Y337830D01*
X913727Y336405D01*
X915889Y335509D01*
X916654Y335408D01*
Y334127D01*
X916154Y334061D01*
X914239Y333268D01*
X912594Y332006D01*
X911332Y330361D01*
X910539Y328446D01*
X910268Y326390D01*
X910539Y324334D01*
X911332Y322419D01*
X912594Y320774D01*
X914239Y319512D01*
X916154Y318719D01*
X918210Y318448D01*
X920266Y318719D01*
X922181Y319512D01*
X923826Y320774D01*
X925088Y322419D01*
X925354Y323061D01*
X929377D01*
X929902Y321791D01*
X922983Y314872D01*
X922181Y315488D01*
X920266Y316281D01*
X918210Y316552D01*
X916154Y316281D01*
X914239Y315488D01*
X912594Y314226D01*
X911332Y312581D01*
X910539Y310665D01*
X910268Y308610D01*
X910539Y306555D01*
X911332Y304639D01*
X912594Y302994D01*
X914239Y301732D01*
X916154Y300939D01*
X918210Y300668D01*
X920266Y300939D01*
X922181Y301732D01*
X923826Y302994D01*
X925088Y304639D01*
X925881Y306555D01*
X926152Y308610D01*
X925992Y309823D01*
X933540Y317371D01*
X934224Y317275D01*
X935144Y315945D01*
X935137Y315910D01*
X935371Y314730D01*
X935630Y314344D01*
X935935Y313410D01*
X935630Y312476D01*
X935371Y312090D01*
X935137Y310910D01*
X935371Y309730D01*
X936040Y308730D01*
Y308090D01*
X935371Y307090D01*
X935137Y305910D01*
X935371Y304730D01*
X935630Y304344D01*
X935935Y303410D01*
X935630Y302476D01*
X935371Y302090D01*
X935137Y300910D01*
X935371Y299730D01*
X935630Y299344D01*
X935935Y298410D01*
X935630Y297476D01*
X935371Y297090D01*
X935137Y295910D01*
X935371Y294730D01*
X935630Y294344D01*
X935935Y293410D01*
X935630Y292476D01*
X935371Y292090D01*
X935137Y290910D01*
X935371Y289730D01*
X935630Y289344D01*
X935935Y288410D01*
X935630Y287476D01*
X935371Y287090D01*
X935137Y285910D01*
X935371Y284730D01*
X936040Y283730D01*
Y283090D01*
X935371Y282090D01*
X935137Y280910D01*
X935371Y279730D01*
X935630Y279344D01*
X935935Y278410D01*
X935630Y277476D01*
X935371Y277090D01*
X935137Y275910D01*
X935371Y274730D01*
X936040Y273730D01*
Y273090D01*
X935371Y272090D01*
X935137Y270910D01*
X935371Y269730D01*
X935630Y269344D01*
X935935Y268410D01*
X935630Y267476D01*
X935371Y267090D01*
X935137Y265910D01*
X935371Y264730D01*
X935630Y264344D01*
X935935Y263410D01*
X935630Y262476D01*
X935371Y262090D01*
X935137Y260910D01*
X935371Y259730D01*
X936040Y258730D01*
Y258090D01*
X935371Y257090D01*
X935137Y255910D01*
X935371Y254730D01*
X935630Y254344D01*
X935935Y253410D01*
X935630Y252476D01*
X935371Y252090D01*
X935137Y250910D01*
X935371Y249730D01*
X936040Y248730D01*
Y248090D01*
X935371Y247090D01*
X935137Y245910D01*
X935371Y244730D01*
X936040Y243730D01*
Y243090D01*
X935371Y242090D01*
X935137Y240910D01*
X935371Y239730D01*
X935630Y239344D01*
X935935Y238410D01*
X935630Y237476D01*
X935371Y237090D01*
X935250Y236480D01*
X933955D01*
X933852Y237000D01*
X933234Y237924D01*
X933234Y237924D01*
X909278Y261880D01*
X909371Y262104D01*
X909642Y264160D01*
X909371Y266215D01*
X908578Y268131D01*
X907316Y269776D01*
X905671Y271038D01*
X903755Y271831D01*
X901700Y272102D01*
X899644Y271831D01*
X897729Y271038D01*
X896084Y269776D01*
X894822Y268131D01*
X894357Y267009D01*
X837239D01*
Y283050D01*
X837022Y284140D01*
X836404Y285064D01*
X836404Y285064D01*
X814069Y307400D01*
Y330910D01*
Y358077D01*
X814950Y358694D01*
Y371910D01*
X817490D01*
Y359044D01*
X817796Y359104D01*
X819133Y359997D01*
X819442Y360461D01*
X820040Y360061D01*
X821220Y359827D01*
X822400Y360061D01*
X823400Y360730D01*
X824040D01*
X825040Y360061D01*
X826220Y359827D01*
X827400Y360061D01*
X828400Y360730D01*
X829040D01*
X830040Y360061D01*
X831220Y359827D01*
X832400Y360061D01*
X833400Y360730D01*
X834040D01*
X835040Y360061D01*
X836220Y359827D01*
X837400Y360061D01*
X837998Y360461D01*
X838307Y359997D01*
X839644Y359104D01*
X839950Y359044D01*
Y371910D01*
X842490D01*
Y359044D01*
X842796Y359104D01*
X844133Y359997D01*
X844442Y360461D01*
X845040Y360061D01*
X846220Y359827D01*
X847400Y360061D01*
X848400Y360730D01*
X849040D01*
X850040Y360061D01*
X851220Y359827D01*
X852400Y360061D01*
X853400Y360730D01*
X854040D01*
X855040Y360061D01*
X856220Y359827D01*
X857400Y360061D01*
X858400Y360730D01*
X859040D01*
X860040Y360061D01*
X861220Y359827D01*
X862101Y360002D01*
X863371Y359299D01*
Y354086D01*
X862169Y353588D01*
X860524Y352326D01*
X859262Y350681D01*
X858469Y348765D01*
X858198Y346710D01*
X858469Y344655D01*
X859262Y342739D01*
X860524Y341094D01*
X862169Y339832D01*
X864084Y339039D01*
X866140Y338768D01*
X868195Y339039D01*
X870111Y339832D01*
X871756Y341094D01*
X873018Y342739D01*
X873811Y344655D01*
X874082Y346710D01*
X873811Y348765D01*
X873018Y350681D01*
X871756Y352326D01*
X870111Y353588D01*
X869069Y354020D01*
Y359299D01*
X870339Y360002D01*
X871220Y359827D01*
X872400Y360061D01*
X873400Y360730D01*
X874040D01*
X875040Y360061D01*
X876220Y359827D01*
X877400Y360061D01*
X878400Y360730D01*
X879040D01*
X880040Y360061D01*
X881220Y359827D01*
X882400Y360061D01*
X883400Y360730D01*
X884040D01*
X885040Y360061D01*
X886220Y359827D01*
X887400Y360061D01*
X888400Y360730D01*
X889040D01*
X890040Y360061D01*
X891220Y359827D01*
X892400Y360061D01*
X893400Y360730D01*
X894040D01*
X895040Y360061D01*
X896220Y359827D01*
X897400Y360061D01*
X898400Y360730D01*
X899040D01*
X900040Y360061D01*
X901220Y359827D01*
X902400Y360061D01*
X903400Y360730D01*
X904040D01*
X905040Y360061D01*
X906220Y359827D01*
X907400Y360061D01*
X908400Y360730D01*
X909040D01*
X909681Y360302D01*
X909841Y359101D01*
X909783Y358822D01*
X898416Y347454D01*
X897798Y346530D01*
X897581Y345440D01*
X897581Y345440D01*
Y333733D01*
X896459Y333268D01*
X894814Y332006D01*
X893552Y330361D01*
X892759Y328446D01*
X892488Y326390D01*
X892759Y324334D01*
X893552Y322419D01*
X894814Y320774D01*
X896459Y319512D01*
X898374Y318719D01*
X900430Y318448D01*
X902486Y318719D01*
X904401Y319512D01*
X906046Y320774D01*
X907308Y322419D01*
X908101Y324334D01*
X908372Y326390D01*
X908101Y328446D01*
X907308Y330361D01*
X906046Y332006D01*
X904401Y333268D01*
X903279Y333733D01*
Y344260D01*
X913040Y354021D01*
X915604D01*
X915889Y352831D01*
X913727Y351935D01*
X911870Y350510D01*
X910445Y348653D01*
X909549Y346491D01*
X909410Y345440D01*
X927010D01*
X926871Y346491D01*
X925975Y348653D01*
X924550Y350510D01*
X922693Y351935D01*
X920531Y352831D01*
X920816Y354021D01*
X926253D01*
X926253Y354021D01*
X927343Y354238D01*
X928267Y354856D01*
X933234Y359823D01*
X933234Y359823D01*
X933852Y360747D01*
X934038Y361685D01*
X934069Y361730D01*
X934303Y362910D01*
Y380910D01*
X934069Y382090D01*
X933400Y383090D01*
X932400Y383759D01*
X931220Y383993D01*
X930040Y383759D01*
X929040Y383090D01*
X928400D01*
X927400Y383759D01*
X926220Y383993D01*
X925526Y383855D01*
X924395Y384546D01*
X924306Y384655D01*
X925311Y385771D01*
X975450D01*
X983938Y377283D01*
D02*
G37*
G36*
X1551885Y196187D02*
Y192950D01*
X1542124Y183189D01*
X1479550D01*
X1479550Y183189D01*
X1478460Y182972D01*
X1477536Y182354D01*
X1477536Y182354D01*
X1445350Y150169D01*
X1430433D01*
X1430002Y151439D01*
X1430843Y152085D01*
X1432513Y154260D01*
X1433508Y156663D01*
X1447292D01*
X1447292Y156663D01*
X1448382Y156880D01*
X1449306Y157498D01*
X1478190Y186381D01*
X1539240D01*
X1539240Y186381D01*
X1540330Y186598D01*
X1541254Y187216D01*
X1550712Y196673D01*
X1551885Y196187D01*
D02*
G37*
G36*
X831541Y281870D02*
Y268607D01*
X830271Y268355D01*
X829838Y269401D01*
X828576Y271046D01*
X826931Y272308D01*
X825015Y273101D01*
X822960Y273372D01*
X820904Y273101D01*
X819782Y272637D01*
X811363Y281056D01*
Y287689D01*
X811146Y288779D01*
X810528Y289703D01*
X810528Y289703D01*
X807307Y292924D01*
X807284Y292940D01*
X806459Y293677D01*
X806960Y294568D01*
X807068Y294730D01*
X807303Y295910D01*
X807068Y297090D01*
X806400Y298090D01*
Y298730D01*
X807068Y299730D01*
X807303Y300910D01*
X807128Y301791D01*
X807831Y303061D01*
X810350D01*
X831541Y281870D01*
D02*
G37*
G36*
X1475320Y191461D02*
X1474996Y191244D01*
X1474996Y191244D01*
X1446112Y162361D01*
X1433508D01*
X1432513Y164764D01*
X1430843Y166939D01*
X1430245Y167399D01*
X1430653Y168601D01*
X1447800D01*
X1447800Y168601D01*
X1448890Y168818D01*
X1449814Y169436D01*
X1473110Y192731D01*
X1474935D01*
X1475320Y191461D01*
D02*
G37*
G36*
X1551885Y306077D02*
Y263433D01*
X1550712Y262947D01*
X1540604Y273055D01*
Y278574D01*
X1539429D01*
Y287846D01*
X1540604D01*
Y298894D01*
X1539429D01*
Y309436D01*
X1540604D01*
Y315699D01*
X1541777Y316185D01*
X1551885Y306077D01*
D02*
G37*
G36*
X1502691Y307285D02*
X1501882Y306231D01*
X1501417Y305109D01*
X1485900D01*
X1485900Y305109D01*
X1484810Y304892D01*
X1483886Y304274D01*
X1483886Y304274D01*
X1462876Y283265D01*
X1429413D01*
X1428927Y284438D01*
X1453044Y308555D01*
X1502065D01*
X1502691Y307285D01*
D02*
G37*
G36*
X769477Y320477D02*
X769528Y320220D01*
X770146Y319296D01*
X780546Y308896D01*
X780546Y308896D01*
X781470Y308278D01*
X782560Y308061D01*
X782713Y307878D01*
X783316Y306813D01*
X783137Y305910D01*
X783312Y305029D01*
X782609Y303759D01*
X772150D01*
X761649Y314259D01*
X761958Y315747D01*
X764002Y316594D01*
X766409Y318441D01*
X768139Y320695D01*
X768747Y320699D01*
X769477Y320477D01*
D02*
G37*
G36*
X815753Y268608D02*
X815289Y267486D01*
X815018Y265430D01*
X815289Y263375D01*
X816082Y261459D01*
X817344Y259814D01*
X818989Y258552D01*
X820904Y257759D01*
X822960Y257488D01*
X825015Y257759D01*
X826931Y258552D01*
X828576Y259814D01*
X829838Y261459D01*
X830271Y262505D01*
X831541Y262253D01*
Y251886D01*
X830271Y251455D01*
X829300Y252720D01*
X827443Y254145D01*
X825281Y255041D01*
X824230Y255180D01*
Y246380D01*
X821690D01*
Y255180D01*
X820639Y255041D01*
X818477Y254145D01*
X816620Y252720D01*
X815195Y250863D01*
X814299Y248701D01*
X814257Y248386D01*
X812971Y248343D01*
X812892Y248740D01*
X812274Y249664D01*
X812274Y249664D01*
X809014Y252924D01*
X808090Y253542D01*
X807836Y253592D01*
X807091Y254697D01*
X807118Y254980D01*
X807303Y255910D01*
X807068Y257090D01*
X806669Y257688D01*
X807133Y257997D01*
X808026Y259334D01*
X808086Y259640D01*
X795220D01*
Y262180D01*
X808086D01*
X808026Y262486D01*
X807133Y263823D01*
X806669Y264132D01*
X807068Y264730D01*
X807303Y265910D01*
X807068Y267090D01*
X806400Y268090D01*
Y268730D01*
X807068Y269730D01*
X807303Y270910D01*
X807068Y272090D01*
X806400Y273090D01*
Y273730D01*
X807068Y274730D01*
X807196Y275369D01*
X808512Y275850D01*
X815753Y268608D01*
D02*
G37*
%LPC*%
G36*
X1357630Y227170D02*
X1352360D01*
Y223400D01*
X1357630D01*
Y227170D01*
D02*
G37*
G36*
X1417320D02*
X1412050D01*
Y223400D01*
X1417320D01*
Y227170D01*
D02*
G37*
G36*
X1294130D02*
X1288860D01*
Y223400D01*
X1294130D01*
Y227170D01*
D02*
G37*
G36*
X1062990Y204369D02*
Y195580D01*
X1069406D01*
Y196850D01*
X1069144Y198839D01*
X1068376Y200693D01*
X1067155Y202285D01*
X1065563Y203506D01*
X1063709Y204274D01*
X1062990Y204369D01*
D02*
G37*
G36*
X1060450D02*
X1059731Y204274D01*
X1057877Y203506D01*
X1056285Y202285D01*
X1055064Y200693D01*
X1054296Y198839D01*
X1054034Y196850D01*
Y195580D01*
X1060450D01*
Y204369D01*
D02*
G37*
G36*
X1474470Y227170D02*
X1469200D01*
Y223400D01*
X1474470D01*
Y227170D01*
D02*
G37*
G36*
X1113980D02*
X1108710D01*
Y223400D01*
X1113980D01*
Y227170D01*
D02*
G37*
G36*
X1189990Y226249D02*
X1189514Y226154D01*
X1184466D01*
Y218106D01*
X1191255D01*
X1198571Y210790D01*
Y200570D01*
X1193168Y195166D01*
X1192046Y195631D01*
X1189990Y195902D01*
X1187934Y195631D01*
X1186019Y194838D01*
X1184374Y193576D01*
X1183112Y191931D01*
X1182319Y190016D01*
X1182048Y187960D01*
X1182319Y185905D01*
X1183112Y183989D01*
X1184374Y182344D01*
X1186019Y181082D01*
X1187934Y180289D01*
X1189990Y180018D01*
X1192046Y180289D01*
X1193961Y181082D01*
X1195606Y182344D01*
X1196868Y183989D01*
X1197661Y185905D01*
X1197932Y187960D01*
X1197661Y190016D01*
X1197197Y191138D01*
X1203434Y197376D01*
X1203434Y197376D01*
X1204052Y198300D01*
X1204269Y199390D01*
X1204269Y199390D01*
Y211970D01*
X1204269Y211970D01*
X1204052Y213060D01*
X1203434Y213984D01*
X1203434Y213984D01*
X1195514Y221905D01*
Y226154D01*
X1190466D01*
X1189990Y226249D01*
D02*
G37*
G36*
X675600Y198330D02*
X671830D01*
Y194310D01*
X675600D01*
Y198330D01*
D02*
G37*
G36*
X598170Y202050D02*
X592900D01*
Y198280D01*
X598170D01*
Y202050D01*
D02*
G37*
G36*
X572730Y207010D02*
X568960D01*
Y202990D01*
X572730D01*
Y207010D01*
D02*
G37*
G36*
X566420D02*
X562650D01*
Y202990D01*
X566420D01*
Y207010D01*
D02*
G37*
G36*
X1382204Y226154D02*
X1371156D01*
Y218106D01*
X1380605D01*
X1383991Y214720D01*
Y198030D01*
X1376770Y190809D01*
X1372593D01*
X1372128Y191931D01*
X1370866Y193576D01*
X1369221Y194838D01*
X1367305Y195631D01*
X1365250Y195902D01*
X1363194Y195631D01*
X1361279Y194838D01*
X1359634Y193576D01*
X1358372Y191931D01*
X1357579Y190016D01*
X1357308Y187960D01*
X1357579Y185905D01*
X1358372Y183989D01*
X1359634Y182344D01*
X1361279Y181082D01*
X1363194Y180289D01*
X1365250Y180018D01*
X1367305Y180289D01*
X1369221Y181082D01*
X1370866Y182344D01*
X1372128Y183989D01*
X1372593Y185111D01*
X1375763D01*
X1376249Y183938D01*
X1353402Y161091D01*
X1328098D01*
X1327103Y163494D01*
X1325433Y165669D01*
X1323258Y167339D01*
X1320725Y168388D01*
X1318006Y168746D01*
X1315287Y168388D01*
X1312754Y167339D01*
X1310579Y165669D01*
X1308909Y163494D01*
X1307860Y160961D01*
X1307502Y158242D01*
X1307860Y155523D01*
X1308909Y152990D01*
X1310579Y150815D01*
X1312754Y149145D01*
X1315287Y148096D01*
X1318006Y147738D01*
X1320725Y148096D01*
X1323258Y149145D01*
X1325433Y150815D01*
X1327103Y152990D01*
X1328098Y155393D01*
X1354582D01*
X1355672Y155610D01*
X1356596Y156228D01*
X1356800Y156532D01*
X1357104Y156736D01*
X1401554Y201186D01*
X1401554Y201186D01*
X1402172Y202110D01*
X1402370Y203106D01*
X1405064D01*
Y204281D01*
X1413066D01*
Y203106D01*
X1424114D01*
Y204281D01*
X1430846D01*
Y203106D01*
X1441894D01*
Y211154D01*
X1430846D01*
Y209979D01*
X1424114D01*
Y211154D01*
X1413066D01*
Y209979D01*
X1405064D01*
Y211154D01*
X1394016D01*
Y203106D01*
X1394016D01*
X1394426Y202115D01*
X1390862Y198551D01*
X1389689Y199037D01*
Y215900D01*
X1389689Y215900D01*
X1389472Y216990D01*
X1388854Y217914D01*
X1388854Y217914D01*
X1382624Y224144D01*
X1382204Y224425D01*
Y226154D01*
D02*
G37*
G36*
X1321244D02*
X1310196D01*
Y218106D01*
X1317105D01*
X1324301Y210910D01*
Y200570D01*
X1318898Y195166D01*
X1317776Y195631D01*
X1315720Y195902D01*
X1313665Y195631D01*
X1311749Y194838D01*
X1310104Y193576D01*
X1308842Y191931D01*
X1308049Y190016D01*
X1307778Y187960D01*
X1308049Y185905D01*
X1308842Y183989D01*
X1310104Y182344D01*
X1310659Y181919D01*
X1310228Y180649D01*
X1309370D01*
X1308280Y180432D01*
X1307356Y179814D01*
X1307356Y179814D01*
X1294188Y166647D01*
X1293286Y167339D01*
X1290753Y168388D01*
X1288034Y168746D01*
X1285315Y168388D01*
X1282782Y167339D01*
X1280607Y165669D01*
X1278937Y163494D01*
X1277888Y160961D01*
X1277530Y158242D01*
X1277888Y155523D01*
X1278937Y152990D01*
X1280607Y150815D01*
X1282782Y149145D01*
X1285315Y148096D01*
X1288034Y147738D01*
X1290753Y148096D01*
X1293286Y149145D01*
X1295461Y150815D01*
X1297131Y152990D01*
X1298180Y155523D01*
X1298538Y158242D01*
X1298180Y160961D01*
X1297705Y162107D01*
X1310550Y174951D01*
X1325880D01*
X1325880Y174951D01*
X1326970Y175168D01*
X1327894Y175786D01*
X1341864Y189756D01*
X1341864Y189756D01*
X1342482Y190680D01*
X1342699Y191770D01*
Y203106D01*
X1345374D01*
Y204281D01*
X1353376D01*
Y203106D01*
X1364424D01*
Y204281D01*
X1371156D01*
Y203106D01*
X1382204D01*
Y211154D01*
X1371156D01*
Y209979D01*
X1364424D01*
Y211154D01*
X1353376D01*
Y209979D01*
X1345374D01*
Y211154D01*
X1334326D01*
Y203106D01*
X1337001D01*
Y192950D01*
X1324700Y180649D01*
X1321212D01*
X1320781Y181919D01*
X1321336Y182344D01*
X1322598Y183989D01*
X1323391Y185905D01*
X1323662Y187960D01*
X1323391Y190016D01*
X1322926Y191138D01*
X1329164Y197376D01*
X1329164Y197376D01*
X1329782Y198300D01*
X1329999Y199390D01*
X1329999Y199390D01*
Y212090D01*
X1329999Y212090D01*
X1329782Y213180D01*
X1329164Y214104D01*
X1329164Y214104D01*
X1321244Y222025D01*
Y226154D01*
D02*
G37*
G36*
X956500Y203320D02*
X951230D01*
Y199550D01*
X956500D01*
Y203320D01*
D02*
G37*
G36*
X689610Y202050D02*
X684340D01*
Y198280D01*
X689610D01*
Y202050D01*
D02*
G37*
G36*
X605980D02*
X600710D01*
Y198280D01*
X605980D01*
Y202050D01*
D02*
G37*
G36*
X948690Y203320D02*
X943420D01*
Y199550D01*
X948690D01*
Y203320D01*
D02*
G37*
G36*
X697420Y202050D02*
X692150D01*
Y198280D01*
X697420D01*
Y202050D01*
D02*
G37*
G36*
X669290Y198330D02*
X665520D01*
Y194310D01*
X669290D01*
Y198330D01*
D02*
G37*
G36*
X1365440Y227170D02*
X1360170D01*
Y223400D01*
X1365440D01*
Y227170D01*
D02*
G37*
G36*
X1631014Y207454D02*
X1622966D01*
Y196406D01*
X1625291D01*
Y194033D01*
X1624169Y193568D01*
X1622524Y192306D01*
X1621262Y190661D01*
X1620469Y188745D01*
X1620198Y186690D01*
X1620469Y184634D01*
X1621262Y182719D01*
X1622524Y181074D01*
X1624169Y179812D01*
X1626084Y179019D01*
X1628140Y178748D01*
X1630195Y179019D01*
X1632111Y179812D01*
X1633756Y181074D01*
X1635018Y182719D01*
X1635811Y184634D01*
X1636082Y186690D01*
X1635811Y188745D01*
X1635018Y190661D01*
X1633756Y192306D01*
X1632111Y193568D01*
X1630989Y194033D01*
Y196406D01*
X1631014D01*
Y207454D01*
D02*
G37*
G36*
X1060450Y193040D02*
X1054034D01*
Y191770D01*
X1054296Y189781D01*
X1055064Y187927D01*
X1056285Y186335D01*
X1057877Y185114D01*
X1059731Y184346D01*
X1060450Y184251D01*
Y193040D01*
D02*
G37*
G36*
X1106170Y195902D02*
X1104115Y195631D01*
X1102199Y194838D01*
X1100554Y193576D01*
X1099292Y191931D01*
X1098499Y190016D01*
X1098228Y187960D01*
X1098499Y185905D01*
X1099292Y183989D01*
X1100554Y182344D01*
X1102199Y181082D01*
X1104115Y180289D01*
X1106170Y180018D01*
X1108225Y180289D01*
X1110141Y181082D01*
X1111786Y182344D01*
X1113048Y183989D01*
X1113841Y185905D01*
X1114112Y187960D01*
X1113841Y190016D01*
X1113048Y191931D01*
X1111786Y193576D01*
X1110141Y194838D01*
X1108225Y195631D01*
X1106170Y195902D01*
D02*
G37*
G36*
X714184Y207344D02*
X703136D01*
Y199296D01*
X705811D01*
Y178980D01*
X699860Y173029D01*
X639990D01*
X632047Y180972D01*
X632511Y182094D01*
X632782Y184150D01*
X632511Y186206D01*
X631718Y188121D01*
X630456Y189766D01*
X628811Y191028D01*
X626895Y191821D01*
X624840Y192092D01*
X622785Y191821D01*
X620869Y191028D01*
X619224Y189766D01*
X617962Y188121D01*
X617169Y186206D01*
X616898Y184150D01*
X617169Y182094D01*
X617962Y180179D01*
X619224Y178534D01*
X620869Y177272D01*
X622785Y176479D01*
X624840Y176208D01*
X626895Y176479D01*
X628018Y176943D01*
X636796Y168166D01*
X636796Y168166D01*
X637720Y167548D01*
X638810Y167331D01*
X646559D01*
X646967Y166129D01*
X646369Y165669D01*
X644699Y163494D01*
X643650Y160961D01*
X643292Y158242D01*
X643650Y155523D01*
X644645Y153120D01*
X636614Y145089D01*
X565568D01*
X557537Y153120D01*
X558532Y155523D01*
X558890Y158242D01*
X558532Y160961D01*
X557483Y163494D01*
X555813Y165669D01*
X553638Y167339D01*
X551105Y168388D01*
X548386Y168746D01*
X545667Y168388D01*
X543134Y167339D01*
X540959Y165669D01*
X539289Y163494D01*
X538240Y160961D01*
X537882Y158242D01*
X538240Y155523D01*
X539289Y152990D01*
X540959Y150815D01*
X543134Y149145D01*
X545667Y148096D01*
X548386Y147738D01*
X551105Y148096D01*
X553508Y149092D01*
X562374Y140226D01*
X562374Y140226D01*
X563298Y139608D01*
X564388Y139391D01*
X564388Y139391D01*
X617770D01*
X617887Y138121D01*
X615672Y136422D01*
X613840Y134034D01*
X612688Y131254D01*
X612463Y129540D01*
X635185D01*
X634960Y131254D01*
X633808Y134034D01*
X631976Y136422D01*
X629761Y138121D01*
X629878Y139391D01*
X637794D01*
X637794Y139391D01*
X638884Y139608D01*
X639808Y140226D01*
X648674Y149092D01*
X651077Y148096D01*
X653796Y147738D01*
X656515Y148096D01*
X659048Y149145D01*
X661223Y150815D01*
X662893Y152990D01*
X663942Y155523D01*
X664300Y158242D01*
X663942Y160961D01*
X662893Y163494D01*
X661223Y165669D01*
X660625Y166129D01*
X661033Y167331D01*
X680411D01*
Y153670D01*
X680411Y153670D01*
X680628Y152580D01*
X681246Y151656D01*
X691406Y141496D01*
X691406Y141496D01*
X692330Y140878D01*
X693420Y140661D01*
X728618D01*
X728790Y139406D01*
X726010Y138254D01*
X723622Y136422D01*
X721790Y134034D01*
X720638Y131254D01*
X720413Y129540D01*
X743135D01*
X742910Y131254D01*
X741758Y134034D01*
X739926Y136422D01*
X737538Y138254D01*
X734758Y139406D01*
X734930Y140661D01*
X758590D01*
X758762Y139406D01*
X755982Y138254D01*
X753594Y136422D01*
X751762Y134034D01*
X750610Y131254D01*
X750385Y129540D01*
X773107D01*
X772882Y131254D01*
X771730Y134034D01*
X769898Y136422D01*
X767510Y138254D01*
X764730Y139406D01*
X764902Y140661D01*
X787400D01*
X787400Y140661D01*
X788490Y140878D01*
X789414Y141496D01*
X793224Y145306D01*
X793842Y146230D01*
X794059Y147320D01*
X794059Y147320D01*
Y166370D01*
X793842Y167460D01*
X793224Y168384D01*
X793224Y168384D01*
X786874Y174734D01*
X785950Y175352D01*
X784860Y175569D01*
X784860Y175569D01*
X779690D01*
X777274Y177985D01*
X777684Y178976D01*
X777684D01*
Y187024D01*
X766636D01*
Y178976D01*
X769330D01*
X769528Y177980D01*
X770146Y177056D01*
X776496Y170706D01*
X776496Y170706D01*
X777420Y170088D01*
X778510Y169871D01*
X783680D01*
X788361Y165190D01*
Y148500D01*
X786220Y146359D01*
X694600D01*
X686109Y154850D01*
Y167331D01*
X701040D01*
X701040Y167331D01*
X702130Y167548D01*
X703054Y168166D01*
X710674Y175786D01*
X711292Y176710D01*
X711509Y177800D01*
X711509Y177800D01*
Y199296D01*
X714184D01*
Y207344D01*
D02*
G37*
G36*
X1085850Y195902D02*
X1083794Y195631D01*
X1081879Y194838D01*
X1080234Y193576D01*
X1078972Y191931D01*
X1078179Y190016D01*
X1077908Y187960D01*
X1078179Y185905D01*
X1078972Y183989D01*
X1080234Y182344D01*
X1081879Y181082D01*
X1082354Y180885D01*
Y177208D01*
X1043826Y138680D01*
X1042267Y139326D01*
X1039650Y139670D01*
X1037033Y139326D01*
X1034595Y138316D01*
X1032501Y136709D01*
X1030894Y134615D01*
X1029884Y132177D01*
X1029539Y129560D01*
X1029884Y126943D01*
X1030530Y125384D01*
X1024212Y119066D01*
X1016196D01*
X1015764Y120336D01*
X1017524Y121686D01*
X1019293Y123992D01*
X1020406Y126678D01*
X1020618Y128290D01*
X998682D01*
X998894Y126678D01*
X1000007Y123992D01*
X1001776Y121686D01*
X1003536Y120336D01*
X1003104Y119066D01*
X983828D01*
X983576Y120336D01*
X984705Y120804D01*
X986799Y122411D01*
X988406Y124505D01*
X989416Y126943D01*
X989761Y129560D01*
X989416Y132177D01*
X988406Y134615D01*
X986799Y136709D01*
X984705Y138316D01*
X982267Y139326D01*
X979650Y139670D01*
X977033Y139326D01*
X974595Y138316D01*
X972501Y136709D01*
X970894Y134615D01*
X969884Y132177D01*
X969539Y129560D01*
X969884Y126943D01*
X970894Y124505D01*
X972501Y122411D01*
X974595Y120804D01*
X975724Y120336D01*
X975472Y119066D01*
X923468D01*
X911081Y131453D01*
X910986Y132177D01*
X909976Y134615D01*
X908369Y136709D01*
X906275Y138316D01*
X903837Y139326D01*
X901220Y139670D01*
X898603Y139326D01*
X896165Y138316D01*
X894071Y136709D01*
X892464Y134615D01*
X891454Y132177D01*
X891109Y129560D01*
X891454Y126943D01*
X892464Y124505D01*
X894071Y122411D01*
X896165Y120804D01*
X898603Y119794D01*
X901220Y119450D01*
X903837Y119794D01*
X906275Y120804D01*
X908369Y122411D01*
X908593Y122702D01*
X909860Y122785D01*
X919548Y113098D01*
X919548Y113098D01*
X920682Y112340D01*
X922020Y112074D01*
X1025660D01*
X1026998Y112340D01*
X1028132Y113098D01*
X1035474Y120440D01*
X1037033Y119794D01*
X1039650Y119450D01*
X1042267Y119794D01*
X1044705Y120804D01*
X1046799Y122411D01*
X1048406Y124505D01*
X1049416Y126943D01*
X1049761Y129560D01*
X1049416Y132177D01*
X1048770Y133736D01*
X1088322Y173288D01*
X1089080Y174422D01*
X1089346Y175760D01*
Y180885D01*
X1089821Y181082D01*
X1091466Y182344D01*
X1092728Y183989D01*
X1093521Y185905D01*
X1093792Y187960D01*
X1093521Y190016D01*
X1092728Y191931D01*
X1091466Y193576D01*
X1089821Y194838D01*
X1087906Y195631D01*
X1085850Y195902D01*
D02*
G37*
G36*
X872490Y140528D02*
Y130830D01*
X882188D01*
X881976Y132442D01*
X880863Y135128D01*
X879094Y137434D01*
X876788Y139203D01*
X874102Y140316D01*
X872490Y140528D01*
D02*
G37*
G36*
X1425130Y227170D02*
X1419860D01*
Y223400D01*
X1425130D01*
Y227170D01*
D02*
G37*
G36*
X841220Y169671D02*
X838603Y169326D01*
X836165Y168316D01*
X834071Y166709D01*
X832464Y164615D01*
X831454Y162177D01*
X831109Y159560D01*
X831454Y156943D01*
X832464Y154505D01*
X834071Y152411D01*
X836165Y150804D01*
X838603Y149794D01*
X841220Y149450D01*
X843837Y149794D01*
X846275Y150804D01*
X848369Y152411D01*
X849976Y154505D01*
X850986Y156943D01*
X851330Y159560D01*
X850986Y162177D01*
X849976Y164615D01*
X848369Y166709D01*
X846275Y168316D01*
X843837Y169326D01*
X841220Y169671D01*
D02*
G37*
G36*
X1069406Y193040D02*
X1062990D01*
Y184251D01*
X1063709Y184346D01*
X1065563Y185114D01*
X1067155Y186335D01*
X1068376Y187927D01*
X1069144Y189781D01*
X1069406Y191770D01*
Y193040D01*
D02*
G37*
G36*
X1134554Y226154D02*
X1123506D01*
Y218106D01*
X1134225D01*
X1136341Y215990D01*
Y195303D01*
X1135219Y194838D01*
X1133574Y193576D01*
X1133149Y193021D01*
X1131879Y193452D01*
Y203106D01*
X1134554D01*
Y211154D01*
X1123506D01*
Y209979D01*
X1112964D01*
Y211154D01*
X1101916D01*
Y209979D01*
X1091374D01*
Y211154D01*
X1080326D01*
Y203106D01*
X1091374D01*
Y204281D01*
X1101916D01*
Y203106D01*
X1112964D01*
Y204281D01*
X1123506D01*
Y203106D01*
X1126181D01*
Y167620D01*
X1124413Y165852D01*
X1122207Y166766D01*
X1119590Y167111D01*
X1116973Y166766D01*
X1114535Y165756D01*
X1112441Y164149D01*
X1110834Y162055D01*
X1109824Y159617D01*
X1109480Y157000D01*
X1109824Y154383D01*
X1110834Y151945D01*
X1112441Y149851D01*
X1114535Y148244D01*
X1116973Y147234D01*
X1119590Y146889D01*
X1122207Y147234D01*
X1124645Y148244D01*
X1126739Y149851D01*
X1128346Y151945D01*
X1129356Y154383D01*
X1129700Y157000D01*
X1129356Y159617D01*
X1128442Y161823D01*
X1131044Y164426D01*
X1131044Y164426D01*
X1131662Y165350D01*
X1131879Y166440D01*
X1131879Y166440D01*
Y182467D01*
X1133149Y182899D01*
X1133574Y182344D01*
X1135219Y181082D01*
X1137134Y180289D01*
X1139190Y180018D01*
X1141245Y180289D01*
X1143161Y181082D01*
X1144806Y182344D01*
X1145231Y182899D01*
X1146501Y182467D01*
Y166570D01*
X1144535Y165756D01*
X1142441Y164149D01*
X1140834Y162055D01*
X1139824Y159617D01*
X1139480Y157000D01*
X1139824Y154383D01*
X1140834Y151945D01*
X1142441Y149851D01*
X1144535Y148244D01*
X1146973Y147234D01*
X1149590Y146889D01*
X1152207Y147234D01*
X1154645Y148244D01*
X1156739Y149851D01*
X1158346Y151945D01*
X1159356Y154383D01*
X1159700Y157000D01*
X1159356Y159617D01*
X1158346Y162055D01*
X1156739Y164149D01*
X1154645Y165756D01*
X1152207Y166766D01*
X1152199Y166767D01*
Y203106D01*
X1154874D01*
Y204281D01*
X1164146D01*
Y203106D01*
X1175194D01*
Y204281D01*
X1184466D01*
Y203106D01*
X1195514D01*
Y211154D01*
X1184466D01*
Y209979D01*
X1175194D01*
Y211154D01*
X1164146D01*
Y209979D01*
X1154874D01*
Y211154D01*
X1143826D01*
Y203106D01*
X1146501D01*
Y193452D01*
X1145231Y193021D01*
X1144806Y193576D01*
X1143161Y194838D01*
X1142039Y195303D01*
Y217170D01*
X1142039Y217170D01*
X1141822Y218260D01*
X1141204Y219184D01*
X1136244Y224144D01*
X1135320Y224762D01*
X1134554Y224914D01*
Y226154D01*
D02*
G37*
G36*
X675600Y191770D02*
X671830D01*
Y187750D01*
X675600D01*
Y191770D01*
D02*
G37*
G36*
X1176210Y227170D02*
X1170940D01*
Y223400D01*
X1176210D01*
Y227170D01*
D02*
G37*
G36*
X1631014Y246824D02*
X1622966D01*
Y240035D01*
X1614696Y231764D01*
X1614078Y230840D01*
X1613861Y229750D01*
X1613861Y229750D01*
Y196760D01*
X1610998Y193897D01*
X1609875Y194361D01*
X1607820Y194632D01*
X1605764Y194361D01*
X1603849Y193568D01*
X1602204Y192306D01*
X1600942Y190661D01*
X1600149Y188745D01*
X1599878Y186690D01*
X1600149Y184634D01*
X1600942Y182719D01*
X1602204Y181074D01*
X1603849Y179812D01*
X1605764Y179019D01*
X1607820Y178748D01*
X1609875Y179019D01*
X1611791Y179812D01*
X1613436Y181074D01*
X1614698Y182719D01*
X1615491Y184634D01*
X1615762Y186690D01*
X1615491Y188745D01*
X1615027Y189868D01*
X1618724Y193566D01*
X1618724Y193566D01*
X1619342Y194490D01*
X1619559Y195580D01*
X1619559Y195580D01*
Y228570D01*
X1626765Y235776D01*
X1631014D01*
Y240824D01*
X1631109Y241300D01*
X1631014Y241776D01*
Y246824D01*
D02*
G37*
G36*
X669290Y191770D02*
X665520D01*
Y187750D01*
X669290D01*
Y191770D01*
D02*
G37*
G36*
X932060Y191960D02*
X928290D01*
Y186690D01*
X932060D01*
Y191960D01*
D02*
G37*
G36*
X1301940Y227170D02*
X1296670D01*
Y223400D01*
X1301940D01*
Y227170D01*
D02*
G37*
G36*
X938370Y191960D02*
X934600D01*
Y186690D01*
X938370D01*
Y191960D01*
D02*
G37*
G36*
X1240980Y227170D02*
X1235710D01*
Y223400D01*
X1240980D01*
Y227170D01*
D02*
G37*
G36*
X598170Y208360D02*
X592900D01*
Y204590D01*
X598170D01*
Y208360D01*
D02*
G37*
G36*
X1417320Y220860D02*
X1412050D01*
Y217090D01*
X1417320D01*
Y220860D01*
D02*
G37*
G36*
X1365440D02*
X1360170D01*
Y217090D01*
X1365440D01*
Y220860D01*
D02*
G37*
G36*
X1474470D02*
X1469200D01*
Y217090D01*
X1474470D01*
Y220860D01*
D02*
G37*
G36*
X1425130D02*
X1419860D01*
Y217090D01*
X1425130D01*
Y220860D01*
D02*
G37*
G36*
X1357630D02*
X1352360D01*
Y217090D01*
X1357630D01*
Y220860D01*
D02*
G37*
G36*
X1240980D02*
X1235710D01*
Y217090D01*
X1240980D01*
Y220860D01*
D02*
G37*
G36*
X1233170D02*
X1227900D01*
Y217090D01*
X1233170D01*
Y220860D01*
D02*
G37*
G36*
X1301940D02*
X1296670D01*
Y217090D01*
X1301940D01*
Y220860D01*
D02*
G37*
G36*
X1294130D02*
X1288860D01*
Y217090D01*
X1294130D01*
Y220860D01*
D02*
G37*
G36*
X1482280D02*
X1477010D01*
Y217090D01*
X1482280D01*
Y220860D01*
D02*
G37*
G36*
X1521580Y226060D02*
X1517810D01*
Y220790D01*
X1521580D01*
Y226060D01*
D02*
G37*
G36*
X474154Y221314D02*
X463106D01*
Y220139D01*
X448754D01*
Y221314D01*
X437706D01*
Y220139D01*
X424624D01*
Y221314D01*
X413576D01*
Y213266D01*
X424624D01*
Y214441D01*
X437706D01*
Y213266D01*
X440381D01*
Y169652D01*
X440180Y169625D01*
X437338Y168448D01*
X434897Y166575D01*
X433024Y164134D01*
X431847Y161292D01*
X431445Y158242D01*
X431847Y155192D01*
X433024Y152350D01*
X434897Y149909D01*
X437338Y148036D01*
X440180Y146859D01*
X443230Y146457D01*
X446280Y146859D01*
X449122Y148036D01*
X451563Y149909D01*
X453436Y152350D01*
X454613Y155192D01*
X455015Y158242D01*
X454613Y161292D01*
X453436Y164134D01*
X451563Y166575D01*
X449122Y168448D01*
X446280Y169625D01*
X446079Y169652D01*
Y213266D01*
X448754D01*
Y214441D01*
X463106D01*
Y213266D01*
X474154D01*
Y221314D01*
D02*
G37*
G36*
X523684D02*
X512636D01*
Y221155D01*
X498284D01*
Y221314D01*
X487236D01*
Y213266D01*
X498284D01*
Y215457D01*
X512636D01*
Y213266D01*
X515565D01*
Y168334D01*
X513162Y167339D01*
X510987Y165669D01*
X509317Y163494D01*
X508268Y160961D01*
X507910Y158242D01*
X508268Y155523D01*
X509317Y152990D01*
X510987Y150815D01*
X513162Y149145D01*
X515695Y148096D01*
X518414Y147738D01*
X521133Y148096D01*
X523666Y149145D01*
X525841Y150815D01*
X527511Y152990D01*
X528560Y155523D01*
X528918Y158242D01*
X528560Y160961D01*
X527511Y163494D01*
X525841Y165669D01*
X523666Y167339D01*
X521263Y168334D01*
Y213266D01*
X523684D01*
Y221314D01*
D02*
G37*
G36*
X1527890Y226060D02*
X1524120D01*
Y220790D01*
X1527890D01*
Y226060D01*
D02*
G37*
G36*
X399224Y221314D02*
X388176D01*
Y218869D01*
X372554D01*
Y220044D01*
X361506D01*
Y218869D01*
X344614D01*
Y220044D01*
X333566D01*
Y211996D01*
X344614D01*
Y213171D01*
X361506D01*
Y211996D01*
X364181D01*
Y169652D01*
X363980Y169625D01*
X361138Y168448D01*
X358697Y166575D01*
X356824Y164134D01*
X355647Y161292D01*
X355245Y158242D01*
X355647Y155192D01*
X356824Y152350D01*
X358697Y149909D01*
X361138Y148036D01*
X363980Y146859D01*
X367030Y146457D01*
X370080Y146859D01*
X372922Y148036D01*
X375363Y149909D01*
X377236Y152350D01*
X378413Y155192D01*
X378815Y158242D01*
X378413Y161292D01*
X377236Y164134D01*
X375363Y166575D01*
X372922Y168448D01*
X370080Y169625D01*
X369879Y169652D01*
Y211996D01*
X372554D01*
Y213171D01*
X392430D01*
X392906Y213266D01*
X399224D01*
Y221314D01*
D02*
G37*
G36*
X166814Y220044D02*
X155766D01*
Y218869D01*
X143954D01*
Y220044D01*
X132906D01*
Y218869D01*
X121094D01*
Y220044D01*
X110046D01*
Y211996D01*
X121094D01*
Y213171D01*
X132906D01*
Y211996D01*
X135581D01*
Y169183D01*
X133808Y168448D01*
X131367Y166575D01*
X129494Y164134D01*
X128317Y161292D01*
X127915Y158242D01*
X128317Y155192D01*
X129494Y152350D01*
X131367Y149909D01*
X133808Y148036D01*
X136650Y146859D01*
X139700Y146457D01*
X142750Y146859D01*
X145592Y148036D01*
X148033Y149909D01*
X149906Y152350D01*
X151083Y155192D01*
X151485Y158242D01*
X151083Y161292D01*
X149906Y164134D01*
X148033Y166575D01*
X145592Y168448D01*
X142750Y169625D01*
X141279Y169819D01*
Y211996D01*
X143954D01*
Y213171D01*
X155766D01*
Y211996D01*
X166814D01*
Y220044D01*
D02*
G37*
G36*
X629094Y222344D02*
X618046D01*
Y221169D01*
X604964D01*
Y222344D01*
X593916D01*
Y214296D01*
X604964D01*
Y215471D01*
X609291D01*
Y169926D01*
X609291Y169926D01*
X609508Y168836D01*
X610126Y167912D01*
X614674Y163364D01*
X613678Y160961D01*
X613320Y158242D01*
X613678Y155523D01*
X614727Y152990D01*
X616397Y150815D01*
X618572Y149145D01*
X621105Y148096D01*
X623824Y147738D01*
X626543Y148096D01*
X629076Y149145D01*
X631251Y150815D01*
X632921Y152990D01*
X633970Y155523D01*
X634328Y158242D01*
X633970Y160961D01*
X632921Y163494D01*
X631251Y165669D01*
X629076Y167339D01*
X626543Y168388D01*
X623824Y168746D01*
X621105Y168388D01*
X618702Y167393D01*
X614989Y171106D01*
Y215471D01*
X618046D01*
Y214296D01*
X629094D01*
Y222344D01*
D02*
G37*
G36*
X319214Y220044D02*
X308166D01*
Y218869D01*
X296354D01*
Y220044D01*
X285306D01*
Y218869D01*
X272224D01*
Y220044D01*
X261176D01*
Y211996D01*
X272224D01*
Y213171D01*
X285306D01*
Y211996D01*
X287981D01*
Y169652D01*
X287780Y169625D01*
X284938Y168448D01*
X282497Y166575D01*
X280624Y164134D01*
X279447Y161292D01*
X279045Y158242D01*
X279447Y155192D01*
X280624Y152350D01*
X282497Y149909D01*
X284938Y148036D01*
X287780Y146859D01*
X290830Y146457D01*
X293880Y146859D01*
X296722Y148036D01*
X299163Y149909D01*
X301036Y152350D01*
X302213Y155192D01*
X302615Y158242D01*
X302213Y161292D01*
X301036Y164134D01*
X299163Y166575D01*
X296722Y168448D01*
X293880Y169625D01*
X293679Y169652D01*
Y211996D01*
X296354D01*
Y213171D01*
X308166D01*
Y211996D01*
X319214D01*
Y220044D01*
D02*
G37*
G36*
X240474D02*
X229426D01*
Y218869D01*
X221424D01*
Y220044D01*
X210376D01*
Y218869D01*
X198564D01*
Y220044D01*
X187516D01*
Y211996D01*
X198564D01*
Y213171D01*
X210376D01*
Y211996D01*
X213051D01*
Y169819D01*
X211580Y169625D01*
X208738Y168448D01*
X206297Y166575D01*
X204424Y164134D01*
X203247Y161292D01*
X202845Y158242D01*
X203247Y155192D01*
X204424Y152350D01*
X206297Y149909D01*
X208738Y148036D01*
X211580Y146859D01*
X214630Y146457D01*
X217680Y146859D01*
X220522Y148036D01*
X222963Y149909D01*
X224836Y152350D01*
X226013Y155192D01*
X226415Y158242D01*
X226013Y161292D01*
X224836Y164134D01*
X222963Y166575D01*
X220522Y168448D01*
X218749Y169183D01*
Y211996D01*
X221424D01*
Y213171D01*
X229426D01*
Y211996D01*
X240474D01*
Y220044D01*
D02*
G37*
G36*
X1176210Y220860D02*
X1170940D01*
Y217090D01*
X1176210D01*
Y220860D01*
D02*
G37*
G36*
X1233170Y227170D02*
X1227900D01*
Y223400D01*
X1233170D01*
Y227170D01*
D02*
G37*
G36*
X651954Y207344D02*
X640906D01*
Y206169D01*
X629094D01*
Y207344D01*
X618046D01*
Y199296D01*
X629094D01*
Y200471D01*
X640906D01*
Y199296D01*
X651954D01*
Y207344D01*
D02*
G37*
G36*
X572730Y213570D02*
X568960D01*
Y209550D01*
X572730D01*
Y213570D01*
D02*
G37*
G36*
X566420D02*
X562650D01*
Y209550D01*
X566420D01*
Y213570D01*
D02*
G37*
G36*
X956500Y209630D02*
X951230D01*
Y205860D01*
X956500D01*
Y209630D01*
D02*
G37*
G36*
X605980Y208360D02*
X600710D01*
Y204590D01*
X605980D01*
Y208360D01*
D02*
G37*
G36*
X689610D02*
X684340D01*
Y204590D01*
X689610D01*
Y208360D01*
D02*
G37*
G36*
X948690Y209630D02*
X943420D01*
Y205860D01*
X948690D01*
Y209630D01*
D02*
G37*
G36*
X697420Y208360D02*
X692150D01*
Y204590D01*
X697420D01*
Y208360D01*
D02*
G37*
G36*
X1259014Y226154D02*
X1247966D01*
Y218106D01*
X1253485D01*
X1259276Y212316D01*
X1258641Y211154D01*
X1257898Y211154D01*
X1247966D01*
Y209979D01*
X1239964D01*
Y211154D01*
X1228916D01*
Y209979D01*
X1218374D01*
Y211154D01*
X1207326D01*
Y203106D01*
X1210001D01*
Y191440D01*
X1184413Y165852D01*
X1182207Y166766D01*
X1179590Y167111D01*
X1176973Y166766D01*
X1174535Y165756D01*
X1172441Y164149D01*
X1170834Y162055D01*
X1169824Y159617D01*
X1169480Y157000D01*
X1169824Y154383D01*
X1170834Y151945D01*
X1172441Y149851D01*
X1174535Y148244D01*
X1176973Y147234D01*
X1179590Y146889D01*
X1182207Y147234D01*
X1184645Y148244D01*
X1186739Y149851D01*
X1188346Y151945D01*
X1189356Y154383D01*
X1189700Y157000D01*
X1189356Y159617D01*
X1188442Y161823D01*
X1214864Y188246D01*
X1214864Y188246D01*
X1215482Y189170D01*
X1215699Y190260D01*
X1215699Y190260D01*
Y203106D01*
X1218374D01*
Y204281D01*
X1228916D01*
Y203106D01*
X1239964D01*
Y204281D01*
X1247966D01*
Y203106D01*
X1259014D01*
Y209947D01*
X1259014Y210056D01*
X1260284Y210700D01*
X1260801Y210322D01*
Y199300D01*
X1256668Y195166D01*
X1255546Y195631D01*
X1253490Y195902D01*
X1251434Y195631D01*
X1249519Y194838D01*
X1247874Y193576D01*
X1246612Y191931D01*
X1245819Y190016D01*
X1245548Y187960D01*
X1245819Y185905D01*
X1246612Y183989D01*
X1247874Y182344D01*
X1249519Y181082D01*
X1251434Y180289D01*
X1253490Y180018D01*
X1255546Y180289D01*
X1257461Y181082D01*
X1259106Y182344D01*
X1260368Y183989D01*
X1261161Y185905D01*
X1261432Y187960D01*
X1261161Y190016D01*
X1260696Y191138D01*
X1265664Y196106D01*
X1265664Y196106D01*
X1266282Y197030D01*
X1266499Y198120D01*
Y211970D01*
X1266282Y213060D01*
X1265664Y213984D01*
X1265664Y213984D01*
X1259014Y220635D01*
Y226154D01*
D02*
G37*
G36*
X1106170Y220860D02*
X1100900D01*
Y217090D01*
X1106170D01*
Y220860D01*
D02*
G37*
G36*
X1632030Y220980D02*
X1628260D01*
Y215710D01*
X1632030D01*
Y220980D01*
D02*
G37*
G36*
X1168400Y220860D02*
X1163130D01*
Y217090D01*
X1168400D01*
Y220860D01*
D02*
G37*
G36*
X1113980D02*
X1108710D01*
Y217090D01*
X1113980D01*
Y220860D01*
D02*
G37*
G36*
X1106170Y227170D02*
X1100900D01*
Y223400D01*
X1106170D01*
Y227170D01*
D02*
G37*
G36*
X528440Y236409D02*
X528440Y236409D01*
X518160D01*
X517684Y236314D01*
X512636D01*
Y228266D01*
X523684D01*
Y230711D01*
X527260D01*
X528011Y229960D01*
Y220980D01*
X528011Y220980D01*
X528228Y219890D01*
X528846Y218966D01*
X531266Y216546D01*
X531266Y216546D01*
X532190Y215928D01*
X533280Y215711D01*
X533280Y215711D01*
X539306D01*
Y213266D01*
X550354D01*
Y221314D01*
X545306D01*
X544830Y221409D01*
X543560D01*
X543560Y221409D01*
X543560Y221409D01*
X534460D01*
X533709Y222160D01*
Y231140D01*
X533709Y231140D01*
X533492Y232230D01*
X532874Y233154D01*
X532874Y233154D01*
X530454Y235574D01*
X529530Y236192D01*
X528440Y236409D01*
D02*
G37*
G36*
X1321244Y211154D02*
X1310196D01*
Y209979D01*
X1300924D01*
Y211154D01*
X1289876D01*
Y209979D01*
X1280604D01*
Y211154D01*
X1269556D01*
Y203106D01*
X1272231D01*
Y191680D01*
X1256120Y175569D01*
X1225310D01*
X1225310Y175569D01*
X1224220Y175352D01*
X1223296Y174734D01*
X1214413Y165852D01*
X1212207Y166766D01*
X1209590Y167111D01*
X1206973Y166766D01*
X1204535Y165756D01*
X1202441Y164149D01*
X1200834Y162055D01*
X1199824Y159617D01*
X1199480Y157000D01*
X1199824Y154383D01*
X1200834Y151945D01*
X1202441Y149851D01*
X1204535Y148244D01*
X1206973Y147234D01*
X1209590Y146889D01*
X1212207Y147234D01*
X1214645Y148244D01*
X1216739Y149851D01*
X1218346Y151945D01*
X1219356Y154383D01*
X1219700Y157000D01*
X1219356Y159617D01*
X1218442Y161823D01*
X1226490Y169871D01*
X1257300D01*
X1257300Y169871D01*
X1258390Y170088D01*
X1259314Y170706D01*
X1277094Y188486D01*
X1277094Y188486D01*
X1277712Y189410D01*
X1277929Y190500D01*
Y203106D01*
X1280604D01*
Y204281D01*
X1289876D01*
Y203106D01*
X1300924D01*
Y204281D01*
X1310196D01*
Y203106D01*
X1321244D01*
Y211154D01*
D02*
G37*
G36*
X1625720Y220980D02*
X1621950D01*
Y215710D01*
X1625720D01*
Y220980D01*
D02*
G37*
G36*
X1168400Y227170D02*
X1163130D01*
Y223400D01*
X1168400D01*
Y227170D01*
D02*
G37*
G36*
X869950Y140528D02*
X868338Y140316D01*
X865652Y139203D01*
X863346Y137434D01*
X861577Y135128D01*
X860464Y132442D01*
X860252Y130830D01*
X869950D01*
Y140528D01*
D02*
G37*
G36*
X1573530Y127000D02*
X1562158D01*
X1562427Y124955D01*
X1563707Y121865D01*
X1565742Y119212D01*
X1568395Y117177D01*
X1571485Y115897D01*
X1573530Y115628D01*
Y127000D01*
D02*
G37*
G36*
X1511242D02*
X1499870D01*
Y115628D01*
X1501915Y115897D01*
X1505005Y117177D01*
X1507658Y119212D01*
X1509693Y121865D01*
X1510973Y124955D01*
X1511242Y127000D01*
D02*
G37*
G36*
X1587442D02*
X1576070D01*
Y115628D01*
X1578115Y115897D01*
X1581205Y117177D01*
X1583858Y119212D01*
X1585893Y121865D01*
X1587173Y124955D01*
X1587442Y127000D01*
D02*
G37*
G36*
X1130558Y125730D02*
X1120860D01*
Y116032D01*
X1122472Y116244D01*
X1125158Y117357D01*
X1127464Y119126D01*
X1129233Y121432D01*
X1130346Y124118D01*
X1130558Y125730D01*
D02*
G37*
G36*
X1118320D02*
X1108622D01*
X1108834Y124118D01*
X1109947Y121432D01*
X1111716Y119126D01*
X1114022Y117357D01*
X1116708Y116244D01*
X1118320Y116032D01*
Y125730D01*
D02*
G37*
G36*
X379672Y127000D02*
X368300D01*
Y115628D01*
X370345Y115897D01*
X373435Y117177D01*
X376088Y119212D01*
X378123Y121865D01*
X379403Y124955D01*
X379672Y127000D01*
D02*
G37*
G36*
X365760D02*
X354388D01*
X354657Y124955D01*
X355937Y121865D01*
X357972Y119212D01*
X360625Y117177D01*
X363715Y115897D01*
X365760Y115628D01*
Y127000D01*
D02*
G37*
G36*
X441960D02*
X430588D01*
X430857Y124955D01*
X432137Y121865D01*
X434172Y119212D01*
X436825Y117177D01*
X439915Y115897D01*
X441960Y115628D01*
Y127000D01*
D02*
G37*
G36*
X1497330D02*
X1485958D01*
X1486227Y124955D01*
X1487507Y121865D01*
X1489542Y119212D01*
X1492195Y117177D01*
X1495285Y115897D01*
X1497330Y115628D01*
Y127000D01*
D02*
G37*
G36*
X455872D02*
X444500D01*
Y115628D01*
X446545Y115897D01*
X449635Y117177D01*
X452288Y119212D01*
X454323Y121865D01*
X455603Y124955D01*
X455872Y127000D01*
D02*
G37*
G36*
X1148320Y125730D02*
X1138622D01*
X1138834Y124118D01*
X1139947Y121432D01*
X1141716Y119126D01*
X1144022Y117357D01*
X1146708Y116244D01*
X1148320Y116032D01*
Y125730D01*
D02*
G37*
G36*
X529775Y127000D02*
X519684D01*
Y116909D01*
X521398Y117134D01*
X524178Y118286D01*
X526566Y120118D01*
X528398Y122506D01*
X529550Y125286D01*
X529775Y127000D01*
D02*
G37*
G36*
X517144D02*
X507053D01*
X507278Y125286D01*
X508430Y122506D01*
X510262Y120118D01*
X512650Y118286D01*
X515430Y117134D01*
X517144Y116909D01*
Y127000D01*
D02*
G37*
G36*
X547116D02*
X537025D01*
X537250Y125286D01*
X538402Y122506D01*
X540234Y120118D01*
X542622Y118286D01*
X545402Y117134D01*
X547116Y116909D01*
Y127000D01*
D02*
G37*
G36*
X622554D02*
X612463D01*
X612688Y125286D01*
X613840Y122506D01*
X615672Y120118D01*
X618060Y118286D01*
X620840Y117134D01*
X622554Y116909D01*
Y127000D01*
D02*
G37*
G36*
X559747D02*
X549656D01*
Y116909D01*
X551370Y117134D01*
X554150Y118286D01*
X556538Y120118D01*
X558370Y122506D01*
X559522Y125286D01*
X559747Y127000D01*
D02*
G37*
G36*
X1178320Y125730D02*
X1168622D01*
X1168834Y124118D01*
X1169947Y121432D01*
X1171716Y119126D01*
X1174022Y117357D01*
X1176708Y116244D01*
X1178320Y116032D01*
Y125730D01*
D02*
G37*
G36*
X1160558D02*
X1150860D01*
Y116032D01*
X1152472Y116244D01*
X1155158Y117357D01*
X1157464Y119126D01*
X1159233Y121432D01*
X1160346Y124118D01*
X1160558Y125730D01*
D02*
G37*
G36*
X1190558D02*
X1180860D01*
Y116032D01*
X1182472Y116244D01*
X1185158Y117357D01*
X1187464Y119126D01*
X1189233Y121432D01*
X1190346Y124118D01*
X1190558Y125730D01*
D02*
G37*
G36*
X1220558D02*
X1210860D01*
Y116032D01*
X1212472Y116244D01*
X1215158Y117357D01*
X1217464Y119126D01*
X1219233Y121432D01*
X1220346Y124118D01*
X1220558Y125730D01*
D02*
G37*
G36*
X1208320D02*
X1198622D01*
X1198834Y124118D01*
X1199947Y121432D01*
X1201716Y119126D01*
X1204022Y117357D01*
X1206708Y116244D01*
X1208320Y116032D01*
Y125730D01*
D02*
G37*
G36*
X303472Y127000D02*
X292100D01*
Y115628D01*
X294145Y115897D01*
X297235Y117177D01*
X299888Y119212D01*
X301923Y121865D01*
X303203Y124955D01*
X303472Y127000D01*
D02*
G37*
G36*
X1408430Y107034D02*
X1404397Y106636D01*
X1400519Y105460D01*
X1396944Y103549D01*
X1393812Y100978D01*
X1391241Y97846D01*
X1389330Y94271D01*
X1388154Y90393D01*
X1387757Y86360D01*
X1388154Y82327D01*
X1389330Y78449D01*
X1391241Y74874D01*
X1393812Y71742D01*
X1396944Y69171D01*
X1400519Y67260D01*
X1404397Y66084D01*
X1408430Y65686D01*
X1412463Y66084D01*
X1416341Y67260D01*
X1419916Y69171D01*
X1423048Y71742D01*
X1425619Y74874D01*
X1427530Y78449D01*
X1428706Y82327D01*
X1429104Y86360D01*
X1428706Y90393D01*
X1427530Y94271D01*
X1425619Y97846D01*
X1423048Y100978D01*
X1419916Y103549D01*
X1416341Y105460D01*
X1412463Y106636D01*
X1408430Y107034D01*
D02*
G37*
G36*
X1187990Y102916D02*
X1184261Y102549D01*
X1180675Y101461D01*
X1177370Y99694D01*
X1174473Y97317D01*
X1172096Y94420D01*
X1170329Y91115D01*
X1169241Y87529D01*
X1168874Y83800D01*
X1169241Y80071D01*
X1170329Y76485D01*
X1172096Y73180D01*
X1174473Y70283D01*
X1177370Y67906D01*
X1180675Y66139D01*
X1184261Y65051D01*
X1187990Y64684D01*
X1191719Y65051D01*
X1195305Y66139D01*
X1198610Y67906D01*
X1201507Y70283D01*
X1203884Y73180D01*
X1205651Y76485D01*
X1206739Y80071D01*
X1207106Y83800D01*
X1206739Y87529D01*
X1205651Y91115D01*
X1203884Y94420D01*
X1201507Y97317D01*
X1198610Y99694D01*
X1195305Y101461D01*
X1191719Y102549D01*
X1187990Y102916D01*
D02*
G37*
G36*
X139700Y104487D02*
X135916Y104115D01*
X132277Y103011D01*
X128923Y101218D01*
X125984Y98806D01*
X123572Y95867D01*
X121779Y92513D01*
X120675Y88874D01*
X120303Y85090D01*
X120675Y81306D01*
X121779Y77667D01*
X123572Y74313D01*
X125984Y71374D01*
X128923Y68962D01*
X132277Y67169D01*
X135916Y66065D01*
X139700Y65693D01*
X143484Y66065D01*
X147123Y67169D01*
X150477Y68962D01*
X153416Y71374D01*
X155828Y74313D01*
X157621Y77667D01*
X158725Y81306D01*
X159097Y85090D01*
X158725Y88874D01*
X157621Y92513D01*
X155828Y95867D01*
X153416Y98806D01*
X150477Y101218D01*
X147123Y103011D01*
X143484Y104115D01*
X139700Y104487D01*
D02*
G37*
G36*
X290830D02*
X287046Y104115D01*
X283407Y103011D01*
X280053Y101218D01*
X277114Y98806D01*
X274702Y95867D01*
X272909Y92513D01*
X271805Y88874D01*
X271433Y85090D01*
X271805Y81306D01*
X272909Y77667D01*
X274702Y74313D01*
X277114Y71374D01*
X280053Y68962D01*
X283407Y67169D01*
X287046Y66065D01*
X290830Y65693D01*
X294614Y66065D01*
X298253Y67169D01*
X301607Y68962D01*
X304546Y71374D01*
X306958Y74313D01*
X308751Y77667D01*
X309855Y81306D01*
X310227Y85090D01*
X309855Y88874D01*
X308751Y92513D01*
X306958Y95867D01*
X304546Y98806D01*
X301607Y101218D01*
X298253Y103011D01*
X294614Y104115D01*
X290830Y104487D01*
D02*
G37*
G36*
X214630D02*
X210846Y104115D01*
X207207Y103011D01*
X203853Y101218D01*
X200914Y98806D01*
X198502Y95867D01*
X196709Y92513D01*
X195605Y88874D01*
X195233Y85090D01*
X195605Y81306D01*
X196709Y77667D01*
X198502Y74313D01*
X200914Y71374D01*
X203853Y68962D01*
X207207Y67169D01*
X210846Y66065D01*
X214630Y65693D01*
X218414Y66065D01*
X222053Y67169D01*
X225407Y68962D01*
X228346Y71374D01*
X230758Y74313D01*
X232551Y77667D01*
X233655Y81306D01*
X234027Y85090D01*
X233655Y88874D01*
X232551Y92513D01*
X230758Y95867D01*
X228346Y98806D01*
X225407Y101218D01*
X222053Y103011D01*
X218414Y104115D01*
X214630Y104487D01*
D02*
G37*
G36*
X638810Y105764D02*
X634777Y105366D01*
X630899Y104190D01*
X627324Y102279D01*
X624192Y99708D01*
X621621Y96576D01*
X619710Y93001D01*
X618534Y89123D01*
X618136Y85090D01*
X618534Y81057D01*
X619710Y77179D01*
X621621Y73604D01*
X624192Y70472D01*
X627324Y67901D01*
X630899Y65990D01*
X634777Y64814D01*
X638810Y64416D01*
X642843Y64814D01*
X646721Y65990D01*
X650296Y67901D01*
X653428Y70472D01*
X655999Y73604D01*
X657910Y77179D01*
X659086Y81057D01*
X659483Y85090D01*
X659086Y89123D01*
X657910Y93001D01*
X655999Y96576D01*
X653428Y99708D01*
X650296Y102279D01*
X646721Y104190D01*
X642843Y105366D01*
X638810Y105764D01*
D02*
G37*
G36*
X533400D02*
X529367Y105366D01*
X525489Y104190D01*
X521914Y102279D01*
X518782Y99708D01*
X516211Y96576D01*
X514300Y93001D01*
X513124Y89123D01*
X512727Y85090D01*
X513124Y81057D01*
X514300Y77179D01*
X516211Y73604D01*
X518782Y70472D01*
X521914Y67901D01*
X525489Y65990D01*
X529367Y64814D01*
X533400Y64416D01*
X537433Y64814D01*
X541311Y65990D01*
X544886Y67901D01*
X548018Y70472D01*
X550589Y73604D01*
X552500Y77179D01*
X553676Y81057D01*
X554073Y85090D01*
X553676Y89123D01*
X552500Y93001D01*
X550589Y96576D01*
X548018Y99708D01*
X544886Y102279D01*
X541311Y104190D01*
X537433Y105366D01*
X533400Y105764D01*
D02*
G37*
G36*
X746760D02*
X742727Y105366D01*
X738849Y104190D01*
X735274Y102279D01*
X732142Y99708D01*
X729571Y96576D01*
X727660Y93001D01*
X726484Y89123D01*
X726087Y85090D01*
X726484Y81057D01*
X727660Y77179D01*
X729571Y73604D01*
X732142Y70472D01*
X735274Y67901D01*
X738849Y65990D01*
X742727Y64814D01*
X746760Y64416D01*
X750793Y64814D01*
X754671Y65990D01*
X758246Y67901D01*
X761378Y70472D01*
X763949Y73604D01*
X765860Y77179D01*
X767036Y81057D01*
X767433Y85090D01*
X767036Y89123D01*
X765860Y93001D01*
X763949Y96576D01*
X761378Y99708D01*
X758246Y102279D01*
X754671Y104190D01*
X750793Y105366D01*
X746760Y105764D01*
D02*
G37*
G36*
X1141190Y102916D02*
X1137461Y102549D01*
X1133875Y101461D01*
X1130570Y99694D01*
X1127673Y97317D01*
X1125296Y94420D01*
X1123529Y91115D01*
X1122441Y87529D01*
X1122074Y83800D01*
X1122441Y80071D01*
X1123529Y76485D01*
X1125296Y73180D01*
X1127673Y70283D01*
X1130570Y67906D01*
X1133875Y66139D01*
X1137461Y65051D01*
X1141190Y64684D01*
X1144919Y65051D01*
X1148505Y66139D01*
X1151810Y67906D01*
X1154707Y70283D01*
X1157084Y73180D01*
X1158851Y76485D01*
X1159939Y80071D01*
X1160306Y83800D01*
X1159939Y87529D01*
X1158851Y91115D01*
X1157084Y94420D01*
X1154707Y97317D01*
X1151810Y99694D01*
X1148505Y101461D01*
X1144919Y102549D01*
X1141190Y102916D01*
D02*
G37*
G36*
X1303020Y105764D02*
X1298987Y105366D01*
X1295109Y104190D01*
X1291534Y102279D01*
X1288402Y99708D01*
X1285831Y96576D01*
X1283920Y93001D01*
X1282744Y89123D01*
X1282346Y85090D01*
X1282744Y81057D01*
X1283920Y77179D01*
X1285831Y73604D01*
X1288402Y70472D01*
X1291534Y67901D01*
X1295109Y65990D01*
X1298987Y64814D01*
X1303020Y64416D01*
X1307053Y64814D01*
X1310931Y65990D01*
X1314506Y67901D01*
X1317638Y70472D01*
X1320209Y73604D01*
X1322120Y77179D01*
X1323296Y81057D01*
X1323694Y85090D01*
X1323296Y89123D01*
X1322120Y93001D01*
X1320209Y96576D01*
X1317638Y99708D01*
X1314506Y102279D01*
X1310931Y104190D01*
X1307053Y105366D01*
X1303020Y105764D01*
D02*
G37*
G36*
X367030Y104487D02*
X363246Y104115D01*
X359607Y103011D01*
X356253Y101218D01*
X353314Y98806D01*
X350902Y95867D01*
X349109Y92513D01*
X348005Y88874D01*
X347633Y85090D01*
X348005Y81306D01*
X349109Y77667D01*
X350902Y74313D01*
X353314Y71374D01*
X356253Y68962D01*
X359607Y67169D01*
X363246Y66065D01*
X367030Y65693D01*
X370814Y66065D01*
X374453Y67169D01*
X377807Y68962D01*
X380746Y71374D01*
X383158Y74313D01*
X384951Y77667D01*
X386055Y81306D01*
X386427Y85090D01*
X386055Y88874D01*
X384951Y92513D01*
X383158Y95867D01*
X380746Y98806D01*
X377807Y101218D01*
X374453Y103011D01*
X370814Y104115D01*
X367030Y104487D01*
D02*
G37*
G36*
X152342Y127000D02*
X140970D01*
Y115628D01*
X143015Y115897D01*
X146105Y117177D01*
X148758Y119212D01*
X150793Y121865D01*
X152073Y124955D01*
X152342Y127000D01*
D02*
G37*
G36*
X138430D02*
X127058D01*
X127327Y124955D01*
X128607Y121865D01*
X130642Y119212D01*
X133295Y117177D01*
X136385Y115897D01*
X138430Y115628D01*
Y127000D01*
D02*
G37*
G36*
X213360D02*
X201988D01*
X202257Y124955D01*
X203537Y121865D01*
X205572Y119212D01*
X208225Y117177D01*
X211315Y115897D01*
X213360Y115628D01*
Y127000D01*
D02*
G37*
G36*
X289560D02*
X278188D01*
X278457Y124955D01*
X279737Y121865D01*
X281772Y119212D01*
X284425Y117177D01*
X287515Y115897D01*
X289560Y115628D01*
Y127000D01*
D02*
G37*
G36*
X227272D02*
X215900D01*
Y115628D01*
X217945Y115897D01*
X221035Y117177D01*
X223688Y119212D01*
X225723Y121865D01*
X227003Y124955D01*
X227272Y127000D01*
D02*
G37*
G36*
X1498600Y104487D02*
X1494816Y104115D01*
X1491177Y103011D01*
X1487823Y101218D01*
X1484884Y98806D01*
X1482472Y95867D01*
X1480679Y92513D01*
X1479575Y88874D01*
X1479203Y85090D01*
X1479575Y81306D01*
X1480679Y77667D01*
X1482472Y74313D01*
X1484884Y71374D01*
X1487823Y68962D01*
X1491177Y67169D01*
X1494816Y66065D01*
X1498600Y65693D01*
X1502384Y66065D01*
X1506023Y67169D01*
X1509377Y68962D01*
X1512316Y71374D01*
X1514728Y74313D01*
X1516521Y77667D01*
X1517625Y81306D01*
X1517997Y85090D01*
X1517625Y88874D01*
X1516521Y92513D01*
X1514728Y95867D01*
X1512316Y98806D01*
X1509377Y101218D01*
X1506023Y103011D01*
X1502384Y104115D01*
X1498600Y104487D01*
D02*
G37*
G36*
X443230D02*
X439446Y104115D01*
X435807Y103011D01*
X432453Y101218D01*
X429514Y98806D01*
X427102Y95867D01*
X425309Y92513D01*
X424205Y88874D01*
X423833Y85090D01*
X424205Y81306D01*
X425309Y77667D01*
X427102Y74313D01*
X429514Y71374D01*
X432453Y68962D01*
X435807Y67169D01*
X439446Y66065D01*
X443230Y65693D01*
X447014Y66065D01*
X450653Y67169D01*
X454007Y68962D01*
X456946Y71374D01*
X459358Y74313D01*
X461151Y77667D01*
X462255Y81306D01*
X462627Y85090D01*
X462255Y88874D01*
X461151Y92513D01*
X459358Y95867D01*
X456946Y98806D01*
X454007Y101218D01*
X450653Y103011D01*
X447014Y104115D01*
X443230Y104487D01*
D02*
G37*
G36*
X1574800D02*
X1571016Y104115D01*
X1567377Y103011D01*
X1564023Y101218D01*
X1561084Y98806D01*
X1558672Y95867D01*
X1556879Y92513D01*
X1555775Y88874D01*
X1555403Y85090D01*
X1555775Y81306D01*
X1556879Y77667D01*
X1558672Y74313D01*
X1561084Y71374D01*
X1564023Y68962D01*
X1567377Y67169D01*
X1571016Y66065D01*
X1574800Y65693D01*
X1578584Y66065D01*
X1582223Y67169D01*
X1585577Y68962D01*
X1588516Y71374D01*
X1590928Y74313D01*
X1592721Y77667D01*
X1593825Y81306D01*
X1594197Y85090D01*
X1593825Y88874D01*
X1592721Y92513D01*
X1590928Y95867D01*
X1588516Y98806D01*
X1585577Y101218D01*
X1582223Y103011D01*
X1578584Y104115D01*
X1574800Y104487D01*
D02*
G37*
G36*
X1009650Y105476D02*
X1005921Y105109D01*
X1002335Y104021D01*
X999030Y102254D01*
X996133Y99877D01*
X993756Y96980D01*
X991989Y93675D01*
X990901Y90089D01*
X990534Y86360D01*
X990901Y82631D01*
X991989Y79045D01*
X993756Y75740D01*
X996133Y72843D01*
X999030Y70466D01*
X1002335Y68699D01*
X1005921Y67611D01*
X1009650Y67244D01*
X1013379Y67611D01*
X1016965Y68699D01*
X1020270Y70466D01*
X1023167Y72843D01*
X1025544Y75740D01*
X1027311Y79045D01*
X1028399Y82631D01*
X1028766Y86360D01*
X1028399Y90089D01*
X1027311Y93675D01*
X1025544Y96980D01*
X1023167Y99877D01*
X1020270Y102254D01*
X1016965Y104021D01*
X1013379Y105109D01*
X1009650Y105476D01*
D02*
G37*
G36*
X871220D02*
X867491Y105109D01*
X863905Y104021D01*
X860600Y102254D01*
X857703Y99877D01*
X855326Y96980D01*
X853559Y93675D01*
X852471Y90089D01*
X852104Y86360D01*
X852471Y82631D01*
X853559Y79045D01*
X855326Y75740D01*
X857703Y72843D01*
X860600Y70466D01*
X863905Y68699D01*
X867491Y67611D01*
X871220Y67244D01*
X874949Y67611D01*
X878535Y68699D01*
X881840Y70466D01*
X884737Y72843D01*
X887114Y75740D01*
X888881Y79045D01*
X889969Y82631D01*
X890336Y86360D01*
X889969Y90089D01*
X888881Y93675D01*
X887114Y96980D01*
X884737Y99877D01*
X881840Y102254D01*
X878535Y104021D01*
X874949Y105109D01*
X871220Y105476D01*
D02*
G37*
G36*
X635185Y127000D02*
X625094D01*
Y116909D01*
X626808Y117134D01*
X629588Y118286D01*
X631976Y120118D01*
X633808Y122506D01*
X634960Y125286D01*
X635185Y127000D01*
D02*
G37*
G36*
X368300Y140912D02*
Y129540D01*
X379672D01*
X379403Y131585D01*
X378123Y134675D01*
X376088Y137328D01*
X373435Y139363D01*
X370345Y140643D01*
X368300Y140912D01*
D02*
G37*
G36*
X365760D02*
X363715Y140643D01*
X360625Y139363D01*
X357972Y137328D01*
X355937Y134675D01*
X354657Y131585D01*
X354388Y129540D01*
X365760D01*
Y140912D01*
D02*
G37*
G36*
X441960D02*
X439915Y140643D01*
X436825Y139363D01*
X434172Y137328D01*
X432137Y134675D01*
X430857Y131585D01*
X430588Y129540D01*
X441960D01*
Y140912D01*
D02*
G37*
G36*
X517144Y139631D02*
X515430Y139406D01*
X512650Y138254D01*
X510262Y136422D01*
X508430Y134034D01*
X507278Y131254D01*
X507053Y129540D01*
X517144D01*
Y139631D01*
D02*
G37*
G36*
X444500Y140912D02*
Y129540D01*
X455872D01*
X455603Y131585D01*
X454323Y134675D01*
X452288Y137328D01*
X449635Y139363D01*
X446545Y140643D01*
X444500Y140912D01*
D02*
G37*
G36*
X213360D02*
X211315Y140643D01*
X208225Y139363D01*
X205572Y137328D01*
X203537Y134675D01*
X202257Y131585D01*
X201988Y129540D01*
X213360D01*
Y140912D01*
D02*
G37*
G36*
X140970D02*
Y129540D01*
X152342D01*
X152073Y131585D01*
X150793Y134675D01*
X148758Y137328D01*
X146105Y139363D01*
X143015Y140643D01*
X140970Y140912D01*
D02*
G37*
G36*
X215900D02*
Y129540D01*
X227272D01*
X227003Y131585D01*
X225723Y134675D01*
X223688Y137328D01*
X221035Y139363D01*
X217945Y140643D01*
X215900Y140912D01*
D02*
G37*
G36*
X292100D02*
Y129540D01*
X303472D01*
X303203Y131585D01*
X301923Y134675D01*
X299888Y137328D01*
X297235Y139363D01*
X294145Y140643D01*
X292100Y140912D01*
D02*
G37*
G36*
X289560D02*
X287515Y140643D01*
X284425Y139363D01*
X281772Y137328D01*
X279737Y134675D01*
X278457Y131585D01*
X278188Y129540D01*
X289560D01*
Y140912D01*
D02*
G37*
G36*
X519684Y139631D02*
Y129540D01*
X529775D01*
X529550Y131254D01*
X528398Y134034D01*
X526566Y136422D01*
X524178Y138254D01*
X521398Y139406D01*
X519684Y139631D01*
D02*
G37*
G36*
X1573530Y140912D02*
X1571485Y140643D01*
X1568395Y139363D01*
X1565742Y137328D01*
X1563707Y134675D01*
X1562427Y131585D01*
X1562158Y129540D01*
X1573530D01*
Y140912D01*
D02*
G37*
G36*
X1499870D02*
Y129540D01*
X1511242D01*
X1510973Y131585D01*
X1509693Y134675D01*
X1507658Y137328D01*
X1505005Y139363D01*
X1501915Y140643D01*
X1499870Y140912D01*
D02*
G37*
G36*
X1576070D02*
Y129540D01*
X1587442D01*
X1587173Y131585D01*
X1585893Y134675D01*
X1583858Y137328D01*
X1581205Y139363D01*
X1578115Y140643D01*
X1576070Y140912D01*
D02*
G37*
G36*
X1424686Y140901D02*
Y130810D01*
X1434777D01*
X1434552Y132524D01*
X1433400Y135304D01*
X1431568Y137692D01*
X1429180Y139524D01*
X1426400Y140676D01*
X1424686Y140901D01*
D02*
G37*
G36*
X1422146D02*
X1420432Y140676D01*
X1417652Y139524D01*
X1415264Y137692D01*
X1413432Y135304D01*
X1412280Y132524D01*
X1412055Y130810D01*
X1422146D01*
Y140901D01*
D02*
G37*
G36*
X549656Y139631D02*
Y129540D01*
X559747D01*
X559522Y131254D01*
X558370Y134034D01*
X556538Y136422D01*
X554150Y138254D01*
X551370Y139406D01*
X549656Y139631D01*
D02*
G37*
G36*
X547116D02*
X545402Y139406D01*
X542622Y138254D01*
X540234Y136422D01*
X538402Y134034D01*
X537250Y131254D01*
X537025Y129540D01*
X547116D01*
Y139631D01*
D02*
G37*
G36*
X652526D02*
X650812Y139406D01*
X648032Y138254D01*
X645644Y136422D01*
X643812Y134034D01*
X642660Y131254D01*
X642435Y129540D01*
X652526D01*
Y139631D01*
D02*
G37*
G36*
X1497330Y140912D02*
X1495285Y140643D01*
X1492195Y139363D01*
X1489542Y137328D01*
X1487507Y134675D01*
X1486227Y131585D01*
X1485958Y129540D01*
X1497330D01*
Y140912D01*
D02*
G37*
G36*
X655066Y139631D02*
Y129540D01*
X665157D01*
X664932Y131254D01*
X663780Y134034D01*
X661948Y136422D01*
X659560Y138254D01*
X656780Y139406D01*
X655066Y139631D01*
D02*
G37*
G36*
X138430Y140912D02*
X136385Y140643D01*
X133295Y139363D01*
X130642Y137328D01*
X128607Y134675D01*
X127327Y131585D01*
X127058Y129540D01*
X138430D01*
Y140912D01*
D02*
G37*
G36*
X1316736Y127000D02*
X1306645D01*
X1306870Y125286D01*
X1308022Y122506D01*
X1309854Y120118D01*
X1312242Y118286D01*
X1315022Y117134D01*
X1316736Y116909D01*
Y127000D01*
D02*
G37*
G36*
X773107D02*
X763016D01*
Y116909D01*
X764730Y117134D01*
X767510Y118286D01*
X769898Y120118D01*
X771730Y122506D01*
X772882Y125286D01*
X773107Y127000D01*
D02*
G37*
G36*
X1329367D02*
X1319276D01*
Y116909D01*
X1320990Y117134D01*
X1323770Y118286D01*
X1326158Y120118D01*
X1327990Y122506D01*
X1329142Y125286D01*
X1329367Y127000D01*
D02*
G37*
G36*
X1434777Y128270D02*
X1424686D01*
Y118179D01*
X1426400Y118404D01*
X1429180Y119556D01*
X1431568Y121388D01*
X1433400Y123776D01*
X1434552Y126556D01*
X1434777Y128270D01*
D02*
G37*
G36*
X1422146D02*
X1412055D01*
X1412280Y126556D01*
X1413432Y123776D01*
X1415264Y121388D01*
X1417652Y119556D01*
X1420432Y118404D01*
X1422146Y118179D01*
Y128270D01*
D02*
G37*
G36*
X665157Y127000D02*
X655066D01*
Y116909D01*
X656780Y117134D01*
X659560Y118286D01*
X661948Y120118D01*
X663780Y122506D01*
X664932Y125286D01*
X665157Y127000D01*
D02*
G37*
G36*
X652526D02*
X642435D01*
X642660Y125286D01*
X643812Y122506D01*
X645644Y120118D01*
X648032Y118286D01*
X650812Y117134D01*
X652526Y116909D01*
Y127000D01*
D02*
G37*
G36*
X730504D02*
X720413D01*
X720638Y125286D01*
X721790Y122506D01*
X723622Y120118D01*
X726010Y118286D01*
X728790Y117134D01*
X730504Y116909D01*
Y127000D01*
D02*
G37*
G36*
X760476D02*
X750385D01*
X750610Y125286D01*
X751762Y122506D01*
X753594Y120118D01*
X755982Y118286D01*
X758762Y117134D01*
X760476Y116909D01*
Y127000D01*
D02*
G37*
G36*
X743135D02*
X733044D01*
Y116909D01*
X734758Y117134D01*
X737538Y118286D01*
X739926Y120118D01*
X741758Y122506D01*
X742910Y125286D01*
X743135Y127000D01*
D02*
G37*
G36*
X869950Y128290D02*
X860252D01*
X860464Y126678D01*
X861577Y123992D01*
X863346Y121686D01*
X865652Y119917D01*
X868338Y118804D01*
X869950Y118592D01*
Y128290D01*
D02*
G37*
G36*
X1178320Y137968D02*
X1176708Y137756D01*
X1174022Y136643D01*
X1171716Y134874D01*
X1169947Y132568D01*
X1168834Y129882D01*
X1168622Y128270D01*
X1178320D01*
Y137968D01*
D02*
G37*
G36*
X1150860D02*
Y128270D01*
X1160558D01*
X1160346Y129882D01*
X1159233Y132568D01*
X1157464Y134874D01*
X1155158Y136643D01*
X1152472Y137756D01*
X1150860Y137968D01*
D02*
G37*
G36*
X1180860D02*
Y128270D01*
X1190558D01*
X1190346Y129882D01*
X1189233Y132568D01*
X1187464Y134874D01*
X1185158Y136643D01*
X1182472Y137756D01*
X1180860Y137968D01*
D02*
G37*
G36*
X1210860D02*
Y128270D01*
X1220558D01*
X1220346Y129882D01*
X1219233Y132568D01*
X1217464Y134874D01*
X1215158Y136643D01*
X1212472Y137756D01*
X1210860Y137968D01*
D02*
G37*
G36*
X1208320D02*
X1206708Y137756D01*
X1204022Y136643D01*
X1201716Y134874D01*
X1199947Y132568D01*
X1198834Y129882D01*
X1198622Y128270D01*
X1208320D01*
Y137968D01*
D02*
G37*
G36*
X841220Y139670D02*
X838603Y139326D01*
X836165Y138316D01*
X834071Y136709D01*
X832464Y134615D01*
X831454Y132177D01*
X831109Y129560D01*
X831454Y126943D01*
X832464Y124505D01*
X834071Y122411D01*
X836165Y120804D01*
X838603Y119794D01*
X841220Y119450D01*
X843837Y119794D01*
X846275Y120804D01*
X848369Y122411D01*
X849976Y124505D01*
X850986Y126943D01*
X851330Y129560D01*
X850986Y132177D01*
X849976Y134615D01*
X848369Y136709D01*
X846275Y138316D01*
X843837Y139326D01*
X841220Y139670D01*
D02*
G37*
G36*
X882188Y128290D02*
X872490D01*
Y118592D01*
X874102Y118804D01*
X876788Y119917D01*
X879094Y121686D01*
X880863Y123992D01*
X881976Y126678D01*
X882188Y128290D01*
D02*
G37*
G36*
X1118320Y137968D02*
X1116708Y137756D01*
X1114022Y136643D01*
X1111716Y134874D01*
X1109947Y132568D01*
X1108834Y129882D01*
X1108622Y128270D01*
X1118320D01*
Y137968D01*
D02*
G37*
G36*
X1148320D02*
X1146708Y137756D01*
X1144022Y136643D01*
X1141716Y134874D01*
X1139947Y132568D01*
X1138834Y129882D01*
X1138622Y128270D01*
X1148320D01*
Y137968D01*
D02*
G37*
G36*
X1120860D02*
Y128270D01*
X1130558D01*
X1130346Y129882D01*
X1129233Y132568D01*
X1127464Y134874D01*
X1125158Y136643D01*
X1122472Y137756D01*
X1120860Y137968D01*
D02*
G37*
G36*
X1482280Y227170D02*
X1477010D01*
Y223400D01*
X1482280D01*
Y227170D01*
D02*
G37*
G36*
X1508760Y352434D02*
X1506705Y352163D01*
X1504789Y351370D01*
X1503144Y350108D01*
X1501882Y348463D01*
X1501089Y346548D01*
X1500818Y344492D01*
X1501089Y342436D01*
X1501882Y340521D01*
X1503144Y338876D01*
X1504789Y337614D01*
X1506705Y336821D01*
X1508760Y336550D01*
X1510815Y336821D01*
X1512731Y337614D01*
X1514376Y338876D01*
X1515173Y338928D01*
X1517556Y336545D01*
Y331026D01*
X1525604D01*
Y342074D01*
X1520085D01*
X1516556Y345603D01*
X1516431Y346548D01*
X1515638Y348463D01*
X1514376Y350108D01*
X1512731Y351370D01*
X1510815Y352163D01*
X1508760Y352434D01*
D02*
G37*
G36*
X1338420Y331470D02*
X1334650D01*
Y326200D01*
X1338420D01*
Y331470D01*
D02*
G37*
G36*
X274320Y342900D02*
X264869D01*
X265073Y341352D01*
X266161Y338726D01*
X267891Y336471D01*
X270146Y334741D01*
X272772Y333653D01*
X274320Y333449D01*
Y342900D01*
D02*
G37*
G36*
X299720D02*
X290269D01*
X290473Y341352D01*
X291561Y338726D01*
X293291Y336471D01*
X295546Y334741D01*
X298172Y333653D01*
X299720Y333449D01*
Y342900D01*
D02*
G37*
G36*
X286311D02*
X276860D01*
Y333449D01*
X278408Y333653D01*
X281034Y334741D01*
X283289Y336471D01*
X285019Y338726D01*
X286107Y341352D01*
X286311Y342900D01*
D02*
G37*
G36*
X729170Y318850D02*
X723900D01*
Y315080D01*
X729170D01*
Y318850D01*
D02*
G37*
G36*
X672890Y320070D02*
X667120D01*
Y312800D01*
X672890D01*
Y320070D01*
D02*
G37*
G36*
X664580Y329880D02*
X658810D01*
Y322610D01*
X664580D01*
Y329880D01*
D02*
G37*
G36*
X1332110Y331470D02*
X1328340D01*
Y326200D01*
X1332110D01*
Y331470D01*
D02*
G37*
G36*
X672890Y329880D02*
X667120D01*
Y322610D01*
X672890D01*
Y329880D01*
D02*
G37*
G36*
X311711Y342900D02*
X302260D01*
Y333449D01*
X303808Y333653D01*
X306434Y334741D01*
X308689Y336471D01*
X310419Y338726D01*
X311507Y341352D01*
X311711Y342900D01*
D02*
G37*
G36*
X1332110Y339280D02*
X1328340D01*
Y334010D01*
X1332110D01*
Y339280D01*
D02*
G37*
G36*
X387911Y342900D02*
X378460D01*
Y333449D01*
X380008Y333653D01*
X382634Y334741D01*
X384889Y336471D01*
X386619Y338726D01*
X387707Y341352D01*
X387911Y342900D01*
D02*
G37*
G36*
X1338420Y339280D02*
X1334650D01*
Y334010D01*
X1338420D01*
Y339280D01*
D02*
G37*
G36*
X199390Y354033D02*
X196837Y353697D01*
X194458Y352712D01*
X192416Y351144D01*
X190848Y349102D01*
X189863Y346723D01*
X189527Y344170D01*
X189863Y341617D01*
X190848Y339238D01*
X192416Y337196D01*
X194458Y335628D01*
X196837Y334643D01*
X199390Y334307D01*
X201943Y334643D01*
X204322Y335628D01*
X206364Y337196D01*
X207932Y339238D01*
X208917Y341617D01*
X209253Y344170D01*
X208917Y346723D01*
X207932Y349102D01*
X206364Y351144D01*
X204322Y352712D01*
X201943Y353697D01*
X199390Y354033D01*
D02*
G37*
G36*
X173990D02*
X171437Y353697D01*
X169058Y352712D01*
X167015Y351144D01*
X165448Y349102D01*
X164463Y346723D01*
X164127Y344170D01*
X164463Y341617D01*
X165448Y339238D01*
X167015Y337196D01*
X169058Y335628D01*
X171437Y334643D01*
X173990Y334307D01*
X176543Y334643D01*
X178922Y335628D01*
X180965Y337196D01*
X182532Y339238D01*
X183517Y341617D01*
X183853Y344170D01*
X183517Y346723D01*
X182532Y349102D01*
X180965Y351144D01*
X178922Y352712D01*
X176543Y353697D01*
X173990Y354033D01*
D02*
G37*
G36*
X337111Y342900D02*
X327660D01*
Y333449D01*
X329208Y333653D01*
X331834Y334741D01*
X334089Y336471D01*
X335819Y338726D01*
X336907Y341352D01*
X337111Y342900D01*
D02*
G37*
G36*
X325120D02*
X315669D01*
X315873Y341352D01*
X316961Y338726D01*
X318691Y336471D01*
X320946Y334741D01*
X323572Y333653D01*
X325120Y333449D01*
Y342900D01*
D02*
G37*
G36*
X350520D02*
X341069D01*
X341273Y341352D01*
X342361Y338726D01*
X344091Y336471D01*
X346346Y334741D01*
X348972Y333653D01*
X350520Y333449D01*
Y342900D01*
D02*
G37*
G36*
X375920D02*
X366469D01*
X366673Y341352D01*
X367761Y338726D01*
X369491Y336471D01*
X371746Y334741D01*
X374372Y333653D01*
X375920Y333449D01*
Y342900D01*
D02*
G37*
G36*
X362511D02*
X353060D01*
Y333449D01*
X354608Y333653D01*
X357234Y334741D01*
X359489Y336471D01*
X361219Y338726D01*
X362307Y341352D01*
X362511Y342900D01*
D02*
G37*
G36*
X1520310Y292100D02*
X1516540D01*
Y286830D01*
X1520310D01*
Y292100D01*
D02*
G37*
G36*
X1625720Y298640D02*
X1621950D01*
Y293370D01*
X1625720D01*
Y298640D01*
D02*
G37*
G36*
X1526620Y292100D02*
X1522850D01*
Y286830D01*
X1526620D01*
Y292100D01*
D02*
G37*
G36*
X609790Y288130D02*
X604520D01*
Y284360D01*
X609790D01*
Y288130D01*
D02*
G37*
G36*
X623570D02*
X618300D01*
Y284360D01*
X623570D01*
Y288130D01*
D02*
G37*
G36*
X631380D02*
X626110D01*
Y284360D01*
X631380D01*
Y288130D01*
D02*
G37*
G36*
X1632030Y290830D02*
X1628260D01*
Y285560D01*
X1632030D01*
Y290830D01*
D02*
G37*
G36*
X1625720D02*
X1621950D01*
Y285560D01*
X1625720D01*
Y290830D01*
D02*
G37*
G36*
X1632030Y298640D02*
X1628260D01*
Y293370D01*
X1632030D01*
Y298640D01*
D02*
G37*
G36*
X729170Y305910D02*
X723900D01*
Y302140D01*
X729170D01*
Y305910D01*
D02*
G37*
G36*
X721360D02*
X716090D01*
Y302140D01*
X721360D01*
Y305910D01*
D02*
G37*
G36*
X729170Y312540D02*
X723900D01*
Y308770D01*
X729170D01*
Y312540D01*
D02*
G37*
G36*
X664580Y320070D02*
X658810D01*
Y312800D01*
X664580D01*
Y320070D01*
D02*
G37*
G36*
X1626870Y343222D02*
X1624814Y342951D01*
X1622899Y342158D01*
X1621254Y340896D01*
X1619992Y339251D01*
X1619199Y337336D01*
X1618928Y335280D01*
X1619199Y333224D01*
X1619992Y331309D01*
X1621254Y329664D01*
X1622899Y328402D01*
X1624021Y327937D01*
Y320484D01*
X1622966D01*
Y309436D01*
X1631014D01*
Y320484D01*
X1629719D01*
Y327937D01*
X1630841Y328402D01*
X1632486Y329664D01*
X1633748Y331309D01*
X1634541Y333224D01*
X1634812Y335280D01*
X1634541Y337336D01*
X1633748Y339251D01*
X1632486Y340896D01*
X1630841Y342158D01*
X1628925Y342951D01*
X1626870Y343222D01*
D02*
G37*
G36*
X721360Y299600D02*
X716090D01*
Y295830D01*
X721360D01*
Y299600D01*
D02*
G37*
G36*
X1526620Y299910D02*
X1522850D01*
Y294640D01*
X1526620D01*
Y299910D01*
D02*
G37*
G36*
X729170Y299600D02*
X723900D01*
Y295830D01*
X729170D01*
Y299600D01*
D02*
G37*
G36*
X671874Y300864D02*
X659826D01*
Y296189D01*
X654020D01*
X654020Y296189D01*
X652930Y295972D01*
X652006Y295354D01*
X652006Y295354D01*
X648338Y291686D01*
X647215Y292151D01*
X645160Y292422D01*
X643104Y292151D01*
X641189Y291358D01*
X639544Y290096D01*
X638282Y288451D01*
X637489Y286535D01*
X637218Y284480D01*
X637489Y282425D01*
X638282Y280509D01*
X639544Y278864D01*
X641189Y277602D01*
X643104Y276809D01*
X645160Y276538D01*
X647215Y276809D01*
X649131Y277602D01*
X650776Y278864D01*
X652038Y280509D01*
X652831Y282425D01*
X653102Y284480D01*
X652831Y286535D01*
X652366Y287658D01*
X655200Y290491D01*
X659826D01*
Y285816D01*
X671874D01*
Y300864D01*
D02*
G37*
G36*
X686374Y328864D02*
X674326D01*
Y313816D01*
X686374D01*
X686374Y313816D01*
Y313816D01*
X687361Y313181D01*
X693833Y306708D01*
X693369Y305585D01*
X693098Y303530D01*
X693369Y301474D01*
X694162Y299559D01*
X695424Y297914D01*
X696031Y297449D01*
X695851Y296009D01*
X695773Y295979D01*
X695810Y295972D01*
X695848Y295988D01*
X695810Y295972D01*
X694720Y296189D01*
X694720Y296189D01*
X686374D01*
Y300864D01*
X674326D01*
Y285816D01*
X686374D01*
Y290491D01*
X693540D01*
X695104Y288928D01*
X694639Y287806D01*
X694368Y285750D01*
X694639Y283694D01*
X695432Y281779D01*
X696694Y280134D01*
X698339Y278872D01*
X700255Y278079D01*
X702310Y277808D01*
X704365Y278079D01*
X706281Y278872D01*
X707926Y280134D01*
X709188Y281779D01*
X709981Y283694D01*
X710252Y285750D01*
X709981Y287806D01*
X709188Y289721D01*
X707926Y291366D01*
X706281Y292628D01*
X704365Y293421D01*
X702310Y293692D01*
X700255Y293421D01*
X699132Y292957D01*
X696937Y295152D01*
X696895Y295500D01*
X698138Y296210D01*
X698985Y295859D01*
X701040Y295588D01*
X703095Y295859D01*
X705011Y296652D01*
X706656Y297914D01*
X707918Y299559D01*
X708711Y301474D01*
X708982Y303530D01*
X708711Y305585D01*
X707918Y307501D01*
X706656Y309146D01*
X705011Y310408D01*
X703095Y311201D01*
X701040Y311472D01*
X698985Y311201D01*
X697862Y310737D01*
X686374Y322225D01*
Y328864D01*
D02*
G37*
G36*
X402590Y354033D02*
X400037Y353697D01*
X397658Y352712D01*
X395616Y351144D01*
X394048Y349102D01*
X393063Y346723D01*
X392727Y344170D01*
X393063Y341617D01*
X394048Y339238D01*
X395616Y337196D01*
X397658Y335628D01*
X400037Y334643D01*
X402590Y334307D01*
X405143Y334643D01*
X407522Y335628D01*
X409565Y337196D01*
X411132Y339238D01*
X412117Y341617D01*
X412453Y344170D01*
X412117Y346723D01*
X411132Y349102D01*
X409565Y351144D01*
X407522Y352712D01*
X405143Y353697D01*
X402590Y354033D01*
D02*
G37*
G36*
X326390Y379433D02*
X323837Y379097D01*
X321458Y378112D01*
X319415Y376544D01*
X317848Y374502D01*
X316863Y372123D01*
X316527Y369570D01*
X316863Y367017D01*
X317848Y364638D01*
X319415Y362595D01*
X321458Y361028D01*
X323837Y360043D01*
X326390Y359707D01*
X328943Y360043D01*
X331322Y361028D01*
X333364Y362595D01*
X334932Y364638D01*
X335917Y367017D01*
X336253Y369570D01*
X335917Y372123D01*
X334932Y374502D01*
X333364Y376544D01*
X331322Y378112D01*
X328943Y379097D01*
X326390Y379433D01*
D02*
G37*
G36*
X300990D02*
X298437Y379097D01*
X296058Y378112D01*
X294016Y376544D01*
X292448Y374502D01*
X291463Y372123D01*
X291127Y369570D01*
X291463Y367017D01*
X292448Y364638D01*
X294016Y362595D01*
X296058Y361028D01*
X298437Y360043D01*
X300990Y359707D01*
X303543Y360043D01*
X305922Y361028D01*
X307964Y362595D01*
X309532Y364638D01*
X310517Y367017D01*
X310853Y369570D01*
X310517Y372123D01*
X309532Y374502D01*
X307964Y376544D01*
X305922Y378112D01*
X303543Y379097D01*
X300990Y379433D01*
D02*
G37*
G36*
X351790D02*
X349237Y379097D01*
X346858Y378112D01*
X344815Y376544D01*
X343248Y374502D01*
X342263Y372123D01*
X341927Y369570D01*
X342263Y367017D01*
X343248Y364638D01*
X344815Y362595D01*
X346858Y361028D01*
X349237Y360043D01*
X351790Y359707D01*
X354343Y360043D01*
X356722Y361028D01*
X358764Y362595D01*
X360332Y364638D01*
X361317Y367017D01*
X361653Y369570D01*
X361317Y372123D01*
X360332Y374502D01*
X358764Y376544D01*
X356722Y378112D01*
X354343Y379097D01*
X351790Y379433D01*
D02*
G37*
G36*
X1454150Y377512D02*
X1452095Y377241D01*
X1450179Y376448D01*
X1448534Y375186D01*
X1447272Y373541D01*
X1446479Y371626D01*
X1446208Y369570D01*
X1446479Y367514D01*
X1446675Y367040D01*
X1431112Y351476D01*
X1418209D01*
Y352044D01*
X1407541D01*
Y336296D01*
X1418209D01*
Y344484D01*
X1432560D01*
X1433898Y344750D01*
X1435032Y345508D01*
X1451620Y362095D01*
X1452095Y361899D01*
X1454150Y361628D01*
X1456205Y361899D01*
X1458121Y362692D01*
X1459766Y363954D01*
X1461028Y365599D01*
X1461821Y367514D01*
X1462092Y369570D01*
X1461821Y371626D01*
X1461028Y373541D01*
X1459766Y375186D01*
X1458121Y376448D01*
X1456205Y377241D01*
X1454150Y377512D01*
D02*
G37*
G36*
X377190Y379433D02*
X374637Y379097D01*
X372258Y378112D01*
X370215Y376544D01*
X368648Y374502D01*
X367663Y372123D01*
X367327Y369570D01*
X367663Y367017D01*
X368648Y364638D01*
X370215Y362595D01*
X372258Y361028D01*
X374637Y360043D01*
X377190Y359707D01*
X379743Y360043D01*
X382122Y361028D01*
X384165Y362595D01*
X385732Y364638D01*
X386717Y367017D01*
X387053Y369570D01*
X386717Y372123D01*
X385732Y374502D01*
X384165Y376544D01*
X382122Y378112D01*
X379743Y379097D01*
X377190Y379433D01*
D02*
G37*
G36*
X1259840Y370621D02*
X1257836Y370357D01*
X1254786Y369094D01*
X1252166Y367084D01*
X1250156Y364464D01*
X1248893Y361414D01*
X1248629Y359410D01*
X1259840D01*
Y370621D01*
D02*
G37*
G36*
X1526620Y363410D02*
X1522850D01*
Y358140D01*
X1526620D01*
Y363410D01*
D02*
G37*
G36*
X173990Y379433D02*
X171437Y379097D01*
X169058Y378112D01*
X167015Y376544D01*
X165448Y374502D01*
X164463Y372123D01*
X164127Y369570D01*
X164463Y367017D01*
X165448Y364638D01*
X167015Y362595D01*
X169058Y361028D01*
X171437Y360043D01*
X173990Y359707D01*
X176543Y360043D01*
X178922Y361028D01*
X180965Y362595D01*
X182532Y364638D01*
X183517Y367017D01*
X183853Y369570D01*
X183517Y372123D01*
X182532Y374502D01*
X180965Y376544D01*
X178922Y378112D01*
X176543Y379097D01*
X173990Y379433D01*
D02*
G37*
G36*
X275590D02*
X273037Y379097D01*
X270658Y378112D01*
X268615Y376544D01*
X267048Y374502D01*
X266063Y372123D01*
X265727Y369570D01*
X266063Y367017D01*
X267048Y364638D01*
X268615Y362595D01*
X270658Y361028D01*
X273037Y360043D01*
X275590Y359707D01*
X278143Y360043D01*
X280522Y361028D01*
X282565Y362595D01*
X284132Y364638D01*
X285117Y367017D01*
X285453Y369570D01*
X285117Y372123D01*
X284132Y374502D01*
X282565Y376544D01*
X280522Y378112D01*
X278143Y379097D01*
X275590Y379433D01*
D02*
G37*
G36*
X199390D02*
X196837Y379097D01*
X194458Y378112D01*
X192416Y376544D01*
X190848Y374502D01*
X189863Y372123D01*
X189527Y369570D01*
X189863Y367017D01*
X190848Y364638D01*
X192416Y362595D01*
X194458Y361028D01*
X196837Y360043D01*
X199390Y359707D01*
X201943Y360043D01*
X204322Y361028D01*
X206364Y362595D01*
X207932Y364638D01*
X208917Y367017D01*
X209253Y369570D01*
X208917Y372123D01*
X207932Y374502D01*
X206364Y376544D01*
X204322Y378112D01*
X201943Y379097D01*
X199390Y379433D01*
D02*
G37*
G36*
X503410Y386960D02*
X498140D01*
Y377190D01*
X503410D01*
Y386960D01*
D02*
G37*
G36*
X511220D02*
X505950D01*
Y377190D01*
X511220D01*
Y386960D01*
D02*
G37*
G36*
X445770Y395279D02*
X445770Y395279D01*
X247650D01*
X247650Y395279D01*
X246560Y395062D01*
X245636Y394444D01*
X245636Y394444D01*
X229426Y378234D01*
X227343Y379097D01*
X224790Y379433D01*
X222237Y379097D01*
X219858Y378112D01*
X217815Y376544D01*
X216248Y374502D01*
X215263Y372123D01*
X214927Y369570D01*
X215263Y367017D01*
X216248Y364638D01*
X217815Y362595D01*
X219858Y361028D01*
X222237Y360043D01*
X224790Y359707D01*
X225457Y359794D01*
X234641Y350610D01*
Y349259D01*
X233371Y349007D01*
X233332Y349102D01*
X231765Y351144D01*
X229722Y352712D01*
X227343Y353697D01*
X224790Y354033D01*
X222237Y353697D01*
X219858Y352712D01*
X217815Y351144D01*
X216248Y349102D01*
X215263Y346723D01*
X214927Y344170D01*
X215263Y341617D01*
X216248Y339238D01*
X217815Y337196D01*
X219858Y335628D01*
X222237Y334643D01*
X224790Y334307D01*
X227343Y334643D01*
X229722Y335628D01*
X231765Y337196D01*
X233332Y339238D01*
X233371Y339333D01*
X234641Y339081D01*
Y336550D01*
X234641Y336550D01*
X234858Y335460D01*
X235476Y334536D01*
X236490Y333522D01*
X236509Y333423D01*
X237127Y332499D01*
X255410Y314216D01*
X255410Y314216D01*
X256334Y313598D01*
X257424Y313381D01*
X465996D01*
Y310706D01*
X467171D01*
Y308730D01*
X467171Y308730D01*
X467388Y307640D01*
X468006Y306716D01*
X471936Y302786D01*
X471936Y302786D01*
X472860Y302168D01*
X473950Y301951D01*
X473950Y301951D01*
X508000D01*
X508000Y301951D01*
X509090Y302168D01*
X510014Y302786D01*
X520610Y313381D01*
X523517D01*
X523982Y312259D01*
X525244Y310614D01*
X526889Y309352D01*
X528805Y308559D01*
X530860Y308288D01*
X532915Y308559D01*
X534831Y309352D01*
X536476Y310614D01*
X537738Y312259D01*
X538531Y314174D01*
X538802Y316230D01*
X538531Y318286D01*
X537738Y320201D01*
X536476Y321846D01*
X534831Y323108D01*
X532915Y323901D01*
X530860Y324172D01*
X528805Y323901D01*
X526889Y323108D01*
X525244Y321846D01*
X523982Y320201D01*
X523517Y319079D01*
X519430D01*
X519430Y319079D01*
X518340Y318862D01*
X517416Y318244D01*
X517416Y318244D01*
X510990Y311819D01*
X509914Y312539D01*
X510591Y314174D01*
X510862Y316230D01*
X510591Y318286D01*
X509798Y320201D01*
X508536Y321846D01*
X506891Y323108D01*
X504976Y323901D01*
X502920Y324172D01*
X502829Y324160D01*
X497314Y329674D01*
X496390Y330292D01*
X495300Y330509D01*
X495300Y330509D01*
X446950D01*
X411627Y365832D01*
X412117Y367017D01*
X412453Y369570D01*
X412117Y372123D01*
X411132Y374502D01*
X409565Y376544D01*
X407522Y378112D01*
X405143Y379097D01*
X402590Y379433D01*
X400037Y379097D01*
X397658Y378112D01*
X395616Y376544D01*
X394048Y374502D01*
X393063Y372123D01*
X392727Y369570D01*
X393063Y367017D01*
X394048Y364638D01*
X395616Y362595D01*
X397658Y361028D01*
X400037Y360043D01*
X402590Y359707D01*
X405143Y360043D01*
X407522Y361028D01*
X408004Y361398D01*
X443756Y325646D01*
X443756Y325646D01*
X444680Y325028D01*
X445770Y324811D01*
X445770Y324811D01*
X494120D01*
X497209Y321722D01*
X496042Y320201D01*
X495577Y319079D01*
X489044D01*
Y321754D01*
X480996D01*
Y310706D01*
X489044D01*
Y313381D01*
X495577D01*
X496042Y312259D01*
X497304Y310614D01*
X498949Y309352D01*
X499995Y308919D01*
X499743Y307649D01*
X475130D01*
X473343Y309436D01*
X473869Y310706D01*
X474044D01*
Y321754D01*
X465996D01*
Y319079D01*
X258604D01*
X241793Y335891D01*
X241773Y335989D01*
X241155Y336913D01*
X241155Y336913D01*
X240339Y337730D01*
Y339081D01*
X241609Y339333D01*
X241648Y339238D01*
X243216Y337196D01*
X245258Y335628D01*
X247637Y334643D01*
X250190Y334307D01*
X252743Y334643D01*
X255122Y335628D01*
X257164Y337196D01*
X258732Y339238D01*
X259717Y341617D01*
X260053Y344170D01*
X259717Y346723D01*
X258732Y349102D01*
X257164Y351144D01*
X255122Y352712D01*
X252743Y353697D01*
X250190Y354033D01*
X247637Y353697D01*
X245258Y352712D01*
X243216Y351144D01*
X241648Y349102D01*
X241609Y349007D01*
X240339Y349259D01*
Y351790D01*
X240339Y351790D01*
X240122Y352880D01*
X239504Y353804D01*
X239504Y353804D01*
X231700Y361609D01*
X231765Y362596D01*
X233332Y364638D01*
X234317Y367017D01*
X234653Y369570D01*
X234317Y372123D01*
X233454Y374206D01*
X248830Y389581D01*
X269457D01*
X269982Y388311D01*
X258151Y376480D01*
X257164Y376544D01*
X255122Y378112D01*
X252743Y379097D01*
X250190Y379433D01*
X247637Y379097D01*
X245258Y378112D01*
X243216Y376544D01*
X241648Y374502D01*
X240663Y372123D01*
X240327Y369570D01*
X240663Y367017D01*
X241648Y364638D01*
X243216Y362595D01*
X245258Y361028D01*
X247637Y360043D01*
X250190Y359707D01*
X252743Y360043D01*
X255122Y361028D01*
X257164Y362595D01*
X258732Y364638D01*
X259717Y367017D01*
X260053Y369570D01*
X259966Y370237D01*
X274230Y384501D01*
X426810D01*
X464076Y347236D01*
X464076Y347236D01*
X465000Y346618D01*
X466090Y346401D01*
X515620D01*
X515620Y346401D01*
X516710Y346618D01*
X517634Y347236D01*
X527794Y357396D01*
X527794Y357396D01*
X528412Y358320D01*
X528629Y359410D01*
Y367307D01*
X529751Y367772D01*
X531396Y369034D01*
X532658Y370679D01*
X533451Y372594D01*
X533722Y374650D01*
X533451Y376706D01*
X532658Y378621D01*
X531396Y380266D01*
X529751Y381528D01*
X527836Y382321D01*
X525780Y382592D01*
X523725Y382321D01*
X521809Y381528D01*
X520164Y380266D01*
X518902Y378621D01*
X518109Y376706D01*
X517838Y374650D01*
X518109Y372594D01*
X518902Y370679D01*
X520164Y369034D01*
X521809Y367772D01*
X522931Y367307D01*
Y360590D01*
X514440Y352099D01*
X467270D01*
X431058Y388311D01*
X431584Y389581D01*
X444590D01*
X460266Y373906D01*
X460266Y373906D01*
X461190Y373288D01*
X462280Y373071D01*
X462280Y373071D01*
X465156D01*
Y365896D01*
X476204D01*
Y385944D01*
X465156D01*
Y378769D01*
X463460D01*
X447784Y394444D01*
X446860Y395062D01*
X445770Y395279D01*
D02*
G37*
G36*
X1408430Y409896D02*
X1363980D01*
X1362642Y409630D01*
X1361508Y408872D01*
X1361508Y408872D01*
X1348562Y395926D01*
X1239520D01*
X1238182Y395660D01*
X1237048Y394902D01*
X1237048Y394902D01*
X1201138Y358992D01*
X1200618Y359207D01*
X1197610Y359603D01*
X1194602Y359207D01*
X1191798Y358046D01*
X1189391Y356199D01*
X1187544Y353792D01*
X1186383Y350988D01*
X1186077Y348665D01*
X1186063Y348560D01*
X1184782D01*
X1184768Y348665D01*
X1184427Y351254D01*
X1183164Y354304D01*
X1181154Y356924D01*
X1178534Y358934D01*
X1175484Y360197D01*
X1173480Y360461D01*
Y347980D01*
Y335499D01*
X1175484Y335763D01*
X1178534Y337026D01*
X1181154Y339036D01*
X1183164Y341656D01*
X1184427Y344706D01*
X1184768Y347295D01*
X1184782Y347400D01*
X1186063D01*
X1186077Y347295D01*
X1186383Y344972D01*
X1187544Y342168D01*
X1189391Y339761D01*
X1191798Y337914D01*
X1194602Y336753D01*
X1197610Y336357D01*
X1200618Y336753D01*
X1203422Y337914D01*
X1205829Y339761D01*
X1207676Y342168D01*
X1208837Y344972D01*
X1209233Y347980D01*
X1208837Y350988D01*
X1207676Y353792D01*
X1206873Y354839D01*
X1240968Y388934D01*
X1350010D01*
X1351348Y389200D01*
X1352482Y389958D01*
X1365428Y402904D01*
X1374521D01*
Y375666D01*
X1386531D01*
Y358394D01*
X1374521D01*
Y350829D01*
X1372780D01*
X1339324Y384284D01*
X1338400Y384902D01*
X1337310Y385119D01*
X1337310Y385119D01*
X1308100D01*
X1308100Y385119D01*
X1307010Y384902D01*
X1306086Y384284D01*
X1306086Y384284D01*
X1290685Y368884D01*
X1289518Y369367D01*
X1286510Y369763D01*
X1283502Y369367D01*
X1280698Y368206D01*
X1278291Y366359D01*
X1276444Y363952D01*
X1275283Y361148D01*
X1274977Y358825D01*
X1274963Y358720D01*
X1273682D01*
X1273668Y358825D01*
X1273327Y361414D01*
X1272064Y364464D01*
X1270054Y367084D01*
X1267434Y369094D01*
X1264384Y370357D01*
X1262380Y370621D01*
Y358140D01*
Y345659D01*
X1264384Y345923D01*
X1267434Y347186D01*
X1270054Y349196D01*
X1272064Y351816D01*
X1273327Y354866D01*
X1273668Y357455D01*
X1273682Y357560D01*
X1274963D01*
X1274977Y357455D01*
X1275283Y355132D01*
X1276444Y352328D01*
X1278291Y349921D01*
X1280698Y348074D01*
X1283502Y346913D01*
X1283661Y346892D01*
Y337794D01*
X1282636D01*
Y326746D01*
X1290684D01*
Y337794D01*
X1289359D01*
Y346892D01*
X1289518Y346913D01*
X1292322Y348074D01*
X1294729Y349921D01*
X1296576Y352328D01*
X1297737Y355132D01*
X1298043Y357455D01*
X1298057Y357560D01*
X1299338D01*
X1299352Y357455D01*
X1299693Y354866D01*
X1300956Y351816D01*
X1302966Y349196D01*
X1305586Y347186D01*
X1308636Y345923D01*
X1310640Y345659D01*
Y358140D01*
Y370621D01*
X1308636Y370357D01*
X1305586Y369094D01*
X1302966Y367084D01*
X1300956Y364464D01*
X1299693Y361414D01*
X1299352Y358825D01*
X1299338Y358720D01*
X1298057D01*
X1298043Y358825D01*
X1297737Y361148D01*
X1296576Y363952D01*
X1295375Y365517D01*
X1309280Y379421D01*
X1336130D01*
X1369586Y345966D01*
X1369586Y345966D01*
X1370510Y345348D01*
X1371600Y345131D01*
X1374521D01*
Y329946D01*
X1404239D01*
Y358394D01*
X1392229D01*
Y375666D01*
X1404239D01*
Y402904D01*
X1406982D01*
X1409379Y400507D01*
Y397764D01*
X1407541D01*
Y382016D01*
X1418209D01*
Y397764D01*
X1416371D01*
Y401955D01*
X1416105Y403293D01*
X1415347Y404427D01*
X1415347Y404427D01*
X1410902Y408872D01*
X1409768Y409630D01*
X1408430Y409896D01*
D02*
G37*
G36*
X503410Y374650D02*
X498140D01*
Y364880D01*
X503410D01*
Y374650D01*
D02*
G37*
G36*
X511220D02*
X505950D01*
Y364880D01*
X511220D01*
Y374650D01*
D02*
G37*
G36*
X704930Y374840D02*
X701160D01*
Y369570D01*
X704930D01*
Y374840D01*
D02*
G37*
G36*
X698620D02*
X694850D01*
Y369570D01*
X698620D01*
Y374840D01*
D02*
G37*
G36*
X302260Y354891D02*
Y345440D01*
X311711D01*
X311507Y346988D01*
X310419Y349614D01*
X308689Y351869D01*
X306434Y353599D01*
X303808Y354687D01*
X302260Y354891D01*
D02*
G37*
G36*
X299720D02*
X298172Y354687D01*
X295546Y353599D01*
X293291Y351869D01*
X291561Y349614D01*
X290473Y346988D01*
X290269Y345440D01*
X299720D01*
Y354891D01*
D02*
G37*
G36*
X325120D02*
X323572Y354687D01*
X320946Y353599D01*
X318691Y351869D01*
X316961Y349614D01*
X315873Y346988D01*
X315669Y345440D01*
X325120D01*
Y354891D01*
D02*
G37*
G36*
X350520D02*
X348972Y354687D01*
X346346Y353599D01*
X344091Y351869D01*
X342361Y349614D01*
X341273Y346988D01*
X341069Y345440D01*
X350520D01*
Y354891D01*
D02*
G37*
G36*
X327660D02*
Y345440D01*
X337111D01*
X336907Y346988D01*
X335819Y349614D01*
X334089Y351869D01*
X331834Y353599D01*
X329208Y354687D01*
X327660Y354891D01*
D02*
G37*
G36*
X1322404Y338264D02*
X1314356D01*
Y335119D01*
X1305684D01*
Y337794D01*
X1297636D01*
Y326746D01*
X1305684D01*
Y329421D01*
X1314356D01*
Y327216D01*
X1322404D01*
Y338264D01*
D02*
G37*
G36*
X276860Y354891D02*
Y345440D01*
X286311D01*
X286107Y346988D01*
X285019Y349614D01*
X283289Y351869D01*
X281034Y353599D01*
X278408Y354687D01*
X276860Y354891D01*
D02*
G37*
G36*
X274320D02*
X272772Y354687D01*
X270146Y353599D01*
X267891Y351869D01*
X266161Y349614D01*
X265073Y346988D01*
X264869Y345440D01*
X274320D01*
Y354891D01*
D02*
G37*
G36*
X353060D02*
Y345440D01*
X362511D01*
X362307Y346988D01*
X361219Y349614D01*
X359489Y351869D01*
X357234Y353599D01*
X354608Y354687D01*
X353060Y354891D01*
D02*
G37*
G36*
X1520310Y355600D02*
X1516540D01*
Y350330D01*
X1520310D01*
Y355600D01*
D02*
G37*
G36*
X1526620D02*
X1522850D01*
Y350330D01*
X1526620D01*
Y355600D01*
D02*
G37*
G36*
X1520310Y363410D02*
X1516540D01*
Y358140D01*
X1520310D01*
Y363410D01*
D02*
G37*
G36*
X378460Y354891D02*
Y345440D01*
X387911D01*
X387707Y346988D01*
X386619Y349614D01*
X384889Y351869D01*
X382634Y353599D01*
X380008Y354687D01*
X378460Y354891D01*
D02*
G37*
G36*
X375920D02*
X374372Y354687D01*
X371746Y353599D01*
X369491Y351869D01*
X367761Y349614D01*
X366673Y346988D01*
X366469Y345440D01*
X375920D01*
Y354891D01*
D02*
G37*
G36*
X1259840Y356870D02*
X1248629D01*
X1248893Y354866D01*
X1250156Y351816D01*
X1252166Y349196D01*
X1254786Y347186D01*
X1257836Y345923D01*
X1259840Y345659D01*
Y356870D01*
D02*
G37*
G36*
X1313180Y370621D02*
Y358140D01*
Y345659D01*
X1315184Y345923D01*
X1318234Y347186D01*
X1320854Y349196D01*
X1322864Y351816D01*
X1324127Y354866D01*
X1324468Y357455D01*
X1324482Y357560D01*
X1325763D01*
X1325777Y357455D01*
X1326083Y355132D01*
X1327244Y352328D01*
X1329091Y349921D01*
X1331498Y348074D01*
X1334302Y346913D01*
X1337310Y346517D01*
X1340318Y346913D01*
X1343122Y348074D01*
X1345529Y349921D01*
X1347376Y352328D01*
X1348537Y355132D01*
X1348933Y358140D01*
X1348537Y361148D01*
X1347376Y363952D01*
X1345529Y366359D01*
X1343122Y368206D01*
X1340318Y369367D01*
X1337310Y369763D01*
X1334302Y369367D01*
X1331498Y368206D01*
X1329091Y366359D01*
X1327244Y363952D01*
X1326083Y361148D01*
X1325777Y358825D01*
X1325763Y358720D01*
X1324482D01*
X1324468Y358825D01*
X1324127Y361414D01*
X1322864Y364464D01*
X1320854Y367084D01*
X1318234Y369094D01*
X1315184Y370357D01*
X1313180Y370621D01*
D02*
G37*
G36*
X214630Y236060D02*
X209360D01*
Y232290D01*
X214630D01*
Y236060D01*
D02*
G37*
G36*
X137160D02*
X131890D01*
Y232290D01*
X137160D01*
Y236060D01*
D02*
G37*
G36*
X289560D02*
X284290D01*
Y232290D01*
X289560D01*
Y236060D01*
D02*
G37*
G36*
X222440D02*
X217170D01*
Y232290D01*
X222440D01*
Y236060D01*
D02*
G37*
G36*
X144970D02*
X139700D01*
Y232290D01*
X144970D01*
Y236060D01*
D02*
G37*
G36*
X1178469Y238760D02*
X1170940D01*
Y231231D01*
X1171991Y231369D01*
X1174153Y232265D01*
X1176010Y233690D01*
X1177435Y235547D01*
X1178331Y237709D01*
X1178469Y238760D01*
D02*
G37*
G36*
X1168400D02*
X1160871D01*
X1161009Y237709D01*
X1161905Y235547D01*
X1163330Y233690D01*
X1165187Y232265D01*
X1167349Y231369D01*
X1168400Y231231D01*
Y238760D01*
D02*
G37*
G36*
X1474470D02*
X1466940D01*
X1467079Y237709D01*
X1467975Y235547D01*
X1469400Y233690D01*
X1471257Y232265D01*
X1473419Y231369D01*
X1474470Y231231D01*
Y238760D01*
D02*
G37*
G36*
X365760Y236060D02*
X360490D01*
Y232290D01*
X365760D01*
Y236060D01*
D02*
G37*
G36*
X1484539Y238760D02*
X1477010D01*
Y231231D01*
X1478061Y231369D01*
X1480223Y232265D01*
X1482080Y233690D01*
X1483505Y235547D01*
X1484401Y237709D01*
X1484539Y238760D01*
D02*
G37*
G36*
X297370Y236060D02*
X292100D01*
Y232290D01*
X297370D01*
Y236060D01*
D02*
G37*
G36*
X449770Y237330D02*
X444500D01*
Y233560D01*
X449770D01*
Y237330D01*
D02*
G37*
G36*
X441960D02*
X436690D01*
Y233560D01*
X441960D01*
Y237330D01*
D02*
G37*
G36*
X1233170Y241300D02*
X1225640D01*
X1225779Y240249D01*
X1226675Y238087D01*
X1228100Y236230D01*
X1229957Y234805D01*
X1232119Y233909D01*
X1233170Y233771D01*
Y241300D01*
D02*
G37*
G36*
X121094Y235044D02*
X110046D01*
Y233869D01*
X107950D01*
X107950Y233869D01*
X106860Y233652D01*
X105936Y233034D01*
X102126Y229224D01*
X101508Y228300D01*
X101291Y227210D01*
X101291Y227210D01*
Y194033D01*
X100169Y193568D01*
X98524Y192306D01*
X97262Y190661D01*
X96469Y188745D01*
X96198Y186690D01*
X96469Y184634D01*
X97262Y182719D01*
X98524Y181074D01*
X100169Y179812D01*
X102085Y179019D01*
X104140Y178748D01*
X106195Y179019D01*
X108111Y179812D01*
X109756Y181074D01*
X111018Y182719D01*
X111811Y184634D01*
X112082Y186690D01*
X111811Y188745D01*
X111018Y190661D01*
X109756Y192306D01*
X108111Y193568D01*
X106989Y194033D01*
Y226030D01*
X108776Y227817D01*
X110046Y227317D01*
Y226996D01*
X121094D01*
Y235044D01*
D02*
G37*
G36*
X1243240Y241300D02*
X1235710D01*
Y233771D01*
X1236761Y233909D01*
X1238923Y234805D01*
X1240780Y236230D01*
X1242205Y238087D01*
X1243101Y240249D01*
X1243240Y241300D01*
D02*
G37*
G36*
X1294130Y240030D02*
X1286600D01*
X1286739Y238979D01*
X1287635Y236817D01*
X1289060Y234960D01*
X1290917Y233535D01*
X1293079Y232639D01*
X1294130Y232500D01*
Y240030D01*
D02*
G37*
G36*
X373570Y236060D02*
X368300D01*
Y232290D01*
X373570D01*
Y236060D01*
D02*
G37*
G36*
X1304200Y240030D02*
X1296670D01*
Y232500D01*
X1297721Y232639D01*
X1299883Y233535D01*
X1301740Y234960D01*
X1303165Y236817D01*
X1304061Y238979D01*
X1304200Y240030D01*
D02*
G37*
G36*
X1367699D02*
X1360170D01*
Y232500D01*
X1361221Y232639D01*
X1363383Y233535D01*
X1365240Y234960D01*
X1366665Y236817D01*
X1367561Y238979D01*
X1367699Y240030D01*
D02*
G37*
G36*
X1357630D02*
X1350101D01*
X1350239Y238979D01*
X1351135Y236817D01*
X1352560Y234960D01*
X1354417Y233535D01*
X1356579Y232639D01*
X1357630Y232500D01*
Y240030D01*
D02*
G37*
G36*
X289560Y229750D02*
X284290D01*
Y225980D01*
X289560D01*
Y229750D01*
D02*
G37*
G36*
X222440D02*
X217170D01*
Y225980D01*
X222440D01*
Y229750D01*
D02*
G37*
G36*
X297370D02*
X292100D01*
Y225980D01*
X297370D01*
Y229750D01*
D02*
G37*
G36*
X373570D02*
X368300D01*
Y225980D01*
X373570D01*
Y229750D01*
D02*
G37*
G36*
X365760D02*
X360490D01*
Y225980D01*
X365760D01*
Y229750D01*
D02*
G37*
G36*
X1632030Y228790D02*
X1628260D01*
Y223520D01*
X1632030D01*
Y228790D01*
D02*
G37*
G36*
X1625720D02*
X1621950D01*
Y223520D01*
X1625720D01*
Y228790D01*
D02*
G37*
G36*
X137160Y229750D02*
X131890D01*
Y225980D01*
X137160D01*
Y229750D01*
D02*
G37*
G36*
X214630D02*
X209360D01*
Y225980D01*
X214630D01*
Y229750D01*
D02*
G37*
G36*
X144970D02*
X139700D01*
Y225980D01*
X144970D01*
Y229750D01*
D02*
G37*
G36*
X198564Y235044D02*
X187516D01*
Y233869D01*
X182760D01*
X181670Y233652D01*
X180746Y233034D01*
X180746Y233034D01*
X173246Y225534D01*
X172628Y224610D01*
X172411Y223520D01*
X172411Y223520D01*
Y194033D01*
X171289Y193568D01*
X169644Y192306D01*
X168382Y190661D01*
X167589Y188745D01*
X167318Y186690D01*
X167589Y184634D01*
X168382Y182719D01*
X169644Y181074D01*
X171289Y179812D01*
X173204Y179019D01*
X175260Y178748D01*
X177316Y179019D01*
X179231Y179812D01*
X180876Y181074D01*
X182138Y182719D01*
X182931Y184634D01*
X183202Y186690D01*
X182931Y188745D01*
X182138Y190661D01*
X180876Y192306D01*
X179231Y193568D01*
X178109Y194033D01*
Y222340D01*
X183940Y228171D01*
X187516D01*
Y226996D01*
X198564D01*
Y235044D01*
D02*
G37*
G36*
X1417320Y237490D02*
X1409790D01*
X1409929Y236439D01*
X1410825Y234277D01*
X1412250Y232420D01*
X1414107Y230995D01*
X1416269Y230099D01*
X1417320Y229960D01*
Y237490D01*
D02*
G37*
G36*
X1527890Y233870D02*
X1524120D01*
Y228600D01*
X1527890D01*
Y233870D01*
D02*
G37*
G36*
X1427390Y237490D02*
X1419860D01*
Y229960D01*
X1420911Y230099D01*
X1423073Y230995D01*
X1424930Y232420D01*
X1426355Y234277D01*
X1427251Y236439D01*
X1427390Y237490D01*
D02*
G37*
G36*
X1116239Y238760D02*
X1108710D01*
Y231231D01*
X1109761Y231369D01*
X1111923Y232265D01*
X1113780Y233690D01*
X1115205Y235547D01*
X1116101Y237709D01*
X1116239Y238760D01*
D02*
G37*
G36*
X1106170D02*
X1098641D01*
X1098779Y237709D01*
X1099675Y235547D01*
X1101100Y233690D01*
X1102957Y232265D01*
X1105119Y231369D01*
X1106170Y231231D01*
Y238760D01*
D02*
G37*
G36*
X449770Y231020D02*
X444500D01*
Y227250D01*
X449770D01*
Y231020D01*
D02*
G37*
G36*
X441960D02*
X436690D01*
Y227250D01*
X441960D01*
Y231020D01*
D02*
G37*
G36*
X491490D02*
X486220D01*
Y227250D01*
X491490D01*
Y231020D01*
D02*
G37*
G36*
X1521580Y233870D02*
X1517810D01*
Y228600D01*
X1521580D01*
Y233870D01*
D02*
G37*
G36*
X499300Y231020D02*
X494030D01*
Y227250D01*
X499300D01*
Y231020D01*
D02*
G37*
G36*
X272224Y235044D02*
X261176D01*
Y233869D01*
X255150D01*
X255150Y233869D01*
X254060Y233652D01*
X253136Y233034D01*
X253136Y233034D01*
X246906Y226804D01*
X246288Y225880D01*
X246071Y224790D01*
X246071Y224790D01*
Y194033D01*
X244949Y193568D01*
X243304Y192306D01*
X242042Y190661D01*
X241249Y188745D01*
X240978Y186690D01*
X241249Y184634D01*
X242042Y182719D01*
X243304Y181074D01*
X244949Y179812D01*
X246864Y179019D01*
X248920Y178748D01*
X250975Y179019D01*
X252891Y179812D01*
X254536Y181074D01*
X255798Y182719D01*
X256591Y184634D01*
X256862Y186690D01*
X256591Y188745D01*
X255798Y190661D01*
X254536Y192306D01*
X252891Y193568D01*
X251769Y194033D01*
Y223610D01*
X256330Y228171D01*
X261176D01*
Y226996D01*
X272224D01*
Y235044D01*
D02*
G37*
G36*
X630364Y272114D02*
X619316D01*
Y264066D01*
X630364D01*
Y265241D01*
X633857D01*
X634695Y264286D01*
X634678Y264160D01*
X634949Y262104D01*
X635742Y260189D01*
X637004Y258544D01*
X638649Y257282D01*
X640564Y256489D01*
X642620Y256218D01*
X644676Y256489D01*
X646591Y257282D01*
X648236Y258544D01*
X649498Y260189D01*
X650291Y262104D01*
X650562Y264160D01*
X650291Y266215D01*
X649498Y268131D01*
X648236Y269776D01*
X646591Y271038D01*
X644676Y271831D01*
X642620Y272102D01*
X640564Y271831D01*
X638649Y271038D01*
X637773Y270366D01*
X637240Y270722D01*
X636150Y270939D01*
X636150Y270939D01*
X630364D01*
Y272114D01*
D02*
G37*
G36*
X444500Y258990D02*
Y251460D01*
X452029D01*
X451891Y252511D01*
X450995Y254673D01*
X449570Y256530D01*
X447713Y257955D01*
X445551Y258851D01*
X444500Y258990D01*
D02*
G37*
G36*
X1035050Y271780D02*
X1028634D01*
Y270510D01*
X1028896Y268521D01*
X1029664Y266667D01*
X1030885Y265075D01*
X1032477Y263854D01*
X1034331Y263086D01*
X1035050Y262991D01*
Y271780D01*
D02*
G37*
G36*
X1010920Y282251D02*
X1009196Y282024D01*
X1007589Y281359D01*
X1006210Y280300D01*
X1005151Y278920D01*
X1004486Y277314D01*
X1004259Y275590D01*
Y270510D01*
X1004486Y268786D01*
X1005151Y267180D01*
X1006210Y265800D01*
X1007589Y264741D01*
X1009196Y264076D01*
X1010920Y263849D01*
X1012644Y264076D01*
X1014250Y264741D01*
X1015630Y265800D01*
X1016689Y267180D01*
X1017354Y268786D01*
X1017581Y270510D01*
Y275590D01*
X1017354Y277314D01*
X1016689Y278920D01*
X1015630Y280300D01*
X1014250Y281359D01*
X1012644Y282024D01*
X1010920Y282251D01*
D02*
G37*
G36*
X1044006Y271780D02*
X1037590D01*
Y262991D01*
X1038309Y263086D01*
X1040163Y263854D01*
X1041755Y265075D01*
X1042976Y266667D01*
X1043744Y268521D01*
X1044006Y270510D01*
Y271780D01*
D02*
G37*
G36*
X293370Y257719D02*
Y250190D01*
X300900D01*
X300761Y251241D01*
X299865Y253403D01*
X298440Y255260D01*
X296583Y256685D01*
X294421Y257581D01*
X293370Y257719D01*
D02*
G37*
G36*
X290830D02*
X289779Y257581D01*
X287617Y256685D01*
X285760Y255260D01*
X284335Y253403D01*
X283439Y251241D01*
X283300Y250190D01*
X290830D01*
Y257719D01*
D02*
G37*
G36*
X365760Y258990D02*
X364709Y258851D01*
X362547Y257955D01*
X360690Y256530D01*
X359265Y254673D01*
X358369Y252511D01*
X358231Y251460D01*
X365760D01*
Y258990D01*
D02*
G37*
G36*
X441960D02*
X440909Y258851D01*
X438747Y257955D01*
X436890Y256530D01*
X435465Y254673D01*
X434569Y252511D01*
X434431Y251460D01*
X441960D01*
Y258990D01*
D02*
G37*
G36*
X368300D02*
Y251460D01*
X375830D01*
X375691Y252511D01*
X374795Y254673D01*
X373370Y256530D01*
X371513Y257955D01*
X369351Y258851D01*
X368300Y258990D01*
D02*
G37*
G36*
X1508760Y279722D02*
X1506705Y279451D01*
X1504789Y278658D01*
X1503144Y277396D01*
X1501882Y275751D01*
X1501089Y273836D01*
X1500818Y271780D01*
X1501089Y269725D01*
X1501882Y267809D01*
X1503144Y266164D01*
X1504789Y264902D01*
X1506705Y264109D01*
X1508760Y263838D01*
X1510815Y264109D01*
X1512731Y264902D01*
X1514376Y266164D01*
X1515638Y267809D01*
X1516103Y268931D01*
X1517556D01*
Y267526D01*
X1525604D01*
Y278574D01*
X1517556D01*
Y274629D01*
X1516103D01*
X1515638Y275751D01*
X1514376Y277396D01*
X1512731Y278658D01*
X1510815Y279451D01*
X1508760Y279722D01*
D02*
G37*
G36*
X609790Y281820D02*
X604520D01*
Y278050D01*
X609790D01*
Y281820D01*
D02*
G37*
G36*
X601980D02*
X596710D01*
Y278050D01*
X601980D01*
Y281820D01*
D02*
G37*
G36*
X623570D02*
X618300D01*
Y278050D01*
X623570D01*
Y281820D01*
D02*
G37*
G36*
X601980Y288130D02*
X596710D01*
Y284360D01*
X601980D01*
Y288130D01*
D02*
G37*
G36*
X631380Y281820D02*
X626110D01*
Y278050D01*
X631380D01*
Y281820D01*
D02*
G37*
G36*
X1035050Y283109D02*
X1034331Y283014D01*
X1032477Y282246D01*
X1030885Y281025D01*
X1029664Y279433D01*
X1028896Y277579D01*
X1028634Y275590D01*
Y274320D01*
X1035050D01*
Y283109D01*
D02*
G37*
G36*
X1646014Y320484D02*
X1637966D01*
Y309436D01*
X1639141D01*
Y297624D01*
X1637966D01*
Y286576D01*
X1639141D01*
Y278574D01*
X1637966D01*
Y267526D01*
X1639141D01*
Y265340D01*
X1630650Y256849D01*
X1602740D01*
X1602740Y256849D01*
X1601650Y256632D01*
X1600726Y256014D01*
X1593360Y248648D01*
X1592742Y247724D01*
X1592525Y246634D01*
X1592525Y246634D01*
Y193385D01*
X1591255Y192759D01*
X1590201Y193568D01*
X1589079Y194033D01*
Y254090D01*
X1605190Y270201D01*
X1622966D01*
Y267526D01*
X1631014D01*
Y278574D01*
X1622966D01*
Y275899D01*
X1604010D01*
X1602920Y275682D01*
X1601996Y275064D01*
X1601996Y275064D01*
X1584216Y257284D01*
X1583598Y256360D01*
X1583381Y255270D01*
X1583381Y255270D01*
Y194033D01*
X1582259Y193568D01*
X1580614Y192306D01*
X1579352Y190661D01*
X1578559Y188745D01*
X1578288Y186690D01*
X1578559Y184634D01*
X1579352Y182719D01*
X1580614Y181074D01*
X1582259Y179812D01*
X1584174Y179019D01*
X1586230Y178748D01*
X1588286Y179019D01*
X1589922Y179696D01*
X1590641Y178620D01*
X1587590Y175569D01*
X1511300D01*
X1511300Y175569D01*
X1510210Y175352D01*
X1509286Y174734D01*
X1509286Y174734D01*
X1503437Y168885D01*
X1501650Y169625D01*
X1498600Y170027D01*
X1495550Y169625D01*
X1492708Y168448D01*
X1490267Y166575D01*
X1488394Y164134D01*
X1487217Y161292D01*
X1486815Y158242D01*
X1487217Y155192D01*
X1488394Y152350D01*
X1490267Y149909D01*
X1492708Y148036D01*
X1495550Y146859D01*
X1498600Y146457D01*
X1501650Y146859D01*
X1504492Y148036D01*
X1506933Y149909D01*
X1508806Y152350D01*
X1509983Y155192D01*
X1510385Y158242D01*
X1509983Y161292D01*
X1508806Y164134D01*
X1507910Y165302D01*
X1512480Y169871D01*
X1569025D01*
X1569278Y168601D01*
X1568908Y168448D01*
X1566467Y166575D01*
X1564594Y164134D01*
X1563417Y161292D01*
X1563015Y158242D01*
X1563417Y155192D01*
X1564594Y152350D01*
X1566467Y149909D01*
X1568908Y148036D01*
X1571750Y146859D01*
X1574800Y146457D01*
X1577850Y146859D01*
X1580692Y148036D01*
X1583133Y149909D01*
X1585006Y152350D01*
X1586183Y155192D01*
X1586210Y155393D01*
X1623822D01*
X1623822Y155393D01*
X1624912Y155610D01*
X1625836Y156228D01*
X1644124Y174516D01*
X1644124Y174516D01*
X1644742Y175440D01*
X1644959Y176530D01*
X1644959Y176530D01*
Y196406D01*
X1646014D01*
Y207454D01*
X1644959D01*
Y216726D01*
X1646014D01*
Y227774D01*
X1644959D01*
Y235776D01*
X1646014D01*
Y246824D01*
X1637966D01*
Y235776D01*
X1639261D01*
Y227774D01*
X1637966D01*
Y216726D01*
X1639261D01*
Y207454D01*
X1637966D01*
Y196406D01*
X1639261D01*
Y177710D01*
X1622642Y161091D01*
X1586210D01*
X1586183Y161292D01*
X1585006Y164134D01*
X1583133Y166575D01*
X1580692Y168448D01*
X1580322Y168601D01*
X1580575Y169871D01*
X1588770D01*
X1588770Y169871D01*
X1589860Y170088D01*
X1590784Y170706D01*
X1597388Y177310D01*
X1597388Y177310D01*
X1598006Y178234D01*
X1598223Y179324D01*
X1598223Y179324D01*
Y245454D01*
X1603920Y251151D01*
X1631830D01*
X1631830Y251151D01*
X1632920Y251368D01*
X1633844Y251986D01*
X1644004Y262146D01*
X1644004Y262146D01*
X1644622Y263070D01*
X1644839Y264160D01*
Y267526D01*
X1646014D01*
Y278574D01*
X1644839D01*
Y286576D01*
X1646014D01*
Y297624D01*
X1644839D01*
Y309436D01*
X1646014D01*
Y320484D01*
D02*
G37*
G36*
X1037590Y283109D02*
Y274320D01*
X1044006D01*
Y275590D01*
X1043744Y277579D01*
X1042976Y279433D01*
X1041755Y281025D01*
X1040163Y282246D01*
X1038309Y283014D01*
X1037590Y283109D01*
D02*
G37*
G36*
X300900Y247650D02*
X293370D01*
Y240121D01*
X294421Y240259D01*
X296583Y241155D01*
X298440Y242580D01*
X299865Y244437D01*
X300761Y246599D01*
X300900Y247650D01*
D02*
G37*
G36*
X290830D02*
X283300D01*
X283439Y246599D01*
X284335Y244437D01*
X285760Y242580D01*
X287617Y241155D01*
X289779Y240259D01*
X290830Y240121D01*
Y247650D01*
D02*
G37*
G36*
X1106170Y248829D02*
X1105119Y248691D01*
X1102957Y247795D01*
X1101100Y246370D01*
X1099675Y244513D01*
X1098779Y242351D01*
X1098641Y241300D01*
X1106170D01*
Y248829D01*
D02*
G37*
G36*
X1474470D02*
X1473419Y248691D01*
X1471257Y247795D01*
X1469400Y246370D01*
X1467975Y244513D01*
X1467079Y242351D01*
X1466940Y241300D01*
X1474470D01*
Y248829D01*
D02*
G37*
G36*
X1108710D02*
Y241300D01*
X1116239D01*
X1116101Y242351D01*
X1115205Y244513D01*
X1113780Y246370D01*
X1111923Y247795D01*
X1109761Y248691D01*
X1108710Y248829D01*
D02*
G37*
G36*
X424624Y236314D02*
X413576D01*
Y235139D01*
X409060D01*
X409060Y235139D01*
X407970Y234922D01*
X407046Y234304D01*
X407046Y234304D01*
X404386Y231644D01*
X403768Y230720D01*
X403551Y229630D01*
X403551Y229630D01*
Y194033D01*
X402429Y193568D01*
X400784Y192306D01*
X399522Y190661D01*
X398729Y188745D01*
X398458Y186690D01*
X398729Y184634D01*
X399522Y182719D01*
X400784Y181074D01*
X402429Y179812D01*
X404344Y179019D01*
X406400Y178748D01*
X408456Y179019D01*
X410371Y179812D01*
X412016Y181074D01*
X413278Y182719D01*
X414071Y184634D01*
X414342Y186690D01*
X414071Y188745D01*
X413278Y190661D01*
X412016Y192306D01*
X410371Y193568D01*
X409249Y194033D01*
Y228450D01*
X410240Y229441D01*
X413576D01*
Y228266D01*
X424624D01*
Y236314D01*
D02*
G37*
G36*
X344614Y235044D02*
X333566D01*
Y233869D01*
X328810D01*
X328810Y233869D01*
X327720Y233652D01*
X326796Y233034D01*
X326796Y233034D01*
X324376Y230614D01*
X323758Y229690D01*
X323541Y228600D01*
X323541Y228600D01*
Y194033D01*
X322419Y193568D01*
X320774Y192306D01*
X319512Y190661D01*
X318719Y188745D01*
X318448Y186690D01*
X318719Y184634D01*
X319512Y182719D01*
X320774Y181074D01*
X322419Y179812D01*
X324334Y179019D01*
X326390Y178748D01*
X328446Y179019D01*
X330361Y179812D01*
X332006Y181074D01*
X333268Y182719D01*
X334061Y184634D01*
X334332Y186690D01*
X334061Y188745D01*
X333268Y190661D01*
X332006Y192306D01*
X330361Y193568D01*
X329239Y194033D01*
Y227420D01*
X329990Y228171D01*
X333566D01*
Y226996D01*
X344614D01*
Y235044D01*
D02*
G37*
G36*
X1417320Y247560D02*
X1416269Y247421D01*
X1414107Y246525D01*
X1412250Y245100D01*
X1410825Y243243D01*
X1409929Y241081D01*
X1409790Y240030D01*
X1417320D01*
Y247560D01*
D02*
G37*
G36*
X224699Y247650D02*
X217170D01*
Y240121D01*
X218221Y240259D01*
X220383Y241155D01*
X222240Y242580D01*
X223665Y244437D01*
X224561Y246599D01*
X224699Y247650D01*
D02*
G37*
G36*
X214630D02*
X207101D01*
X207239Y246599D01*
X208135Y244437D01*
X209560Y242580D01*
X211417Y241155D01*
X213579Y240259D01*
X214630Y240121D01*
Y247650D01*
D02*
G37*
G36*
X1477010Y248829D02*
Y241300D01*
X1484539D01*
X1484401Y242351D01*
X1483505Y244513D01*
X1482080Y246370D01*
X1480223Y247795D01*
X1478061Y248691D01*
X1477010Y248829D01*
D02*
G37*
G36*
X1357630Y250100D02*
X1356579Y249961D01*
X1354417Y249065D01*
X1352560Y247640D01*
X1351135Y245783D01*
X1350239Y243621D01*
X1350101Y242570D01*
X1357630D01*
Y250100D01*
D02*
G37*
G36*
X1296670D02*
Y242570D01*
X1304200D01*
X1304061Y243621D01*
X1303165Y245783D01*
X1301740Y247640D01*
X1299883Y249065D01*
X1297721Y249961D01*
X1296670Y250100D01*
D02*
G37*
G36*
X1360170D02*
Y242570D01*
X1367699D01*
X1367561Y243621D01*
X1366665Y245783D01*
X1365240Y247640D01*
X1363383Y249065D01*
X1361221Y249961D01*
X1360170Y250100D01*
D02*
G37*
G36*
X217170Y257719D02*
Y250190D01*
X224699D01*
X224561Y251241D01*
X223665Y253403D01*
X222240Y255260D01*
X220383Y256685D01*
X218221Y257581D01*
X217170Y257719D01*
D02*
G37*
G36*
X214630D02*
X213579Y257581D01*
X211417Y256685D01*
X209560Y255260D01*
X208135Y253403D01*
X207239Y251241D01*
X207101Y250190D01*
X214630D01*
Y257719D01*
D02*
G37*
G36*
X375830Y248920D02*
X368300D01*
Y241390D01*
X369351Y241529D01*
X371513Y242425D01*
X373370Y243850D01*
X374795Y245707D01*
X375691Y247869D01*
X375830Y248920D01*
D02*
G37*
G36*
X365760D02*
X358231D01*
X358369Y247869D01*
X359265Y245707D01*
X360690Y243850D01*
X362547Y242425D01*
X364709Y241529D01*
X365760Y241390D01*
Y248920D01*
D02*
G37*
G36*
X441960D02*
X434431D01*
X434569Y247869D01*
X435465Y245707D01*
X436890Y243850D01*
X438747Y242425D01*
X440909Y241529D01*
X441960Y241390D01*
Y248920D01*
D02*
G37*
G36*
X1294130Y250100D02*
X1293079Y249961D01*
X1290917Y249065D01*
X1289060Y247640D01*
X1287635Y245783D01*
X1286739Y243621D01*
X1286600Y242570D01*
X1294130D01*
Y250100D01*
D02*
G37*
G36*
X452029Y248920D02*
X444500D01*
Y241390D01*
X445551Y241529D01*
X447713Y242425D01*
X449570Y243850D01*
X450995Y245707D01*
X451891Y247869D01*
X452029Y248920D01*
D02*
G37*
G36*
X902970Y293279D02*
Y285750D01*
X910499D01*
X910361Y286801D01*
X909465Y288963D01*
X908040Y290820D01*
X906183Y292245D01*
X904021Y293141D01*
X902970Y293279D01*
D02*
G37*
G36*
X900430D02*
X899379Y293141D01*
X897217Y292245D01*
X895360Y290820D01*
X893935Y288963D01*
X893039Y286801D01*
X892900Y285750D01*
X900430D01*
Y293279D01*
D02*
G37*
G36*
X979050Y368300D02*
X975280D01*
Y363030D01*
X979050D01*
Y368300D01*
D02*
G37*
G36*
Y376110D02*
X975280D01*
Y370840D01*
X979050D01*
Y376110D01*
D02*
G37*
G36*
X985360Y368300D02*
X981590D01*
Y363030D01*
X985360D01*
Y368300D01*
D02*
G37*
G36*
X839470Y345440D02*
X831941D01*
X832079Y344389D01*
X832975Y342227D01*
X834400Y340370D01*
X836257Y338945D01*
X838419Y338049D01*
X839470Y337910D01*
Y345440D01*
D02*
G37*
G36*
X849539D02*
X842010D01*
Y337910D01*
X843061Y338049D01*
X845223Y338945D01*
X847080Y340370D01*
X848505Y342227D01*
X849401Y344389D01*
X849539Y345440D01*
D02*
G37*
G36*
X842010Y355509D02*
Y347980D01*
X849539D01*
X849401Y349031D01*
X848505Y351193D01*
X847080Y353050D01*
X845223Y354475D01*
X843061Y355371D01*
X842010Y355509D01*
D02*
G37*
G36*
X946150Y381322D02*
X944094Y381051D01*
X942179Y380258D01*
X940534Y378996D01*
X939272Y377351D01*
X938479Y375435D01*
X938208Y373380D01*
X938479Y371325D01*
X939272Y369409D01*
X940534Y367764D01*
X942179Y366502D01*
X944094Y365709D01*
X944371Y365672D01*
Y358993D01*
X938220D01*
X937040Y358759D01*
X936040Y358090D01*
X935371Y357090D01*
X935137Y355910D01*
X935371Y354730D01*
X935771Y354132D01*
X935307Y353823D01*
X934414Y352486D01*
X934353Y352180D01*
X947220D01*
X960087D01*
X960026Y352486D01*
X959133Y353823D01*
X958669Y354132D01*
X959069Y354730D01*
X959303Y355910D01*
X959069Y357090D01*
X958400Y358090D01*
X957400Y358759D01*
X956220Y358993D01*
X950069D01*
Y366480D01*
X950121Y366502D01*
X951766Y367764D01*
X953028Y369409D01*
X953821Y371325D01*
X954092Y373380D01*
X953821Y375435D01*
X953028Y377351D01*
X951766Y378996D01*
X950121Y380258D01*
X948205Y381051D01*
X946150Y381322D01*
D02*
G37*
G36*
X839470Y355509D02*
X838419Y355371D01*
X836257Y354475D01*
X834400Y353050D01*
X832975Y351193D01*
X832079Y349031D01*
X831941Y347980D01*
X839470D01*
Y355509D01*
D02*
G37*
G36*
X910499Y283210D02*
X902970D01*
Y275681D01*
X904021Y275819D01*
X906183Y276715D01*
X908040Y278140D01*
X909465Y279997D01*
X910361Y282159D01*
X910499Y283210D01*
D02*
G37*
G36*
X900430D02*
X892900D01*
X893039Y282159D01*
X893935Y279997D01*
X895360Y278140D01*
X897217Y276715D01*
X899379Y275819D01*
X900430Y275681D01*
Y283210D01*
D02*
G37*
%LPD*%
D10*
X699890Y368300D02*
D03*
X714890D02*
D03*
X933330Y185420D02*
D03*
X918330D02*
D03*
X1641990Y222250D02*
D03*
X1626990D02*
D03*
X1521580Y273050D02*
D03*
X1536580D02*
D03*
X485020Y316230D02*
D03*
X470020D02*
D03*
X1537850Y227330D02*
D03*
X1522850D02*
D03*
X1536580Y356870D02*
D03*
X1521580D02*
D03*
X1641990Y201930D02*
D03*
X1626990D02*
D03*
Y314960D02*
D03*
X1641990D02*
D03*
X1521580D02*
D03*
X1536580D02*
D03*
Y378460D02*
D03*
X1521580D02*
D03*
X1318380Y332740D02*
D03*
X1333380D02*
D03*
X1521580Y293370D02*
D03*
X1536580D02*
D03*
X1641990Y292100D02*
D03*
X1626990D02*
D03*
X1537850Y208280D02*
D03*
X1522850D02*
D03*
X1626990Y241300D02*
D03*
X1641990D02*
D03*
X1537850Y247650D02*
D03*
X1522850D02*
D03*
X1286660Y332270D02*
D03*
X1301660D02*
D03*
X1536580Y336550D02*
D03*
X1521580D02*
D03*
X1641990Y273050D02*
D03*
X1626990D02*
D03*
X980320Y369570D02*
D03*
X965320D02*
D03*
D11*
X949960Y204590D02*
D03*
Y219590D02*
D03*
X722630Y300870D02*
D03*
Y285870D02*
D03*
X623570Y203320D02*
D03*
Y218320D02*
D03*
X1085850Y222130D02*
D03*
Y207130D02*
D03*
X443230Y232290D02*
D03*
Y217290D02*
D03*
X393700Y232290D02*
D03*
Y217290D02*
D03*
X115570Y231020D02*
D03*
Y216020D02*
D03*
X138430Y231020D02*
D03*
Y216020D02*
D03*
X492760Y232290D02*
D03*
Y217290D02*
D03*
X1275080Y222130D02*
D03*
Y207130D02*
D03*
X193040Y231020D02*
D03*
Y216020D02*
D03*
X1436370Y222130D02*
D03*
Y207130D02*
D03*
X1129030Y222130D02*
D03*
Y207130D02*
D03*
X1212850Y222130D02*
D03*
Y207130D02*
D03*
X1457960Y222130D02*
D03*
Y207130D02*
D03*
X468630Y232290D02*
D03*
Y217290D02*
D03*
X722630Y313810D02*
D03*
Y328810D02*
D03*
X234950Y216020D02*
D03*
Y231020D02*
D03*
X1169670Y222130D02*
D03*
Y207130D02*
D03*
X290830Y231020D02*
D03*
Y216020D02*
D03*
X1358900Y222130D02*
D03*
Y207130D02*
D03*
X599440Y203320D02*
D03*
Y218320D02*
D03*
X603250Y283090D02*
D03*
Y268090D02*
D03*
X544830Y232290D02*
D03*
Y217290D02*
D03*
X1234440Y222130D02*
D03*
Y207130D02*
D03*
X753110Y183000D02*
D03*
Y198000D02*
D03*
X646430Y218320D02*
D03*
Y203320D02*
D03*
X1399540Y222130D02*
D03*
Y207130D02*
D03*
X1493520Y222130D02*
D03*
Y207130D02*
D03*
X791210Y183000D02*
D03*
Y198000D02*
D03*
X772160Y183000D02*
D03*
Y198000D02*
D03*
X1189990Y222130D02*
D03*
Y207130D02*
D03*
X690880Y203320D02*
D03*
Y218320D02*
D03*
X1475740Y222130D02*
D03*
Y207130D02*
D03*
X624840Y283090D02*
D03*
Y268090D02*
D03*
X518160Y232290D02*
D03*
Y217290D02*
D03*
X1107440Y222130D02*
D03*
Y207130D02*
D03*
X215900Y231020D02*
D03*
Y216020D02*
D03*
X1253490Y222130D02*
D03*
Y207130D02*
D03*
X266700Y231020D02*
D03*
Y216020D02*
D03*
X1376680Y222130D02*
D03*
Y207130D02*
D03*
X1295400Y222130D02*
D03*
Y207130D02*
D03*
X1418590Y222130D02*
D03*
Y207130D02*
D03*
X419100Y232290D02*
D03*
Y217290D02*
D03*
X708660Y218320D02*
D03*
Y203320D02*
D03*
X367030Y231020D02*
D03*
Y216020D02*
D03*
X339090Y231020D02*
D03*
Y216020D02*
D03*
X161290D02*
D03*
Y231020D02*
D03*
X313690Y216020D02*
D03*
Y231020D02*
D03*
X734060Y183000D02*
D03*
Y198000D02*
D03*
X1315720Y222130D02*
D03*
Y207130D02*
D03*
X1149350Y222130D02*
D03*
Y207130D02*
D03*
X1339850Y222130D02*
D03*
Y207130D02*
D03*
D12*
X811220Y371910D02*
D03*
X816220D02*
D03*
X821220D02*
D03*
X826220D02*
D03*
X831220D02*
D03*
X836220D02*
D03*
X841220D02*
D03*
X846220D02*
D03*
X851220D02*
D03*
X856220D02*
D03*
X861220D02*
D03*
X866220D02*
D03*
X871220D02*
D03*
X876220D02*
D03*
X881220D02*
D03*
X886220D02*
D03*
X891220D02*
D03*
X896220D02*
D03*
X901220D02*
D03*
X906220D02*
D03*
X911220D02*
D03*
X916220D02*
D03*
X921220D02*
D03*
X926220D02*
D03*
X931220D02*
D03*
Y219910D02*
D03*
X926220D02*
D03*
X921220D02*
D03*
X916220D02*
D03*
X911220D02*
D03*
X906220D02*
D03*
X901220D02*
D03*
X896220D02*
D03*
X891220D02*
D03*
X886220D02*
D03*
X881220D02*
D03*
X876220D02*
D03*
X871220D02*
D03*
X866220D02*
D03*
X861220D02*
D03*
X856220D02*
D03*
X851220D02*
D03*
X846220D02*
D03*
X841220D02*
D03*
X836220D02*
D03*
X831220D02*
D03*
X826220D02*
D03*
X821220D02*
D03*
X816220D02*
D03*
X811220D02*
D03*
D13*
X947220Y355910D02*
D03*
Y350910D02*
D03*
Y345910D02*
D03*
Y340910D02*
D03*
Y335910D02*
D03*
Y330910D02*
D03*
Y325910D02*
D03*
Y320910D02*
D03*
Y315910D02*
D03*
Y310910D02*
D03*
Y305910D02*
D03*
Y300910D02*
D03*
Y295910D02*
D03*
Y290910D02*
D03*
Y285910D02*
D03*
Y280910D02*
D03*
Y275910D02*
D03*
Y270910D02*
D03*
Y265910D02*
D03*
Y260910D02*
D03*
Y255910D02*
D03*
Y250910D02*
D03*
Y245910D02*
D03*
Y240910D02*
D03*
Y235910D02*
D03*
X795220D02*
D03*
Y240910D02*
D03*
Y245910D02*
D03*
Y250910D02*
D03*
Y255910D02*
D03*
Y260910D02*
D03*
Y265910D02*
D03*
Y270910D02*
D03*
Y275910D02*
D03*
Y280910D02*
D03*
Y285910D02*
D03*
Y290910D02*
D03*
Y295910D02*
D03*
Y300910D02*
D03*
Y305910D02*
D03*
Y310910D02*
D03*
Y315910D02*
D03*
Y320910D02*
D03*
Y325910D02*
D03*
Y330910D02*
D03*
Y335910D02*
D03*
Y340910D02*
D03*
Y345910D02*
D03*
Y350910D02*
D03*
Y355910D02*
D03*
D14*
X1389380Y344170D02*
D03*
Y389890D02*
D03*
D15*
X1412875Y344170D02*
D03*
Y389890D02*
D03*
D16*
X470680Y375920D02*
D03*
X504680D02*
D03*
D17*
X567690Y233680D02*
D03*
X670560Y218440D02*
D03*
D18*
X567690Y208280D02*
D03*
X670560Y193040D02*
D03*
D19*
X665850Y293340D02*
D03*
Y321340D02*
D03*
X680350Y293340D02*
D03*
Y321340D02*
D03*
D20*
X918690Y325910D02*
X947220D01*
X918210Y308610D02*
X920750D01*
X933050Y320910D01*
X946150Y373380D02*
X947220Y372310D01*
Y355910D02*
Y372310D01*
X811220Y306220D02*
X811530Y305910D01*
X795220D02*
X811530D01*
X834390Y283050D01*
X811220Y306220D02*
Y330910D01*
X820420Y236220D02*
X827457D01*
X815670D02*
X820420D01*
X821220Y235420D01*
Y219910D02*
Y235420D01*
X827457Y236220D02*
X834390Y243153D01*
X810260Y241630D02*
X815670Y236220D01*
X926220Y204860D02*
Y219910D01*
X918330Y185420D02*
Y196970D01*
X926220Y204860D01*
X1485900Y302260D02*
X1508760D01*
X1464056Y280416D02*
X1485900Y302260D01*
X1424273Y289560D02*
X1456023Y321310D01*
X1133637Y289560D02*
X1424273D01*
X1131286Y280416D02*
X1464056D01*
X1132969Y284480D02*
X1424940D01*
X1502410Y378460D02*
X1521580D01*
X1183774Y251206D02*
X1212850Y222130D01*
X1126012Y251206D02*
X1183774D01*
X1066068Y311150D02*
X1126012Y251206D01*
X1241940Y255270D02*
X1275080Y222130D01*
X1127695Y255270D02*
X1241940D01*
X1067055Y315910D02*
X1127695Y255270D01*
X1296804Y260096D02*
X1334770Y222130D01*
X1128617Y260096D02*
X1296804D01*
X1404620Y270510D02*
X1453000Y222130D01*
X1129697Y270510D02*
X1404620D01*
X1467888Y275590D02*
X1495829Y247650D01*
X1130365Y275590D02*
X1467888D01*
X1495829Y247650D02*
X1522850D01*
X1065214Y306256D02*
X1138807Y232664D01*
X1374140Y264160D02*
X1399540Y238760D01*
X1130300Y264160D02*
X1374140D01*
X1058550Y335910D02*
X1130300Y264160D01*
X1626870Y315080D02*
X1626990Y314960D01*
X1626870Y315080D02*
Y335280D01*
X1543304Y180340D02*
X1554734Y191770D01*
X1479550Y180340D02*
X1543304D01*
X1446530Y147320D02*
X1479550Y180340D01*
X1588770Y172720D02*
X1595374Y179324D01*
X1511300Y172720D02*
X1588770D01*
X1498600Y160020D02*
X1511300Y172720D01*
X1539240Y189230D02*
X1550670Y200660D01*
X1477010Y189230D02*
X1539240D01*
X1447292Y159512D02*
X1477010Y189230D01*
X1522730Y195580D02*
X1535430Y208280D01*
X1471930Y195580D02*
X1522730D01*
X1447800Y171450D02*
X1471930Y195580D01*
X1405382Y171450D02*
X1447800D01*
X1393444Y159512D02*
X1405382Y171450D01*
X1457960Y191770D02*
Y207130D01*
X1442720Y176530D02*
X1457960Y191770D01*
X1390650Y176530D02*
X1442720D01*
X1425956Y159512D02*
X1447292D01*
X1411224Y147320D02*
X1446530D01*
X1393444Y129540D02*
X1411224Y147320D01*
X1423416Y156972D02*
X1425956Y159512D01*
X1423416D02*
X1425956D01*
X1393444Y156972D02*
X1394714Y158242D01*
X1309370Y177800D02*
X1325880D01*
X1289812Y158242D02*
X1309370Y177800D01*
X1288034Y158242D02*
X1289812D01*
X1209590Y157000D02*
X1225310Y172720D01*
X1253490Y207130D02*
X1254760D01*
X1234440D02*
X1253490D01*
X1212850D02*
X1234440D01*
X1212850Y190260D02*
Y207130D01*
X1179590Y157000D02*
X1212850Y190260D01*
X1149350Y157240D02*
X1149590Y157000D01*
X1149350Y157240D02*
Y207130D01*
X1119590Y157000D02*
X1129030Y166440D01*
X723900Y166116D02*
X731774Y158242D01*
X723900Y166116D02*
Y198120D01*
X612140Y169926D02*
Y218320D01*
Y169926D02*
X623824Y158242D01*
X518414Y217290D02*
Y218306D01*
X491744D02*
X518414D01*
X518160Y217290D02*
X518414Y217036D01*
Y158242D02*
Y217036D01*
X443230Y158242D02*
Y217290D01*
X367030Y158242D02*
Y216020D01*
X290830Y158242D02*
Y216020D01*
X247650Y392430D02*
X445770D01*
X222250Y367030D02*
X247650Y392430D01*
X222250Y367030D02*
X237490Y351790D01*
X445770Y327660D02*
X495300D01*
X408940Y364490D02*
X445770Y327660D01*
X215900Y159512D02*
Y216020D01*
X138430Y158242D02*
Y216020D01*
X1318006Y158242D02*
X1354582D01*
X1498600D02*
Y160020D01*
X1642110Y176530D02*
Y241300D01*
X1623822Y158242D02*
X1642110Y176530D01*
X1574800Y158242D02*
X1623822D01*
X1628140Y186690D02*
Y201930D01*
X1508760Y271780D02*
X1520310D01*
X1521580Y273050D01*
X1138816Y232664D02*
X1149350Y222130D01*
X1138807Y232664D02*
X1138816D01*
X138430Y158242D02*
X139700D01*
X427990Y387350D02*
X466090Y349250D01*
X273050Y387350D02*
X427990D01*
X250190Y364490D02*
X273050Y387350D01*
X1573022Y160020D02*
X1574800Y158242D01*
X1355090Y158750D02*
X1399540Y203200D01*
X1325880Y177800D02*
X1339850Y191770D01*
X1225310Y172720D02*
X1257300D01*
X1129030Y166440D02*
Y207130D01*
X762000Y158496D02*
Y198000D01*
X1399540Y203200D02*
Y207130D01*
X1357630Y143510D02*
X1390650Y176530D01*
X1303274Y143510D02*
X1357630D01*
X107950Y231020D02*
X115570D01*
X104140Y227210D02*
X107950Y231020D01*
X104140Y186690D02*
Y227210D01*
X821220Y371910D02*
Y381983D01*
X931220Y219910D02*
Y235910D01*
X982780Y219910D02*
X985520Y217170D01*
X931220Y219910D02*
X982780D01*
X712470Y336550D02*
X715374Y339454D01*
X716160Y313810D02*
X722630D01*
X712470Y317500D02*
X716160Y313810D01*
X712470Y317500D02*
Y336550D01*
X715374Y339454D02*
X766716D01*
X772160Y334010D01*
Y321310D02*
Y334010D01*
Y321310D02*
X782560Y310910D01*
X795220D01*
X770970Y300910D02*
X795220D01*
X758190Y313690D02*
X770970Y300910D01*
X758190Y313690D02*
Y322580D01*
X637794Y142240D02*
X653796Y158242D01*
X564388Y142240D02*
X637794D01*
X548386Y158242D02*
X564388Y142240D01*
X1586230Y186690D02*
Y255270D01*
X1595374Y246634D02*
X1602740Y254000D01*
X1595374Y179324D02*
Y246634D01*
X683230Y321340D02*
X701040Y303530D01*
X680350Y321340D02*
X683230D01*
X756920Y271780D02*
X781050Y295910D01*
X722630Y285870D02*
X730640Y277860D01*
X758190D01*
X755260Y328810D02*
X757800Y326270D01*
X722630Y328810D02*
X755260D01*
X599440Y218320D02*
X612140D01*
X623570D01*
X656590Y189230D02*
Y209550D01*
X651510Y184150D02*
X656590Y189230D01*
X623570Y203320D02*
X646430D01*
X645160Y284480D02*
X654020Y293340D01*
X665850D01*
X694720D02*
X702310Y285750D01*
X680350Y293340D02*
X694720D01*
X665360Y218320D02*
X670440D01*
X656590Y209550D02*
X665360Y218320D01*
X670440Y218440D02*
X670560D01*
X646430Y218320D02*
X665360D01*
X640080Y264160D02*
X642620D01*
X636150Y268090D02*
X640080Y264160D01*
X546220Y233680D02*
X567690D01*
X574920Y240910D01*
X603250D01*
Y268090D01*
X624840Y184150D02*
X638810Y170180D01*
X1554734Y191770D02*
Y307257D01*
X1550670Y200660D02*
Y258960D01*
X1508760Y222370D02*
Y237490D01*
Y222370D02*
X1522850Y208280D01*
X1493520Y222250D02*
X1508760Y237490D01*
X1493520Y222130D02*
Y222250D01*
X1535430Y208280D02*
X1537850D01*
X1536580Y325411D02*
X1554734Y307257D01*
X1536580Y325411D02*
Y336550D01*
Y356870D02*
Y378460D01*
Y336550D02*
Y356870D01*
Y293370D02*
Y314960D01*
Y273050D02*
Y293370D01*
Y273050D02*
X1550670Y258960D01*
X1537850Y208280D02*
Y227330D01*
Y247650D01*
X1288034Y128270D02*
X1303274Y143510D01*
X1339850Y191770D02*
Y207130D01*
X1315720Y187960D02*
X1327150Y199390D01*
X1253490Y187960D02*
X1263650Y198120D01*
X1365250Y187960D02*
X1377950D01*
X1386840Y196850D01*
X1149350Y207130D02*
X1169670D01*
X1189990D01*
X1139190Y187960D02*
Y217170D01*
X1134230Y222130D02*
X1139190Y217170D01*
X1129030Y222130D02*
X1134230D01*
X1085850Y207130D02*
X1107440D01*
X1129030D01*
X753110Y198000D02*
X762000D01*
X772160D01*
X799980Y183000D02*
X805180Y177800D01*
X791210Y183000D02*
X799980D01*
X772160Y198000D02*
X791210D01*
X803910Y186690D02*
X807720Y182880D01*
X868680D01*
X805180Y177800D02*
X869950D01*
X891540Y199390D01*
X723900Y198120D02*
Y215900D01*
Y198120D02*
X724020Y198000D01*
X734060D01*
X694690Y218320D02*
X721480D01*
X723900Y215900D01*
X753110Y196850D02*
Y198000D01*
X670560Y218440D02*
Y224790D01*
X675386Y229616D02*
X725583D01*
X670560Y224790D02*
X675386Y229616D01*
X624840Y184150D02*
X626110Y185420D01*
X191770Y216020D02*
X193040D01*
X215900D01*
X947220Y315910D02*
X1067055D01*
X947460Y311150D02*
X1066068D01*
X687593Y385204D02*
X817999D01*
X821220Y381983D01*
X1631830Y254000D02*
X1641990Y264160D01*
Y309880D01*
X1616710Y229750D02*
X1628260Y241300D01*
X1616710Y195580D02*
Y229750D01*
X1607820Y186690D02*
X1616710Y195580D01*
X909255Y408940D02*
X985047D01*
X897156Y396841D02*
X909255Y408940D01*
X923290Y388620D02*
X976630D01*
X920750Y386080D02*
X923290Y388620D01*
X624840Y268090D02*
X636150D01*
X1327150Y199390D02*
Y212090D01*
X1317110Y222130D02*
X1327150Y212090D01*
X1315720Y222130D02*
X1317110D01*
X525780Y359410D02*
Y374650D01*
X515620Y349250D02*
X525780Y359410D01*
X466090Y349250D02*
X515620D01*
X807000Y250910D02*
X810260Y247650D01*
Y241630D02*
Y247650D01*
X785147Y255910D02*
X795220D01*
X781926Y259131D02*
X785147Y255910D01*
X781926Y259131D02*
Y262689D01*
X795220Y250910D02*
X807000D01*
X1286510Y360680D02*
X1308100Y382270D01*
X1337310D01*
X1371600Y347980D01*
X1389380D01*
X445770Y392430D02*
X462280Y375920D01*
X470680D01*
X1286510Y332420D02*
Y360680D01*
X502920Y316230D02*
Y320040D01*
X495300Y327660D02*
X502920Y320040D01*
X257424Y316230D02*
X470020D01*
X986070Y340910D02*
X991870Y346710D01*
X947220Y340910D02*
X986070D01*
X961860Y345910D02*
X965320Y349370D01*
X947220Y345910D02*
X961860D01*
X965320Y349370D02*
Y372110D01*
X866220Y346710D02*
Y371910D01*
X985520Y194310D02*
Y217170D01*
X485020Y316230D02*
X502920D01*
X237490Y336550D02*
Y351790D01*
Y336550D02*
X239141Y334899D01*
Y334513D02*
Y334899D01*
Y334513D02*
X257424Y316230D01*
X643890Y302260D02*
Y322580D01*
X1436370Y222130D02*
X1441570D01*
X1446530Y217170D01*
Y198120D02*
Y217170D01*
X1436370Y187960D02*
X1446530Y198120D01*
X1436370Y186690D02*
Y187960D01*
X1376680Y222130D02*
X1380610D01*
X1386840Y215900D01*
Y196850D02*
Y215900D01*
X1334770Y222130D02*
X1339850D01*
X1253490D02*
X1263650Y211970D01*
Y198120D02*
Y211970D01*
X1189990Y223400D02*
X1201420Y211970D01*
Y199390D02*
Y211970D01*
X1189990Y187960D02*
X1201420Y199390D01*
X1047202Y301244D02*
X1073150Y275296D01*
Y234830D02*
Y275296D01*
Y234830D02*
X1085850Y222130D01*
X947566Y306256D02*
X1065214D01*
X947554Y301244D02*
X1047202D01*
X1339850Y207130D02*
X1375410D01*
X1399540Y222130D02*
Y238760D01*
X808514Y279876D02*
X822960Y265430D01*
X808514Y279876D02*
Y287689D01*
X1389380Y347980D02*
Y392430D01*
X795220Y250910D02*
Y255910D01*
X1301660Y332270D02*
X1317910D01*
X891220Y219910D02*
X891540Y219590D01*
Y199390D02*
Y219590D01*
X886220Y200420D02*
Y219910D01*
X781050Y295910D02*
X795220D01*
X603250Y240910D02*
X784470D01*
X786130D02*
X795220D01*
X1453000Y222130D02*
X1460500D01*
X976630Y257030D02*
Y284480D01*
X960510Y240910D02*
X976630Y257030D01*
X947220Y240910D02*
X960510D01*
X976630Y284480D02*
X989330Y297180D01*
X1037590D01*
X947220Y235910D02*
X964890D01*
X985520Y256540D01*
Y273050D01*
X1457960Y207130D02*
X1497330D01*
X1399540D02*
X1418590D01*
X1437640D01*
X1295400D02*
X1315720D01*
X1275080D02*
X1295400D01*
X836220Y371910D02*
Y390600D01*
X831220Y371910D02*
Y389250D01*
X267970Y216020D02*
X290830D01*
X826220Y371910D02*
Y385360D01*
X215900Y216020D02*
X234950D01*
X1037590Y297180D02*
X1061720Y273050D01*
X933050Y320910D02*
X947220D01*
X920750Y372380D02*
Y386080D01*
Y372380D02*
X921220Y371910D01*
X916220D02*
X916686Y371444D01*
X911220Y371910D02*
X911926Y371204D01*
X1602740Y254000D02*
X1631830D01*
X919734Y392684D02*
X978313D01*
X916220Y389170D02*
X919734Y392684D01*
X916220Y371910D02*
Y389170D01*
X916178Y396748D02*
X979997D01*
X911220Y391790D02*
X916178Y396748D01*
X911220Y371910D02*
Y391790D01*
X912622Y400812D02*
X981680D01*
X906220Y394410D02*
X912622Y400812D01*
X906220Y371910D02*
Y394410D01*
X910939Y404876D02*
X983363D01*
X901220Y371910D02*
Y395157D01*
X910939Y404876D01*
X897156Y396776D02*
Y396841D01*
X896220Y371910D02*
Y395840D01*
X897156Y396776D01*
X821690Y194310D02*
Y196850D01*
X831220Y206380D01*
Y219910D01*
X836220Y196290D02*
Y219910D01*
Y196290D02*
X838200Y194310D01*
X841220Y209070D02*
Y219910D01*
Y209070D02*
X855980Y194310D01*
X138430Y216020D02*
X161290D01*
X115570D02*
X138430D01*
X182760Y231020D02*
X193040D01*
X248920Y224790D02*
X255150Y231020D01*
X266700D01*
X367030Y216020D02*
X392430D01*
X339090D02*
X367030D01*
X393700Y232290D02*
X394850D01*
X290830Y216020D02*
X313690D01*
X234950Y231020D02*
Y232290D01*
X248920Y186690D02*
Y224790D01*
X326390Y228600D02*
X328810Y231020D01*
X339090D01*
X326390Y186690D02*
Y228600D01*
X419100Y217290D02*
X443230D01*
X468630D01*
X409060Y232290D02*
X419100D01*
X406400Y229630D02*
X409060Y232290D01*
X406400Y186690D02*
Y229630D01*
X518160Y233560D02*
X528440D01*
X795220Y330910D02*
X811220D01*
Y371910D01*
X782880Y330910D02*
X795220D01*
X468630Y232290D02*
X477386Y241046D01*
X543435D01*
X687593Y385204D01*
X544830Y232290D02*
X546220Y233680D01*
X528440Y233560D02*
X530860Y231140D01*
Y220980D02*
Y231140D01*
Y220980D02*
X533280Y218560D01*
X543560D01*
X544830Y217290D01*
X543560Y218560D02*
X544830D01*
X734060Y183000D02*
X740530D01*
X742950Y185420D01*
Y204470D01*
X744220Y205740D01*
X800100D01*
X803910Y201930D01*
X868680Y182880D02*
X886220Y200420D01*
X803910Y186690D02*
Y201930D01*
X731877Y235910D02*
X795220D01*
X725583Y229616D02*
X731877Y235910D01*
X1586230Y255270D02*
X1604010Y273050D01*
X1624450D01*
X1626990Y270510D01*
X175260Y223520D02*
X182760Y231020D01*
X175260Y186690D02*
Y223520D01*
X795220Y290910D02*
X805293D01*
X808514Y287689D01*
X785147Y265910D02*
X795220D01*
X781926Y262689D02*
X785147Y265910D01*
X701040Y170180D02*
X708660Y177800D01*
Y203320D01*
X638810Y170180D02*
X701040D01*
X683260Y153670D02*
X693420Y143510D01*
X683260Y153670D02*
Y170180D01*
X772160Y179070D02*
Y183000D01*
Y179070D02*
X778510Y172720D01*
X1257300D02*
X1275080Y190500D01*
Y207130D01*
X784860Y172720D02*
X791210Y166370D01*
X778510Y172720D02*
X784860D01*
X791210Y147320D02*
Y166370D01*
X787400Y143510D02*
X791210Y147320D01*
X693420Y143510D02*
X787400D01*
X931220Y361837D02*
Y371910D01*
X926253Y356870D02*
X931220Y361837D01*
X911860Y356870D02*
X926253D01*
X900430Y326390D02*
Y345440D01*
X911860Y356870D01*
X834390Y264160D02*
X901700D01*
X834390D02*
Y283050D01*
Y243153D02*
Y264160D01*
X902970D02*
X931220Y235910D01*
X901700Y264160D02*
X902970D01*
X1135320Y293624D02*
X1417574D01*
X1502410Y378460D01*
X1456023Y321310D02*
X1508760D01*
X1518024Y311404D02*
X1521580Y314960D01*
X1424940Y284480D02*
X1451864Y311404D01*
X1518024D01*
X1513638Y344492D02*
X1521580Y336550D01*
X1508760Y344492D02*
X1513638D01*
X643890Y322580D02*
X680720Y359410D01*
X714890D02*
Y368300D01*
X680720Y359410D02*
X754380D01*
X782880Y330910D01*
X685910Y389268D02*
X822312D01*
X826220Y385360D01*
X684227Y393332D02*
X827138D01*
X831220Y389250D01*
X682543Y397396D02*
X829424D01*
X836220Y390600D01*
X680860Y401460D02*
X831107D01*
X846220Y386347D01*
Y371910D02*
Y386347D01*
X1057803Y330910D02*
X1128617Y260096D01*
X947220Y330910D02*
X1057803D01*
X985047Y408940D02*
X1029497Y364490D01*
X1064454D01*
X1135320Y293624D01*
X983363Y404876D02*
X1027813Y360426D01*
X1062771D01*
X1133637Y289560D01*
X981680Y400812D02*
X1026130Y356362D01*
X1061087D01*
X1132969Y284480D01*
X979997Y396748D02*
X1024447Y352298D01*
X1059404D01*
X1131286Y280416D01*
X978313Y392684D02*
X1022763Y348234D01*
X1057721D01*
X1130365Y275590D01*
X976630Y388620D02*
X1021080Y344170D01*
X1056037D01*
X1129697Y270510D01*
X947220Y335910D02*
X1058550D01*
X394850Y232290D02*
X437642Y275082D01*
X571724D01*
X685910Y389268D01*
X470020Y308730D02*
Y316230D01*
Y308730D02*
X473950Y304800D01*
X508000D01*
X519430Y316230D01*
X530860D01*
X217544Y287274D02*
X566674D01*
X680860Y401460D01*
X361816Y279146D02*
X570041D01*
X684227Y393332D01*
X568357Y283210D02*
X682543Y397396D01*
X234950Y232290D02*
X285870Y283210D01*
X568357D01*
X161290Y231020D02*
X217544Y287274D01*
X313690Y231020D02*
X361816Y279146D01*
D21*
X993950Y175260D02*
X1009650Y159560D01*
X886920Y175260D02*
X993950D01*
X871220Y159560D02*
X886920Y175260D01*
X1408430Y406400D02*
X1412875Y401955D01*
X1363980Y406400D02*
X1408430D01*
X1350010Y392430D02*
X1363980Y406400D01*
X1432560Y347980D02*
X1454150Y369570D01*
X1412875Y347980D02*
X1432560D01*
X1146810Y304800D02*
Y350520D01*
X1197610D02*
X1239520Y392430D01*
X1350010D01*
X1412875D02*
Y401955D01*
X1009650Y159560D02*
X1010920Y160830D01*
Y194310D01*
X1036320Y162890D02*
X1039650Y159560D01*
X1036320Y162890D02*
Y194310D01*
X901220Y159560D02*
X916000Y144780D01*
X1024870D01*
X1039650Y159560D01*
X901220Y129560D02*
X908030D01*
X922020Y115570D01*
X1025660D01*
X1039650Y129560D02*
X1085850Y175760D01*
X1025660Y115570D02*
X1039650Y129560D01*
X1085850Y175760D02*
Y187960D01*
D22*
X979650Y159560D02*
D03*
Y129560D02*
D03*
X1039650D02*
D03*
X1009650D02*
D03*
X1039650Y159560D02*
D03*
X1009650D02*
D03*
X1119590Y157000D02*
D03*
X1149590D02*
D03*
X1179590D02*
D03*
X1209590D02*
D03*
X1119590Y127000D02*
D03*
X1149590D02*
D03*
X1179590D02*
D03*
X1209590D02*
D03*
X901220Y159560D02*
D03*
X871220D02*
D03*
X841220D02*
D03*
Y129560D02*
D03*
X901220D02*
D03*
X871220D02*
D03*
D23*
X1009650Y86360D02*
D03*
X1187990Y83800D02*
D03*
X1141190D02*
D03*
X871220Y86360D02*
D03*
D24*
X62230Y383540D02*
D03*
Y64770D02*
D03*
X1652270Y383540D02*
D03*
Y64770D02*
D03*
X638810Y85090D02*
D03*
X1303020D02*
D03*
X746760D02*
D03*
X1408430Y86360D02*
D03*
X533400Y85090D02*
D03*
D25*
X1574800Y158242D02*
D03*
Y128270D02*
D03*
X443230Y158242D02*
D03*
Y128270D02*
D03*
X139700Y158242D02*
D03*
Y128270D02*
D03*
X214630Y158242D02*
D03*
Y128270D02*
D03*
X367030Y158242D02*
D03*
Y128270D02*
D03*
X290830Y158242D02*
D03*
Y128270D02*
D03*
X1498600Y158242D02*
D03*
Y128270D02*
D03*
D26*
X1574800Y85090D02*
D03*
X443230D02*
D03*
X139700D02*
D03*
X214630D02*
D03*
X367030D02*
D03*
X290830D02*
D03*
X1498600D02*
D03*
D27*
X653796Y158242D02*
D03*
X623824D02*
D03*
X653796Y128270D02*
D03*
X623824D02*
D03*
X1318006Y158242D02*
D03*
X1288034D02*
D03*
X1318006Y128270D02*
D03*
X1288034D02*
D03*
X761746Y158242D02*
D03*
X731774D02*
D03*
X761746Y128270D02*
D03*
X731774D02*
D03*
X1423416Y159512D02*
D03*
X1393444D02*
D03*
X1423416Y129540D02*
D03*
X1393444D02*
D03*
X548386Y158242D02*
D03*
X518414D02*
D03*
X548386Y128270D02*
D03*
X518414D02*
D03*
D28*
X173990Y369570D02*
D03*
Y344170D02*
D03*
X199390D02*
D03*
Y369570D02*
D03*
X250190D02*
D03*
Y344170D02*
D03*
X224790D02*
D03*
Y369570D02*
D03*
X326390D02*
D03*
Y344170D02*
D03*
X351790D02*
D03*
Y369570D02*
D03*
X300990D02*
D03*
Y344170D02*
D03*
X275590D02*
D03*
Y369570D02*
D03*
X402590D02*
D03*
Y344170D02*
D03*
X377190D02*
D03*
Y369570D02*
D03*
D29*
X1197610Y347980D02*
D03*
X1172210D02*
D03*
X1146810D02*
D03*
X758190Y277860D02*
D03*
Y326660D02*
D03*
X1286510Y358140D02*
D03*
X1261110D02*
D03*
X1311910D02*
D03*
X1337310D02*
D03*
D30*
X985520Y194310D02*
D03*
X1010920D02*
D03*
X1036320D02*
D03*
X1061720D02*
D03*
X985520Y273050D02*
D03*
X1061720D02*
D03*
X1010920D02*
D03*
X1036320D02*
D03*
D31*
X918210Y326390D02*
D03*
Y308610D02*
D03*
X946150Y373380D02*
D03*
X901700Y284480D02*
D03*
X866140Y346710D02*
D03*
X822960Y246380D02*
D03*
X1508760Y302260D02*
D03*
X1475740Y240030D02*
D03*
X1418590Y238760D02*
D03*
X1358900Y241300D02*
D03*
X1295400D02*
D03*
X1234440Y242570D02*
D03*
X1169670Y240030D02*
D03*
X1107440D02*
D03*
X1626870Y335280D02*
D03*
X1628140Y186690D02*
D03*
X1508760Y271780D02*
D03*
X840740Y346710D02*
D03*
X104140Y186690D02*
D03*
X1586230D02*
D03*
X702310Y285750D02*
D03*
X701040Y303530D02*
D03*
X651510Y184150D02*
D03*
X642620Y264160D02*
D03*
X645160Y284480D02*
D03*
X1508760Y237490D02*
D03*
X1315720Y187960D02*
D03*
X1253490D02*
D03*
X1365250D02*
D03*
X1139190D02*
D03*
X624840Y184150D02*
D03*
X1607820Y186690D02*
D03*
X525780Y374650D02*
D03*
X1454150Y369570D02*
D03*
X991870Y346710D02*
D03*
X502920Y316230D02*
D03*
X643890Y302260D02*
D03*
X1085850Y187960D02*
D03*
X1436370Y186690D02*
D03*
X1189990Y187960D02*
D03*
X1106170D02*
D03*
X822960Y265430D02*
D03*
X838200Y194310D02*
D03*
X821690D02*
D03*
X855980D02*
D03*
X248920Y186690D02*
D03*
X326390D02*
D03*
X406400D02*
D03*
X175260D02*
D03*
X1146810Y304800D02*
D03*
X918210Y344170D02*
D03*
X900430Y326390D02*
D03*
X901700Y264160D02*
D03*
X1508760Y321310D02*
D03*
Y344492D02*
D03*
X530860Y316230D02*
D03*
X367030Y250190D02*
D03*
X292100Y248920D02*
D03*
X215900D02*
D03*
X443230Y250190D02*
D03*
X567690D02*
D03*
M02*
