G04 Layer_Physical_Order=2*
G04 Layer_Color=16711680*
%FSLAX44Y44*%
%MOMM*%
G71*
G01*
G75*
%ADD10R,0.5000X0.8000*%
%ADD11R,0.8000X0.5000*%
%ADD20C,0.2540*%
%ADD21C,0.3810*%
%ADD22C,1.7000*%
%ADD23C,3.5000*%
%ADD24C,3.8100*%
%ADD25C,2.0320*%
%ADD26C,3.5560*%
%ADD27C,1.7780*%
%ADD28C,1.6510*%
%ADD29C,2.0000*%
%ADD30O,1.0160X1.5240*%
%ADD31C,1.2700*%
%ADD32R,0.8000X0.8000*%
G36*
X1636490Y411405D02*
X1636848Y410135D01*
X1634149Y408481D01*
X1630471Y405339D01*
X1627329Y401661D01*
X1624801Y397536D01*
X1622950Y393067D01*
X1621821Y388363D01*
X1621441Y383540D01*
X1621821Y378717D01*
X1622950Y374013D01*
X1624801Y369544D01*
X1627329Y365419D01*
X1630471Y361741D01*
X1634149Y358599D01*
X1638274Y356071D01*
X1642743Y354220D01*
X1647447Y353091D01*
X1652270Y352711D01*
X1657093Y353091D01*
X1661797Y354220D01*
X1666266Y356071D01*
X1666402Y356154D01*
X1667510Y355534D01*
Y92776D01*
X1666402Y92156D01*
X1666266Y92239D01*
X1661797Y94090D01*
X1657093Y95219D01*
X1652270Y95599D01*
X1647447Y95219D01*
X1642743Y94090D01*
X1638274Y92239D01*
X1634149Y89711D01*
X1630471Y86569D01*
X1627329Y82891D01*
X1624801Y78766D01*
X1622950Y74297D01*
X1621821Y69593D01*
X1621441Y64770D01*
X1621821Y59947D01*
X1622950Y55243D01*
X1624801Y50774D01*
X1627329Y46649D01*
X1630471Y42971D01*
X1634149Y39829D01*
X1636849Y38174D01*
X1636491Y36904D01*
X78009Y36904D01*
X77651Y38174D01*
X80351Y39829D01*
X84029Y42971D01*
X87171Y46649D01*
X89699Y50774D01*
X91550Y55243D01*
X92680Y59947D01*
X93059Y64770D01*
X92680Y69593D01*
X91550Y74297D01*
X89699Y78766D01*
X87171Y82891D01*
X84029Y86569D01*
X80351Y89711D01*
X76226Y92239D01*
X71757Y94090D01*
X67053Y95219D01*
X62230Y95599D01*
X57407Y95219D01*
X52703Y94090D01*
X49316Y92687D01*
X48260Y93393D01*
Y354917D01*
X49316Y355623D01*
X52703Y354220D01*
X57407Y353091D01*
X62230Y352711D01*
X67053Y353091D01*
X71757Y354220D01*
X76226Y356071D01*
X80351Y358599D01*
X84029Y361741D01*
X87171Y365419D01*
X89699Y369544D01*
X91550Y374013D01*
X92680Y378717D01*
X93059Y383540D01*
X92680Y388363D01*
X91550Y393067D01*
X89699Y397536D01*
X87171Y401661D01*
X84029Y405339D01*
X80351Y408481D01*
X77964Y409944D01*
X78321Y411214D01*
X318460Y411405D01*
X1636490Y411405D01*
D02*
G37*
%LPC*%
G36*
X1316736Y139631D02*
X1315022Y139406D01*
X1312242Y138254D01*
X1309854Y136422D01*
X1308022Y134034D01*
X1306870Y131254D01*
X1306645Y129540D01*
X1316736D01*
Y139631D01*
D02*
G37*
G36*
X763016D02*
Y129540D01*
X773107D01*
X772882Y131254D01*
X771730Y134034D01*
X769898Y136422D01*
X767510Y138254D01*
X764730Y139406D01*
X763016Y139631D01*
D02*
G37*
G36*
X1499870Y140912D02*
Y129540D01*
X1511242D01*
X1510973Y131585D01*
X1509693Y134675D01*
X1507658Y137328D01*
X1505005Y139363D01*
X1501915Y140643D01*
X1499870Y140912D01*
D02*
G37*
G36*
X1319276Y139631D02*
Y129540D01*
X1329367D01*
X1329142Y131254D01*
X1327990Y134034D01*
X1326158Y136422D01*
X1323770Y138254D01*
X1320990Y139406D01*
X1319276Y139631D01*
D02*
G37*
G36*
X655066D02*
Y129540D01*
X665157D01*
X664932Y131254D01*
X663780Y134034D01*
X661948Y136422D01*
X659560Y138254D01*
X656780Y139406D01*
X655066Y139631D01*
D02*
G37*
G36*
X652526D02*
X650812Y139406D01*
X648032Y138254D01*
X645644Y136422D01*
X643812Y134034D01*
X642660Y131254D01*
X642435Y129540D01*
X652526D01*
Y139631D01*
D02*
G37*
G36*
X730504D02*
X728790Y139406D01*
X726010Y138254D01*
X723622Y136422D01*
X721790Y134034D01*
X720638Y131254D01*
X720413Y129540D01*
X730504D01*
Y139631D01*
D02*
G37*
G36*
X760476D02*
X758762Y139406D01*
X755982Y138254D01*
X753594Y136422D01*
X751762Y134034D01*
X750610Y131254D01*
X750385Y129540D01*
X760476D01*
Y139631D01*
D02*
G37*
G36*
X733044D02*
Y129540D01*
X743135D01*
X742910Y131254D01*
X741758Y134034D01*
X739926Y136422D01*
X737538Y138254D01*
X734758Y139406D01*
X733044Y139631D01*
D02*
G37*
G36*
X267970Y135050D02*
X262700D01*
Y129780D01*
X267970D01*
Y135050D01*
D02*
G37*
G36*
X199580D02*
X194310D01*
Y129780D01*
X199580D01*
Y135050D01*
D02*
G37*
G36*
X275780D02*
X270510D01*
Y129780D01*
X275780D01*
Y135050D01*
D02*
G37*
G36*
X428180D02*
X422910D01*
Y129780D01*
X428180D01*
Y135050D01*
D02*
G37*
G36*
X420370D02*
X415100D01*
Y129780D01*
X420370D01*
Y135050D01*
D02*
G37*
G36*
X345440D02*
X340170D01*
Y129780D01*
X345440D01*
Y135050D01*
D02*
G37*
G36*
X1576070Y140912D02*
Y129540D01*
X1587442D01*
X1587173Y131585D01*
X1585893Y134675D01*
X1583858Y137328D01*
X1581205Y139363D01*
X1578115Y140643D01*
X1576070Y140912D01*
D02*
G37*
G36*
X1477010Y135050D02*
X1471740D01*
Y129780D01*
X1477010D01*
Y135050D01*
D02*
G37*
G36*
X191770D02*
X186500D01*
Y129780D01*
X191770D01*
Y135050D01*
D02*
G37*
G36*
X119380D02*
X114110D01*
Y129780D01*
X119380D01*
Y135050D01*
D02*
G37*
G36*
X625094Y139631D02*
Y129540D01*
X635185D01*
X634960Y131254D01*
X633808Y134034D01*
X631976Y136422D01*
X629588Y138254D01*
X626808Y139406D01*
X625094Y139631D01*
D02*
G37*
G36*
X140970Y140912D02*
Y129540D01*
X152342D01*
X152073Y131585D01*
X150793Y134675D01*
X148758Y137328D01*
X146105Y139363D01*
X143015Y140643D01*
X140970Y140912D01*
D02*
G37*
G36*
X1235900Y133780D02*
X1230630D01*
Y128510D01*
X1235900D01*
Y133780D01*
D02*
G37*
G36*
X215900Y140912D02*
Y129540D01*
X227272D01*
X227003Y131585D01*
X225723Y134675D01*
X223688Y137328D01*
X221035Y139363D01*
X217945Y140643D01*
X215900Y140912D01*
D02*
G37*
G36*
X213360D02*
X211315Y140643D01*
X208225Y139363D01*
X205572Y137328D01*
X203537Y134675D01*
X202257Y131585D01*
X201988Y129540D01*
X213360D01*
Y140912D01*
D02*
G37*
G36*
X1228090Y133780D02*
X1222820D01*
Y128510D01*
X1228090D01*
Y133780D01*
D02*
G37*
G36*
X1180860Y137968D02*
Y128270D01*
X1190558D01*
X1190346Y129882D01*
X1189233Y132568D01*
X1187464Y134874D01*
X1185158Y136643D01*
X1182472Y137756D01*
X1180860Y137968D01*
D02*
G37*
G36*
X1178320D02*
X1176708Y137756D01*
X1174022Y136643D01*
X1171716Y134874D01*
X1169947Y132568D01*
X1168834Y129882D01*
X1168622Y128270D01*
X1178320D01*
Y137968D01*
D02*
G37*
G36*
X1099820Y133780D02*
X1094550D01*
Y128510D01*
X1099820D01*
Y133780D01*
D02*
G37*
G36*
X1210860Y137968D02*
Y128270D01*
X1220558D01*
X1220346Y129882D01*
X1219233Y132568D01*
X1217464Y134874D01*
X1215158Y136643D01*
X1212472Y137756D01*
X1210860Y137968D01*
D02*
G37*
G36*
X289560Y140912D02*
X287515Y140643D01*
X284425Y139363D01*
X281772Y137328D01*
X279737Y134675D01*
X278457Y131585D01*
X278188Y129540D01*
X289560D01*
Y140912D01*
D02*
G37*
G36*
X547116Y139631D02*
X545402Y139406D01*
X542622Y138254D01*
X540234Y136422D01*
X538402Y134034D01*
X537250Y131254D01*
X537025Y129540D01*
X547116D01*
Y139631D01*
D02*
G37*
G36*
X519684D02*
Y129540D01*
X529775D01*
X529550Y131254D01*
X528398Y134034D01*
X526566Y136422D01*
X524178Y138254D01*
X521398Y139406D01*
X519684Y139631D01*
D02*
G37*
G36*
X622554D02*
X620840Y139406D01*
X618060Y138254D01*
X615672Y136422D01*
X613840Y134034D01*
X612688Y131254D01*
X612463Y129540D01*
X622554D01*
Y139631D01*
D02*
G37*
G36*
X549656D02*
Y129540D01*
X559747D01*
X559522Y131254D01*
X558370Y134034D01*
X556538Y136422D01*
X554150Y138254D01*
X551370Y139406D01*
X549656Y139631D01*
D02*
G37*
G36*
X517144D02*
X515430Y139406D01*
X512650Y138254D01*
X510262Y136422D01*
X508430Y134034D01*
X507278Y131254D01*
X507053Y129540D01*
X517144D01*
Y139631D01*
D02*
G37*
G36*
X368300Y140912D02*
Y129540D01*
X379672D01*
X379403Y131585D01*
X378123Y134675D01*
X376088Y137328D01*
X373435Y139363D01*
X370345Y140643D01*
X368300Y140912D01*
D02*
G37*
G36*
X292100D02*
Y129540D01*
X303472D01*
X303203Y131585D01*
X301923Y134675D01*
X299888Y137328D01*
X297235Y139363D01*
X294145Y140643D01*
X292100Y140912D01*
D02*
G37*
G36*
X444500D02*
Y129540D01*
X455872D01*
X455603Y131585D01*
X454323Y134675D01*
X452288Y137328D01*
X449635Y139363D01*
X446545Y140643D01*
X444500Y140912D01*
D02*
G37*
G36*
X441960D02*
X439915Y140643D01*
X436825Y139363D01*
X434172Y137328D01*
X432137Y134675D01*
X430857Y131585D01*
X430588Y129540D01*
X441960D01*
Y140912D01*
D02*
G37*
G36*
X496570Y135050D02*
X491300D01*
Y129780D01*
X496570D01*
Y135050D01*
D02*
G37*
G36*
X1573530Y140912D02*
X1571485Y140643D01*
X1568395Y139363D01*
X1565742Y137328D01*
X1563707Y134675D01*
X1563560Y134321D01*
X1562290Y134573D01*
Y136320D01*
X1557020D01*
Y131050D01*
X1561075D01*
X1562189Y129780D01*
X1562158Y129540D01*
X1573530D01*
Y140912D01*
D02*
G37*
G36*
X138430D02*
X136385Y140643D01*
X133295Y139363D01*
X130642Y137328D01*
X128607Y134675D01*
X128460Y134321D01*
X127190Y134573D01*
Y135050D01*
X121920D01*
Y129780D01*
X126126D01*
X126337Y129540D01*
X138430D01*
Y140912D01*
D02*
G37*
G36*
X1228090Y141590D02*
X1222820D01*
Y136320D01*
X1228090D01*
Y141590D01*
D02*
G37*
G36*
X1099820D02*
X1094550D01*
Y136320D01*
X1099820D01*
Y141590D01*
D02*
G37*
G36*
X1379410Y137590D02*
X1374140D01*
Y132320D01*
X1379410D01*
Y137590D01*
D02*
G37*
G36*
X1450530Y136320D02*
X1445260D01*
Y131050D01*
X1450530D01*
Y136320D01*
D02*
G37*
G36*
X1442720D02*
X1437450D01*
Y131050D01*
X1442720D01*
Y136320D01*
D02*
G37*
G36*
X1371600Y137590D02*
X1366330D01*
Y132320D01*
X1371600D01*
Y137590D01*
D02*
G37*
G36*
X1554480Y136320D02*
X1549210D01*
Y131050D01*
X1554480D01*
Y136320D01*
D02*
G37*
G36*
X1235900Y141590D02*
X1230630D01*
Y136320D01*
X1235900D01*
Y141590D01*
D02*
G37*
G36*
X603250Y142860D02*
X597980D01*
Y137590D01*
X603250D01*
Y142860D01*
D02*
G37*
G36*
X496570D02*
X491300D01*
Y137590D01*
X496570D01*
Y142860D01*
D02*
G37*
G36*
X1336040D02*
X1330770D01*
Y137590D01*
X1336040D01*
Y142860D01*
D02*
G37*
G36*
X1267460D02*
X1262190D01*
Y137590D01*
X1267460D01*
Y142860D01*
D02*
G37*
G36*
X420370D02*
X415100D01*
Y137590D01*
X420370D01*
Y142860D01*
D02*
G37*
G36*
X191770D02*
X186500D01*
Y137590D01*
X191770D01*
Y142860D01*
D02*
G37*
G36*
X1107630Y141590D02*
X1102360D01*
Y136320D01*
X1107630D01*
Y141590D01*
D02*
G37*
G36*
X345440Y142860D02*
X340170D01*
Y137590D01*
X345440D01*
Y142860D01*
D02*
G37*
G36*
X267970D02*
X262700D01*
Y137590D01*
X267970D01*
Y142860D01*
D02*
G37*
G36*
X1010920Y140528D02*
Y130830D01*
X1020618D01*
X1020406Y132442D01*
X1019293Y135128D01*
X1017524Y137434D01*
X1015218Y139203D01*
X1012532Y140316D01*
X1010920Y140528D01*
D02*
G37*
G36*
X787590Y135050D02*
X782320D01*
Y129780D01*
X787590D01*
Y135050D01*
D02*
G37*
G36*
X779780D02*
X774510D01*
Y129780D01*
X779780D01*
Y135050D01*
D02*
G37*
G36*
X1275270D02*
X1270000D01*
Y129780D01*
X1275270D01*
Y135050D01*
D02*
G37*
G36*
X1267460D02*
X1262190D01*
Y129780D01*
X1267460D01*
Y135050D01*
D02*
G37*
G36*
X719010D02*
X713740D01*
Y129780D01*
X719010D01*
Y135050D01*
D02*
G37*
G36*
X603250D02*
X597980D01*
Y129780D01*
X603250D01*
Y135050D01*
D02*
G37*
G36*
X504380D02*
X499110D01*
Y129780D01*
X504380D01*
Y135050D01*
D02*
G37*
G36*
X711200D02*
X705930D01*
Y129780D01*
X711200D01*
Y135050D01*
D02*
G37*
G36*
X611060D02*
X605790D01*
Y129780D01*
X611060D01*
Y135050D01*
D02*
G37*
G36*
X1336040D02*
X1330770D01*
Y129780D01*
X1336040D01*
Y135050D01*
D02*
G37*
G36*
X869950Y140528D02*
X868338Y140316D01*
X865652Y139203D01*
X863346Y137434D01*
X861577Y135128D01*
X860464Y132442D01*
X860252Y130830D01*
X869950D01*
Y140528D01*
D02*
G37*
G36*
X1424686Y140901D02*
Y130810D01*
X1434777D01*
X1434552Y132524D01*
X1433400Y135304D01*
X1431568Y137692D01*
X1429180Y139524D01*
X1426400Y140676D01*
X1424686Y140901D01*
D02*
G37*
G36*
X1008380Y140528D02*
X1006768Y140316D01*
X1004082Y139203D01*
X1001776Y137434D01*
X1000007Y135128D01*
X998894Y132442D01*
X998682Y130830D01*
X1008380D01*
Y140528D01*
D02*
G37*
G36*
X872490D02*
Y130830D01*
X882188D01*
X881976Y132442D01*
X880863Y135128D01*
X879094Y137434D01*
X876788Y139203D01*
X874102Y140316D01*
X872490Y140528D01*
D02*
G37*
G36*
X1422146Y140901D02*
X1420432Y140676D01*
X1417652Y139524D01*
X1415264Y137692D01*
X1413432Y135304D01*
X1412280Y132524D01*
X1412055Y130810D01*
X1422146D01*
Y140901D01*
D02*
G37*
G36*
X1118320Y137968D02*
X1116708Y137756D01*
X1114022Y136643D01*
X1111716Y134874D01*
X1109947Y132568D01*
X1108834Y129882D01*
X1107630Y130143D01*
Y133780D01*
X1102360D01*
Y128510D01*
X1107373D01*
X1107693Y128270D01*
X1118320D01*
Y137968D01*
D02*
G37*
G36*
X1343850Y135050D02*
X1338580D01*
Y129780D01*
X1343850D01*
Y135050D01*
D02*
G37*
G36*
X365760Y140912D02*
X363715Y140643D01*
X360625Y139363D01*
X357972Y137328D01*
X355937Y134675D01*
X354657Y131585D01*
X354520Y130546D01*
X353250Y130629D01*
X353250Y130973D01*
X353250Y130973D01*
X353250Y131004D01*
Y135050D01*
X347980D01*
Y129780D01*
X352318D01*
X353138Y129780D01*
X353969Y129540D01*
X365760D01*
Y140912D01*
D02*
G37*
G36*
X1497330D02*
X1495285Y140643D01*
X1492195Y139363D01*
X1489542Y137328D01*
X1487507Y134675D01*
X1486227Y131585D01*
X1486090Y130546D01*
X1484820Y130629D01*
X1484820Y130973D01*
X1484820Y130973D01*
X1484820Y131004D01*
Y135050D01*
X1479550D01*
Y129780D01*
X1483888D01*
X1484708Y129780D01*
X1485538Y129540D01*
X1497330D01*
Y140912D01*
D02*
G37*
G36*
X1150860Y137968D02*
Y128270D01*
X1160558D01*
X1160346Y129882D01*
X1159233Y132568D01*
X1157464Y134874D01*
X1155158Y136643D01*
X1152472Y137756D01*
X1150860Y137968D01*
D02*
G37*
G36*
X1274000Y74280D02*
X1268730D01*
Y69010D01*
X1274000D01*
Y74280D01*
D02*
G37*
G36*
X1372870D02*
X1367600D01*
Y69010D01*
X1372870D01*
Y74280D01*
D02*
G37*
G36*
X1111250Y75550D02*
X1105980D01*
Y70280D01*
X1111250D01*
Y75550D01*
D02*
G37*
G36*
X1380680Y74280D02*
X1375410D01*
Y69010D01*
X1380680D01*
Y74280D01*
D02*
G37*
G36*
X1266190D02*
X1260920D01*
Y69010D01*
X1266190D01*
Y74280D01*
D02*
G37*
G36*
X1009650Y105476D02*
X1005921Y105109D01*
X1002335Y104021D01*
X999030Y102254D01*
X996133Y99877D01*
X993756Y96980D01*
X991989Y93675D01*
X990901Y90089D01*
X990534Y86360D01*
X990901Y82631D01*
X991989Y79045D01*
X993756Y75740D01*
X996133Y72843D01*
X999030Y70466D01*
X1002335Y68699D01*
X1005921Y67611D01*
X1009650Y67244D01*
X1013379Y67611D01*
X1016965Y68699D01*
X1020270Y70466D01*
X1023167Y72843D01*
X1025544Y75740D01*
X1027311Y79045D01*
X1028399Y82631D01*
X1028766Y86360D01*
X1028399Y90089D01*
X1027311Y93675D01*
X1025544Y96980D01*
X1023167Y99877D01*
X1020270Y102254D01*
X1016965Y104021D01*
X1013379Y105109D01*
X1009650Y105476D01*
D02*
G37*
G36*
X871220D02*
X867491Y105109D01*
X863905Y104021D01*
X860600Y102254D01*
X857703Y99877D01*
X855326Y96980D01*
X853559Y93675D01*
X852471Y90089D01*
X852104Y86360D01*
X852471Y82631D01*
X853559Y79045D01*
X855326Y75740D01*
X857703Y72843D01*
X860600Y70466D01*
X863905Y68699D01*
X867491Y67611D01*
X871220Y67244D01*
X874949Y67611D01*
X878535Y68699D01*
X881840Y70466D01*
X884737Y72843D01*
X887114Y75740D01*
X888881Y79045D01*
X889969Y82631D01*
X890336Y86360D01*
X889969Y90089D01*
X888881Y93675D01*
X887114Y96980D01*
X884737Y99877D01*
X881840Y102254D01*
X878535Y104021D01*
X874949Y105109D01*
X871220Y105476D01*
D02*
G37*
G36*
X1224470Y72820D02*
X1219200D01*
Y67550D01*
X1224470D01*
Y72820D01*
D02*
G37*
G36*
X1216660D02*
X1211390D01*
Y67550D01*
X1216660D01*
Y72820D01*
D02*
G37*
G36*
X1119060Y75550D02*
X1113790D01*
Y70280D01*
X1119060D01*
Y75550D01*
D02*
G37*
G36*
X289560Y127000D02*
X278188D01*
X278457Y124955D01*
X279737Y121865D01*
X281772Y119212D01*
X284425Y117177D01*
X287515Y115897D01*
X289560Y115628D01*
Y127000D01*
D02*
G37*
G36*
X227272D02*
X215900D01*
Y115628D01*
X217945Y115897D01*
X221035Y117177D01*
X223688Y119212D01*
X225723Y121865D01*
X227003Y124955D01*
X227272Y127000D01*
D02*
G37*
G36*
X365760D02*
X354388D01*
X354657Y124955D01*
X355937Y121865D01*
X357972Y119212D01*
X360625Y117177D01*
X363715Y115897D01*
X365760Y115628D01*
Y127000D01*
D02*
G37*
G36*
X303472D02*
X292100D01*
Y115628D01*
X294145Y115897D01*
X297235Y117177D01*
X299888Y119212D01*
X301923Y121865D01*
X303203Y124955D01*
X303472Y127000D01*
D02*
G37*
G36*
X213360D02*
X201988D01*
X202257Y124955D01*
X203537Y121865D01*
X205572Y119212D01*
X208225Y117177D01*
X211315Y115897D01*
X213360Y115628D01*
Y127000D01*
D02*
G37*
G36*
X1224470Y80630D02*
X1219200D01*
Y75360D01*
X1224470D01*
Y80630D01*
D02*
G37*
G36*
X1216660D02*
X1211390D01*
Y75360D01*
X1216660D01*
Y80630D01*
D02*
G37*
G36*
X152342Y127000D02*
X140970D01*
Y115628D01*
X143015Y115897D01*
X146105Y117177D01*
X148758Y119212D01*
X150793Y121865D01*
X152073Y124955D01*
X152342Y127000D01*
D02*
G37*
G36*
X138430D02*
X127058D01*
X127327Y124955D01*
X128607Y121865D01*
X130642Y119212D01*
X133295Y117177D01*
X136385Y115897D01*
X138430Y115628D01*
Y127000D01*
D02*
G37*
G36*
X1574800Y104487D02*
X1571016Y104115D01*
X1567377Y103011D01*
X1564023Y101218D01*
X1561084Y98806D01*
X1558672Y95867D01*
X1556879Y92513D01*
X1555775Y88874D01*
X1555403Y85090D01*
X1555775Y81306D01*
X1556879Y77667D01*
X1558672Y74313D01*
X1561084Y71374D01*
X1564023Y68962D01*
X1567377Y67169D01*
X1571016Y66065D01*
X1574800Y65693D01*
X1578584Y66065D01*
X1582223Y67169D01*
X1585577Y68962D01*
X1588516Y71374D01*
X1590928Y74313D01*
X1592721Y77667D01*
X1593825Y81306D01*
X1594197Y85090D01*
X1593825Y88874D01*
X1592721Y92513D01*
X1590928Y95867D01*
X1588516Y98806D01*
X1585577Y101218D01*
X1582223Y103011D01*
X1578584Y104115D01*
X1574800Y104487D01*
D02*
G37*
G36*
X533400Y105764D02*
X529367Y105366D01*
X525489Y104190D01*
X521914Y102279D01*
X518782Y99708D01*
X516211Y96576D01*
X514300Y93001D01*
X513124Y89123D01*
X512727Y85090D01*
X513124Y81057D01*
X514300Y77179D01*
X516211Y73604D01*
X518782Y70472D01*
X521914Y67901D01*
X525489Y65990D01*
X529367Y64814D01*
X533400Y64416D01*
X537433Y64814D01*
X541311Y65990D01*
X544886Y67901D01*
X548018Y70472D01*
X550589Y73604D01*
X552500Y77179D01*
X553676Y81057D01*
X554073Y85090D01*
X553676Y89123D01*
X552500Y93001D01*
X550589Y96576D01*
X548018Y99708D01*
X544886Y102279D01*
X541311Y104190D01*
X537433Y105366D01*
X533400Y105764D01*
D02*
G37*
G36*
X1119060Y67740D02*
X1113790D01*
Y62470D01*
X1119060D01*
Y67740D01*
D02*
G37*
G36*
X746760Y105764D02*
X742727Y105366D01*
X738849Y104190D01*
X735274Y102279D01*
X732142Y99708D01*
X729571Y96576D01*
X727660Y93001D01*
X726484Y89123D01*
X726087Y85090D01*
X726484Y81057D01*
X727660Y77179D01*
X729571Y73604D01*
X732142Y70472D01*
X735274Y67901D01*
X738849Y65990D01*
X742727Y64814D01*
X746760Y64416D01*
X750793Y64814D01*
X754671Y65990D01*
X758246Y67901D01*
X761378Y70472D01*
X763949Y73604D01*
X765860Y77179D01*
X767036Y81057D01*
X767433Y85090D01*
X767036Y89123D01*
X765860Y93001D01*
X763949Y96576D01*
X761378Y99708D01*
X758246Y102279D01*
X754671Y104190D01*
X750793Y105366D01*
X746760Y105764D01*
D02*
G37*
G36*
X638810D02*
X634777Y105366D01*
X630899Y104190D01*
X627324Y102279D01*
X624192Y99708D01*
X621621Y96576D01*
X619710Y93001D01*
X618534Y89123D01*
X618136Y85090D01*
X618534Y81057D01*
X619710Y77179D01*
X621621Y73604D01*
X624192Y70472D01*
X627324Y67901D01*
X630899Y65990D01*
X634777Y64814D01*
X638810Y64416D01*
X642843Y64814D01*
X646721Y65990D01*
X650296Y67901D01*
X653428Y70472D01*
X655999Y73604D01*
X657910Y77179D01*
X659086Y81057D01*
X659483Y85090D01*
X659086Y89123D01*
X657910Y93001D01*
X655999Y96576D01*
X653428Y99708D01*
X650296Y102279D01*
X646721Y104190D01*
X642843Y105366D01*
X638810Y105764D01*
D02*
G37*
G36*
X1111250Y67740D02*
X1105980D01*
Y62470D01*
X1111250D01*
Y67740D01*
D02*
G37*
G36*
X1274000Y66470D02*
X1268730D01*
Y61200D01*
X1274000D01*
Y66470D01*
D02*
G37*
G36*
X1266190D02*
X1260920D01*
Y61200D01*
X1266190D01*
Y66470D01*
D02*
G37*
G36*
X1380680D02*
X1375410D01*
Y61200D01*
X1380680D01*
Y66470D01*
D02*
G37*
G36*
X1372870D02*
X1367600D01*
Y61200D01*
X1372870D01*
Y66470D01*
D02*
G37*
G36*
X1303020Y105764D02*
X1298987Y105366D01*
X1295109Y104190D01*
X1291534Y102279D01*
X1288402Y99708D01*
X1285831Y96576D01*
X1283920Y93001D01*
X1282744Y89123D01*
X1282346Y85090D01*
X1282744Y81057D01*
X1283920Y77179D01*
X1285831Y73604D01*
X1288402Y70472D01*
X1291534Y67901D01*
X1295109Y65990D01*
X1298987Y64814D01*
X1303020Y64416D01*
X1307053Y64814D01*
X1310931Y65990D01*
X1314506Y67901D01*
X1317638Y70472D01*
X1320209Y73604D01*
X1322120Y77179D01*
X1323296Y81057D01*
X1323694Y85090D01*
X1323296Y89123D01*
X1322120Y93001D01*
X1320209Y96576D01*
X1317638Y99708D01*
X1314506Y102279D01*
X1310931Y104190D01*
X1307053Y105366D01*
X1303020Y105764D01*
D02*
G37*
G36*
X367030Y104487D02*
X363246Y104115D01*
X359607Y103011D01*
X356253Y101218D01*
X353314Y98806D01*
X350902Y95867D01*
X349109Y92513D01*
X348005Y88874D01*
X347633Y85090D01*
X348005Y81306D01*
X349109Y77667D01*
X350902Y74313D01*
X353314Y71374D01*
X356253Y68962D01*
X359607Y67169D01*
X363246Y66065D01*
X367030Y65693D01*
X370814Y66065D01*
X374453Y67169D01*
X377807Y68962D01*
X380746Y71374D01*
X383158Y74313D01*
X384951Y77667D01*
X386055Y81306D01*
X386427Y85090D01*
X386055Y88874D01*
X384951Y92513D01*
X383158Y95867D01*
X380746Y98806D01*
X377807Y101218D01*
X374453Y103011D01*
X370814Y104115D01*
X367030Y104487D01*
D02*
G37*
G36*
X290830D02*
X287046Y104115D01*
X283407Y103011D01*
X280053Y101218D01*
X277114Y98806D01*
X274702Y95867D01*
X272909Y92513D01*
X271805Y88874D01*
X271433Y85090D01*
X271805Y81306D01*
X272909Y77667D01*
X274702Y74313D01*
X277114Y71374D01*
X280053Y68962D01*
X283407Y67169D01*
X287046Y66065D01*
X290830Y65693D01*
X294614Y66065D01*
X298253Y67169D01*
X301607Y68962D01*
X304546Y71374D01*
X306958Y74313D01*
X308751Y77667D01*
X309855Y81306D01*
X310227Y85090D01*
X309855Y88874D01*
X308751Y92513D01*
X306958Y95867D01*
X304546Y98806D01*
X301607Y101218D01*
X298253Y103011D01*
X294614Y104115D01*
X290830Y104487D01*
D02*
G37*
G36*
X1498600D02*
X1494816Y104115D01*
X1491177Y103011D01*
X1487823Y101218D01*
X1484884Y98806D01*
X1482472Y95867D01*
X1480679Y92513D01*
X1479575Y88874D01*
X1479203Y85090D01*
X1479575Y81306D01*
X1480679Y77667D01*
X1482472Y74313D01*
X1484884Y71374D01*
X1487823Y68962D01*
X1491177Y67169D01*
X1494816Y66065D01*
X1498600Y65693D01*
X1502384Y66065D01*
X1506023Y67169D01*
X1509377Y68962D01*
X1512316Y71374D01*
X1514728Y74313D01*
X1516521Y77667D01*
X1517625Y81306D01*
X1517997Y85090D01*
X1517625Y88874D01*
X1516521Y92513D01*
X1514728Y95867D01*
X1512316Y98806D01*
X1509377Y101218D01*
X1506023Y103011D01*
X1502384Y104115D01*
X1498600Y104487D01*
D02*
G37*
G36*
X443230D02*
X439446Y104115D01*
X435807Y103011D01*
X432453Y101218D01*
X429514Y98806D01*
X427102Y95867D01*
X425309Y92513D01*
X424205Y88874D01*
X423833Y85090D01*
X424205Y81306D01*
X425309Y77667D01*
X427102Y74313D01*
X429514Y71374D01*
X432453Y68962D01*
X435807Y67169D01*
X439446Y66065D01*
X443230Y65693D01*
X447014Y66065D01*
X450653Y67169D01*
X454007Y68962D01*
X456946Y71374D01*
X459358Y74313D01*
X461151Y77667D01*
X462255Y81306D01*
X462627Y85090D01*
X462255Y88874D01*
X461151Y92513D01*
X459358Y95867D01*
X456946Y98806D01*
X454007Y101218D01*
X450653Y103011D01*
X447014Y104115D01*
X443230Y104487D01*
D02*
G37*
G36*
X214630D02*
X210846Y104115D01*
X207207Y103011D01*
X203853Y101218D01*
X200914Y98806D01*
X198502Y95867D01*
X196709Y92513D01*
X195605Y88874D01*
X195233Y85090D01*
X195605Y81306D01*
X196709Y77667D01*
X198502Y74313D01*
X200914Y71374D01*
X203853Y68962D01*
X207207Y67169D01*
X210846Y66065D01*
X214630Y65693D01*
X218414Y66065D01*
X222053Y67169D01*
X225407Y68962D01*
X228346Y71374D01*
X230758Y74313D01*
X232551Y77667D01*
X233655Y81306D01*
X234027Y85090D01*
X233655Y88874D01*
X232551Y92513D01*
X230758Y95867D01*
X228346Y98806D01*
X225407Y101218D01*
X222053Y103011D01*
X218414Y104115D01*
X214630Y104487D01*
D02*
G37*
G36*
X1187990Y102916D02*
X1184261Y102549D01*
X1180675Y101461D01*
X1177370Y99694D01*
X1174473Y97317D01*
X1172096Y94420D01*
X1170329Y91115D01*
X1169241Y87529D01*
X1168874Y83800D01*
X1169241Y80071D01*
X1170329Y76485D01*
X1172096Y73180D01*
X1174473Y70283D01*
X1177370Y67906D01*
X1180675Y66139D01*
X1184261Y65051D01*
X1187990Y64684D01*
X1191719Y65051D01*
X1195305Y66139D01*
X1198610Y67906D01*
X1201507Y70283D01*
X1203884Y73180D01*
X1205651Y76485D01*
X1206739Y80071D01*
X1207106Y83800D01*
X1206739Y87529D01*
X1205651Y91115D01*
X1203884Y94420D01*
X1201507Y97317D01*
X1198610Y99694D01*
X1195305Y101461D01*
X1191719Y102549D01*
X1187990Y102916D01*
D02*
G37*
G36*
X1141190D02*
X1137461Y102549D01*
X1133875Y101461D01*
X1130570Y99694D01*
X1127673Y97317D01*
X1125296Y94420D01*
X1123529Y91115D01*
X1122441Y87529D01*
X1122074Y83800D01*
X1122441Y80071D01*
X1123529Y76485D01*
X1125296Y73180D01*
X1127673Y70283D01*
X1130570Y67906D01*
X1133875Y66139D01*
X1137461Y65051D01*
X1141190Y64684D01*
X1144919Y65051D01*
X1148505Y66139D01*
X1151810Y67906D01*
X1154707Y70283D01*
X1157084Y73180D01*
X1158851Y76485D01*
X1159939Y80071D01*
X1160306Y83800D01*
X1159939Y87529D01*
X1158851Y91115D01*
X1157084Y94420D01*
X1154707Y97317D01*
X1151810Y99694D01*
X1148505Y101461D01*
X1144919Y102549D01*
X1141190Y102916D01*
D02*
G37*
G36*
X139700Y104487D02*
X135916Y104115D01*
X132277Y103011D01*
X128923Y101218D01*
X125984Y98806D01*
X123572Y95867D01*
X121779Y92513D01*
X120675Y88874D01*
X120303Y85090D01*
X120675Y81306D01*
X121779Y77667D01*
X123572Y74313D01*
X125984Y71374D01*
X128923Y68962D01*
X132277Y67169D01*
X135916Y66065D01*
X139700Y65693D01*
X143484Y66065D01*
X147123Y67169D01*
X150477Y68962D01*
X153416Y71374D01*
X155828Y74313D01*
X157621Y77667D01*
X158725Y81306D01*
X159097Y85090D01*
X158725Y88874D01*
X157621Y92513D01*
X155828Y95867D01*
X153416Y98806D01*
X150477Y101218D01*
X147123Y103011D01*
X143484Y104115D01*
X139700Y104487D01*
D02*
G37*
G36*
X1408430Y107034D02*
X1404397Y106636D01*
X1400519Y105460D01*
X1396944Y103549D01*
X1393812Y100978D01*
X1391241Y97846D01*
X1389330Y94271D01*
X1388154Y90393D01*
X1387757Y86360D01*
X1388154Y82327D01*
X1389330Y78449D01*
X1391241Y74874D01*
X1393812Y71742D01*
X1396944Y69171D01*
X1400519Y67260D01*
X1404397Y66084D01*
X1408430Y65686D01*
X1412463Y66084D01*
X1416341Y67260D01*
X1419916Y69171D01*
X1423048Y71742D01*
X1425619Y74874D01*
X1427530Y78449D01*
X1428706Y82327D01*
X1429104Y86360D01*
X1428706Y90393D01*
X1427530Y94271D01*
X1425619Y97846D01*
X1423048Y100978D01*
X1419916Y103549D01*
X1416341Y105460D01*
X1412463Y106636D01*
X1408430Y107034D01*
D02*
G37*
G36*
X379672Y127000D02*
X368300D01*
Y115628D01*
X370345Y115897D01*
X373435Y117177D01*
X376088Y119212D01*
X378123Y121865D01*
X379403Y124955D01*
X379672Y127000D01*
D02*
G37*
G36*
X1288034Y138774D02*
X1285315Y138416D01*
X1282782Y137367D01*
X1280607Y135697D01*
X1278937Y133522D01*
X1277888Y130989D01*
X1277530Y128270D01*
X1277888Y125551D01*
X1278884Y123148D01*
X1265446Y109710D01*
X1264828Y108786D01*
X1264611Y107696D01*
X1264611Y107696D01*
Y95264D01*
X1261936D01*
Y84216D01*
X1272984D01*
Y95264D01*
X1270309D01*
Y106516D01*
X1282912Y119120D01*
X1285315Y118124D01*
X1288034Y117766D01*
X1290753Y118124D01*
X1293286Y119173D01*
X1295461Y120843D01*
X1297131Y123018D01*
X1298180Y125551D01*
X1298538Y128270D01*
X1298180Y130989D01*
X1297131Y133522D01*
X1295461Y135697D01*
X1293286Y137367D01*
X1290753Y138416D01*
X1288034Y138774D01*
D02*
G37*
G36*
X1329367Y127000D02*
X1319276D01*
Y116909D01*
X1320990Y117134D01*
X1323770Y118286D01*
X1326158Y120118D01*
X1327990Y122506D01*
X1329142Y125286D01*
X1329367Y127000D01*
D02*
G37*
G36*
X1434777Y128270D02*
X1424686D01*
Y118179D01*
X1426400Y118404D01*
X1429180Y119556D01*
X1431568Y121388D01*
X1433400Y123776D01*
X1434552Y126556D01*
X1434777Y128270D01*
D02*
G37*
G36*
X1422146D02*
X1412055D01*
X1412280Y126556D01*
X1413432Y123776D01*
X1415264Y121388D01*
X1417652Y119556D01*
X1420432Y118404D01*
X1422146Y118179D01*
Y128270D01*
D02*
G37*
G36*
X1316736Y127000D02*
X1306645D01*
X1306870Y125286D01*
X1308022Y122506D01*
X1309854Y120118D01*
X1312242Y118286D01*
X1315022Y117134D01*
X1316736Y116909D01*
Y127000D01*
D02*
G37*
G36*
X743135D02*
X733044D01*
Y116909D01*
X734758Y117134D01*
X737538Y118286D01*
X739926Y120118D01*
X741758Y122506D01*
X742910Y125286D01*
X743135Y127000D01*
D02*
G37*
G36*
X730504D02*
X720413D01*
X720638Y125286D01*
X721790Y122506D01*
X723622Y120118D01*
X726010Y118286D01*
X728790Y117134D01*
X730504Y116909D01*
Y127000D01*
D02*
G37*
G36*
X773107D02*
X763016D01*
Y116909D01*
X764730Y117134D01*
X767510Y118286D01*
X769898Y120118D01*
X771730Y122506D01*
X772882Y125286D01*
X773107Y127000D01*
D02*
G37*
G36*
X760476D02*
X750385D01*
X750610Y125286D01*
X751762Y122506D01*
X753594Y120118D01*
X755982Y118286D01*
X758762Y117134D01*
X760476Y116909D01*
Y127000D01*
D02*
G37*
G36*
X869950Y128290D02*
X860252D01*
X860464Y126678D01*
X861577Y123992D01*
X863346Y121686D01*
X865652Y119917D01*
X868338Y118804D01*
X869950Y118592D01*
Y128290D01*
D02*
G37*
G36*
X979650Y139670D02*
X977033Y139326D01*
X974595Y138316D01*
X972501Y136709D01*
X970894Y134615D01*
X969884Y132177D01*
X969539Y129560D01*
X969884Y126943D01*
X970894Y124505D01*
X972501Y122411D01*
X974595Y120804D01*
X977033Y119794D01*
X979650Y119450D01*
X982267Y119794D01*
X984705Y120804D01*
X986799Y122411D01*
X988406Y124505D01*
X989416Y126943D01*
X989761Y129560D01*
X989416Y132177D01*
X988406Y134615D01*
X986799Y136709D01*
X984705Y138316D01*
X982267Y139326D01*
X979650Y139670D01*
D02*
G37*
G36*
X901220D02*
X898603Y139326D01*
X896165Y138316D01*
X894071Y136709D01*
X892464Y134615D01*
X891454Y132177D01*
X891109Y129560D01*
X891454Y126943D01*
X892464Y124505D01*
X894071Y122411D01*
X896165Y120804D01*
X898603Y119794D01*
X901220Y119450D01*
X903837Y119794D01*
X906275Y120804D01*
X908369Y122411D01*
X909976Y124505D01*
X910986Y126943D01*
X911330Y129560D01*
X910986Y132177D01*
X909976Y134615D01*
X908369Y136709D01*
X906275Y138316D01*
X903837Y139326D01*
X901220Y139670D01*
D02*
G37*
G36*
X1120860Y137968D02*
Y128270D01*
X1130558D01*
X1130346Y129882D01*
X1129233Y132568D01*
X1127464Y134874D01*
X1125158Y136643D01*
X1122472Y137756D01*
X1120860Y137968D01*
D02*
G37*
G36*
X1039650Y139670D02*
X1037033Y139326D01*
X1034595Y138316D01*
X1032501Y136709D01*
X1030894Y134615D01*
X1029884Y132177D01*
X1029539Y129560D01*
X1029884Y126943D01*
X1030894Y124505D01*
X1032501Y122411D01*
X1034595Y120804D01*
X1037033Y119794D01*
X1039650Y119450D01*
X1042267Y119794D01*
X1044705Y120804D01*
X1046799Y122411D01*
X1048406Y124505D01*
X1049416Y126943D01*
X1049761Y129560D01*
X1049416Y132177D01*
X1048406Y134615D01*
X1046799Y136709D01*
X1044705Y138316D01*
X1042267Y139326D01*
X1039650Y139670D01*
D02*
G37*
G36*
X841220D02*
X838603Y139326D01*
X836165Y138316D01*
X834071Y136709D01*
X832464Y134615D01*
X831454Y132177D01*
X831109Y129560D01*
X831454Y126943D01*
X832464Y124505D01*
X834071Y122411D01*
X836165Y120804D01*
X838603Y119794D01*
X841220Y119450D01*
X843837Y119794D01*
X846275Y120804D01*
X848369Y122411D01*
X849976Y124505D01*
X850986Y126943D01*
X851330Y129560D01*
X850986Y132177D01*
X849976Y134615D01*
X848369Y136709D01*
X846275Y138316D01*
X843837Y139326D01*
X841220Y139670D01*
D02*
G37*
G36*
X1008380Y128290D02*
X998682D01*
X998894Y126678D01*
X1000007Y123992D01*
X1001776Y121686D01*
X1004082Y119917D01*
X1006768Y118804D01*
X1008380Y118592D01*
Y128290D01*
D02*
G37*
G36*
X882188D02*
X872490D01*
Y118592D01*
X874102Y118804D01*
X876788Y119917D01*
X879094Y121686D01*
X880863Y123992D01*
X881976Y126678D01*
X882188Y128290D01*
D02*
G37*
G36*
X1393444Y140044D02*
X1390725Y139686D01*
X1388192Y138637D01*
X1386017Y136967D01*
X1384347Y134792D01*
X1383298Y132259D01*
X1382940Y129540D01*
X1383298Y126821D01*
X1384294Y124418D01*
X1372126Y112250D01*
X1371508Y111326D01*
X1371291Y110236D01*
X1371291Y110236D01*
Y95264D01*
X1368616D01*
Y84216D01*
X1379664D01*
Y95264D01*
X1376989D01*
Y109056D01*
X1388322Y120389D01*
X1390725Y119394D01*
X1393444Y119036D01*
X1396163Y119394D01*
X1398696Y120443D01*
X1400871Y122113D01*
X1402541Y124288D01*
X1403590Y126821D01*
X1403948Y129540D01*
X1403590Y132259D01*
X1402541Y134792D01*
X1400871Y136967D01*
X1398696Y138637D01*
X1396163Y139686D01*
X1393444Y140044D01*
D02*
G37*
G36*
X1020618Y128290D02*
X1010920D01*
Y118592D01*
X1012532Y118804D01*
X1015218Y119917D01*
X1017524Y121686D01*
X1019293Y123992D01*
X1020406Y126678D01*
X1020618Y128290D01*
D02*
G37*
G36*
X665157Y127000D02*
X655066D01*
Y116909D01*
X656780Y117134D01*
X659560Y118286D01*
X661948Y120118D01*
X663780Y122506D01*
X664932Y125286D01*
X665157Y127000D01*
D02*
G37*
G36*
X1118320Y125730D02*
X1108622D01*
X1108834Y124118D01*
X1109947Y121432D01*
X1111716Y119126D01*
X1114022Y117357D01*
X1116708Y116244D01*
X1118320Y116032D01*
Y125730D01*
D02*
G37*
G36*
X1587442Y127000D02*
X1576070D01*
Y115628D01*
X1578115Y115897D01*
X1581205Y117177D01*
X1583858Y119212D01*
X1585893Y121865D01*
X1587173Y124955D01*
X1587442Y127000D01*
D02*
G37*
G36*
X1178320Y125730D02*
X1168622D01*
X1168834Y124118D01*
X1169947Y121432D01*
X1171716Y119126D01*
X1174022Y117357D01*
X1176708Y116244D01*
X1178320Y116032D01*
Y125730D01*
D02*
G37*
G36*
X1160558D02*
X1150860D01*
Y116032D01*
X1152472Y116244D01*
X1155158Y117357D01*
X1157464Y119126D01*
X1159233Y121432D01*
X1160346Y124118D01*
X1160558Y125730D01*
D02*
G37*
G36*
X1573530Y127000D02*
X1562158D01*
X1562427Y124955D01*
X1563707Y121865D01*
X1565742Y119212D01*
X1568395Y117177D01*
X1571485Y115897D01*
X1573530Y115628D01*
Y127000D01*
D02*
G37*
G36*
X455872D02*
X444500D01*
Y115628D01*
X446545Y115897D01*
X449635Y117177D01*
X452288Y119212D01*
X454323Y121865D01*
X455603Y124955D01*
X455872Y127000D01*
D02*
G37*
G36*
X441960D02*
X430588D01*
X430857Y124955D01*
X432137Y121865D01*
X434172Y119212D01*
X436825Y117177D01*
X439915Y115897D01*
X441960Y115628D01*
Y127000D01*
D02*
G37*
G36*
X1511242D02*
X1499870D01*
Y115628D01*
X1501915Y115897D01*
X1505005Y117177D01*
X1507658Y119212D01*
X1509693Y121865D01*
X1510973Y124955D01*
X1511242Y127000D01*
D02*
G37*
G36*
X1497330D02*
X1485958D01*
X1486227Y124955D01*
X1487507Y121865D01*
X1489542Y119212D01*
X1492195Y117177D01*
X1495285Y115897D01*
X1497330Y115628D01*
Y127000D01*
D02*
G37*
G36*
X1190558Y125730D02*
X1180860D01*
Y116032D01*
X1182472Y116244D01*
X1185158Y117357D01*
X1187464Y119126D01*
X1189233Y121432D01*
X1190346Y124118D01*
X1190558Y125730D01*
D02*
G37*
G36*
X622554Y127000D02*
X612463D01*
X612688Y125286D01*
X613840Y122506D01*
X615672Y120118D01*
X618060Y118286D01*
X620840Y117134D01*
X622554Y116909D01*
Y127000D01*
D02*
G37*
G36*
X559747D02*
X549656D01*
Y116909D01*
X551370Y117134D01*
X554150Y118286D01*
X556538Y120118D01*
X558370Y122506D01*
X559522Y125286D01*
X559747Y127000D01*
D02*
G37*
G36*
X652526D02*
X642435D01*
X642660Y125286D01*
X643812Y122506D01*
X645644Y120118D01*
X648032Y118286D01*
X650812Y117134D01*
X652526Y116909D01*
Y127000D01*
D02*
G37*
G36*
X635185D02*
X625094D01*
Y116909D01*
X626808Y117134D01*
X629588Y118286D01*
X631976Y120118D01*
X633808Y122506D01*
X634960Y125286D01*
X635185Y127000D01*
D02*
G37*
G36*
X547116D02*
X537025D01*
X537250Y125286D01*
X538402Y122506D01*
X540234Y120118D01*
X542622Y118286D01*
X545402Y117134D01*
X547116Y116909D01*
Y127000D01*
D02*
G37*
G36*
X1220558Y125730D02*
X1210860D01*
Y116032D01*
X1212472Y116244D01*
X1215158Y117357D01*
X1217464Y119126D01*
X1219233Y121432D01*
X1220346Y124118D01*
X1220558Y125730D01*
D02*
G37*
G36*
X1179590Y167111D02*
X1176973Y166766D01*
X1174535Y165756D01*
X1172441Y164149D01*
X1170834Y162055D01*
X1169824Y159617D01*
X1169480Y157000D01*
X1169824Y154383D01*
X1170834Y151945D01*
X1172441Y149851D01*
X1174535Y148244D01*
X1176973Y147234D01*
X1179590Y146889D01*
X1182207Y147234D01*
X1184413Y148148D01*
X1192221Y140340D01*
Y118950D01*
X1192221Y118950D01*
X1192438Y117860D01*
X1193056Y116936D01*
X1212406Y97585D01*
Y90566D01*
X1223454D01*
Y101614D01*
X1216435D01*
X1197919Y120130D01*
Y123009D01*
X1199189Y123262D01*
X1199947Y121432D01*
X1201716Y119126D01*
X1204022Y117357D01*
X1206708Y116244D01*
X1208320Y116032D01*
Y127000D01*
Y137968D01*
X1206708Y137756D01*
X1204022Y136643D01*
X1201716Y134874D01*
X1199947Y132568D01*
X1199189Y130738D01*
X1197919Y130991D01*
Y141520D01*
X1197919Y141520D01*
X1197702Y142610D01*
X1197084Y143534D01*
X1188442Y152177D01*
X1189356Y154383D01*
X1189700Y157000D01*
X1189356Y159617D01*
X1188346Y162055D01*
X1186739Y164149D01*
X1184645Y165756D01*
X1182207Y166766D01*
X1179590Y167111D01*
D02*
G37*
G36*
X529775Y127000D02*
X519684D01*
Y116909D01*
X521398Y117134D01*
X524178Y118286D01*
X526566Y120118D01*
X528398Y122506D01*
X529550Y125286D01*
X529775Y127000D01*
D02*
G37*
G36*
X517144D02*
X507053D01*
X507278Y125286D01*
X508430Y122506D01*
X510262Y120118D01*
X512650Y118286D01*
X515430Y117134D01*
X517144Y116909D01*
Y127000D01*
D02*
G37*
G36*
X568960Y258990D02*
Y251460D01*
X576489D01*
X576351Y252511D01*
X575455Y254673D01*
X574030Y256530D01*
X572173Y257955D01*
X570011Y258851D01*
X568960Y258990D01*
D02*
G37*
G36*
X566420D02*
X565369Y258851D01*
X563207Y257955D01*
X561350Y256530D01*
X559925Y254673D01*
X559029Y252511D01*
X558890Y251460D01*
X566420D01*
Y258990D01*
D02*
G37*
G36*
X886650Y260230D02*
X881380D01*
Y256460D01*
X886650D01*
Y260230D01*
D02*
G37*
G36*
X878840D02*
X873570D01*
Y256460D01*
X878840D01*
Y260230D01*
D02*
G37*
G36*
X444500Y258990D02*
Y251460D01*
X452029D01*
X451891Y252511D01*
X450995Y254673D01*
X449570Y256530D01*
X447713Y257955D01*
X445551Y258851D01*
X444500Y258990D01*
D02*
G37*
G36*
X365760D02*
X364709Y258851D01*
X362547Y257955D01*
X360690Y256530D01*
X359265Y254673D01*
X358369Y252511D01*
X358231Y251460D01*
X365760D01*
Y258990D01*
D02*
G37*
G36*
X293370Y257719D02*
Y250190D01*
X300900D01*
X300761Y251241D01*
X299865Y253403D01*
X298440Y255260D01*
X296583Y256685D01*
X294421Y257581D01*
X293370Y257719D01*
D02*
G37*
G36*
X441960Y258990D02*
X440909Y258851D01*
X438747Y257955D01*
X436890Y256530D01*
X435465Y254673D01*
X434569Y252511D01*
X434431Y251460D01*
X441960D01*
Y258990D01*
D02*
G37*
G36*
X368300D02*
Y251460D01*
X375830D01*
X375691Y252511D01*
X374795Y254673D01*
X373370Y256530D01*
X371513Y257955D01*
X369351Y258851D01*
X368300Y258990D01*
D02*
G37*
G36*
X758190Y289483D02*
X755182Y289087D01*
X752378Y287926D01*
X749971Y286079D01*
X748124Y283672D01*
X746963Y280868D01*
X746567Y277860D01*
X746963Y274852D01*
X748124Y272048D01*
X749971Y269641D01*
X752378Y267794D01*
X755182Y266633D01*
X758190Y266237D01*
X761198Y266633D01*
X764002Y267794D01*
X766409Y269641D01*
X768256Y272048D01*
X769417Y274852D01*
X769813Y277860D01*
X769417Y280868D01*
X768256Y283672D01*
X766409Y286079D01*
X764002Y287926D01*
X761198Y289087D01*
X758190Y289483D01*
D02*
G37*
G36*
X1061720Y282251D02*
X1059996Y282024D01*
X1058390Y281359D01*
X1057010Y280300D01*
X1055951Y278920D01*
X1055286Y277314D01*
X1055059Y275590D01*
Y270510D01*
X1055286Y268786D01*
X1055951Y267180D01*
X1057010Y265800D01*
X1058390Y264741D01*
X1059996Y264076D01*
X1061720Y263849D01*
X1063444Y264076D01*
X1065051Y264741D01*
X1066430Y265800D01*
X1067489Y267180D01*
X1068154Y268786D01*
X1068381Y270510D01*
Y275590D01*
X1068154Y277314D01*
X1067489Y278920D01*
X1066430Y280300D01*
X1065051Y281359D01*
X1063444Y282024D01*
X1061720Y282251D01*
D02*
G37*
G36*
X1037590Y283109D02*
Y274320D01*
X1044006D01*
Y275590D01*
X1043744Y277579D01*
X1042976Y279433D01*
X1041755Y281025D01*
X1040163Y282246D01*
X1038309Y283014D01*
X1037590Y283109D01*
D02*
G37*
G36*
X1035050D02*
X1034331Y283014D01*
X1032477Y282246D01*
X1030885Y281025D01*
X1029664Y279433D01*
X1028896Y277579D01*
X1028634Y275590D01*
Y274320D01*
X1035050D01*
Y283109D01*
D02*
G37*
G36*
X985520Y282251D02*
X983796Y282024D01*
X982189Y281359D01*
X980810Y280300D01*
X979751Y278920D01*
X979086Y277314D01*
X978859Y275590D01*
Y270510D01*
X979086Y268786D01*
X979751Y267180D01*
X980810Y265800D01*
X982189Y264741D01*
X983796Y264076D01*
X985520Y263849D01*
X987244Y264076D01*
X988850Y264741D01*
X990230Y265800D01*
X991289Y267180D01*
X991954Y268786D01*
X992181Y270510D01*
Y275590D01*
X991954Y277314D01*
X991289Y278920D01*
X990230Y280300D01*
X988850Y281359D01*
X987244Y282024D01*
X985520Y282251D01*
D02*
G37*
G36*
X886650Y266540D02*
X881380D01*
Y262770D01*
X886650D01*
Y266540D01*
D02*
G37*
G36*
X878840D02*
X873570D01*
Y262770D01*
X878840D01*
Y266540D01*
D02*
G37*
G36*
X1044006Y271780D02*
X1037590D01*
Y262991D01*
X1038309Y263086D01*
X1040163Y263854D01*
X1041755Y265075D01*
X1042976Y266667D01*
X1043744Y268521D01*
X1044006Y270510D01*
Y271780D01*
D02*
G37*
G36*
X1035050D02*
X1028634D01*
Y270510D01*
X1028896Y268521D01*
X1029664Y266667D01*
X1030885Y265075D01*
X1032477Y263854D01*
X1034331Y263086D01*
X1035050Y262991D01*
Y271780D01*
D02*
G37*
G36*
X290830Y257719D02*
X289779Y257581D01*
X287617Y256685D01*
X285760Y255260D01*
X284335Y253403D01*
X283439Y251241D01*
X283300Y250190D01*
X290830D01*
Y257719D01*
D02*
G37*
G36*
X566420Y248920D02*
X558890D01*
X559029Y247869D01*
X559925Y245707D01*
X561350Y243850D01*
X563207Y242425D01*
X565369Y241529D01*
X566420Y241390D01*
Y248920D01*
D02*
G37*
G36*
X452029D02*
X444500D01*
Y241390D01*
X445551Y241529D01*
X447713Y242425D01*
X449570Y243850D01*
X450995Y245707D01*
X451891Y247869D01*
X452029Y248920D01*
D02*
G37*
G36*
X1294130Y250100D02*
X1293079Y249961D01*
X1290917Y249065D01*
X1289060Y247640D01*
X1287635Y245783D01*
X1286739Y243621D01*
X1286600Y242570D01*
X1294130D01*
Y250100D01*
D02*
G37*
G36*
X576489Y248920D02*
X568960D01*
Y241390D01*
X570011Y241529D01*
X572173Y242425D01*
X574030Y243850D01*
X575455Y245707D01*
X576351Y247869D01*
X576489Y248920D01*
D02*
G37*
G36*
X441960D02*
X434431D01*
X434569Y247869D01*
X435465Y245707D01*
X436890Y243850D01*
X438747Y242425D01*
X440909Y241529D01*
X441960Y241390D01*
Y248920D01*
D02*
G37*
G36*
X1170940Y248829D02*
Y241300D01*
X1178469D01*
X1178331Y242351D01*
X1177435Y244513D01*
X1176010Y246370D01*
X1174153Y247795D01*
X1171991Y248691D01*
X1170940Y248829D01*
D02*
G37*
G36*
X1168400D02*
X1167349Y248691D01*
X1165187Y247795D01*
X1163330Y246370D01*
X1161905Y244513D01*
X1161009Y242351D01*
X1160871Y241300D01*
X1168400D01*
Y248829D01*
D02*
G37*
G36*
X375830Y248920D02*
X368300D01*
Y241390D01*
X369351Y241529D01*
X371513Y242425D01*
X373370Y243850D01*
X374795Y245707D01*
X375691Y247869D01*
X375830Y248920D01*
D02*
G37*
G36*
X365760D02*
X358231D01*
X358369Y247869D01*
X359265Y245707D01*
X360690Y243850D01*
X362547Y242425D01*
X364709Y241529D01*
X365760Y241390D01*
Y248920D01*
D02*
G37*
G36*
X824230Y255180D02*
Y247650D01*
X831759D01*
X831621Y248701D01*
X830725Y250863D01*
X829300Y252720D01*
X827443Y254145D01*
X825281Y255041D01*
X824230Y255180D01*
D02*
G37*
G36*
X821690D02*
X820639Y255041D01*
X818477Y254145D01*
X816620Y252720D01*
X815195Y250863D01*
X814299Y248701D01*
X814161Y247650D01*
X821690D01*
Y255180D01*
D02*
G37*
G36*
X217170Y257719D02*
Y250190D01*
X224699D01*
X224561Y251241D01*
X223665Y253403D01*
X222240Y255260D01*
X220383Y256685D01*
X218221Y257581D01*
X217170Y257719D01*
D02*
G37*
G36*
X214630D02*
X213579Y257581D01*
X211417Y256685D01*
X209560Y255260D01*
X208135Y253403D01*
X207239Y251241D01*
X207101Y250190D01*
X214630D01*
Y257719D01*
D02*
G37*
G36*
X1235710Y251369D02*
Y243840D01*
X1243240D01*
X1243101Y244891D01*
X1242205Y247053D01*
X1240780Y248910D01*
X1238923Y250335D01*
X1236761Y251231D01*
X1235710Y251369D01*
D02*
G37*
G36*
X1357630Y250100D02*
X1356579Y249961D01*
X1354417Y249065D01*
X1352560Y247640D01*
X1351135Y245783D01*
X1350239Y243621D01*
X1350101Y242570D01*
X1357630D01*
Y250100D01*
D02*
G37*
G36*
X1296670D02*
Y242570D01*
X1304200D01*
X1304061Y243621D01*
X1303165Y245783D01*
X1301740Y247640D01*
X1299883Y249065D01*
X1297721Y249961D01*
X1296670Y250100D01*
D02*
G37*
G36*
X1233170Y251369D02*
X1232119Y251231D01*
X1229957Y250335D01*
X1228100Y248910D01*
X1226675Y247053D01*
X1225779Y244891D01*
X1225640Y243840D01*
X1233170D01*
Y251369D01*
D02*
G37*
G36*
X1360170Y250100D02*
Y242570D01*
X1367699D01*
X1367561Y243621D01*
X1366665Y245783D01*
X1365240Y247640D01*
X1363383Y249065D01*
X1361221Y249961D01*
X1360170Y250100D01*
D02*
G37*
G36*
X325120Y354891D02*
X323572Y354687D01*
X320946Y353599D01*
X318691Y351869D01*
X316961Y349614D01*
X315873Y346988D01*
X315669Y345440D01*
X325120D01*
Y354891D01*
D02*
G37*
G36*
X302260D02*
Y345440D01*
X311711D01*
X311507Y346988D01*
X310419Y349614D01*
X308689Y351869D01*
X306434Y353599D01*
X303808Y354687D01*
X302260Y354891D01*
D02*
G37*
G36*
X919480Y352970D02*
Y345440D01*
X927010D01*
X926871Y346491D01*
X925975Y348653D01*
X924550Y350510D01*
X922693Y351935D01*
X920531Y352831D01*
X919480Y352970D01*
D02*
G37*
G36*
X916940D02*
X915889Y352831D01*
X913727Y351935D01*
X911870Y350510D01*
X910445Y348653D01*
X909549Y346491D01*
X909410Y345440D01*
X916940D01*
Y352970D01*
D02*
G37*
G36*
X299720Y354891D02*
X298172Y354687D01*
X295546Y353599D01*
X293291Y351869D01*
X291561Y349614D01*
X290473Y346988D01*
X290269Y345440D01*
X299720D01*
Y354891D01*
D02*
G37*
G36*
X1626870Y343222D02*
X1624814Y342951D01*
X1622899Y342158D01*
X1621254Y340896D01*
X1619992Y339251D01*
X1619527Y338129D01*
X1576070D01*
X1576070Y338129D01*
X1574980Y337912D01*
X1574056Y337294D01*
X1574056Y337294D01*
X1559560Y322799D01*
X1559034Y323324D01*
X1558110Y323942D01*
X1557020Y324159D01*
X1557020Y324159D01*
X1516103D01*
X1515638Y325281D01*
X1514376Y326926D01*
X1512731Y328188D01*
X1510815Y328981D01*
X1508760Y329252D01*
X1506705Y328981D01*
X1504789Y328188D01*
X1503144Y326926D01*
X1501882Y325281D01*
X1501089Y323366D01*
X1500818Y321310D01*
X1501089Y319254D01*
X1501882Y317339D01*
X1503144Y315694D01*
X1504789Y314432D01*
X1506705Y313639D01*
X1508760Y313368D01*
X1510815Y313639D01*
X1512731Y314432D01*
X1514376Y315694D01*
X1515638Y317339D01*
X1516103Y318461D01*
X1555840D01*
X1557546Y316756D01*
X1557546Y316756D01*
X1558470Y316138D01*
X1559560Y315921D01*
X1560650Y316138D01*
X1561574Y316756D01*
X1577250Y332431D01*
X1619527D01*
X1619992Y331309D01*
X1621254Y329664D01*
X1622899Y328402D01*
X1624814Y327609D01*
X1626870Y327338D01*
X1628925Y327609D01*
X1630841Y328402D01*
X1632486Y329664D01*
X1633748Y331309D01*
X1634541Y333224D01*
X1634812Y335280D01*
X1634541Y337336D01*
X1633748Y339251D01*
X1632486Y340896D01*
X1630841Y342158D01*
X1628925Y342951D01*
X1626870Y343222D01*
D02*
G37*
G36*
X1313180Y370621D02*
Y358140D01*
Y345659D01*
X1315184Y345923D01*
X1318234Y347186D01*
X1320854Y349196D01*
X1322864Y351816D01*
X1324127Y354866D01*
X1324468Y357455D01*
X1324482Y357560D01*
X1325763D01*
X1325777Y357455D01*
X1326083Y355132D01*
X1327244Y352328D01*
X1329091Y349921D01*
X1331498Y348074D01*
X1334302Y346913D01*
X1334698Y346861D01*
X1335296Y345966D01*
X1385261Y296000D01*
Y190809D01*
X1372593D01*
X1372128Y191931D01*
X1370866Y193576D01*
X1369221Y194838D01*
X1367305Y195631D01*
X1365250Y195902D01*
X1363194Y195631D01*
X1361279Y194838D01*
X1359634Y193576D01*
X1358372Y191931D01*
X1357907Y190809D01*
X1323063D01*
X1322598Y191931D01*
X1321336Y193576D01*
X1319691Y194838D01*
X1317776Y195631D01*
X1315720Y195902D01*
X1313665Y195631D01*
X1311749Y194838D01*
X1310104Y193576D01*
X1308842Y191931D01*
X1308377Y190809D01*
X1260833D01*
X1260368Y191931D01*
X1259106Y193576D01*
X1257461Y194838D01*
X1255546Y195631D01*
X1253490Y195902D01*
X1251434Y195631D01*
X1249519Y194838D01*
X1247874Y193576D01*
X1246612Y191931D01*
X1246147Y190809D01*
X1197333D01*
X1196868Y191931D01*
X1195606Y193576D01*
X1193961Y194838D01*
X1192046Y195631D01*
X1189990Y195902D01*
X1187934Y195631D01*
X1186019Y194838D01*
X1184374Y193576D01*
X1183112Y191931D01*
X1182647Y190809D01*
X1146533D01*
X1146068Y191931D01*
X1144806Y193576D01*
X1143161Y194838D01*
X1141245Y195631D01*
X1139190Y195902D01*
X1137134Y195631D01*
X1135219Y194838D01*
X1133574Y193576D01*
X1132312Y191931D01*
X1131847Y190809D01*
X1113513D01*
X1113048Y191931D01*
X1111786Y193576D01*
X1110141Y194838D01*
X1108225Y195631D01*
X1106170Y195902D01*
X1104115Y195631D01*
X1102199Y194838D01*
X1100554Y193576D01*
X1099292Y191931D01*
X1098499Y190016D01*
X1098228Y187960D01*
X1098499Y185905D01*
X1098963Y184782D01*
X1095846Y181665D01*
X1092545D01*
X1091919Y182935D01*
X1092728Y183989D01*
X1093521Y185905D01*
X1093792Y187960D01*
X1093521Y190016D01*
X1092728Y191931D01*
X1091466Y193576D01*
X1089821Y194838D01*
X1087906Y195631D01*
X1085850Y195902D01*
X1083794Y195631D01*
X1083320Y195435D01*
X1076646Y202108D01*
Y232232D01*
X1142555Y298140D01*
X1142839Y297922D01*
X1144754Y297129D01*
X1146810Y296858D01*
X1148866Y297129D01*
X1150781Y297922D01*
X1152426Y299184D01*
X1153688Y300829D01*
X1154481Y302745D01*
X1154752Y304800D01*
X1154481Y306856D01*
X1153688Y308771D01*
X1152426Y310416D01*
X1150781Y311678D01*
X1148866Y312471D01*
X1146810Y312742D01*
X1144754Y312471D01*
X1142839Y311678D01*
X1141194Y310416D01*
X1139932Y308771D01*
X1139139Y306856D01*
X1138868Y304800D01*
X1138921Y304396D01*
X1070678Y236152D01*
X1069920Y235018D01*
X1069654Y233680D01*
Y200927D01*
X1068384Y200674D01*
X1068376Y200693D01*
X1067155Y202285D01*
X1065563Y203506D01*
X1063709Y204274D01*
X1062990Y204369D01*
Y195580D01*
X1069406D01*
Y196850D01*
X1069249Y198040D01*
X1070470Y198500D01*
X1070678Y198188D01*
X1078375Y190490D01*
X1078179Y190016D01*
X1077908Y187960D01*
X1078179Y185905D01*
X1078972Y183989D01*
X1079781Y182935D01*
X1079155Y181665D01*
X1007274D01*
X992614Y196324D01*
X992181Y196614D01*
Y196850D01*
X991954Y198574D01*
X991289Y200180D01*
X990230Y201560D01*
X988850Y202619D01*
X987244Y203284D01*
X985520Y203511D01*
X983796Y203284D01*
X982189Y202619D01*
X980810Y201560D01*
X979751Y200180D01*
X979086Y198574D01*
X978859Y196850D01*
Y191770D01*
X979086Y190046D01*
X979751Y188440D01*
X980810Y187060D01*
X982189Y186001D01*
X983796Y185336D01*
X985520Y185109D01*
X987244Y185336D01*
X988850Y186001D01*
X990230Y187060D01*
X991010Y188076D01*
X992490Y188391D01*
X1004080Y176802D01*
X1004080Y176802D01*
X1005004Y176184D01*
X1006094Y175967D01*
X1097026D01*
X1097026Y175967D01*
X1098116Y176184D01*
X1099040Y176802D01*
X1102992Y180753D01*
X1104115Y180289D01*
X1106170Y180018D01*
X1108225Y180289D01*
X1110141Y181082D01*
X1111786Y182344D01*
X1113048Y183989D01*
X1113513Y185111D01*
X1131847D01*
X1132312Y183989D01*
X1133574Y182344D01*
X1135219Y181082D01*
X1137134Y180289D01*
X1139190Y180018D01*
X1141245Y180289D01*
X1143161Y181082D01*
X1144806Y182344D01*
X1146068Y183989D01*
X1146533Y185111D01*
X1182647D01*
X1183112Y183989D01*
X1184374Y182344D01*
X1186019Y181082D01*
X1187934Y180289D01*
X1189990Y180018D01*
X1192046Y180289D01*
X1193961Y181082D01*
X1195606Y182344D01*
X1196868Y183989D01*
X1197333Y185111D01*
X1246147D01*
X1246612Y183989D01*
X1247874Y182344D01*
X1249519Y181082D01*
X1251434Y180289D01*
X1253490Y180018D01*
X1255546Y180289D01*
X1257461Y181082D01*
X1259106Y182344D01*
X1260368Y183989D01*
X1260833Y185111D01*
X1308377D01*
X1308842Y183989D01*
X1310104Y182344D01*
X1311749Y181082D01*
X1313665Y180289D01*
X1315720Y180018D01*
X1317776Y180289D01*
X1319691Y181082D01*
X1321336Y182344D01*
X1322598Y183989D01*
X1323063Y185111D01*
X1357907D01*
X1358372Y183989D01*
X1359634Y182344D01*
X1361279Y181082D01*
X1363194Y180289D01*
X1365250Y180018D01*
X1367305Y180289D01*
X1369221Y181082D01*
X1370866Y182344D01*
X1372128Y183989D01*
X1372593Y185111D01*
X1428636D01*
X1428699Y184634D01*
X1429492Y182719D01*
X1430754Y181074D01*
X1432399Y179812D01*
X1434315Y179019D01*
X1436370Y178748D01*
X1438425Y179019D01*
X1440341Y179812D01*
X1441986Y181074D01*
X1443248Y182719D01*
X1444041Y184634D01*
X1444104Y185111D01*
X1505973D01*
X1506128Y184330D01*
X1506746Y183406D01*
X1515636Y174516D01*
X1515636Y174516D01*
X1516560Y173898D01*
X1517650Y173681D01*
X1517650Y173681D01*
X1620520D01*
X1620520Y173681D01*
X1621610Y173898D01*
X1622534Y174516D01*
X1626927Y178908D01*
X1628140Y178748D01*
X1630195Y179019D01*
X1632111Y179812D01*
X1633756Y181074D01*
X1635018Y182719D01*
X1635811Y184634D01*
X1636082Y186690D01*
X1635811Y188745D01*
X1635018Y190661D01*
X1633756Y192306D01*
X1632111Y193568D01*
X1630195Y194361D01*
X1628140Y194632D01*
X1626084Y194361D01*
X1624169Y193568D01*
X1622524Y192306D01*
X1621262Y190661D01*
X1620469Y188745D01*
X1620198Y186690D01*
X1620469Y184634D01*
X1621262Y182719D01*
X1621878Y181917D01*
X1619340Y179379D01*
X1613313D01*
X1612881Y180649D01*
X1613436Y181074D01*
X1614698Y182719D01*
X1615491Y184634D01*
X1615762Y186690D01*
X1615491Y188745D01*
X1614698Y190661D01*
X1613436Y192306D01*
X1611791Y193568D01*
X1609875Y194361D01*
X1607820Y194632D01*
X1605764Y194361D01*
X1603849Y193568D01*
X1603765Y193504D01*
X1601779Y195490D01*
Y250190D01*
X1601779Y250190D01*
X1601562Y251280D01*
X1600944Y252204D01*
X1600944Y252204D01*
X1548874Y304274D01*
X1547950Y304892D01*
X1546860Y305109D01*
X1546860Y305109D01*
X1516103D01*
X1515638Y306231D01*
X1514376Y307876D01*
X1512731Y309138D01*
X1510815Y309931D01*
X1508760Y310202D01*
X1506705Y309931D01*
X1504789Y309138D01*
X1503144Y307876D01*
X1501882Y306231D01*
X1501089Y304315D01*
X1500818Y302260D01*
X1501089Y300205D01*
X1501882Y298289D01*
X1503144Y296644D01*
X1504789Y295382D01*
X1506705Y294589D01*
X1508760Y294318D01*
X1510815Y294589D01*
X1512731Y295382D01*
X1514376Y296644D01*
X1515638Y298289D01*
X1516103Y299411D01*
X1545680D01*
X1596081Y249010D01*
Y194310D01*
X1596081Y194310D01*
X1596298Y193220D01*
X1596916Y192296D01*
X1600242Y188970D01*
X1600149Y188745D01*
X1599878Y186690D01*
X1600149Y184634D01*
X1600942Y182719D01*
X1602204Y181074D01*
X1602759Y180649D01*
X1602328Y179379D01*
X1591723D01*
X1591291Y180649D01*
X1591846Y181074D01*
X1593108Y182719D01*
X1593901Y184634D01*
X1594172Y186690D01*
X1593901Y188745D01*
X1593108Y190661D01*
X1591846Y192306D01*
X1590201Y193568D01*
X1588286Y194361D01*
X1586230Y194632D01*
X1584174Y194361D01*
X1582259Y193568D01*
X1580614Y192306D01*
X1579352Y190661D01*
X1578559Y188745D01*
X1578288Y186690D01*
X1578559Y184634D01*
X1579352Y182719D01*
X1580614Y181074D01*
X1581169Y180649D01*
X1580737Y179379D01*
X1518830D01*
X1511609Y186600D01*
Y230147D01*
X1512731Y230612D01*
X1514376Y231874D01*
X1515638Y233519D01*
X1516431Y235434D01*
X1516702Y237490D01*
X1516431Y239545D01*
X1515638Y241461D01*
X1514376Y243106D01*
X1512731Y244368D01*
X1511609Y244833D01*
Y251460D01*
Y264437D01*
X1512731Y264902D01*
X1514376Y266164D01*
X1515638Y267809D01*
X1516431Y269725D01*
X1516702Y271780D01*
X1516431Y273836D01*
X1515638Y275751D01*
X1514376Y277396D01*
X1512731Y278658D01*
X1510815Y279451D01*
X1508760Y279722D01*
X1506705Y279451D01*
X1504789Y278658D01*
X1503144Y277396D01*
X1501882Y275751D01*
X1501089Y273836D01*
X1500818Y271780D01*
X1501089Y269725D01*
X1501882Y267809D01*
X1503144Y266164D01*
X1504789Y264902D01*
X1505911Y264437D01*
Y254309D01*
X1479460D01*
X1468429Y265340D01*
Y323940D01*
X1486132Y341643D01*
X1501417D01*
X1501882Y340521D01*
X1503144Y338876D01*
X1504789Y337614D01*
X1506705Y336821D01*
X1508760Y336550D01*
X1510815Y336821D01*
X1512731Y337614D01*
X1514376Y338876D01*
X1515638Y340521D01*
X1516431Y342436D01*
X1516702Y344492D01*
X1516431Y346548D01*
X1515638Y348463D01*
X1514376Y350108D01*
X1512731Y351370D01*
X1510815Y352163D01*
X1508760Y352434D01*
X1506705Y352163D01*
X1504789Y351370D01*
X1503144Y350108D01*
X1501882Y348463D01*
X1501417Y347341D01*
X1484952D01*
X1483862Y347124D01*
X1482938Y346506D01*
X1482937Y346506D01*
X1463566Y327134D01*
X1462948Y326210D01*
X1462731Y325120D01*
X1462731Y325120D01*
Y264160D01*
X1462731Y264160D01*
X1462948Y263070D01*
X1463566Y262146D01*
X1475469Y250242D01*
X1475014Y248901D01*
X1473419Y248691D01*
X1471257Y247795D01*
X1469400Y246370D01*
X1467975Y244513D01*
X1467079Y242351D01*
X1466940Y241300D01*
X1484539D01*
X1484401Y242351D01*
X1483505Y244513D01*
X1482080Y246370D01*
X1480815Y247341D01*
X1481246Y248611D01*
X1505911D01*
Y244833D01*
X1504789Y244368D01*
X1503144Y243106D01*
X1501882Y241461D01*
X1501089Y239545D01*
X1500818Y237490D01*
X1501089Y235434D01*
X1501882Y233519D01*
X1503144Y231874D01*
X1504789Y230612D01*
X1505911Y230147D01*
Y190809D01*
X1443135D01*
X1441986Y192306D01*
X1440341Y193568D01*
X1438425Y194361D01*
X1436370Y194632D01*
X1434315Y194361D01*
X1432399Y193568D01*
X1430754Y192306D01*
X1429605Y190809D01*
X1390959D01*
Y297180D01*
X1390959Y297180D01*
X1390742Y298270D01*
X1390124Y299194D01*
X1390124Y299194D01*
X1342603Y346716D01*
X1342851Y347962D01*
X1343122Y348074D01*
X1345529Y349921D01*
X1347376Y352328D01*
X1348537Y355132D01*
X1348933Y358140D01*
X1348537Y361148D01*
X1347376Y363952D01*
X1345529Y366359D01*
X1343122Y368206D01*
X1340318Y369367D01*
X1337310Y369763D01*
X1334302Y369367D01*
X1331498Y368206D01*
X1329091Y366359D01*
X1327244Y363952D01*
X1326083Y361148D01*
X1325777Y358825D01*
X1325763Y358720D01*
X1324482D01*
X1324468Y358825D01*
X1324127Y361414D01*
X1322864Y364464D01*
X1320854Y367084D01*
X1318234Y369094D01*
X1315184Y370357D01*
X1313180Y370621D01*
D02*
G37*
G36*
X276860Y354891D02*
Y345440D01*
X286311D01*
X286107Y346988D01*
X285019Y349614D01*
X283289Y351869D01*
X281034Y353599D01*
X278408Y354687D01*
X276860Y354891D01*
D02*
G37*
G36*
X274320D02*
X272772Y354687D01*
X270146Y353599D01*
X267891Y351869D01*
X266161Y349614D01*
X265073Y346988D01*
X264869Y345440D01*
X274320D01*
Y354891D01*
D02*
G37*
G36*
X275590Y379433D02*
X273037Y379097D01*
X270658Y378112D01*
X268615Y376544D01*
X267048Y374502D01*
X266063Y372123D01*
X265727Y369570D01*
X266063Y367017D01*
X267048Y364638D01*
X268615Y362595D01*
X270658Y361028D01*
X273037Y360043D01*
X275590Y359707D01*
X278143Y360043D01*
X280522Y361028D01*
X282565Y362595D01*
X284132Y364638D01*
X285117Y367017D01*
X285453Y369570D01*
X285117Y372123D01*
X284132Y374502D01*
X282565Y376544D01*
X280522Y378112D01*
X278143Y379097D01*
X275590Y379433D01*
D02*
G37*
G36*
X250190D02*
X247637Y379097D01*
X245258Y378112D01*
X243216Y376544D01*
X241648Y374502D01*
X240663Y372123D01*
X240327Y369570D01*
X240663Y367017D01*
X241648Y364638D01*
X243216Y362595D01*
X245258Y361028D01*
X247637Y360043D01*
X250190Y359707D01*
X252743Y360043D01*
X255122Y361028D01*
X257164Y362595D01*
X258732Y364638D01*
X259717Y367017D01*
X260053Y369570D01*
X259717Y372123D01*
X258732Y374502D01*
X257164Y376544D01*
X255122Y378112D01*
X252743Y379097D01*
X250190Y379433D01*
D02*
G37*
G36*
X433070Y391469D02*
X433070Y391469D01*
X218440D01*
X217350Y391252D01*
X216426Y390634D01*
X216426Y390634D01*
X204026Y378234D01*
X201943Y379097D01*
X199390Y379433D01*
X196837Y379097D01*
X194458Y378112D01*
X192416Y376544D01*
X190848Y374502D01*
X189863Y372123D01*
X189527Y369570D01*
X189863Y367017D01*
X190848Y364638D01*
X192416Y362595D01*
X194458Y361028D01*
X196837Y360043D01*
X199390Y359707D01*
X201943Y360043D01*
X204322Y361028D01*
X206364Y362595D01*
X207932Y364638D01*
X208917Y367017D01*
X209253Y369570D01*
X208917Y372123D01*
X208055Y374206D01*
X219620Y385771D01*
X311615D01*
X312000Y384501D01*
X311676Y384284D01*
X311676Y384284D01*
X305626Y378234D01*
X303543Y379097D01*
X300990Y379433D01*
X298437Y379097D01*
X296058Y378112D01*
X294016Y376544D01*
X292448Y374502D01*
X291463Y372123D01*
X291127Y369570D01*
X291463Y367017D01*
X292448Y364638D01*
X294016Y362595D01*
X296058Y361028D01*
X298437Y360043D01*
X300990Y359707D01*
X303543Y360043D01*
X305922Y361028D01*
X307964Y362595D01*
X309532Y364638D01*
X310517Y367017D01*
X310853Y369570D01*
X310517Y372123D01*
X309655Y374206D01*
X314870Y379421D01*
X321301D01*
X321553Y378151D01*
X321458Y378112D01*
X319415Y376544D01*
X317848Y374502D01*
X316863Y372123D01*
X316527Y369570D01*
X316863Y367017D01*
X317848Y364638D01*
X319415Y362595D01*
X321458Y361028D01*
X323837Y360043D01*
X326390Y359707D01*
X328943Y360043D01*
X331026Y360905D01*
X337892Y354039D01*
Y347929D01*
X336622Y347676D01*
X335819Y349614D01*
X334089Y351869D01*
X331834Y353599D01*
X329208Y354687D01*
X327660Y354891D01*
Y344170D01*
Y333449D01*
X329208Y333653D01*
X331834Y334741D01*
X334089Y336471D01*
X335819Y338726D01*
X336622Y340664D01*
X337892Y340411D01*
Y332355D01*
X337892Y332354D01*
X338109Y331264D01*
X338727Y330340D01*
X347231Y321836D01*
X347231Y321836D01*
X348155Y321218D01*
X349245Y321001D01*
X349245Y321001D01*
X453390D01*
X453390Y321001D01*
X454480Y321218D01*
X455404Y321836D01*
X463460Y329891D01*
X692240D01*
X701566Y320566D01*
X701566Y320566D01*
X702490Y319948D01*
X703580Y319731D01*
X742997D01*
X761212Y301516D01*
X761212Y301516D01*
X761537Y301299D01*
X761152Y300029D01*
X726350D01*
X709404Y316974D01*
X708480Y317592D01*
X707390Y317809D01*
X707390Y317809D01*
X538594D01*
X538531Y318286D01*
X537738Y320201D01*
X536476Y321846D01*
X534831Y323108D01*
X532915Y323901D01*
X530860Y324172D01*
X528805Y323901D01*
X526889Y323108D01*
X525244Y321846D01*
X523982Y320201D01*
X523189Y318286D01*
X522918Y316230D01*
X523189Y314174D01*
X523982Y312259D01*
X525244Y310614D01*
X526889Y309352D01*
X528805Y308559D01*
X530860Y308288D01*
X532915Y308559D01*
X534831Y309352D01*
X536476Y310614D01*
X537625Y312111D01*
X697863D01*
X698115Y310841D01*
X697069Y310408D01*
X695424Y309146D01*
X694162Y307501D01*
X693369Y305585D01*
X693098Y303530D01*
X693369Y301474D01*
X694162Y299559D01*
X695424Y297914D01*
X697069Y296652D01*
X698985Y295859D01*
X701040Y295588D01*
X703095Y295859D01*
X703320Y295951D01*
X704672Y294599D01*
X704007Y293469D01*
X702310Y293692D01*
X700255Y293421D01*
X698339Y292628D01*
X696694Y291366D01*
X695432Y289721D01*
X694639Y287806D01*
X694368Y285750D01*
X694639Y283694D01*
X695432Y281779D01*
X696694Y280134D01*
X698339Y278872D01*
X700255Y278079D01*
X700611Y278032D01*
Y265430D01*
X700611Y265430D01*
X700828Y264340D01*
X701446Y263416D01*
X741525Y223336D01*
X740721Y222344D01*
X739639Y222344D01*
X729806D01*
Y221169D01*
X704880D01*
X649549Y276499D01*
X649760Y278085D01*
X650776Y278864D01*
X652038Y280509D01*
X652831Y282425D01*
X653102Y284480D01*
X652831Y286535D01*
X652038Y288451D01*
X650776Y290096D01*
X649131Y291358D01*
X647215Y292151D01*
X645160Y292422D01*
X643104Y292151D01*
X641189Y291358D01*
X639544Y290096D01*
X638282Y288451D01*
X637489Y286535D01*
X637218Y284480D01*
X637489Y282425D01*
X638282Y280509D01*
X639544Y278864D01*
X641189Y277602D01*
X642311Y277137D01*
Y276860D01*
X642311Y276860D01*
X642528Y275770D01*
X643146Y274846D01*
X644982Y273009D01*
X644317Y271879D01*
X642620Y272102D01*
X640564Y271831D01*
X638649Y271038D01*
X637004Y269776D01*
X635742Y268131D01*
X634949Y266215D01*
X634678Y264160D01*
X634949Y262104D01*
X635742Y260189D01*
X637004Y258544D01*
X638649Y257282D01*
X640564Y256489D01*
X642620Y256218D01*
X644676Y256489D01*
X645798Y256954D01*
X653741Y249010D01*
Y193075D01*
X652471Y191965D01*
X651510Y192092D01*
X649454Y191821D01*
X647539Y191028D01*
X645894Y189766D01*
X644632Y188121D01*
X643839Y186206D01*
X643568Y184150D01*
X643839Y182094D01*
X644632Y180179D01*
X645894Y178534D01*
X647539Y177272D01*
X649454Y176479D01*
X651510Y176208D01*
X653566Y176479D01*
X655481Y177272D01*
X657126Y178534D01*
X658388Y180179D01*
X659181Y182094D01*
X659452Y184150D01*
X659181Y186206D01*
X658702Y187362D01*
X659222Y188140D01*
X659439Y189230D01*
X659439Y189230D01*
Y250190D01*
X659222Y251280D01*
X658604Y252204D01*
X658604Y252204D01*
X649827Y260982D01*
X650291Y262104D01*
X650562Y264160D01*
X650339Y265857D01*
X651469Y266522D01*
X701686Y216306D01*
X702610Y215688D01*
X703700Y215471D01*
X703700Y215471D01*
X729806D01*
Y214296D01*
X740854D01*
Y221081D01*
X740854Y222211D01*
X741846Y223015D01*
X747586Y217275D01*
Y211756D01*
X758634D01*
Y219804D01*
X753115D01*
X706309Y266610D01*
Y278893D01*
X707926Y280134D01*
X709188Y281779D01*
X709981Y283694D01*
X710252Y285750D01*
X710029Y287447D01*
X711159Y288112D01*
X769311Y229960D01*
Y221074D01*
X766636D01*
Y213026D01*
X777684D01*
Y221074D01*
X775009D01*
Y231140D01*
X775009Y231140D01*
X774792Y232230D01*
X774174Y233154D01*
X707854Y299475D01*
X707918Y299559D01*
X708711Y301474D01*
X708982Y303530D01*
X708711Y305585D01*
X707918Y307501D01*
X706656Y309146D01*
X705011Y310408D01*
X703965Y310841D01*
X704217Y312111D01*
X706210D01*
X723156Y295166D01*
X723156Y295166D01*
X724080Y294548D01*
X725170Y294331D01*
X810470D01*
X820326Y284475D01*
Y278956D01*
X821501D01*
Y273180D01*
X820904Y273101D01*
X818989Y272308D01*
X817344Y271046D01*
X816082Y269401D01*
X815289Y267486D01*
X815018Y265430D01*
X815289Y263375D01*
X816082Y261459D01*
X817344Y259814D01*
X818989Y258552D01*
X820904Y257759D01*
X822960Y257488D01*
X825015Y257759D01*
X826931Y258552D01*
X828576Y259814D01*
X829838Y261459D01*
X830631Y263375D01*
X830902Y265430D01*
X830631Y267486D01*
X829838Y269401D01*
X828576Y271046D01*
X827199Y272103D01*
Y278956D01*
X828374D01*
Y290004D01*
X822855D01*
X813664Y299194D01*
X813340Y299411D01*
X813725Y300681D01*
X901790D01*
X914926Y287546D01*
X914926Y287546D01*
X915850Y286928D01*
X916940Y286711D01*
X934720D01*
X934720Y286711D01*
X935810Y286928D01*
X936734Y287546D01*
X988692Y339504D01*
X989815Y339039D01*
X991870Y338768D01*
X993925Y339039D01*
X995841Y339832D01*
X997486Y341094D01*
X998748Y342739D01*
X999541Y344655D01*
X999812Y346710D01*
X999541Y348765D01*
X998864Y350401D01*
X999940Y351121D01*
X1001721Y349340D01*
Y326300D01*
X924770Y249349D01*
X904549D01*
Y256817D01*
X905671Y257282D01*
X907316Y258544D01*
X908578Y260189D01*
X909371Y262104D01*
X909642Y264160D01*
X909371Y266215D01*
X908578Y268131D01*
X907316Y269776D01*
X905671Y271038D01*
X903755Y271831D01*
X901700Y272102D01*
X899644Y271831D01*
X897729Y271038D01*
X896084Y269776D01*
X894822Y268131D01*
X894029Y266215D01*
X893758Y264160D01*
X894029Y262104D01*
X894822Y260189D01*
X896084Y258544D01*
X897729Y257282D01*
X898851Y256817D01*
Y249349D01*
X885634D01*
Y250524D01*
X874586D01*
Y248795D01*
X874166Y248514D01*
X873548Y247590D01*
X873331Y246500D01*
X873548Y245410D01*
X874166Y244486D01*
X874586Y244205D01*
Y242476D01*
X885634D01*
Y243651D01*
X925950D01*
X925950Y243651D01*
X927040Y243868D01*
X927964Y244486D01*
X1006584Y323106D01*
X1006584Y323106D01*
X1007202Y324030D01*
X1007419Y325120D01*
Y350520D01*
X1007419Y350520D01*
X1007202Y351610D01*
X1006584Y352534D01*
X998964Y360154D01*
X998040Y360772D01*
X996950Y360989D01*
X996950Y360989D01*
X962570D01*
X953356Y370202D01*
X953821Y371325D01*
X954092Y373380D01*
X953821Y375435D01*
X953028Y377351D01*
X951766Y378996D01*
X950121Y380258D01*
X948205Y381051D01*
X946150Y381322D01*
X944094Y381051D01*
X942179Y380258D01*
X940534Y378996D01*
X939272Y377351D01*
X938479Y375435D01*
X938208Y373380D01*
X938479Y371325D01*
X939272Y369409D01*
X940534Y367764D01*
X942179Y366502D01*
X944094Y365709D01*
X946150Y365438D01*
X948205Y365709D01*
X949328Y366174D01*
X959376Y356126D01*
X959376Y356126D01*
X960300Y355508D01*
X961390Y355291D01*
X961390Y355291D01*
X988693D01*
X988945Y354021D01*
X987899Y353588D01*
X986254Y352326D01*
X984992Y350681D01*
X984199Y348765D01*
X983928Y346710D01*
X984199Y344655D01*
X984663Y343532D01*
X933540Y292409D01*
X918120D01*
X906038Y304491D01*
X906563Y305761D01*
X910867D01*
X911332Y304639D01*
X912594Y302994D01*
X914239Y301732D01*
X916154Y300939D01*
X918210Y300668D01*
X920266Y300939D01*
X922181Y301732D01*
X923826Y302994D01*
X925088Y304639D01*
X925881Y306555D01*
X926152Y308610D01*
X925881Y310665D01*
X925088Y312581D01*
X923826Y314226D01*
X922181Y315488D01*
X920266Y316281D01*
X918210Y316552D01*
X916154Y316281D01*
X914239Y315488D01*
X912594Y314226D01*
X911332Y312581D01*
X910867Y311459D01*
X805090D01*
X794124Y322425D01*
X794750Y323595D01*
X795020Y323541D01*
X795020Y323541D01*
X893087D01*
X893552Y322419D01*
X894814Y320774D01*
X896459Y319512D01*
X898374Y318719D01*
X900430Y318448D01*
X902486Y318719D01*
X904401Y319512D01*
X906046Y320774D01*
X907308Y322419D01*
X908101Y324334D01*
X908372Y326390D01*
X908101Y328446D01*
X907308Y330361D01*
X906046Y332006D01*
X904401Y333268D01*
X903968Y333447D01*
X904221Y334717D01*
X905854D01*
X911003Y329568D01*
X910539Y328446D01*
X910268Y326390D01*
X910539Y324334D01*
X911332Y322419D01*
X912594Y320774D01*
X914239Y319512D01*
X916154Y318719D01*
X918210Y318448D01*
X920266Y318719D01*
X922181Y319512D01*
X923826Y320774D01*
X925088Y322419D01*
X925881Y324334D01*
X926152Y326390D01*
X925881Y328446D01*
X925088Y330361D01*
X923826Y332006D01*
X922181Y333268D01*
X920266Y334061D01*
X919766Y334127D01*
Y335408D01*
X920531Y335509D01*
X922693Y336405D01*
X924550Y337830D01*
X925975Y339687D01*
X926871Y341849D01*
X927010Y342900D01*
X909410D01*
X909549Y341849D01*
X910237Y340188D01*
X909160Y339468D01*
X909048Y339580D01*
X908124Y340198D01*
X907034Y340415D01*
X907034Y340415D01*
X872835D01*
X872209Y341685D01*
X873018Y342739D01*
X873811Y344655D01*
X874082Y346710D01*
X873811Y348765D01*
X873018Y350681D01*
X871756Y352326D01*
X870111Y353588D01*
X868195Y354381D01*
X866140Y354652D01*
X864084Y354381D01*
X862962Y353917D01*
X857994Y358884D01*
X857070Y359502D01*
X855980Y359719D01*
X855980Y359719D01*
X567600D01*
X550654Y376664D01*
X549730Y377282D01*
X548640Y377499D01*
X548640Y377499D01*
X533123D01*
X532658Y378621D01*
X531396Y380266D01*
X529751Y381528D01*
X527836Y382321D01*
X525780Y382592D01*
X523725Y382321D01*
X521809Y381528D01*
X520164Y380266D01*
X518902Y378621D01*
X518109Y376706D01*
X517838Y374650D01*
X518109Y372594D01*
X518902Y370679D01*
X520164Y369034D01*
X521809Y367772D01*
X523725Y366979D01*
X525780Y366708D01*
X527836Y366979D01*
X529751Y367772D01*
X531396Y369034D01*
X532658Y370679D01*
X533123Y371801D01*
X547460D01*
X564369Y354893D01*
X564362Y354734D01*
X563965Y353623D01*
X472096D01*
X435084Y390634D01*
X434160Y391252D01*
X433070Y391469D01*
D02*
G37*
G36*
X1338580Y401006D02*
X201930D01*
X200592Y400740D01*
X199458Y399982D01*
X177978Y378503D01*
X176543Y379097D01*
X173990Y379433D01*
X171437Y379097D01*
X169058Y378112D01*
X167015Y376544D01*
X165448Y374502D01*
X164463Y372123D01*
X164127Y369570D01*
X164463Y367017D01*
X165448Y364638D01*
X167015Y362595D01*
X169058Y361028D01*
X171437Y360043D01*
X173990Y359707D01*
X176543Y360043D01*
X178922Y361028D01*
X180965Y362595D01*
X182532Y364638D01*
X183517Y367017D01*
X183853Y369570D01*
X183517Y372123D01*
X182923Y373558D01*
X203378Y394014D01*
X1337132D01*
X1364048Y367098D01*
X1365182Y366340D01*
X1366520Y366074D01*
X1447075D01*
X1447272Y365599D01*
X1448534Y363954D01*
X1450179Y362692D01*
X1452095Y361899D01*
X1454150Y361628D01*
X1456205Y361899D01*
X1458121Y362692D01*
X1459766Y363954D01*
X1461028Y365599D01*
X1461821Y367514D01*
X1462092Y369570D01*
X1461821Y371626D01*
X1461028Y373541D01*
X1459766Y375186D01*
X1458121Y376448D01*
X1456205Y377241D01*
X1454150Y377512D01*
X1452095Y377241D01*
X1450179Y376448D01*
X1448534Y375186D01*
X1447272Y373541D01*
X1447075Y373066D01*
X1367968D01*
X1341052Y399982D01*
X1339918Y400740D01*
X1338580Y401006D01*
D02*
G37*
G36*
X224790Y379433D02*
X222237Y379097D01*
X219858Y378112D01*
X217815Y376544D01*
X216248Y374502D01*
X215263Y372123D01*
X214927Y369570D01*
X215263Y367017D01*
X216248Y364638D01*
X217815Y362595D01*
X219858Y361028D01*
X222237Y360043D01*
X224790Y359707D01*
X227343Y360043D01*
X229722Y361028D01*
X231765Y362595D01*
X233332Y364638D01*
X234317Y367017D01*
X234653Y369570D01*
X234317Y372123D01*
X233332Y374502D01*
X231765Y376544D01*
X229722Y378112D01*
X227343Y379097D01*
X224790Y379433D01*
D02*
G37*
G36*
X1170940Y360461D02*
X1168936Y360197D01*
X1165886Y358934D01*
X1163266Y356924D01*
X1161256Y354304D01*
X1159993Y351254D01*
X1159652Y348665D01*
X1159638Y348560D01*
X1158357D01*
X1158343Y348665D01*
X1158037Y350988D01*
X1156876Y353792D01*
X1155029Y356199D01*
X1152622Y358046D01*
X1149818Y359207D01*
X1146810Y359603D01*
X1143802Y359207D01*
X1140998Y358046D01*
X1138591Y356199D01*
X1136744Y353792D01*
X1135583Y350988D01*
X1135187Y347980D01*
X1135583Y344972D01*
X1136744Y342168D01*
X1138591Y339761D01*
X1140998Y337914D01*
X1143802Y336753D01*
X1146810Y336357D01*
X1149818Y336753D01*
X1152622Y337914D01*
X1155029Y339761D01*
X1156876Y342168D01*
X1158037Y344972D01*
X1158343Y347295D01*
X1158357Y347400D01*
X1159638D01*
X1159652Y347295D01*
X1159993Y344706D01*
X1161256Y341656D01*
X1163266Y339036D01*
X1165886Y337026D01*
X1168936Y335763D01*
X1170940Y335499D01*
Y347980D01*
Y360461D01*
D02*
G37*
G36*
X1259840Y356870D02*
X1248629D01*
X1248893Y354866D01*
X1250156Y351816D01*
X1252166Y349196D01*
X1254786Y347186D01*
X1257836Y345923D01*
X1259840Y345659D01*
Y356870D01*
D02*
G37*
G36*
Y370621D02*
X1257836Y370357D01*
X1254786Y369094D01*
X1252166Y367084D01*
X1250156Y364464D01*
X1248893Y361414D01*
X1248629Y359410D01*
X1259840D01*
Y370621D01*
D02*
G37*
G36*
X1310640D02*
X1308636Y370357D01*
X1305586Y369094D01*
X1302966Y367084D01*
X1300956Y364464D01*
X1299693Y361414D01*
X1299352Y358825D01*
X1299338Y358720D01*
X1298057D01*
X1298043Y358825D01*
X1297737Y361148D01*
X1296576Y363952D01*
X1294729Y366359D01*
X1292322Y368206D01*
X1289518Y369367D01*
X1286510Y369763D01*
X1283502Y369367D01*
X1280698Y368206D01*
X1278291Y366359D01*
X1276444Y363952D01*
X1275283Y361148D01*
X1274977Y358825D01*
X1274963Y358720D01*
X1273682D01*
X1273668Y358825D01*
X1273327Y361414D01*
X1272064Y364464D01*
X1270054Y367084D01*
X1267434Y369094D01*
X1264384Y370357D01*
X1262380Y370621D01*
Y358140D01*
Y345659D01*
X1264384Y345923D01*
X1267434Y347186D01*
X1270054Y349196D01*
X1272064Y351816D01*
X1273327Y354866D01*
X1273668Y357455D01*
X1273682Y357560D01*
X1274963D01*
X1274977Y357455D01*
X1275283Y355132D01*
X1276444Y352328D01*
X1276542Y352201D01*
X1247230Y322889D01*
X1057910D01*
X1057910Y322889D01*
X1056820Y322672D01*
X1055896Y322054D01*
X1055896Y322054D01*
X1014788Y280946D01*
X1014250Y281359D01*
X1012644Y282024D01*
X1010920Y282251D01*
X1009196Y282024D01*
X1007589Y281359D01*
X1006210Y280300D01*
X1005151Y278920D01*
X1004486Y277314D01*
X1004259Y275590D01*
Y270510D01*
X1004270Y270429D01*
X970806Y236964D01*
X970188Y236040D01*
X969971Y234950D01*
X969971Y234950D01*
Y180250D01*
X937985Y148264D01*
X901943D01*
X901860Y149534D01*
X903837Y149794D01*
X906275Y150804D01*
X908369Y152411D01*
X909976Y154505D01*
X910986Y156943D01*
X911330Y159560D01*
X910986Y162177D01*
X909976Y164615D01*
X908369Y166709D01*
X906275Y168316D01*
X904716Y168962D01*
Y175246D01*
X905954D01*
Y186294D01*
X894906D01*
Y175246D01*
X897724D01*
Y168962D01*
X896165Y168316D01*
X894071Y166709D01*
X892464Y164615D01*
X891454Y162177D01*
X891109Y159560D01*
X891454Y156943D01*
X892464Y154505D01*
X894071Y152411D01*
X896165Y150804D01*
X898603Y149794D01*
X900580Y149534D01*
X900497Y148264D01*
X871943D01*
X871860Y149534D01*
X873837Y149794D01*
X876275Y150804D01*
X878369Y152411D01*
X879976Y154505D01*
X880986Y156943D01*
X881330Y159560D01*
X880986Y162177D01*
X879976Y164615D01*
X878369Y166709D01*
X876275Y168316D01*
X874716Y168962D01*
Y175246D01*
X876744D01*
Y186294D01*
X865696D01*
Y175246D01*
X867724D01*
Y168962D01*
X866165Y168316D01*
X864071Y166709D01*
X862464Y164615D01*
X861454Y162177D01*
X861109Y159560D01*
X861454Y156943D01*
X862464Y154505D01*
X864071Y152411D01*
X866165Y150804D01*
X868603Y149794D01*
X870580Y149534D01*
X870497Y148264D01*
X841943D01*
X841860Y149534D01*
X843837Y149794D01*
X846275Y150804D01*
X848369Y152411D01*
X849976Y154505D01*
X850986Y156943D01*
X851330Y159560D01*
X850986Y162177D01*
X849976Y164615D01*
X848369Y166709D01*
X846275Y168316D01*
X843837Y169326D01*
X841220Y169671D01*
X838603Y169326D01*
X836165Y168316D01*
X834071Y166709D01*
X832464Y164615D01*
X831454Y162177D01*
X831109Y159560D01*
X831454Y156943D01*
X832464Y154505D01*
X834071Y152411D01*
X836165Y150804D01*
X838603Y149794D01*
X840580Y149534D01*
X840497Y148264D01*
X767935D01*
X767504Y149534D01*
X769173Y150815D01*
X770843Y152990D01*
X771870Y155471D01*
X775526D01*
Y152796D01*
X786574D01*
Y163844D01*
X775526D01*
Y161169D01*
X771806D01*
X770843Y163494D01*
X769173Y165669D01*
X766998Y167339D01*
X764465Y168388D01*
X762844Y168601D01*
X762928Y169871D01*
X834390D01*
X834390Y169871D01*
X835480Y170088D01*
X836404Y170706D01*
X852802Y187104D01*
X853924Y186639D01*
X855980Y186368D01*
X858036Y186639D01*
X859951Y187432D01*
X861596Y188694D01*
X862858Y190339D01*
X863651Y192255D01*
X863922Y194310D01*
X863851Y194849D01*
X864481Y195866D01*
Y195866D01*
X864481Y195866D01*
X864481Y195866D01*
X864950Y196230D01*
X865339Y196230D01*
X865403Y196230D01*
X869950D01*
Y201500D01*
X864680D01*
Y197388D01*
X864680Y197373D01*
X864680Y197372D01*
X864680Y197201D01*
X863939Y197054D01*
X863939D01*
X863939D01*
X863049Y197819D01*
X862858Y198281D01*
X861596Y199926D01*
X859951Y201188D01*
X858036Y201981D01*
X855980Y202252D01*
X853924Y201981D01*
X852009Y201188D01*
X850364Y199926D01*
X849102Y198281D01*
X848309Y196366D01*
X848038Y194310D01*
X848309Y192255D01*
X848773Y191132D01*
X833210Y175569D01*
X753020D01*
X745799Y182790D01*
Y195700D01*
X745799Y195700D01*
X745582Y196790D01*
X744964Y197714D01*
X740854Y201825D01*
Y207344D01*
X729806D01*
Y199296D01*
X735325D01*
X740101Y194520D01*
Y181610D01*
X740101Y181610D01*
X740318Y180520D01*
X740936Y179596D01*
X749826Y170706D01*
X749826Y170706D01*
X750750Y170088D01*
X751840Y169871D01*
X751840Y169871D01*
X760564D01*
X760648Y168601D01*
X759027Y168388D01*
X756494Y167339D01*
X754319Y165669D01*
X752649Y163494D01*
X751600Y160961D01*
X751242Y158242D01*
X751600Y155523D01*
X752649Y152990D01*
X754319Y150815D01*
X755988Y149534D01*
X755557Y148264D01*
X737963D01*
X737532Y149534D01*
X739201Y150815D01*
X740871Y152990D01*
X741920Y155523D01*
X742278Y158242D01*
X741920Y160961D01*
X740871Y163494D01*
X739201Y165669D01*
X737026Y167339D01*
X734493Y168388D01*
X731774Y168746D01*
X729055Y168388D01*
X726522Y167339D01*
X724347Y165669D01*
X722677Y163494D01*
X721714Y161169D01*
X717994D01*
Y163844D01*
X706946D01*
Y152796D01*
X717994D01*
Y155471D01*
X721650D01*
X722677Y152990D01*
X724347Y150815D01*
X726016Y149534D01*
X725585Y148264D01*
X681265D01*
X669272Y160256D01*
X668348Y160874D01*
X667258Y161091D01*
X667258Y161091D01*
X663888D01*
X662893Y163494D01*
X661223Y165669D01*
X659048Y167339D01*
X656515Y168388D01*
X653796Y168746D01*
X651077Y168388D01*
X648544Y167339D01*
X646369Y165669D01*
X644699Y163494D01*
X643650Y160961D01*
X643292Y158242D01*
X643650Y155523D01*
X644699Y152990D01*
X646369Y150815D01*
X648544Y149145D01*
X651077Y148096D01*
X653796Y147738D01*
X656515Y148096D01*
X659048Y149145D01*
X661223Y150815D01*
X662893Y152990D01*
X663888Y155393D01*
X666078D01*
X678071Y143401D01*
X678071Y143401D01*
X678995Y142783D01*
X680085Y142566D01*
X680085Y142566D01*
X705930D01*
Y137590D01*
X712470D01*
X719010D01*
Y142566D01*
X774510D01*
Y137590D01*
X781050D01*
X787590D01*
Y142566D01*
X939165D01*
X939165Y142566D01*
X940255Y142783D01*
X941179Y143401D01*
X974834Y177056D01*
X975452Y177980D01*
X975669Y179070D01*
X975669Y179070D01*
Y233770D01*
X1007052Y265154D01*
X1007589Y264741D01*
X1009196Y264076D01*
X1010920Y263849D01*
X1012644Y264076D01*
X1014250Y264741D01*
X1015630Y265800D01*
X1016689Y267180D01*
X1017354Y268786D01*
X1017581Y270510D01*
Y275590D01*
X1017570Y275672D01*
X1059090Y317191D01*
X1248410D01*
X1248410Y317191D01*
X1249500Y317408D01*
X1250424Y318026D01*
X1280571Y348172D01*
X1280698Y348074D01*
X1283502Y346913D01*
X1286510Y346517D01*
X1289518Y346913D01*
X1292322Y348074D01*
X1294729Y349921D01*
X1296576Y352328D01*
X1297737Y355132D01*
X1298043Y357455D01*
X1298057Y357560D01*
X1299338D01*
X1299352Y357455D01*
X1299693Y354866D01*
X1300956Y351816D01*
X1302966Y349196D01*
X1305586Y347186D01*
X1308636Y345923D01*
X1310640Y345659D01*
Y358140D01*
Y370621D01*
D02*
G37*
G36*
X1173480Y360461D02*
Y347980D01*
Y335499D01*
X1175484Y335763D01*
X1178534Y337026D01*
X1181154Y339036D01*
X1183164Y341656D01*
X1184427Y344706D01*
X1184768Y347295D01*
X1184782Y347400D01*
X1186063D01*
X1186077Y347295D01*
X1186383Y344972D01*
X1187544Y342168D01*
X1189391Y339761D01*
X1191798Y337914D01*
X1194602Y336753D01*
X1197610Y336357D01*
X1200618Y336753D01*
X1203422Y337914D01*
X1205829Y339761D01*
X1207676Y342168D01*
X1208837Y344972D01*
X1209233Y347980D01*
X1208837Y350988D01*
X1207676Y353792D01*
X1205829Y356199D01*
X1203422Y358046D01*
X1200618Y359207D01*
X1197610Y359603D01*
X1194602Y359207D01*
X1191798Y358046D01*
X1189391Y356199D01*
X1187544Y353792D01*
X1186383Y350988D01*
X1186077Y348665D01*
X1186063Y348560D01*
X1184782D01*
X1184768Y348665D01*
X1184427Y351254D01*
X1183164Y354304D01*
X1181154Y356924D01*
X1178534Y358934D01*
X1175484Y360197D01*
X1173480Y360461D01*
D02*
G37*
G36*
X900430Y293279D02*
X899379Y293141D01*
X897217Y292245D01*
X895360Y290820D01*
X893935Y288963D01*
X893039Y286801D01*
X892900Y285750D01*
X900430D01*
Y293279D01*
D02*
G37*
G36*
X844390Y291020D02*
X840620D01*
Y285750D01*
X844390D01*
Y291020D01*
D02*
G37*
G36*
X502920Y324172D02*
X500864Y323901D01*
X498949Y323108D01*
X497304Y321846D01*
X496042Y320201D01*
X495249Y318286D01*
X494978Y316230D01*
X495249Y314174D01*
X495714Y313052D01*
X480586Y297924D01*
X479968Y297000D01*
X479751Y295910D01*
X479751Y295910D01*
Y189539D01*
X413743D01*
X413278Y190661D01*
X412016Y192306D01*
X410371Y193568D01*
X408456Y194361D01*
X406400Y194632D01*
X404344Y194361D01*
X402429Y193568D01*
X400784Y192306D01*
X399522Y190661D01*
X399057Y189539D01*
X333733D01*
X333268Y190661D01*
X332006Y192306D01*
X330361Y193568D01*
X328446Y194361D01*
X326390Y194632D01*
X324334Y194361D01*
X322419Y193568D01*
X320774Y192306D01*
X319512Y190661D01*
X319047Y189539D01*
X256263D01*
X255798Y190661D01*
X254536Y192306D01*
X252891Y193568D01*
X250975Y194361D01*
X248920Y194632D01*
X246864Y194361D01*
X244949Y193568D01*
X243304Y192306D01*
X242042Y190661D01*
X241577Y189539D01*
X182603D01*
X182138Y190661D01*
X180876Y192306D01*
X179231Y193568D01*
X177316Y194361D01*
X175260Y194632D01*
X173204Y194361D01*
X171289Y193568D01*
X169644Y192306D01*
X168382Y190661D01*
X167917Y189539D01*
X111483D01*
X111018Y190661D01*
X109756Y192306D01*
X108111Y193568D01*
X106195Y194361D01*
X104140Y194632D01*
X102085Y194361D01*
X100169Y193568D01*
X98524Y192306D01*
X97262Y190661D01*
X96469Y188745D01*
X96198Y186690D01*
X96469Y184634D01*
X97262Y182719D01*
X98524Y181074D01*
X100169Y179812D01*
X102085Y179019D01*
X104140Y178748D01*
X106195Y179019D01*
X108111Y179812D01*
X109756Y181074D01*
X111018Y182719D01*
X111483Y183841D01*
X167917D01*
X168382Y182719D01*
X169644Y181074D01*
X171289Y179812D01*
X173204Y179019D01*
X175260Y178748D01*
X177316Y179019D01*
X179231Y179812D01*
X180876Y181074D01*
X182138Y182719D01*
X182603Y183841D01*
X241577D01*
X242042Y182719D01*
X243304Y181074D01*
X244949Y179812D01*
X246864Y179019D01*
X248920Y178748D01*
X250975Y179019D01*
X252891Y179812D01*
X254536Y181074D01*
X255798Y182719D01*
X256263Y183841D01*
X319047D01*
X319512Y182719D01*
X320774Y181074D01*
X322419Y179812D01*
X324334Y179019D01*
X326390Y178748D01*
X328446Y179019D01*
X330361Y179812D01*
X332006Y181074D01*
X333268Y182719D01*
X333733Y183841D01*
X399057D01*
X399522Y182719D01*
X400784Y181074D01*
X402429Y179812D01*
X404344Y179019D01*
X406400Y178748D01*
X408456Y179019D01*
X410371Y179812D01*
X412016Y181074D01*
X413278Y182719D01*
X413743Y183841D01*
X482600D01*
X482675Y183856D01*
X485666Y180866D01*
X485666Y180866D01*
X486590Y180248D01*
X487680Y180031D01*
X487680Y180031D01*
X618075D01*
X619224Y178534D01*
X620869Y177272D01*
X622785Y176479D01*
X624840Y176208D01*
X626895Y176479D01*
X628811Y177272D01*
X630456Y178534D01*
X631718Y180179D01*
X632511Y182094D01*
X632782Y184150D01*
X632511Y186206D01*
X631718Y188121D01*
X630456Y189766D01*
X628811Y191028D01*
X626895Y191821D01*
X624840Y192092D01*
X622785Y191821D01*
X620869Y191028D01*
X619224Y189766D01*
X617962Y188121D01*
X617169Y186206D01*
X617106Y185729D01*
X614989D01*
Y283300D01*
X622210Y290521D01*
X635000D01*
X635000Y290521D01*
X636090Y290738D01*
X637014Y291356D01*
X640712Y295054D01*
X641834Y294589D01*
X643890Y294318D01*
X645946Y294589D01*
X647861Y295382D01*
X649506Y296644D01*
X650768Y298289D01*
X651561Y300205D01*
X651832Y302260D01*
X651561Y304315D01*
X650768Y306231D01*
X649506Y307876D01*
X647861Y309138D01*
X645946Y309931D01*
X643890Y310202D01*
X641834Y309931D01*
X639919Y309138D01*
X638274Y307876D01*
X637012Y306231D01*
X636219Y304315D01*
X635948Y302260D01*
X636219Y300205D01*
X636684Y299082D01*
X633820Y296219D01*
X621030D01*
X621030Y296219D01*
X619940Y296002D01*
X619016Y295384D01*
X619016Y295384D01*
X610126Y286494D01*
X609508Y285570D01*
X609291Y284480D01*
X609291Y284480D01*
Y185729D01*
X488860D01*
X485449Y189140D01*
Y294730D01*
X499742Y309023D01*
X500864Y308559D01*
X502920Y308288D01*
X504976Y308559D01*
X506891Y309352D01*
X508536Y310614D01*
X509798Y312259D01*
X510591Y314174D01*
X510862Y316230D01*
X510591Y318286D01*
X509798Y320201D01*
X508536Y321846D01*
X506891Y323108D01*
X504976Y323901D01*
X502920Y324172D01*
D02*
G37*
G36*
X902970Y293279D02*
Y285750D01*
X910499D01*
X910361Y286801D01*
X909465Y288963D01*
X908040Y290820D01*
X906183Y292245D01*
X904021Y293141D01*
X902970Y293279D01*
D02*
G37*
G36*
X838080Y291020D02*
X834310D01*
Y285750D01*
X838080D01*
Y291020D01*
D02*
G37*
G36*
X910499Y283210D02*
X902970D01*
Y275681D01*
X904021Y275819D01*
X906183Y276715D01*
X908040Y278140D01*
X909465Y279997D01*
X910361Y282159D01*
X910499Y283210D01*
D02*
G37*
G36*
X900430D02*
X892900D01*
X893039Y282159D01*
X893935Y279997D01*
X895360Y278140D01*
X897217Y276715D01*
X899379Y275819D01*
X900430Y275681D01*
Y283210D01*
D02*
G37*
G36*
X844390D02*
X840620D01*
Y277940D01*
X844390D01*
Y283210D01*
D02*
G37*
G36*
X838080D02*
X834310D01*
Y277940D01*
X838080D01*
Y283210D01*
D02*
G37*
G36*
X199390Y354033D02*
X196837Y353697D01*
X194458Y352712D01*
X192416Y351144D01*
X190848Y349102D01*
X189863Y346723D01*
X189527Y344170D01*
X189863Y341617D01*
X190848Y339238D01*
X192416Y337196D01*
X194458Y335628D01*
X196837Y334643D01*
X199390Y334307D01*
X201943Y334643D01*
X204322Y335628D01*
X206364Y337196D01*
X207932Y339238D01*
X208917Y341617D01*
X209253Y344170D01*
X208917Y346723D01*
X207932Y349102D01*
X206364Y351144D01*
X204322Y352712D01*
X201943Y353697D01*
X199390Y354033D01*
D02*
G37*
G36*
X173990D02*
X171437Y353697D01*
X169058Y352712D01*
X167015Y351144D01*
X165448Y349102D01*
X164463Y346723D01*
X164127Y344170D01*
X164463Y341617D01*
X165448Y339238D01*
X167015Y337196D01*
X169058Y335628D01*
X171437Y334643D01*
X173990Y334307D01*
X176543Y334643D01*
X178922Y335628D01*
X180965Y337196D01*
X182532Y339238D01*
X183517Y341617D01*
X183853Y344170D01*
X183517Y346723D01*
X182532Y349102D01*
X180965Y351144D01*
X178922Y352712D01*
X176543Y353697D01*
X173990Y354033D01*
D02*
G37*
G36*
X250190D02*
X247637Y353697D01*
X245258Y352712D01*
X243216Y351144D01*
X241648Y349102D01*
X240663Y346723D01*
X240327Y344170D01*
X240663Y341617D01*
X241648Y339238D01*
X243216Y337196D01*
X245258Y335628D01*
X247637Y334643D01*
X250190Y334307D01*
X252743Y334643D01*
X255122Y335628D01*
X257164Y337196D01*
X258732Y339238D01*
X259717Y341617D01*
X260053Y344170D01*
X259717Y346723D01*
X258732Y349102D01*
X257164Y351144D01*
X255122Y352712D01*
X252743Y353697D01*
X250190Y354033D01*
D02*
G37*
G36*
X224790D02*
X222237Y353697D01*
X219858Y352712D01*
X217815Y351144D01*
X216248Y349102D01*
X215263Y346723D01*
X214927Y344170D01*
X215263Y341617D01*
X216248Y339238D01*
X217815Y337196D01*
X219858Y335628D01*
X222237Y334643D01*
X224790Y334307D01*
X227343Y334643D01*
X229722Y335628D01*
X231765Y337196D01*
X233332Y339238D01*
X234317Y341617D01*
X234653Y344170D01*
X234317Y346723D01*
X233332Y349102D01*
X231765Y351144D01*
X229722Y352712D01*
X227343Y353697D01*
X224790Y354033D01*
D02*
G37*
G36*
X325120Y342900D02*
X315669D01*
X315873Y341352D01*
X316961Y338726D01*
X318691Y336471D01*
X320946Y334741D01*
X323572Y333653D01*
X325120Y333449D01*
Y342900D01*
D02*
G37*
G36*
X286311D02*
X276860D01*
Y333449D01*
X278408Y333653D01*
X281034Y334741D01*
X283289Y336471D01*
X285019Y338726D01*
X286107Y341352D01*
X286311Y342900D01*
D02*
G37*
G36*
X274320D02*
X264869D01*
X265073Y341352D01*
X266161Y338726D01*
X267891Y336471D01*
X270146Y334741D01*
X272772Y333653D01*
X274320Y333449D01*
Y342900D01*
D02*
G37*
G36*
X311711D02*
X302260D01*
Y333449D01*
X303808Y333653D01*
X306434Y334741D01*
X308689Y336471D01*
X310419Y338726D01*
X311507Y341352D01*
X311711Y342900D01*
D02*
G37*
G36*
X299720D02*
X290269D01*
X290473Y341352D01*
X291561Y338726D01*
X293291Y336471D01*
X295546Y334741D01*
X298172Y333653D01*
X299720Y333449D01*
Y342900D01*
D02*
G37*
G36*
X1108710Y248829D02*
Y241300D01*
X1116239D01*
X1116101Y242351D01*
X1115205Y244513D01*
X1113780Y246370D01*
X1111923Y247795D01*
X1109761Y248691D01*
X1108710Y248829D01*
D02*
G37*
G36*
X1423416Y170016D02*
X1420697Y169658D01*
X1418164Y168609D01*
X1415989Y166939D01*
X1414319Y164764D01*
X1413270Y162231D01*
X1412912Y159512D01*
X1413270Y156793D01*
X1414319Y154260D01*
X1415989Y152085D01*
X1418164Y150415D01*
X1420697Y149366D01*
X1423416Y149008D01*
X1426135Y149366D01*
X1428668Y150415D01*
X1430843Y152085D01*
X1432513Y154260D01*
X1433540Y156741D01*
X1438466D01*
Y154066D01*
X1449514D01*
Y165114D01*
X1438466D01*
Y162439D01*
X1433476D01*
X1432513Y164764D01*
X1430843Y166939D01*
X1428668Y168609D01*
X1426135Y169658D01*
X1423416Y170016D01*
D02*
G37*
G36*
X1318006Y168746D02*
X1315287Y168388D01*
X1312754Y167339D01*
X1310579Y165669D01*
X1308909Y163494D01*
X1307860Y160961D01*
X1307502Y158242D01*
X1307860Y155523D01*
X1308909Y152990D01*
X1310579Y150815D01*
X1312754Y149145D01*
X1315287Y148096D01*
X1318006Y147738D01*
X1320725Y148096D01*
X1323258Y149145D01*
X1325433Y150815D01*
X1327103Y152990D01*
X1328098Y155393D01*
X1331786D01*
Y152796D01*
X1342834D01*
Y163844D01*
X1331786D01*
Y161091D01*
X1328098D01*
X1327103Y163494D01*
X1325433Y165669D01*
X1323258Y167339D01*
X1320725Y168388D01*
X1318006Y168746D01*
D02*
G37*
G36*
X139700Y170027D02*
X136650Y169625D01*
X133808Y168448D01*
X131367Y166575D01*
X129494Y164134D01*
X128317Y161292D01*
X128301Y161169D01*
X126174D01*
Y163844D01*
X115126D01*
Y152796D01*
X126174D01*
Y155471D01*
X128280D01*
X128317Y155192D01*
X129494Y152350D01*
X131367Y149909D01*
X133808Y148036D01*
X136650Y146859D01*
X139700Y146457D01*
X142750Y146859D01*
X145592Y148036D01*
X148033Y149909D01*
X149906Y152350D01*
X151083Y155192D01*
X151485Y158242D01*
X151083Y161292D01*
X149906Y164134D01*
X148033Y166575D01*
X145592Y168448D01*
X142750Y169625D01*
X139700Y170027D01*
D02*
G37*
G36*
X1119590Y167111D02*
X1116973Y166766D01*
X1114535Y165756D01*
X1112441Y164149D01*
X1110834Y162055D01*
X1109920Y159849D01*
X1106614D01*
Y162574D01*
X1095566D01*
Y151526D01*
X1106614D01*
Y154151D01*
X1109920D01*
X1110834Y151945D01*
X1112441Y149851D01*
X1114535Y148244D01*
X1116973Y147234D01*
X1119590Y146889D01*
X1122207Y147234D01*
X1124645Y148244D01*
X1126739Y149851D01*
X1128346Y151945D01*
X1129356Y154383D01*
X1129700Y157000D01*
X1129356Y159617D01*
X1128346Y162055D01*
X1126739Y164149D01*
X1124645Y165756D01*
X1122207Y166766D01*
X1119590Y167111D01*
D02*
G37*
G36*
X1209590D02*
X1206973Y166766D01*
X1204535Y165756D01*
X1202441Y164149D01*
X1200834Y162055D01*
X1199824Y159617D01*
X1199480Y157000D01*
X1199824Y154383D01*
X1200834Y151945D01*
X1202441Y149851D01*
X1204535Y148244D01*
X1206973Y147234D01*
X1209590Y146889D01*
X1212207Y147234D01*
X1214645Y148244D01*
X1216739Y149851D01*
X1218346Y151945D01*
X1219260Y154151D01*
X1223836D01*
Y151526D01*
X1234884D01*
Y162574D01*
X1223836D01*
Y159849D01*
X1219260D01*
X1218346Y162055D01*
X1216739Y164149D01*
X1214645Y165756D01*
X1212207Y166766D01*
X1209590Y167111D01*
D02*
G37*
G36*
X979650Y169671D02*
X977033Y169326D01*
X974595Y168316D01*
X972501Y166709D01*
X970894Y164615D01*
X969884Y162177D01*
X969539Y159560D01*
X969884Y156943D01*
X970894Y154505D01*
X972501Y152411D01*
X974595Y150804D01*
X977033Y149794D01*
X979650Y149450D01*
X982267Y149794D01*
X984705Y150804D01*
X986799Y152411D01*
X988406Y154505D01*
X989416Y156943D01*
X989761Y159560D01*
X989416Y162177D01*
X988406Y164615D01*
X986799Y166709D01*
X984705Y168316D01*
X982267Y169326D01*
X979650Y169671D01*
D02*
G37*
G36*
X548386Y168746D02*
X545667Y168388D01*
X543134Y167339D01*
X540959Y165669D01*
X539289Y163494D01*
X538240Y160961D01*
X537882Y158242D01*
X538240Y155523D01*
X539289Y152990D01*
X540959Y150815D01*
X543134Y149145D01*
X545667Y148096D01*
X548386Y147738D01*
X551105Y148096D01*
X553638Y149145D01*
X555813Y150815D01*
X557483Y152990D01*
X558532Y155523D01*
X558890Y158242D01*
X558532Y160961D01*
X557483Y163494D01*
X555813Y165669D01*
X553638Y167339D01*
X551105Y168388D01*
X548386Y168746D01*
D02*
G37*
G36*
X1039650Y169671D02*
X1037033Y169326D01*
X1034595Y168316D01*
X1032501Y166709D01*
X1030894Y164615D01*
X1029884Y162177D01*
X1029539Y159560D01*
X1029884Y156943D01*
X1030894Y154505D01*
X1032501Y152411D01*
X1034595Y150804D01*
X1037033Y149794D01*
X1039650Y149450D01*
X1042267Y149794D01*
X1044705Y150804D01*
X1046799Y152411D01*
X1048406Y154505D01*
X1049416Y156943D01*
X1049761Y159560D01*
X1049416Y162177D01*
X1048406Y164615D01*
X1046799Y166709D01*
X1044705Y168316D01*
X1042267Y169326D01*
X1039650Y169671D01*
D02*
G37*
G36*
X1009650D02*
X1007033Y169326D01*
X1004595Y168316D01*
X1002501Y166709D01*
X1000894Y164615D01*
X999884Y162177D01*
X999539Y159560D01*
X999884Y156943D01*
X1000894Y154505D01*
X1002501Y152411D01*
X1004595Y150804D01*
X1007033Y149794D01*
X1009650Y149450D01*
X1012267Y149794D01*
X1014705Y150804D01*
X1016799Y152411D01*
X1018406Y154505D01*
X1019416Y156943D01*
X1019761Y159560D01*
X1019416Y162177D01*
X1018406Y164615D01*
X1016799Y166709D01*
X1014705Y168316D01*
X1012267Y169326D01*
X1009650Y169671D01*
D02*
G37*
G36*
X1288034Y168746D02*
X1285315Y168388D01*
X1282782Y167339D01*
X1280607Y165669D01*
X1278937Y163494D01*
X1277974Y161169D01*
X1274254D01*
Y163844D01*
X1263206D01*
Y152796D01*
X1274254D01*
Y155471D01*
X1277910D01*
X1278937Y152990D01*
X1280607Y150815D01*
X1282782Y149145D01*
X1285315Y148096D01*
X1288034Y147738D01*
X1290753Y148096D01*
X1293286Y149145D01*
X1295461Y150815D01*
X1297131Y152990D01*
X1298180Y155523D01*
X1298538Y158242D01*
X1298180Y160961D01*
X1297131Y163494D01*
X1295461Y165669D01*
X1293286Y167339D01*
X1290753Y168388D01*
X1288034Y168746D01*
D02*
G37*
G36*
X623824D02*
X621105Y168388D01*
X618572Y167339D01*
X616397Y165669D01*
X614727Y163494D01*
X613764Y161169D01*
X610044D01*
Y163844D01*
X598996D01*
Y152796D01*
X610044D01*
Y155471D01*
X613700D01*
X614727Y152990D01*
X616397Y150815D01*
X618572Y149145D01*
X621105Y148096D01*
X623824Y147738D01*
X626543Y148096D01*
X629076Y149145D01*
X631251Y150815D01*
X632921Y152990D01*
X633970Y155523D01*
X634328Y158242D01*
X633970Y160961D01*
X632921Y163494D01*
X631251Y165669D01*
X629076Y167339D01*
X626543Y168388D01*
X623824Y168746D01*
D02*
G37*
G36*
X1574800Y170027D02*
X1571750Y169625D01*
X1568908Y168448D01*
X1566467Y166575D01*
X1564594Y164134D01*
X1563892Y162439D01*
X1561274D01*
Y165114D01*
X1550226D01*
Y154066D01*
X1561274D01*
Y156741D01*
X1563213D01*
X1563417Y155192D01*
X1564594Y152350D01*
X1566467Y149909D01*
X1568908Y148036D01*
X1571750Y146859D01*
X1574800Y146457D01*
X1577850Y146859D01*
X1580692Y148036D01*
X1583133Y149909D01*
X1585006Y152350D01*
X1586183Y155192D01*
X1586585Y158242D01*
X1586183Y161292D01*
X1585006Y164134D01*
X1583133Y166575D01*
X1580692Y168448D01*
X1577850Y169625D01*
X1574800Y170027D01*
D02*
G37*
G36*
X1498600D02*
X1495550Y169625D01*
X1492708Y168448D01*
X1490267Y166575D01*
X1488394Y164134D01*
X1487217Y161292D01*
X1487200Y161169D01*
X1483804D01*
Y163844D01*
X1472756D01*
Y152796D01*
X1483804D01*
Y155471D01*
X1487180D01*
X1487217Y155192D01*
X1488394Y152350D01*
X1490267Y149909D01*
X1492708Y148036D01*
X1495550Y146859D01*
X1498600Y146457D01*
X1501650Y146859D01*
X1504492Y148036D01*
X1506933Y149909D01*
X1508806Y152350D01*
X1509983Y155192D01*
X1510385Y158242D01*
X1509983Y161292D01*
X1508806Y164134D01*
X1506933Y166575D01*
X1504492Y168448D01*
X1501650Y169625D01*
X1498600Y170027D01*
D02*
G37*
G36*
X518414Y168746D02*
X515695Y168388D01*
X513162Y167339D01*
X510987Y165669D01*
X509317Y163494D01*
X508354Y161169D01*
X503364D01*
Y163844D01*
X492316D01*
Y152796D01*
X503364D01*
Y155471D01*
X508290D01*
X509317Y152990D01*
X510987Y150815D01*
X513162Y149145D01*
X515695Y148096D01*
X518414Y147738D01*
X521133Y148096D01*
X523666Y149145D01*
X525841Y150815D01*
X527511Y152990D01*
X528560Y155523D01*
X528918Y158242D01*
X528560Y160961D01*
X527511Y163494D01*
X525841Y165669D01*
X523666Y167339D01*
X521133Y168388D01*
X518414Y168746D01*
D02*
G37*
G36*
X290830Y170027D02*
X287780Y169625D01*
X284938Y168448D01*
X282497Y166575D01*
X280624Y164134D01*
X279447Y161292D01*
X279431Y161169D01*
X274764D01*
Y163844D01*
X263716D01*
Y152796D01*
X274764D01*
Y155471D01*
X279410D01*
X279447Y155192D01*
X280624Y152350D01*
X282497Y149909D01*
X284938Y148036D01*
X287780Y146859D01*
X290830Y146457D01*
X293880Y146859D01*
X296722Y148036D01*
X299163Y149909D01*
X301036Y152350D01*
X302213Y155192D01*
X302615Y158242D01*
X302213Y161292D01*
X301036Y164134D01*
X299163Y166575D01*
X296722Y168448D01*
X293880Y169625D01*
X290830Y170027D01*
D02*
G37*
G36*
X214630D02*
X211580Y169625D01*
X208738Y168448D01*
X206297Y166575D01*
X204424Y164134D01*
X203247Y161292D01*
X203230Y161169D01*
X198564D01*
Y163844D01*
X187516D01*
Y152796D01*
X198564D01*
Y155471D01*
X203210D01*
X203247Y155192D01*
X204424Y152350D01*
X206297Y149909D01*
X208738Y148036D01*
X211580Y146859D01*
X214630Y146457D01*
X217680Y146859D01*
X220522Y148036D01*
X222963Y149909D01*
X224836Y152350D01*
X226013Y155192D01*
X226415Y158242D01*
X226013Y161292D01*
X224836Y164134D01*
X222963Y166575D01*
X220522Y168448D01*
X217680Y169625D01*
X214630Y170027D01*
D02*
G37*
G36*
X443230D02*
X440180Y169625D01*
X437338Y168448D01*
X434897Y166575D01*
X433024Y164134D01*
X431847Y161292D01*
X431830Y161169D01*
X427164D01*
Y163844D01*
X416116D01*
Y152796D01*
X427164D01*
Y155471D01*
X431810D01*
X431847Y155192D01*
X433024Y152350D01*
X434897Y149909D01*
X437338Y148036D01*
X440180Y146859D01*
X443230Y146457D01*
X446280Y146859D01*
X449122Y148036D01*
X451563Y149909D01*
X453436Y152350D01*
X454613Y155192D01*
X455015Y158242D01*
X454613Y161292D01*
X453436Y164134D01*
X451563Y166575D01*
X449122Y168448D01*
X446280Y169625D01*
X443230Y170027D01*
D02*
G37*
G36*
X367030D02*
X363980Y169625D01*
X361138Y168448D01*
X358697Y166575D01*
X356824Y164134D01*
X355647Y161292D01*
X355630Y161169D01*
X352234D01*
Y163844D01*
X341186D01*
Y152796D01*
X352234D01*
Y155471D01*
X355610D01*
X355647Y155192D01*
X356824Y152350D01*
X358697Y149909D01*
X361138Y148036D01*
X363980Y146859D01*
X367030Y146457D01*
X370080Y146859D01*
X372922Y148036D01*
X375363Y149909D01*
X377236Y152350D01*
X378413Y155192D01*
X378815Y158242D01*
X378413Y161292D01*
X377236Y164134D01*
X375363Y166575D01*
X372922Y168448D01*
X370080Y169625D01*
X367030Y170027D01*
D02*
G37*
G36*
X1149590Y167111D02*
X1146973Y166766D01*
X1144535Y165756D01*
X1142441Y164149D01*
X1140834Y162055D01*
X1139824Y159617D01*
X1139480Y157000D01*
X1139824Y154383D01*
X1140738Y152177D01*
X1133366Y144804D01*
X1132748Y143880D01*
X1132531Y142790D01*
X1132531Y142790D01*
Y124370D01*
X1131325Y123164D01*
X1130249Y123883D01*
X1130346Y124118D01*
X1130558Y125730D01*
X1120860D01*
Y116032D01*
X1122472Y116244D01*
X1122707Y116341D01*
X1123426Y115265D01*
X1110506Y102344D01*
X1109888Y101420D01*
X1109671Y100330D01*
X1109671Y100330D01*
Y96534D01*
X1106996D01*
Y85486D01*
X1118044D01*
Y96534D01*
X1115369D01*
Y99150D01*
X1137394Y121176D01*
X1137394Y121176D01*
X1138012Y122100D01*
X1138104Y122562D01*
X1139425Y122692D01*
X1139947Y121432D01*
X1141716Y119126D01*
X1144022Y117357D01*
X1146708Y116244D01*
X1148320Y116032D01*
Y127000D01*
Y137968D01*
X1146708Y137756D01*
X1144022Y136643D01*
X1141716Y134874D01*
X1139947Y132568D01*
X1139499Y131486D01*
X1138229Y131739D01*
Y141610D01*
X1144767Y148148D01*
X1146973Y147234D01*
X1149590Y146889D01*
X1152207Y147234D01*
X1154645Y148244D01*
X1156739Y149851D01*
X1158346Y151945D01*
X1159356Y154383D01*
X1159700Y157000D01*
X1159356Y159617D01*
X1158346Y162055D01*
X1156739Y164149D01*
X1154645Y165756D01*
X1152207Y166766D01*
X1149590Y167111D01*
D02*
G37*
G36*
X428180Y142860D02*
X422910D01*
Y137590D01*
X428180D01*
Y142860D01*
D02*
G37*
G36*
X353250D02*
X347980D01*
Y137590D01*
X353250D01*
Y142860D01*
D02*
G37*
G36*
X611060D02*
X605790D01*
Y137590D01*
X611060D01*
Y142860D01*
D02*
G37*
G36*
X504380D02*
X499110D01*
Y137590D01*
X504380D01*
Y142860D01*
D02*
G37*
G36*
X275780D02*
X270510D01*
Y137590D01*
X275780D01*
Y142860D01*
D02*
G37*
G36*
X119380D02*
X114110D01*
Y137590D01*
X119380D01*
Y142860D01*
D02*
G37*
G36*
X1477010D02*
X1471740D01*
Y137590D01*
X1477010D01*
Y142860D01*
D02*
G37*
G36*
X199580D02*
X194310D01*
Y137590D01*
X199580D01*
Y142860D01*
D02*
G37*
G36*
X127190D02*
X121920D01*
Y137590D01*
X127190D01*
Y142860D01*
D02*
G37*
G36*
X1562290Y144130D02*
X1557020D01*
Y138860D01*
X1562290D01*
Y144130D01*
D02*
G37*
G36*
X1450530D02*
X1445260D01*
Y138860D01*
X1450530D01*
Y144130D01*
D02*
G37*
G36*
X1379410Y145400D02*
X1374140D01*
Y140130D01*
X1379410D01*
Y145400D01*
D02*
G37*
G36*
X1371600D02*
X1366330D01*
Y140130D01*
X1371600D01*
Y145400D01*
D02*
G37*
G36*
X1554480Y144130D02*
X1549210D01*
Y138860D01*
X1554480D01*
Y144130D01*
D02*
G37*
G36*
X1343850Y142860D02*
X1338580D01*
Y137590D01*
X1343850D01*
Y142860D01*
D02*
G37*
G36*
X1275270D02*
X1270000D01*
Y137590D01*
X1275270D01*
Y142860D01*
D02*
G37*
G36*
X1442720Y144130D02*
X1437450D01*
Y138860D01*
X1442720D01*
Y144130D01*
D02*
G37*
G36*
X1484820Y142860D02*
X1479550D01*
Y137590D01*
X1484820D01*
Y142860D01*
D02*
G37*
G36*
X1294130Y240030D02*
X1286600D01*
X1286739Y238979D01*
X1287635Y236817D01*
X1289060Y234960D01*
X1290917Y233535D01*
X1293079Y232639D01*
X1294130Y232500D01*
Y240030D01*
D02*
G37*
G36*
X1484539Y238760D02*
X1477010D01*
Y231231D01*
X1478061Y231369D01*
X1480223Y232265D01*
X1482080Y233690D01*
X1483505Y235547D01*
X1484401Y237709D01*
X1484539Y238760D01*
D02*
G37*
G36*
X1304200Y240030D02*
X1296670D01*
Y232500D01*
X1297721Y232639D01*
X1299883Y233535D01*
X1301740Y234960D01*
X1303165Y236817D01*
X1304061Y238979D01*
X1304200Y240030D01*
D02*
G37*
G36*
X1367699D02*
X1360170D01*
Y232500D01*
X1361221Y232639D01*
X1363383Y233535D01*
X1365240Y234960D01*
X1366665Y236817D01*
X1367561Y238979D01*
X1367699Y240030D01*
D02*
G37*
G36*
X1357630D02*
X1350101D01*
X1350239Y238979D01*
X1351135Y236817D01*
X1352560Y234960D01*
X1354417Y233535D01*
X1356579Y232639D01*
X1357630Y232500D01*
Y240030D01*
D02*
G37*
G36*
X1116239Y238760D02*
X1108710D01*
Y231231D01*
X1109761Y231369D01*
X1111923Y232265D01*
X1113780Y233690D01*
X1115205Y235547D01*
X1116101Y237709D01*
X1116239Y238760D01*
D02*
G37*
G36*
X1106170D02*
X1098641D01*
X1098779Y237709D01*
X1099675Y235547D01*
X1101100Y233690D01*
X1102957Y232265D01*
X1105119Y231369D01*
X1106170Y231231D01*
Y238760D01*
D02*
G37*
G36*
X1168400D02*
X1160871D01*
X1161009Y237709D01*
X1161905Y235547D01*
X1163330Y233690D01*
X1165187Y232265D01*
X1167349Y231369D01*
X1168400Y231231D01*
Y238760D01*
D02*
G37*
G36*
X1474470D02*
X1466940D01*
X1467079Y237709D01*
X1467975Y235547D01*
X1469400Y233690D01*
X1471257Y232265D01*
X1473419Y231369D01*
X1474470Y231231D01*
Y238760D01*
D02*
G37*
G36*
X1178469D02*
X1170940D01*
Y231231D01*
X1171991Y231369D01*
X1174153Y232265D01*
X1176010Y233690D01*
X1177435Y235547D01*
X1178331Y237709D01*
X1178469Y238760D01*
D02*
G37*
G36*
X1233170Y241300D02*
X1225640D01*
X1225779Y240249D01*
X1226675Y238087D01*
X1228100Y236230D01*
X1229957Y234805D01*
X1232119Y233909D01*
X1233170Y233771D01*
Y241300D01*
D02*
G37*
G36*
X224699Y247650D02*
X217170D01*
Y240121D01*
X218221Y240259D01*
X220383Y241155D01*
X222240Y242580D01*
X223665Y244437D01*
X224561Y246599D01*
X224699Y247650D01*
D02*
G37*
G36*
X214630D02*
X207101D01*
X207239Y246599D01*
X208135Y244437D01*
X209560Y242580D01*
X211417Y241155D01*
X213579Y240259D01*
X214630Y240121D01*
Y247650D01*
D02*
G37*
G36*
X290830D02*
X283300D01*
X283439Y246599D01*
X284335Y244437D01*
X285760Y242580D01*
X287617Y241155D01*
X289779Y240259D01*
X290830Y240121D01*
Y247650D01*
D02*
G37*
G36*
X1106170Y248829D02*
X1105119Y248691D01*
X1102957Y247795D01*
X1101100Y246370D01*
X1099675Y244513D01*
X1098779Y242351D01*
X1098641Y241300D01*
X1106170D01*
Y248829D01*
D02*
G37*
G36*
X300900Y247650D02*
X293370D01*
Y240121D01*
X294421Y240259D01*
X296583Y241155D01*
X298440Y242580D01*
X299865Y244437D01*
X300761Y246599D01*
X300900Y247650D01*
D02*
G37*
G36*
X821690Y245110D02*
X814161D01*
X814299Y244059D01*
X815195Y241897D01*
X816620Y240040D01*
X818477Y238615D01*
X820639Y237719D01*
X821690Y237581D01*
Y245110D01*
D02*
G37*
G36*
X1243240Y241300D02*
X1235710D01*
Y233771D01*
X1236761Y233909D01*
X1238923Y234805D01*
X1240780Y236230D01*
X1242205Y238087D01*
X1243101Y240249D01*
X1243240Y241300D01*
D02*
G37*
G36*
X831759Y245110D02*
X824230D01*
Y237581D01*
X825281Y237719D01*
X827443Y238615D01*
X829300Y240040D01*
X830725Y241897D01*
X831621Y244059D01*
X831759Y245110D01*
D02*
G37*
G36*
X1419860Y247560D02*
Y240030D01*
X1427390D01*
X1427251Y241081D01*
X1426355Y243243D01*
X1424930Y245100D01*
X1423073Y246525D01*
X1420911Y247421D01*
X1419860Y247560D01*
D02*
G37*
G36*
X1417320D02*
X1416269Y247421D01*
X1414107Y246525D01*
X1412250Y245100D01*
X1410825Y243243D01*
X1409929Y241081D01*
X1409790Y240030D01*
X1417320D01*
Y247560D01*
D02*
G37*
G36*
X906970Y201500D02*
X901700D01*
Y196230D01*
X906970D01*
Y201500D01*
D02*
G37*
G36*
X777684Y206074D02*
X766636D01*
Y198026D01*
X772155D01*
X777886Y192296D01*
X777886Y192296D01*
X778810Y191678D01*
X779900Y191461D01*
X779900Y191461D01*
X814347D01*
X814812Y190339D01*
X816074Y188694D01*
X817719Y187432D01*
X819634Y186639D01*
X821690Y186368D01*
X823745Y186639D01*
X825661Y187432D01*
X827306Y188694D01*
X828568Y190339D01*
X829283Y192065D01*
X829945Y192166D01*
X830607Y192065D01*
X831322Y190339D01*
X831938Y189537D01*
X826860Y184459D01*
X773460D01*
X758634Y199285D01*
Y204804D01*
X747586D01*
Y196756D01*
X753105D01*
X770266Y179596D01*
X771190Y178978D01*
X772280Y178761D01*
X772280Y178761D01*
X828040D01*
X828040Y178761D01*
X829130Y178978D01*
X830054Y179596D01*
X836986Y186528D01*
X838200Y186368D01*
X840256Y186639D01*
X842171Y187432D01*
X843816Y188694D01*
X845078Y190339D01*
X845871Y192255D01*
X846142Y194310D01*
X845871Y196366D01*
X845078Y198281D01*
X843816Y199926D01*
X842171Y201188D01*
X840256Y201981D01*
X838200Y202252D01*
X836144Y201981D01*
X834229Y201188D01*
X832584Y199926D01*
X831322Y198281D01*
X830607Y196555D01*
X829945Y196454D01*
X829283Y196555D01*
X828568Y198281D01*
X827306Y199926D01*
X825661Y201188D01*
X823745Y201981D01*
X821690Y202252D01*
X819634Y201981D01*
X817719Y201188D01*
X816074Y199926D01*
X814812Y198281D01*
X814347Y197159D01*
X781080D01*
X777684Y200555D01*
Y206074D01*
D02*
G37*
G36*
X899160Y209310D02*
X893890D01*
Y204040D01*
X899160D01*
Y209310D01*
D02*
G37*
G36*
X869950D02*
X864680D01*
Y204040D01*
X869950D01*
Y209310D01*
D02*
G37*
G36*
X1010920Y203511D02*
X1009196Y203284D01*
X1007589Y202619D01*
X1006210Y201560D01*
X1005151Y200180D01*
X1004486Y198574D01*
X1004259Y196850D01*
Y191770D01*
X1004486Y190046D01*
X1005151Y188440D01*
X1006210Y187060D01*
X1007589Y186001D01*
X1009196Y185336D01*
X1010920Y185109D01*
X1012644Y185336D01*
X1014250Y186001D01*
X1015630Y187060D01*
X1016689Y188440D01*
X1017354Y190046D01*
X1017581Y191770D01*
Y196850D01*
X1017354Y198574D01*
X1016689Y200180D01*
X1015630Y201560D01*
X1014250Y202619D01*
X1012644Y203284D01*
X1010920Y203511D01*
D02*
G37*
G36*
X1036320D02*
X1034596Y203284D01*
X1032990Y202619D01*
X1031610Y201560D01*
X1030551Y200180D01*
X1029886Y198574D01*
X1029659Y196850D01*
Y191770D01*
X1029886Y190046D01*
X1030551Y188440D01*
X1031610Y187060D01*
X1032990Y186001D01*
X1034596Y185336D01*
X1036320Y185109D01*
X1038044Y185336D01*
X1039650Y186001D01*
X1041030Y187060D01*
X1042089Y188440D01*
X1042754Y190046D01*
X1042981Y191770D01*
Y196850D01*
X1042754Y198574D01*
X1042089Y200180D01*
X1041030Y201560D01*
X1039650Y202619D01*
X1038044Y203284D01*
X1036320Y203511D01*
D02*
G37*
G36*
X1060450Y204369D02*
X1059731Y204274D01*
X1057877Y203506D01*
X1056285Y202285D01*
X1055064Y200693D01*
X1054296Y198839D01*
X1054034Y196850D01*
Y195580D01*
X1060450D01*
Y204369D01*
D02*
G37*
G36*
X899160Y201500D02*
X893890D01*
Y196230D01*
X899160D01*
Y201500D01*
D02*
G37*
G36*
X877760D02*
X872490D01*
Y196230D01*
X877760D01*
Y201500D01*
D02*
G37*
G36*
X1417320Y237490D02*
X1409790D01*
X1409929Y236439D01*
X1410825Y234277D01*
X1412250Y232420D01*
X1414107Y230995D01*
X1416269Y230099D01*
X1417320Y229960D01*
Y237490D01*
D02*
G37*
G36*
X1060450Y193040D02*
X1054034D01*
Y191770D01*
X1054296Y189781D01*
X1055064Y187927D01*
X1056285Y186335D01*
X1057877Y185114D01*
X1059731Y184346D01*
X1060450Y184251D01*
Y193040D01*
D02*
G37*
G36*
X1393444Y170016D02*
X1390725Y169658D01*
X1388192Y168609D01*
X1386017Y166939D01*
X1384347Y164764D01*
X1383910Y163709D01*
X1378394D01*
Y166384D01*
X1367346D01*
Y155336D01*
X1378394D01*
Y158011D01*
X1383138D01*
X1383298Y156793D01*
X1384347Y154260D01*
X1386017Y152085D01*
X1388192Y150415D01*
X1390725Y149366D01*
X1393444Y149008D01*
X1396163Y149366D01*
X1398696Y150415D01*
X1400871Y152085D01*
X1402541Y154260D01*
X1403590Y156793D01*
X1403948Y159512D01*
X1403590Y162231D01*
X1402541Y164764D01*
X1400871Y166939D01*
X1398696Y168609D01*
X1396163Y169658D01*
X1393444Y170016D01*
D02*
G37*
G36*
X1427390Y237490D02*
X1419860D01*
Y229960D01*
X1420911Y230099D01*
X1423073Y230995D01*
X1424930Y232420D01*
X1426355Y234277D01*
X1427251Y236439D01*
X1427390Y237490D01*
D02*
G37*
G36*
X906970Y209310D02*
X901700D01*
Y204040D01*
X906970D01*
Y209310D01*
D02*
G37*
G36*
X877760D02*
X872490D01*
Y204040D01*
X877760D01*
Y209310D01*
D02*
G37*
G36*
X1069406Y193040D02*
X1062990D01*
Y184251D01*
X1063709Y184346D01*
X1065563Y185114D01*
X1067155Y186335D01*
X1068376Y187927D01*
X1069144Y189781D01*
X1069406Y191770D01*
Y193040D01*
D02*
G37*
%LPD*%
G36*
X372353Y378151D02*
X372258Y378112D01*
X370215Y376544D01*
X368648Y374502D01*
X367663Y372123D01*
X367327Y369570D01*
X367663Y367017D01*
X368648Y364638D01*
X370215Y362595D01*
X372258Y361028D01*
X372353Y360989D01*
X372101Y359719D01*
X360590D01*
X358700Y361609D01*
X358764Y362596D01*
X360332Y364638D01*
X361317Y367017D01*
X361653Y369570D01*
X361317Y372123D01*
X360332Y374502D01*
X358764Y376544D01*
X356722Y378112D01*
X356627Y378151D01*
X356879Y379421D01*
X372101D01*
X372353Y378151D01*
D02*
G37*
G36*
X397753D02*
X397658Y378112D01*
X395616Y376544D01*
X394048Y374502D01*
X393063Y372123D01*
X392727Y369570D01*
X393063Y367017D01*
X394048Y364638D01*
X395616Y362595D01*
X397658Y361028D01*
X397753Y360989D01*
X397501Y359719D01*
X382279D01*
X382027Y360989D01*
X382122Y361028D01*
X384165Y362595D01*
X385732Y364638D01*
X386717Y367017D01*
X387053Y369570D01*
X386717Y372123D01*
X385732Y374502D01*
X384165Y376544D01*
X382122Y378112D01*
X382027Y378151D01*
X382279Y379421D01*
X397501D01*
X397753Y378151D01*
D02*
G37*
G36*
X466616Y344696D02*
X466940Y344479D01*
X466555Y343209D01*
X448220D01*
X432544Y358884D01*
X431620Y359502D01*
X430530Y359719D01*
X430530Y359719D01*
X407679D01*
X407427Y360989D01*
X407522Y361028D01*
X409565Y362595D01*
X411132Y364638D01*
X412117Y367017D01*
X412453Y369570D01*
X412117Y372123D01*
X411132Y374502D01*
X409565Y376544D01*
X407522Y378112D01*
X407427Y378151D01*
X407679Y379421D01*
X431890D01*
X466616Y344696D01*
D02*
G37*
G36*
X834170Y352751D02*
X832975Y351193D01*
X832079Y349031D01*
X831941Y347980D01*
X840740D01*
Y345440D01*
X831941D01*
X832079Y344389D01*
X832975Y342227D01*
X833491Y341554D01*
X832929Y340415D01*
X790771D01*
X778435Y352751D01*
X778441Y352911D01*
X778839Y354021D01*
X833735D01*
X834170Y352751D01*
D02*
G37*
G36*
X896892Y333447D02*
X896459Y333268D01*
X894814Y332006D01*
X893552Y330361D01*
X893087Y329239D01*
X796200D01*
X791895Y333544D01*
X792381Y334717D01*
X896639D01*
X896892Y333447D01*
D02*
G37*
G36*
X346953Y378151D02*
X346858Y378112D01*
X344815Y376544D01*
X343248Y374502D01*
X342263Y372123D01*
X341927Y369570D01*
X342263Y367017D01*
X343248Y364638D01*
X344815Y362595D01*
X346858Y361028D01*
X349237Y360043D01*
X351790Y359707D01*
X352457Y359794D01*
X357396Y354856D01*
X356667Y353834D01*
X354608Y354687D01*
X353060Y354891D01*
Y345440D01*
X362511D01*
X362307Y346988D01*
X361219Y349614D01*
X359489Y351869D01*
X358570Y352574D01*
X358561Y352895D01*
X358924Y353377D01*
X359800Y354021D01*
X370210D01*
X370641Y352751D01*
X369491Y351869D01*
X367761Y349614D01*
X366673Y346988D01*
X366469Y345440D01*
X387911D01*
X387707Y346988D01*
X386619Y349614D01*
X384889Y351869D01*
X383739Y352751D01*
X384170Y354021D01*
X397501D01*
X397753Y352751D01*
X397658Y352712D01*
X395616Y351144D01*
X394048Y349102D01*
X393063Y346723D01*
X392727Y344170D01*
X393063Y341617D01*
X394048Y339238D01*
X395616Y337196D01*
X397658Y335628D01*
X400037Y334643D01*
X402590Y334307D01*
X405143Y334643D01*
X407522Y335628D01*
X409565Y337196D01*
X411132Y339238D01*
X412117Y341617D01*
X412453Y344170D01*
X412117Y346723D01*
X411132Y349102D01*
X409565Y351144D01*
X407522Y352712D01*
X407427Y352751D01*
X407679Y354021D01*
X429350D01*
X445026Y338346D01*
X445026Y338346D01*
X445950Y337728D01*
X447040Y337511D01*
X447040Y337511D01*
X751315D01*
X751746Y336241D01*
X749971Y334879D01*
X748124Y332472D01*
X746963Y329668D01*
X746567Y326660D01*
X746681Y325795D01*
X745496Y325058D01*
X745267Y325212D01*
X744177Y325429D01*
X744176Y325429D01*
X704760D01*
X695434Y334754D01*
X694510Y335372D01*
X693420Y335589D01*
X693420Y335589D01*
X462280D01*
X462280Y335589D01*
X461190Y335372D01*
X460266Y334754D01*
X460266Y334754D01*
X452210Y326699D01*
X350425D01*
X343590Y333534D01*
Y335255D01*
X344860Y335881D01*
X346346Y334741D01*
X348972Y333653D01*
X350520Y333449D01*
Y344170D01*
Y354891D01*
X348972Y354687D01*
X346346Y353599D01*
X344860Y352459D01*
X343590Y353085D01*
Y355219D01*
X343590Y355219D01*
X343373Y356309D01*
X342755Y357233D01*
X342755Y357233D01*
X335055Y364934D01*
X335917Y367017D01*
X336253Y369570D01*
X335917Y372123D01*
X334932Y374502D01*
X333364Y376544D01*
X331322Y378112D01*
X331227Y378151D01*
X331479Y379421D01*
X346701D01*
X346953Y378151D01*
D02*
G37*
G36*
X800843Y307649D02*
X800316Y306379D01*
X764407D01*
X756776Y314010D01*
X757337Y315149D01*
X758190Y315037D01*
X761198Y315433D01*
X764002Y316594D01*
X766409Y318441D01*
X768256Y320848D01*
X769417Y323652D01*
X769813Y326660D01*
X769417Y329668D01*
X768256Y332472D01*
X766409Y334879D01*
X764634Y336241D01*
X765065Y337511D01*
X770980D01*
X800843Y307649D01*
D02*
G37*
%LPC*%
G36*
X387911Y342900D02*
X378460D01*
Y333449D01*
X380008Y333653D01*
X382634Y334741D01*
X384889Y336471D01*
X386619Y338726D01*
X387707Y341352D01*
X387911Y342900D01*
D02*
G37*
G36*
X375920D02*
X366469D01*
X366673Y341352D01*
X367761Y338726D01*
X369491Y336471D01*
X371746Y334741D01*
X374372Y333653D01*
X375920Y333449D01*
Y342900D01*
D02*
G37*
G36*
X362511D02*
X353060D01*
Y333449D01*
X354608Y333653D01*
X357234Y334741D01*
X359489Y336471D01*
X361219Y338726D01*
X362307Y341352D01*
X362511Y342900D01*
D02*
G37*
%LPD*%
D10*
X824350Y284480D02*
D03*
X839350D02*
D03*
D11*
X735330Y203320D02*
D03*
Y218320D02*
D03*
X880110Y261500D02*
D03*
Y246500D02*
D03*
X772160Y202050D02*
D03*
Y217050D02*
D03*
X753110Y200780D02*
D03*
Y215780D02*
D03*
D20*
X803910Y308610D02*
X918210D01*
X776383Y350774D02*
X789591Y337566D01*
X961390Y358140D02*
X996950D01*
X1004570Y350520D01*
Y325120D02*
Y350520D01*
X925950Y246500D02*
X1004570Y325120D01*
X946150Y373380D02*
X961390Y358140D01*
X855980Y356870D02*
X866140Y346710D01*
X566420Y356870D02*
X855980D01*
X1508760Y302260D02*
X1546860D01*
X1598930Y250190D01*
X1465580Y264160D02*
Y325120D01*
X1598930Y194310D02*
Y250190D01*
X1576070Y335280D02*
X1626870D01*
X834390Y172720D02*
X855980Y194310D01*
X751840Y172720D02*
X834390D01*
X742950Y181610D02*
X751840Y172720D01*
X838200Y191770D02*
Y194310D01*
X828040Y181610D02*
X838200Y191770D01*
X772280Y181610D02*
X828040D01*
X779900Y194310D02*
X821690D01*
X772160Y202050D02*
X779900Y194310D01*
X1423416Y159512D02*
X1423494Y159590D01*
X1443990D01*
X1374140Y110236D02*
X1393444Y129540D01*
X1374140Y89740D02*
Y110236D01*
X1392096Y160860D02*
X1393444Y159512D01*
X1372870Y160860D02*
X1392096D01*
X1287956Y158320D02*
X1288034Y158242D01*
X1268730Y158320D02*
X1287956D01*
X1335962Y158242D02*
X1337310Y159590D01*
X1318006Y158242D02*
X1335962D01*
X1267460Y107696D02*
X1288034Y128270D01*
X1267460Y89740D02*
Y107696D01*
X1229310Y157000D02*
X1229360Y157050D01*
X1209590Y157000D02*
X1229310D01*
X1195070Y118950D02*
X1217930Y96090D01*
X1195070Y118950D02*
Y141520D01*
X1179590Y157000D02*
X1195070Y141520D01*
X1135380Y142790D02*
X1149590Y157000D01*
X1135380Y123190D02*
Y142790D01*
X1112520Y100330D02*
X1135380Y123190D01*
X1112520Y91010D02*
Y100330D01*
X1102410Y157000D02*
X1119590D01*
X1101090Y158320D02*
X1102410Y157000D01*
X761824Y158320D02*
X781050D01*
X712470D02*
X731696D01*
X939165Y145415D02*
X972820Y179070D01*
X667258Y158242D02*
X680085Y145415D01*
X939165D01*
X623746Y158320D02*
X623824Y158242D01*
X604520Y158320D02*
X623746D01*
X497840D02*
X518336D01*
X443152D02*
X443230Y158242D01*
X421640Y158320D02*
X443152D01*
X346710D02*
X366952D01*
X656590Y189230D02*
Y250190D01*
X651510Y184150D02*
X656590Y189230D01*
X269240Y158320D02*
X290752D01*
X218440Y388620D02*
X433070D01*
X199390Y369570D02*
X218440Y388620D01*
X199390Y364490D02*
Y369570D01*
X326390D02*
X340741Y355219D01*
Y332354D02*
Y355219D01*
X313690Y382270D02*
X433070D01*
X300990Y369570D02*
X313690Y382270D01*
X300990Y364490D02*
Y369570D01*
X193040Y158320D02*
X214552D01*
X120650D02*
X139622D01*
X1478280D02*
X1498522D01*
X1555750Y159590D02*
X1573452D01*
X1628140Y184150D02*
Y186690D01*
X1620520Y176530D02*
X1628140Y184150D01*
X1504950Y237490D02*
X1508760Y233680D01*
Y185420D02*
Y233680D01*
Y185420D02*
X1517650Y176530D01*
X1508760Y251460D02*
Y271780D01*
Y241300D02*
Y251460D01*
X1478280D02*
X1508760D01*
X1504950Y237490D02*
X1508760Y241300D01*
X430530Y356870D02*
X447040Y340360D01*
X359410Y356870D02*
X430530D01*
X351790Y364490D02*
X359410Y356870D01*
X433070Y382270D02*
X468630Y346710D01*
X433070Y388620D02*
X470916Y350774D01*
X1517650Y176530D02*
X1620520D01*
X1586230Y177800D02*
Y186690D01*
X1598930Y194310D02*
X1606550Y186690D01*
X462280Y332740D02*
X693420D01*
X703580Y322580D01*
X744177D01*
X447040Y340360D02*
X772160D01*
X468630Y346710D02*
X774700D01*
X470916Y350774D02*
X776383D01*
X703460Y265430D02*
Y284600D01*
X702310Y285750D02*
X703460Y284600D01*
X701040Y302260D02*
Y303530D01*
Y302260D02*
X772160Y231140D01*
X642620Y264160D02*
X656590Y250190D01*
X645160Y276860D02*
X703700Y218320D01*
X645160Y276860D02*
Y284480D01*
X811650Y297180D02*
X824350Y284480D01*
X725170Y297180D02*
X811650D01*
X1388110Y187960D02*
X1508760D01*
X1465580Y264160D02*
X1478280Y251460D01*
X1106170Y187960D02*
X1139190D01*
X1189990D01*
X1097026Y178816D02*
X1106170Y187960D01*
X735330Y203320D02*
X742950Y195700D01*
Y181610D02*
Y195700D01*
X612140Y182880D02*
Y284480D01*
X1606550Y186690D02*
X1607820D01*
X1286510Y358140D02*
Y360680D01*
X1248410Y320040D02*
X1286510Y358140D01*
X1057910Y320040D02*
X1248410D01*
X1189990Y187960D02*
X1388110D01*
Y297180D01*
X548640Y374650D02*
X566420Y356870D01*
X525780Y374650D02*
X548640D01*
X1006094Y178816D02*
X1097026D01*
X990600Y194310D02*
X1006094Y178816D01*
X985520Y194310D02*
X990600D01*
X1337310Y347980D02*
X1388110Y297180D01*
X1337310Y347980D02*
Y360680D01*
X1010920Y273050D02*
X1057910Y320040D01*
X916940Y289560D02*
X934720D01*
X991870Y346710D01*
X453390Y323850D02*
X462280Y332740D01*
X349245Y323850D02*
X453390D01*
X340741Y332354D02*
X349245Y323850D01*
X972820Y234950D02*
X1010920Y273050D01*
X972820Y179070D02*
Y234950D01*
X482600Y295910D02*
X502920Y316230D01*
X612140Y284480D02*
X621030Y293370D01*
X635000D01*
X643890Y302260D01*
X772160Y217050D02*
Y231140D01*
X822960Y265430D02*
X824350Y266820D01*
Y284480D01*
X703700Y218320D02*
X735330D01*
X703460Y265430D02*
X753110Y215780D01*
Y200780D02*
X772280Y181610D01*
X248920Y186690D02*
X323850D01*
X326390D02*
X482600D01*
X487680Y182880D02*
X618490D01*
X482600Y187960D02*
Y295910D01*
Y187960D02*
X487680Y182880D01*
X653796Y158242D02*
X667258D01*
X175260Y186690D02*
X248920D01*
X104140D02*
X175260D01*
X902970Y303530D02*
X916940Y289560D01*
X744177Y322580D02*
X763227Y303530D01*
X902970D01*
X772160Y340360D02*
X803910Y308610D01*
X789591Y337566D02*
X907034D01*
X918210Y326390D01*
X774700Y346710D02*
X795020Y326390D01*
X900430D01*
X901700Y246500D02*
Y264160D01*
Y246500D02*
X925950D01*
X876180D02*
X880110D01*
X901700D01*
X1557020Y321310D02*
X1559560Y318770D01*
X1508760Y321310D02*
X1557020D01*
X1559560Y318770D02*
X1576070Y335280D01*
X1465580Y325120D02*
X1484952Y344492D01*
X1508760D01*
X707390Y314960D02*
X725170Y297180D01*
X528320Y314960D02*
X707390D01*
D21*
X201930Y397510D02*
X1338580D01*
X173990Y369570D02*
X201930Y397510D01*
X173990Y364490D02*
Y369570D01*
X901220Y159560D02*
Y179070D01*
X871220Y159560D02*
Y179070D01*
X1366520Y369570D02*
X1454150D01*
X1338580Y397510D02*
X1366520Y369570D01*
X1073150Y200660D02*
Y233680D01*
Y200660D02*
X1085850Y187960D01*
X1144270Y304800D02*
X1146810D01*
X1073150Y233680D02*
X1144270Y304800D01*
D22*
X979650Y159560D02*
D03*
Y129560D02*
D03*
X1039650D02*
D03*
X1009650D02*
D03*
X1039650Y159560D02*
D03*
X1009650D02*
D03*
X1119590Y157000D02*
D03*
X1149590D02*
D03*
X1179590D02*
D03*
X1209590D02*
D03*
X1119590Y127000D02*
D03*
X1149590D02*
D03*
X1179590D02*
D03*
X1209590D02*
D03*
X901220Y159560D02*
D03*
X871220D02*
D03*
X841220D02*
D03*
Y129560D02*
D03*
X901220D02*
D03*
X871220D02*
D03*
D23*
X1009650Y86360D02*
D03*
X1187990Y83800D02*
D03*
X1141190D02*
D03*
X871220Y86360D02*
D03*
D24*
X62230Y383540D02*
D03*
Y64770D02*
D03*
X1652270Y383540D02*
D03*
Y64770D02*
D03*
X638810Y85090D02*
D03*
X1303020D02*
D03*
X746760D02*
D03*
X1408430Y86360D02*
D03*
X533400Y85090D02*
D03*
D25*
X1574800Y158242D02*
D03*
Y128270D02*
D03*
X443230Y158242D02*
D03*
Y128270D02*
D03*
X139700Y158242D02*
D03*
Y128270D02*
D03*
X214630Y158242D02*
D03*
Y128270D02*
D03*
X367030Y158242D02*
D03*
Y128270D02*
D03*
X290830Y158242D02*
D03*
Y128270D02*
D03*
X1498600Y158242D02*
D03*
Y128270D02*
D03*
D26*
X1574800Y85090D02*
D03*
X443230D02*
D03*
X139700D02*
D03*
X214630D02*
D03*
X367030D02*
D03*
X290830D02*
D03*
X1498600D02*
D03*
D27*
X653796Y158242D02*
D03*
X623824D02*
D03*
X653796Y128270D02*
D03*
X623824D02*
D03*
X1318006Y158242D02*
D03*
X1288034D02*
D03*
X1318006Y128270D02*
D03*
X1288034D02*
D03*
X761746Y158242D02*
D03*
X731774D02*
D03*
X761746Y128270D02*
D03*
X731774D02*
D03*
X1423416Y159512D02*
D03*
X1393444D02*
D03*
X1423416Y129540D02*
D03*
X1393444D02*
D03*
X548386Y158242D02*
D03*
X518414D02*
D03*
X548386Y128270D02*
D03*
X518414D02*
D03*
D28*
X173990Y369570D02*
D03*
Y344170D02*
D03*
X199390D02*
D03*
Y369570D02*
D03*
X250190D02*
D03*
Y344170D02*
D03*
X224790D02*
D03*
Y369570D02*
D03*
X326390D02*
D03*
Y344170D02*
D03*
X351790D02*
D03*
Y369570D02*
D03*
X300990D02*
D03*
Y344170D02*
D03*
X275590D02*
D03*
Y369570D02*
D03*
X402590D02*
D03*
Y344170D02*
D03*
X377190D02*
D03*
Y369570D02*
D03*
D29*
X1197610Y347980D02*
D03*
X1172210D02*
D03*
X1146810D02*
D03*
X758190Y277860D02*
D03*
Y326660D02*
D03*
X1286510Y358140D02*
D03*
X1261110D02*
D03*
X1311910D02*
D03*
X1337310D02*
D03*
D30*
X985520Y194310D02*
D03*
X1010920D02*
D03*
X1036320D02*
D03*
X1061720D02*
D03*
X985520Y273050D02*
D03*
X1061720D02*
D03*
X1010920D02*
D03*
X1036320D02*
D03*
D31*
X918210Y326390D02*
D03*
Y308610D02*
D03*
X946150Y373380D02*
D03*
X901700Y284480D02*
D03*
X866140Y346710D02*
D03*
X822960Y246380D02*
D03*
X1508760Y302260D02*
D03*
X1475740Y240030D02*
D03*
X1418590Y238760D02*
D03*
X1358900Y241300D02*
D03*
X1295400D02*
D03*
X1234440Y242570D02*
D03*
X1169670Y240030D02*
D03*
X1107440D02*
D03*
X1626870Y335280D02*
D03*
X1628140Y186690D02*
D03*
X1508760Y271780D02*
D03*
X840740Y346710D02*
D03*
X104140Y186690D02*
D03*
X1586230D02*
D03*
X702310Y285750D02*
D03*
X701040Y303530D02*
D03*
X651510Y184150D02*
D03*
X642620Y264160D02*
D03*
X645160Y284480D02*
D03*
X1508760Y237490D02*
D03*
X1315720Y187960D02*
D03*
X1253490D02*
D03*
X1365250D02*
D03*
X1139190D02*
D03*
X624840Y184150D02*
D03*
X1607820Y186690D02*
D03*
X525780Y374650D02*
D03*
X1454150Y369570D02*
D03*
X991870Y346710D02*
D03*
X502920Y316230D02*
D03*
X643890Y302260D02*
D03*
X1085850Y187960D02*
D03*
X1436370Y186690D02*
D03*
X1189990Y187960D02*
D03*
X1106170D02*
D03*
X822960Y265430D02*
D03*
X838200Y194310D02*
D03*
X821690D02*
D03*
X855980D02*
D03*
X248920Y186690D02*
D03*
X326390D02*
D03*
X406400D02*
D03*
X175260D02*
D03*
X1146810Y304800D02*
D03*
X918210Y344170D02*
D03*
X900430Y326390D02*
D03*
X901700Y264160D02*
D03*
X1508760Y321310D02*
D03*
Y344492D02*
D03*
X530860Y316230D02*
D03*
X367030Y250190D02*
D03*
X292100Y248920D02*
D03*
X215900D02*
D03*
X443230Y250190D02*
D03*
X567690D02*
D03*
D32*
X712470Y158320D02*
D03*
Y136320D02*
D03*
X604520D02*
D03*
Y158320D02*
D03*
X497840Y136320D02*
D03*
Y158320D02*
D03*
X421640Y136320D02*
D03*
Y158320D02*
D03*
X346710Y136320D02*
D03*
Y158320D02*
D03*
X193040Y136320D02*
D03*
Y158320D02*
D03*
X1443990Y137590D02*
D03*
Y159590D02*
D03*
X1555750Y137590D02*
D03*
Y159590D02*
D03*
X1478280Y136320D02*
D03*
Y158320D02*
D03*
X1374140Y67740D02*
D03*
Y89740D02*
D03*
X1372870Y138860D02*
D03*
Y160860D02*
D03*
X1267460Y67740D02*
D03*
Y89740D02*
D03*
X871220Y180770D02*
D03*
Y202770D02*
D03*
X120650Y136320D02*
D03*
Y158320D02*
D03*
X781050D02*
D03*
Y136320D02*
D03*
X269240D02*
D03*
Y158320D02*
D03*
X1101090Y135050D02*
D03*
Y157050D02*
D03*
X1217930Y74090D02*
D03*
Y96090D02*
D03*
X1229360Y157050D02*
D03*
Y135050D02*
D03*
X1268730Y136320D02*
D03*
Y158320D02*
D03*
X1112520Y69010D02*
D03*
Y91010D02*
D03*
X900430Y202770D02*
D03*
Y180770D02*
D03*
X1337310Y136320D02*
D03*
Y158320D02*
D03*
M02*
