M48
;Layer_Color=9474304
;FILE_FORMAT=4:4
METRIC,LZ
;TYPE=PLATED
T1F00S00C0.5000
T2F00S00C0.6350
T3F00S00C0.7112
T4F00S00C1.0160
T5F00S00C1.0200
T6F00S00C1.1430
T7F00S00C1.1500
T8F00S00C1.2700
T9F00S00C3.0000
T10F00S00C3.0480
T11F00S00C3.1750
%
T01
X0075819Y0027786
Y0032666
T02
X0098552Y0019431
X0101092
X0103632
X0106172
Y0027305
X0103632
X0101092
X0098552
T03
X0010414Y0018669
X0017526
X0024892
X0032639
X002921Y0024892
X0036703Y0025019
X002159Y0024892
X0044323Y0025019
X004064Y0018669
X0062484Y0018415
X0065151
X0064262Y0026416
X0064516Y0028448
X0064389Y0030226
X0070104Y0030353
X0070231Y0028575
X0056769Y0025019
X0053086Y0031623
X0050292
X0052578Y0037465
X0084074Y0034671
X0086614
X0091821Y0034417
Y0032639
Y0030861
X0090043Y0032639
X009017Y0028448
Y0026416
X0082296Y0026543
Y0024638
X0082169Y0019431
X008382
X0085598
X0108585Y0018796
X0110617
X0113919
X0118999
X0116967Y0024003
X0110744
X0114681Y003048
X0099187Y0034671
X0094615Y0037338
X0123444Y0024257
X012954Y002413
X013589
X0136525Y0018796
X0131572
X0125349
X0143637Y0018669
X0141859Y0023876
X0147574Y0024003
X0150876Y0023749
Y0027178
Y0030226
Y0032131
Y00344492
X0145415Y0036957
X0158623Y0018669
X0160782
X0162814
X0162687Y0033528
T04
X0017399Y0034417
Y0036957
X0019939
Y0034417
X0022479
X0025019
Y0036957
X0022479
X0027559
X0030099
X0032639
Y0034417
X0035179
Y0036957
X0037719
Y0034417
X0030099
X0027559
X0040259
Y0036957
T05
X0084122Y0012956
X0087122
X0090122
Y0015956
X0087122
X0084122
X0097965
X0100965
X0103965
Y0012956
X0100965
X0097965
X0111959Y00127
Y00157
X0114959
X0117959
Y00127
X0114959
X0120959
Y00157
T06
X00518414Y0012827
Y00158242
X00548386
Y0012827
X00623824
Y00158242
X00653796
Y0012827
X00731774
Y00158242
X00761746
Y0012827
X01288034
Y00158242
X01318006
Y0012827
X01393444Y0012954
Y00159512
X01423416
Y0012954
T07
X0114681Y0034798
X0117221
X0119761
X0126111Y0035814
X0128651
X0131191
X0133731
T08
X001397Y0012827
Y00158242
X0021463
Y0012827
X0029083
Y00158242
X0036703
Y0012827
X0044323
Y00158242
X014986
Y0012827
X015748
Y00158242
T09
X0087122Y0008636
X0100965
X0114119Y000838
X0118799
T10
X001397Y0008509
X0021463
X0029083
X0036703
X0044323
X005334
X0063881
X0074676
X0130302
X0140843Y0008636
X014986Y0008509
X015748
T11
X0006223Y0006477
Y0038354
X0165227
Y0006477
M30
