G04 Layer_Color=65535*
%FSLAX44Y44*%
%MOMM*%
G71*
G01*
G75*
%ADD20C,0.2540*%
%ADD33C,0.6000*%
%ADD34C,0.2500*%
%ADD35C,0.2000*%
%ADD36C,0.1524*%
%ADD37C,0.1905*%
%ADD38R,0.5080X3.6830*%
D20*
X1127760Y360680D02*
G03*
X1127760Y360680I-1270J0D01*
G01*
X1129030D02*
G03*
X1129030Y360680I-2540J0D01*
G01*
X1130506D02*
G03*
X1130506Y360680I-4016J0D01*
G01*
X1132170D02*
G03*
X1132170Y360680I-5680J0D01*
G01*
X557530Y242570D02*
G03*
X557530Y242570I-1270J0D01*
G01*
X734940Y268760D02*
G03*
X781440Y268760I23250J0D01*
G01*
Y335760D02*
G03*
X734940Y335760I-23250J0D01*
G01*
X1066920Y246328D02*
G03*
X1066806Y221043I1150J-12648D01*
G01*
X1074420Y264160D02*
G03*
X1074420Y264160I-1270J0D01*
G01*
X660400Y227330D02*
G03*
X660400Y227330I-1270J0D01*
G01*
X1249680Y370840D02*
G03*
X1249680Y370840I-5080J0D01*
G01*
X1248410D02*
G03*
X1248410Y370840I-3810J0D01*
G01*
X1247140D02*
G03*
X1246872Y369704I-2540J0D01*
G01*
X1244600Y372110D02*
G03*
X1245870Y370840I0J-1270D01*
G01*
X695140Y362050D02*
Y374550D01*
Y362050D02*
X719640D01*
Y374550D01*
X695140D02*
X719640D01*
X943710Y199840D02*
X956210D01*
Y224340D01*
X943710D02*
X956210D01*
X943710Y199840D02*
Y224340D01*
X1076650Y38360D02*
Y171360D01*
X942650D02*
X1076650D01*
X942650Y38360D02*
Y171360D01*
Y38360D02*
X1076650D01*
X938080Y179170D02*
Y191670D01*
X913580D02*
X938080D01*
X913580Y179170D02*
Y191670D01*
Y179170D02*
X938080D01*
X716380Y305620D02*
X728880D01*
X716380Y281120D02*
Y305620D01*
Y281120D02*
X728880D01*
Y305620D01*
X617320Y198570D02*
X629820D01*
Y223070D01*
X617320D02*
X629820D01*
X617320Y198570D02*
Y223070D01*
X1079600Y226880D02*
X1092100D01*
X1079600Y202380D02*
Y226880D01*
Y202380D02*
X1092100D01*
Y226880D01*
X436980Y212540D02*
Y237040D01*
X449480D01*
Y212540D02*
Y237040D01*
X436980Y212540D02*
X449480D01*
X387450D02*
Y237040D01*
X399950D01*
Y212540D02*
Y237040D01*
X387450Y212540D02*
X399950D01*
X1646740Y216000D02*
Y228500D01*
X1622240D02*
X1646740D01*
X1622240Y216000D02*
Y228500D01*
Y216000D02*
X1646740D01*
X109320Y235770D02*
X121820D01*
X109320Y211270D02*
Y235770D01*
Y211270D02*
X121820D01*
Y235770D01*
X1082340Y169750D02*
X1246590D01*
Y38750D02*
Y169750D01*
X1082340Y38750D02*
Y169750D01*
Y38750D02*
X1246590D01*
X1539240Y38100D02*
Y173990D01*
X1610360D01*
Y38100D02*
Y173990D01*
X1539240Y38100D02*
X1610360D01*
X132180Y235770D02*
X144680D01*
X132180Y211270D02*
Y235770D01*
Y211270D02*
X144680D01*
Y235770D01*
X486510Y212540D02*
Y237040D01*
X499010D01*
Y212540D02*
Y237040D01*
X486510Y212540D02*
X499010D01*
X1268830Y226880D02*
X1281330D01*
X1268830Y202380D02*
Y226880D01*
Y202380D02*
X1281330D01*
Y226880D01*
X588010Y173990D02*
X688340D01*
Y38100D02*
Y173990D01*
X588010Y38100D02*
X688340D01*
X588010D02*
Y173990D01*
X1516830Y266800D02*
Y279300D01*
Y266800D02*
X1541330D01*
Y279300D01*
X1516830D02*
X1541330D01*
X489770Y309980D02*
Y322480D01*
X465270D02*
X489770D01*
X465270Y309980D02*
Y322480D01*
Y309980D02*
X489770D01*
X186790Y235770D02*
X199290D01*
X186790Y211270D02*
Y235770D01*
Y211270D02*
X199290D01*
Y235770D01*
X1252220Y173990D02*
X1352550D01*
Y38100D02*
Y173990D01*
X1252220Y38100D02*
X1352550D01*
X1252220D02*
Y173990D01*
X695960D02*
X796290D01*
Y38100D02*
Y173990D01*
X695960Y38100D02*
X796290D01*
X695960D02*
Y173990D01*
X1430120Y226880D02*
X1442620D01*
X1430120Y202380D02*
Y226880D01*
Y202380D02*
X1442620D01*
Y226880D01*
X1518100Y233580D02*
X1542600D01*
Y221080D02*
Y233580D01*
X1518100Y221080D02*
X1542600D01*
X1518100D02*
Y233580D01*
X1122780Y226880D02*
X1135280D01*
X1122780Y202380D02*
Y226880D01*
Y202380D02*
X1135280D01*
Y226880D01*
X938220Y38360D02*
Y171360D01*
X804220D02*
X938220D01*
X804220Y38360D02*
Y171360D01*
Y38360D02*
X938220D01*
X407670Y38100D02*
Y173990D01*
X478790D01*
Y38100D02*
Y173990D01*
X407670Y38100D02*
X478790D01*
X1516830Y363120D02*
X1541330D01*
Y350620D02*
Y363120D01*
X1516830Y350620D02*
X1541330D01*
X1516830D02*
Y363120D01*
X1206600Y226880D02*
X1219100D01*
X1206600Y202380D02*
Y226880D01*
Y202380D02*
X1219100D01*
Y226880D01*
X1451710D02*
X1464210D01*
X1451710Y202380D02*
Y226880D01*
Y202380D02*
X1464210D01*
Y226880D01*
X1357630Y175260D02*
X1457960D01*
Y39370D02*
Y175260D01*
X1357630Y39370D02*
X1457960D01*
X1357630D02*
Y175260D01*
X462380Y212540D02*
Y237040D01*
X474880D01*
Y212540D02*
Y237040D01*
X462380Y212540D02*
X474880D01*
X104140Y38100D02*
Y173990D01*
X175260D01*
Y38100D02*
Y173990D01*
X104140Y38100D02*
X175260D01*
X716380Y309060D02*
X728880D01*
Y333560D01*
X716380D02*
X728880D01*
X716380Y309060D02*
Y333560D01*
X228700Y211270D02*
X241200D01*
Y235770D01*
X228700D02*
X241200D01*
X228700Y211270D02*
Y235770D01*
X120650Y307340D02*
Y407670D01*
Y307340D02*
X455930D01*
Y407670D01*
X120650D02*
X455930D01*
X389890D02*
X391160D01*
X389890D02*
X402590Y394970D01*
X415290Y407670D01*
X1163420Y226880D02*
X1175920D01*
X1163420Y202380D02*
Y226880D01*
Y202380D02*
X1175920D01*
Y226880D01*
X284580Y235770D02*
X297080D01*
X284580Y211270D02*
Y235770D01*
Y211270D02*
X297080D01*
Y235770D01*
X1116330Y322580D02*
Y408940D01*
Y322580D02*
X1229360D01*
Y408940D01*
X1116330D02*
X1229360D01*
X1646740Y195680D02*
Y208180D01*
X1622240D02*
X1646740D01*
X1622240Y195680D02*
Y208180D01*
Y195680D02*
X1646740D01*
X1367790Y325120D02*
Y363220D01*
Y325120D02*
X1424940D01*
Y363220D01*
X1367790D02*
X1424940D01*
X1622240Y308710D02*
Y321210D01*
Y308710D02*
X1646740D01*
Y321210D01*
X1622240D02*
X1646740D01*
X482600Y173990D02*
X582930D01*
Y38100D02*
Y173990D01*
X482600Y38100D02*
X582930D01*
X482600D02*
Y173990D01*
X1352650Y226880D02*
X1365150D01*
X1352650Y202380D02*
Y226880D01*
Y202380D02*
X1365150D01*
Y226880D01*
X593190Y198570D02*
X605690D01*
Y223070D01*
X593190D02*
X605690D01*
X593190Y198570D02*
Y223070D01*
X597000Y287840D02*
X609500D01*
X597000Y263340D02*
Y287840D01*
Y263340D02*
X609500D01*
Y287840D01*
X179070Y38100D02*
Y173990D01*
X250190D01*
Y38100D02*
Y173990D01*
X179070Y38100D02*
X250190D01*
X538580Y237040D02*
X551080D01*
X538580Y212540D02*
Y237040D01*
Y212540D02*
X551080D01*
Y237040D01*
X1228190Y226880D02*
X1240690D01*
X1228190Y202380D02*
Y226880D01*
Y202380D02*
X1240690D01*
Y226880D01*
X746860Y178250D02*
X759360D01*
Y202750D01*
X746860D02*
X759360D01*
X746860Y178250D02*
Y202750D01*
X1516830Y308710D02*
Y321210D01*
Y308710D02*
X1541330D01*
Y321210D01*
X1516830D02*
X1541330D01*
X640180Y223070D02*
X652680D01*
X640180Y198570D02*
Y223070D01*
Y198570D02*
X652680D01*
Y223070D01*
X1393290Y226880D02*
X1405790D01*
X1393290Y202380D02*
Y226880D01*
Y202380D02*
X1405790D01*
Y226880D01*
X1516830Y384710D02*
X1541330D01*
Y372210D02*
Y384710D01*
X1516830Y372210D02*
X1541330D01*
X1516830D02*
Y384710D01*
X1487270Y226880D02*
X1499770D01*
X1487270Y202380D02*
Y226880D01*
Y202380D02*
X1499770D01*
Y226880D01*
X331470Y38100D02*
Y173990D01*
X402590D01*
Y38100D02*
Y173990D01*
X331470Y38100D02*
X402590D01*
X784960Y178250D02*
X797460D01*
Y202750D01*
X784960D02*
X797460D01*
X784960Y178250D02*
Y202750D01*
X778410Y178250D02*
Y202750D01*
X765910Y178250D02*
X778410D01*
X765910D02*
Y202750D01*
X778410D01*
X463550Y364490D02*
Y387350D01*
Y364490D02*
X511810D01*
Y387350D01*
X463550D02*
X511810D01*
X1183740Y226880D02*
X1196240D01*
X1183740Y202380D02*
Y226880D01*
Y202380D02*
X1196240D01*
Y226880D01*
X255270Y38100D02*
Y173990D01*
X326390D01*
Y38100D02*
Y173990D01*
X255270Y38100D02*
X326390D01*
X684630Y198570D02*
X697130D01*
Y223070D01*
X684630D02*
X697130D01*
X684630Y198570D02*
Y223070D01*
X1313630Y326490D02*
Y338990D01*
Y326490D02*
X1338130D01*
Y338990D01*
X1313630D02*
X1338130D01*
X1469490Y226880D02*
X1481990D01*
X1469490Y202380D02*
Y226880D01*
Y202380D02*
X1481990D01*
Y226880D01*
X572135Y203200D02*
X576580D01*
Y238760D01*
X558800Y203200D02*
X563245D01*
X558800D02*
Y238760D01*
X563245Y203200D02*
X572135D01*
X558800Y238760D02*
X576580D01*
X618590Y287840D02*
X631090D01*
X618590Y263340D02*
Y287840D01*
Y263340D02*
X631090D01*
Y287840D01*
X511910Y212540D02*
Y237040D01*
X524410D01*
Y212540D02*
Y237040D01*
X511910Y212540D02*
X524410D01*
X1516830Y287120D02*
Y299620D01*
Y287120D02*
X1541330D01*
Y299620D01*
X1516830D02*
X1541330D01*
X734940Y268760D02*
Y335760D01*
X781440Y268760D02*
Y335760D01*
X1101190Y226880D02*
X1113690D01*
X1101190Y202380D02*
Y226880D01*
Y202380D02*
X1113690D01*
Y226880D01*
X1646740Y285850D02*
Y298350D01*
X1622240D02*
X1646740D01*
X1622240Y285850D02*
Y298350D01*
Y285850D02*
X1646740D01*
X1518100Y214530D02*
X1542600D01*
Y202030D02*
Y214530D01*
X1518100Y202030D02*
X1542600D01*
X1518100D02*
Y214530D01*
X209650Y235770D02*
X222150D01*
X209650Y211270D02*
Y235770D01*
Y211270D02*
X222150D01*
Y235770D01*
X1247240Y226880D02*
X1259740D01*
X1247240Y202380D02*
Y226880D01*
Y202380D02*
X1259740D01*
Y226880D01*
X260450Y235770D02*
X272950D01*
X260450Y211270D02*
Y235770D01*
Y211270D02*
X272950D01*
Y235770D01*
X1066806Y204476D02*
Y221043D01*
X1066800Y246448D02*
Y262890D01*
X980440Y205740D02*
Y262890D01*
Y204470D02*
X1066800D01*
X980440Y262890D02*
X1066800D01*
X1370430Y226880D02*
X1382930D01*
X1370430Y202380D02*
Y226880D01*
Y202380D02*
X1382930D01*
Y226880D01*
X1289150D02*
X1301650D01*
X1289150Y202380D02*
Y226880D01*
Y202380D02*
X1301650D01*
Y226880D01*
X1622240Y235050D02*
Y247550D01*
Y235050D02*
X1646740D01*
Y247550D01*
X1622240D02*
X1646740D01*
X1518100Y253900D02*
X1542600D01*
Y241400D02*
Y253900D01*
X1518100Y241400D02*
X1542600D01*
X1518100D02*
Y253900D01*
X1412340Y226880D02*
X1424840D01*
X1412340Y202380D02*
Y226880D01*
Y202380D02*
X1424840D01*
Y226880D01*
X412850Y212540D02*
Y237040D01*
X425350D01*
Y212540D02*
Y237040D01*
X412850Y212540D02*
X425350D01*
X702410Y198570D02*
Y223070D01*
X714910D01*
Y198570D02*
Y223070D01*
X702410Y198570D02*
X714910D01*
X675005Y187960D02*
X679450D01*
Y223520D01*
X661670Y187960D02*
X666115D01*
X661670D02*
Y223520D01*
X666115Y187960D02*
X675005D01*
X661670Y223520D02*
X679450D01*
X360780Y211270D02*
Y235770D01*
X373280D01*
Y211270D02*
Y235770D01*
X360780Y211270D02*
X373280D01*
X1463040Y38100D02*
Y173990D01*
X1534160D01*
Y38100D02*
Y173990D01*
X1463040Y38100D02*
X1534160D01*
X332840Y211270D02*
Y235770D01*
X345340D01*
Y211270D02*
Y235770D01*
X332840Y211270D02*
X345340D01*
X1367790Y370840D02*
Y408940D01*
Y370840D02*
X1424940D01*
Y408940D01*
X1367790D02*
X1424940D01*
X155040Y211270D02*
X167540D01*
Y235770D01*
X155040D02*
X167540D01*
X155040Y211270D02*
Y235770D01*
X1281910Y326020D02*
Y338520D01*
Y326020D02*
X1306410D01*
Y338520D01*
X1281910D02*
X1306410D01*
X307440Y211270D02*
X319940D01*
Y235770D01*
X307440D02*
X319940D01*
X307440Y211270D02*
Y235770D01*
X727810Y178250D02*
X740310D01*
Y202750D01*
X727810D02*
X740310D01*
X727810Y178250D02*
Y202750D01*
X1309470Y226880D02*
X1321970D01*
X1309470Y202380D02*
Y226880D01*
Y202380D02*
X1321970D01*
Y226880D01*
X1143100D02*
X1155600D01*
X1143100Y202380D02*
Y226880D01*
Y202380D02*
X1155600D01*
Y226880D01*
X1235710Y342900D02*
Y408940D01*
X1362710D01*
Y342900D02*
Y408940D01*
X1235710Y342900D02*
X1362710D01*
X1333600Y226880D02*
X1346100D01*
X1333600Y202380D02*
Y226880D01*
Y202380D02*
X1346100D01*
Y226880D01*
X1516830Y342800D02*
X1541330D01*
Y330300D02*
Y342800D01*
X1516830Y330300D02*
X1541330D01*
X1516830D02*
Y342800D01*
X1646740Y266800D02*
Y279300D01*
X1622240D02*
X1646740D01*
X1622240Y266800D02*
Y279300D01*
Y266800D02*
X1646740D01*
X985070Y363320D02*
Y375820D01*
X960570D02*
X985070D01*
X960570Y363320D02*
Y375820D01*
Y363320D02*
X985070D01*
X657860Y281940D02*
X692150D01*
Y332740D01*
X654050D02*
X692150D01*
X654050Y281940D02*
Y332740D01*
Y281940D02*
X662940D01*
X685800Y332740D02*
X692150Y326390D01*
X685800Y332740D02*
X692150D01*
X689610D02*
X692150D01*
X689610D02*
X692150Y330200D01*
Y326390D02*
Y330200D01*
Y328295D02*
Y330200D01*
X689610Y332740D02*
X692150Y330200D01*
X689610Y332740D02*
X692150Y330200D01*
Y328295D02*
Y330200D01*
X691515Y328295D02*
X692150D01*
X689610Y330200D02*
X691515Y328295D01*
X688975Y329565D02*
Y332740D01*
D33*
X822720Y347410D02*
G03*
X822720Y347410I-3000J0D01*
G01*
D34*
X796470Y362910D02*
G03*
X796470Y362910I-1250J0D01*
G01*
D35*
X809720Y234410D02*
X932720D01*
X809720Y357410D02*
X932720D01*
Y234410D02*
Y357410D01*
X809720Y234410D02*
Y357410D01*
D36*
X1292225Y327660D02*
X1296670Y332105D01*
X1292225Y336550D02*
X1296670Y332105D01*
Y327660D02*
Y336550D01*
X1291590Y327660D02*
Y336550D01*
D37*
X1153160Y179070D02*
Y190496D01*
X1158873D01*
X1160778Y188592D01*
Y184783D01*
X1158873Y182879D01*
X1153160D01*
X1164586Y179070D02*
X1168395D01*
X1166491D01*
Y190496D01*
X1164586Y188592D01*
X1174108Y179070D02*
X1177917D01*
X1176013D01*
Y190496D01*
X1174108Y188592D01*
X524510Y269240D02*
X513084D01*
Y274953D01*
X514988Y276857D01*
X518797D01*
X520701Y274953D01*
Y269240D01*
Y273049D02*
X524510Y276857D01*
X514988Y280666D02*
X513084Y282571D01*
Y286380D01*
X514988Y288284D01*
X516893D01*
X518797Y286380D01*
Y284475D01*
Y286380D01*
X520701Y288284D01*
X522606D01*
X524510Y286380D01*
Y282571D01*
X522606Y280666D01*
X524510Y299710D02*
Y292093D01*
X516893Y299710D01*
X514988D01*
X513084Y297806D01*
Y293997D01*
X514988Y292093D01*
X424180Y270510D02*
X412754D01*
Y276223D01*
X414658Y278127D01*
X418467D01*
X420371Y276223D01*
Y270510D01*
Y274319D02*
X424180Y278127D01*
X414658Y281936D02*
X412754Y283841D01*
Y287649D01*
X414658Y289554D01*
X416562D01*
X418467Y287649D01*
Y285745D01*
Y287649D01*
X420371Y289554D01*
X422276D01*
X424180Y287649D01*
Y283841D01*
X422276Y281936D01*
X424180Y293363D02*
Y297171D01*
Y295267D01*
X412754D01*
X414658Y293363D01*
X345440Y267970D02*
X334014D01*
Y273683D01*
X335918Y275588D01*
X339727D01*
X341631Y273683D01*
Y267970D01*
Y271779D02*
X345440Y275588D01*
X335918Y279396D02*
X334014Y281301D01*
Y285110D01*
X335918Y287014D01*
X337822D01*
X339727Y285110D01*
Y283205D01*
Y285110D01*
X341631Y287014D01*
X343536D01*
X345440Y285110D01*
Y281301D01*
X343536Y279396D01*
X335918Y290823D02*
X334014Y292727D01*
Y296536D01*
X335918Y298440D01*
X343536D01*
X345440Y296536D01*
Y292727D01*
X343536Y290823D01*
X335918D01*
X472440Y270510D02*
X461014D01*
Y276223D01*
X462918Y278127D01*
X466727D01*
X468631Y276223D01*
Y270510D01*
Y274319D02*
X472440Y278127D01*
X461014Y289554D02*
Y281936D01*
X466727D01*
X464823Y285745D01*
Y287649D01*
X466727Y289554D01*
X470536D01*
X472440Y287649D01*
Y283841D01*
X470536Y281936D01*
X398780Y270510D02*
X387354D01*
Y276223D01*
X389258Y278127D01*
X393067D01*
X394971Y276223D01*
Y270510D01*
Y274319D02*
X398780Y278127D01*
Y287649D02*
X387354D01*
X393067Y281936D01*
Y289554D01*
X702310Y181610D02*
Y193036D01*
X708023D01*
X709928Y191132D01*
Y187323D01*
X708023Y185419D01*
X702310D01*
X713736Y191132D02*
X715641Y193036D01*
X719449D01*
X721354Y191132D01*
Y189228D01*
X719449Y187323D01*
X721354Y185419D01*
Y183514D01*
X719449Y181610D01*
X715641D01*
X713736Y183514D01*
Y185419D01*
X715641Y187323D01*
X713736Y189228D01*
Y191132D01*
X715641Y187323D02*
X719449D01*
X593090Y179070D02*
Y190496D01*
X598803D01*
X600708Y188592D01*
Y184783D01*
X598803Y182879D01*
X593090D01*
X604516Y190496D02*
X612134D01*
Y188592D01*
X604516Y180974D01*
Y179070D01*
X521970Y182880D02*
Y194306D01*
X527683D01*
X529588Y192402D01*
Y188593D01*
X527683Y186689D01*
X521970D01*
X541014Y194306D02*
X537205Y192402D01*
X533396Y188593D01*
Y184784D01*
X535301Y182880D01*
X539109D01*
X541014Y184784D01*
Y186689D01*
X539109Y188593D01*
X533396D01*
X433070Y185420D02*
Y196846D01*
X438783D01*
X440687Y194942D01*
Y191133D01*
X438783Y189229D01*
X433070D01*
X452114Y196846D02*
X444496D01*
Y191133D01*
X448305Y193037D01*
X450210D01*
X452114Y191133D01*
Y187324D01*
X450210Y185420D01*
X446401D01*
X444496Y187324D01*
X358140Y184150D02*
Y195576D01*
X363853D01*
X365757Y193672D01*
Y189863D01*
X363853Y187959D01*
X358140D01*
X375280Y184150D02*
Y195576D01*
X369566Y189863D01*
X377184D01*
X284480Y186690D02*
Y198116D01*
X290193D01*
X292097Y196212D01*
Y192403D01*
X290193Y190499D01*
X284480D01*
X295906Y196212D02*
X297811Y198116D01*
X301619D01*
X303524Y196212D01*
Y194307D01*
X301619Y192403D01*
X299715D01*
X301619D01*
X303524Y190499D01*
Y188594D01*
X301619Y186690D01*
X297811D01*
X295906Y188594D01*
X207010Y186690D02*
Y198116D01*
X212723D01*
X214627Y196212D01*
Y192403D01*
X212723Y190499D01*
X207010D01*
X226054Y186690D02*
X218436D01*
X226054Y194307D01*
Y196212D01*
X224149Y198116D01*
X220341D01*
X218436Y196212D01*
X133350Y182880D02*
Y194306D01*
X139063D01*
X140968Y192402D01*
Y188593D01*
X139063Y186689D01*
X133350D01*
X144776Y182880D02*
X148585D01*
X146681D01*
Y194306D01*
X144776Y192402D01*
X492128Y276857D02*
X490224Y274953D01*
Y271144D01*
X492128Y269240D01*
X499746D01*
X501650Y271144D01*
Y274953D01*
X499746Y276857D01*
X501650Y280666D02*
Y284475D01*
Y282571D01*
X490224D01*
X492128Y280666D01*
X501650Y295901D02*
X490224D01*
X495937Y290188D01*
Y297806D01*
X438788Y278127D02*
X436884Y276223D01*
Y272414D01*
X438788Y270510D01*
X446406D01*
X448310Y272414D01*
Y276223D01*
X446406Y278127D01*
X448310Y281936D02*
Y285745D01*
Y283841D01*
X436884D01*
X438788Y281936D01*
Y291458D02*
X436884Y293363D01*
Y297171D01*
X438788Y299076D01*
X440692D01*
X442597Y297171D01*
Y295267D01*
Y297171D01*
X444501Y299076D01*
X446406D01*
X448310Y297171D01*
Y293363D01*
X446406Y291458D01*
X362588Y276857D02*
X360684Y274953D01*
Y271144D01*
X362588Y269240D01*
X370206D01*
X372110Y271144D01*
Y274953D01*
X370206Y276857D01*
X372110Y280666D02*
Y284475D01*
Y282571D01*
X360684D01*
X362588Y280666D01*
X372110Y297806D02*
Y290188D01*
X364492Y297806D01*
X362588D01*
X360684Y295901D01*
Y292093D01*
X362588Y290188D01*
X713740Y227330D02*
X702314D01*
Y233043D01*
X704218Y234947D01*
X708027D01*
X709931Y233043D01*
Y227330D01*
Y231139D02*
X713740Y234947D01*
Y244470D02*
X702314D01*
X708027Y238756D01*
Y246374D01*
X711836Y250183D02*
X713740Y252087D01*
Y255896D01*
X711836Y257800D01*
X704218D01*
X702314Y255896D01*
Y252087D01*
X704218Y250183D01*
X706123D01*
X708027Y252087D01*
Y257800D01*
X777240Y209550D02*
X765814D01*
Y215263D01*
X767718Y217167D01*
X771527D01*
X773431Y215263D01*
Y209550D01*
Y213359D02*
X777240Y217167D01*
Y226689D02*
X765814D01*
X771527Y220976D01*
Y228594D01*
X767718Y232403D02*
X765814Y234307D01*
Y238116D01*
X767718Y240020D01*
X769622D01*
X771527Y238116D01*
X773431Y240020D01*
X775336D01*
X777240Y238116D01*
Y234307D01*
X775336Y232403D01*
X773431D01*
X771527Y234307D01*
X769622Y232403D01*
X767718D01*
X771527Y234307D02*
Y238116D01*
X718188Y345438D02*
X716284Y343533D01*
Y339724D01*
X718188Y337820D01*
X725806D01*
X727710Y339724D01*
Y343533D01*
X725806Y345438D01*
X727710Y349246D02*
Y353055D01*
Y351151D01*
X716284D01*
X718188Y349246D01*
X719458Y265427D02*
X717554Y263523D01*
Y259714D01*
X719458Y257810D01*
X727076D01*
X728980Y259714D01*
Y263523D01*
X727076Y265427D01*
X728980Y276854D02*
Y269236D01*
X721363Y276854D01*
X719458D01*
X717554Y274949D01*
Y271141D01*
X719458Y269236D01*
X998217Y374012D02*
X996313Y375916D01*
X992504D01*
X990600Y374012D01*
Y366394D01*
X992504Y364490D01*
X996313D01*
X998217Y366394D01*
X1002026Y374012D02*
X1003931Y375916D01*
X1007739D01*
X1009644Y374012D01*
Y372108D01*
X1007739Y370203D01*
X1005835D01*
X1007739D01*
X1009644Y368299D01*
Y366394D01*
X1007739Y364490D01*
X1003931D01*
X1002026Y366394D01*
X923288Y205102D02*
X921383Y207006D01*
X917574D01*
X915670Y205102D01*
Y197484D01*
X917574Y195580D01*
X921383D01*
X923288Y197484D01*
X932810Y195580D02*
Y207006D01*
X927096Y201293D01*
X934714D01*
X964568Y210818D02*
X962664Y208913D01*
Y205104D01*
X964568Y203200D01*
X972186D01*
X974090Y205104D01*
Y208913D01*
X972186Y210818D01*
X962664Y222244D02*
X964568Y218435D01*
X968377Y214626D01*
X972186D01*
X974090Y216531D01*
Y220340D01*
X972186Y222244D01*
X970281D01*
X968377Y220340D01*
Y214626D01*
X678177Y371472D02*
X676273Y373376D01*
X672464D01*
X670560Y371472D01*
Y363854D01*
X672464Y361950D01*
X676273D01*
X678177Y363854D01*
X681986Y373376D02*
X689604D01*
Y371472D01*
X681986Y363854D01*
Y361950D01*
X133988Y275588D02*
X132084Y273683D01*
Y269874D01*
X133988Y267970D01*
X141606D01*
X143510Y269874D01*
Y273683D01*
X141606Y275588D01*
Y279396D02*
X143510Y281301D01*
Y285110D01*
X141606Y287014D01*
X133988D01*
X132084Y285110D01*
Y281301D01*
X133988Y279396D01*
X135892D01*
X137797Y281301D01*
Y287014D01*
X212728Y275588D02*
X210824Y273683D01*
Y269874D01*
X212728Y267970D01*
X220346D01*
X222250Y269874D01*
Y273683D01*
X220346Y275588D01*
X222250Y279396D02*
Y283205D01*
Y281301D01*
X210824D01*
X212728Y279396D01*
Y288918D02*
X210824Y290823D01*
Y294631D01*
X212728Y296536D01*
X220346D01*
X222250Y294631D01*
Y290823D01*
X220346Y288918D01*
X212728D01*
X287658Y276857D02*
X285754Y274953D01*
Y271144D01*
X287658Y269240D01*
X295276D01*
X297180Y271144D01*
Y274953D01*
X295276Y276857D01*
X297180Y280666D02*
Y284475D01*
Y282571D01*
X285754D01*
X287658Y280666D01*
X297180Y290188D02*
Y293997D01*
Y292093D01*
X285754D01*
X287658Y290188D01*
X596268Y236217D02*
X594364Y234313D01*
Y230504D01*
X596268Y228600D01*
X603886D01*
X605790Y230504D01*
Y234313D01*
X603886Y236217D01*
X605790Y240026D02*
Y243835D01*
Y241931D01*
X594364D01*
X596268Y240026D01*
X594364Y257166D02*
Y249548D01*
X600077D01*
X598172Y253357D01*
Y255261D01*
X600077Y257166D01*
X603886D01*
X605790Y255261D01*
Y251453D01*
X603886Y249548D01*
X749938Y217167D02*
X748034Y215263D01*
Y211454D01*
X749938Y209550D01*
X757556D01*
X759460Y211454D01*
Y215263D01*
X757556Y217167D01*
X759460Y220976D02*
Y224785D01*
Y222881D01*
X748034D01*
X749938Y220976D01*
X748034Y238116D02*
X749938Y234307D01*
X753747Y230498D01*
X757556D01*
X759460Y232403D01*
Y236211D01*
X757556Y238116D01*
X755651D01*
X753747Y236211D01*
Y230498D01*
X687708Y234947D02*
X685804Y233043D01*
Y229234D01*
X687708Y227330D01*
X695326D01*
X697230Y229234D01*
Y233043D01*
X695326Y234947D01*
X697230Y238756D02*
Y242565D01*
Y240661D01*
X685804D01*
X687708Y238756D01*
X685804Y248278D02*
Y255896D01*
X687708D01*
X695326Y248278D01*
X697230D01*
X1104268Y260347D02*
X1102364Y258443D01*
Y254634D01*
X1104268Y252730D01*
X1111886D01*
X1113790Y254634D01*
Y258443D01*
X1111886Y260347D01*
X1113790Y264156D02*
Y267965D01*
Y266061D01*
X1102364D01*
X1104268Y264156D01*
Y273678D02*
X1102364Y275583D01*
Y279391D01*
X1104268Y281296D01*
X1106172D01*
X1108077Y279391D01*
X1109981Y281296D01*
X1111886D01*
X1113790Y279391D01*
Y275583D01*
X1111886Y273678D01*
X1109981D01*
X1108077Y275583D01*
X1106172Y273678D01*
X1104268D01*
X1108077Y275583D02*
Y279391D01*
X1165228Y260347D02*
X1163324Y258443D01*
Y254634D01*
X1165228Y252730D01*
X1172846D01*
X1174750Y254634D01*
Y258443D01*
X1172846Y260347D01*
X1174750Y264156D02*
Y267965D01*
Y266061D01*
X1163324D01*
X1165228Y264156D01*
X1172846Y273678D02*
X1174750Y275583D01*
Y279391D01*
X1172846Y281296D01*
X1165228D01*
X1163324Y279391D01*
Y275583D01*
X1165228Y273678D01*
X1167132D01*
X1169037Y275583D01*
Y281296D01*
X1228728Y261618D02*
X1226824Y259713D01*
Y255904D01*
X1228728Y254000D01*
X1236346D01*
X1238250Y255904D01*
Y259713D01*
X1236346Y261618D01*
X1238250Y273044D02*
Y265426D01*
X1230632Y273044D01*
X1228728D01*
X1226824Y271140D01*
Y267331D01*
X1228728Y265426D01*
Y276853D02*
X1226824Y278757D01*
Y282566D01*
X1228728Y284470D01*
X1236346D01*
X1238250Y282566D01*
Y278757D01*
X1236346Y276853D01*
X1228728D01*
X1290958Y261618D02*
X1289054Y259713D01*
Y255904D01*
X1290958Y254000D01*
X1298576D01*
X1300480Y255904D01*
Y259713D01*
X1298576Y261618D01*
X1300480Y273044D02*
Y265426D01*
X1292863Y273044D01*
X1290958D01*
X1289054Y271140D01*
Y267331D01*
X1290958Y265426D01*
X1300480Y276853D02*
Y280661D01*
Y278757D01*
X1289054D01*
X1290958Y276853D01*
X666750Y349246D02*
Y337820D01*
X672463D01*
X674368Y339724D01*
Y347342D01*
X672463Y349246D01*
X666750D01*
X678176Y337820D02*
X681985D01*
X680081D01*
Y349246D01*
X678176Y347342D01*
X558804Y271780D02*
X570230D01*
Y277493D01*
X568326Y279398D01*
X560708D01*
X558804Y277493D01*
Y271780D01*
X570230Y290824D02*
Y283206D01*
X562612Y290824D01*
X560708D01*
X558804Y288920D01*
Y285111D01*
X560708Y283206D01*
X666754Y233680D02*
X678180D01*
Y239393D01*
X676276Y241297D01*
X668658D01*
X666754Y239393D01*
Y233680D01*
X668658Y245106D02*
X666754Y247011D01*
Y250819D01*
X668658Y252724D01*
X670563D01*
X672467Y250819D01*
Y248915D01*
Y250819D01*
X674371Y252724D01*
X676276D01*
X678180Y250819D01*
Y247011D01*
X676276Y245106D01*
X1432560Y393696D02*
Y382270D01*
X1438273D01*
X1440177Y384174D01*
Y391792D01*
X1438273Y393696D01*
X1432560D01*
X1449700Y382270D02*
Y393696D01*
X1443986Y387983D01*
X1451604D01*
X1432560Y350516D02*
Y339090D01*
X1438273D01*
X1440177Y340994D01*
Y348612D01*
X1438273Y350516D01*
X1432560D01*
X1451604D02*
X1443986D01*
Y344803D01*
X1447795Y346707D01*
X1449700D01*
X1451604Y344803D01*
Y340994D01*
X1449700Y339090D01*
X1445891D01*
X1443986Y340994D01*
X1282700Y318766D02*
Y307340D01*
X1288413D01*
X1290318Y309244D01*
Y316862D01*
X1288413Y318766D01*
X1282700D01*
X1301744D02*
X1297935Y316862D01*
X1294126Y313053D01*
Y309244D01*
X1296031Y307340D01*
X1299839D01*
X1301744Y309244D01*
Y311149D01*
X1299839Y313053D01*
X1294126D01*
X110490Y321310D02*
X99064D01*
Y327023D01*
X100968Y328927D01*
X104777D01*
X106681Y327023D01*
Y321310D01*
X110490Y332736D02*
Y336545D01*
Y334641D01*
X99064D01*
X100968Y332736D01*
X110490Y349876D02*
Y342258D01*
X102872Y349876D01*
X100968D01*
X99064Y347971D01*
Y344163D01*
X100968Y342258D01*
X165100Y267970D02*
X153674D01*
Y273683D01*
X155578Y275588D01*
X159387D01*
X161291Y273683D01*
Y267970D01*
Y271779D02*
X165100Y275588D01*
Y279396D02*
Y283205D01*
Y281301D01*
X153674D01*
X155578Y279396D01*
X241300Y267970D02*
X229874D01*
Y273683D01*
X231778Y275588D01*
X235587D01*
X237491Y273683D01*
Y267970D01*
Y271779D02*
X241300Y275588D01*
Y287014D02*
Y279396D01*
X233682Y287014D01*
X231778D01*
X229874Y285110D01*
Y281301D01*
X231778Y279396D01*
X318770Y270510D02*
X307344D01*
Y276223D01*
X309248Y278127D01*
X313057D01*
X314961Y276223D01*
Y270510D01*
Y274319D02*
X318770Y278127D01*
X309248Y281936D02*
X307344Y283841D01*
Y287649D01*
X309248Y289554D01*
X311152D01*
X313057Y287649D01*
Y285745D01*
Y287649D01*
X314961Y289554D01*
X316866D01*
X318770Y287649D01*
Y283841D01*
X316866Y281936D01*
X467360Y327660D02*
Y339086D01*
X473073D01*
X474977Y337182D01*
Y333373D01*
X473073Y331469D01*
X467360D01*
X471169D02*
X474977Y327660D01*
X478786Y329564D02*
X480691Y327660D01*
X484500D01*
X486404Y329564D01*
Y337182D01*
X484500Y339086D01*
X480691D01*
X478786Y337182D01*
Y335277D01*
X480691Y333373D01*
X486404D01*
X549910Y269240D02*
X538484D01*
Y274953D01*
X540388Y276857D01*
X544197D01*
X546101Y274953D01*
Y269240D01*
Y273049D02*
X549910Y276857D01*
Y280666D02*
Y284475D01*
Y282571D01*
X538484D01*
X540388Y280666D01*
Y290188D02*
X538484Y292093D01*
Y295901D01*
X540388Y297806D01*
X548006D01*
X549910Y295901D01*
Y292093D01*
X548006Y290188D01*
X540388D01*
X608330Y295910D02*
X596904D01*
Y301623D01*
X598808Y303528D01*
X602617D01*
X604521Y301623D01*
Y295910D01*
Y299719D02*
X608330Y303528D01*
Y307336D02*
Y311145D01*
Y309241D01*
X596904D01*
X598808Y307336D01*
X608330Y316858D02*
Y320667D01*
Y318763D01*
X596904D01*
X598808Y316858D01*
X651510Y227330D02*
X640084D01*
Y233043D01*
X641988Y234947D01*
X645797D01*
X647701Y233043D01*
Y227330D01*
Y231139D02*
X651510Y234947D01*
Y238756D02*
Y242565D01*
Y240661D01*
X640084D01*
X641988Y238756D01*
X651510Y255896D02*
Y248278D01*
X643893Y255896D01*
X641988D01*
X640084Y253991D01*
Y250183D01*
X641988Y248278D01*
X629920Y294640D02*
X618494D01*
Y300353D01*
X620398Y302257D01*
X624207D01*
X626111Y300353D01*
Y294640D01*
Y298449D02*
X629920Y302257D01*
Y306066D02*
Y309875D01*
Y307971D01*
X618494D01*
X620398Y306066D01*
Y315588D02*
X618494Y317493D01*
Y321301D01*
X620398Y323206D01*
X622303D01*
X624207Y321301D01*
Y319397D01*
Y321301D01*
X626111Y323206D01*
X628016D01*
X629920Y321301D01*
Y317493D01*
X628016Y315588D01*
X1314450Y308610D02*
Y320036D01*
X1320163D01*
X1322068Y318132D01*
Y314323D01*
X1320163Y312419D01*
X1314450D01*
X1318259D02*
X1322068Y308610D01*
X1325876D02*
X1329685D01*
X1327781D01*
Y320036D01*
X1325876Y318132D01*
X1341111Y308610D02*
Y320036D01*
X1335398Y314323D01*
X1343016D01*
X1135380Y252730D02*
X1123954D01*
Y258443D01*
X1125858Y260347D01*
X1129667D01*
X1131571Y258443D01*
Y252730D01*
Y256539D02*
X1135380Y260347D01*
Y264156D02*
Y267965D01*
Y266061D01*
X1123954D01*
X1125858Y264156D01*
X1123954Y281296D02*
Y273678D01*
X1129667D01*
X1127763Y277487D01*
Y279391D01*
X1129667Y281296D01*
X1133476D01*
X1135380Y279391D01*
Y275583D01*
X1133476Y273678D01*
X1193800Y254000D02*
X1182374D01*
Y259713D01*
X1184278Y261618D01*
X1188087D01*
X1189991Y259713D01*
Y254000D01*
Y257809D02*
X1193800Y261618D01*
Y265426D02*
Y269235D01*
Y267331D01*
X1182374D01*
X1184278Y265426D01*
X1182374Y282566D02*
X1184278Y278757D01*
X1188087Y274948D01*
X1191896D01*
X1193800Y276853D01*
Y280661D01*
X1191896Y282566D01*
X1189991D01*
X1188087Y280661D01*
Y274948D01*
X1257300Y254000D02*
X1245874D01*
Y259713D01*
X1247778Y261618D01*
X1251587D01*
X1253491Y259713D01*
Y254000D01*
Y257809D02*
X1257300Y261618D01*
Y265426D02*
Y269235D01*
Y267331D01*
X1245874D01*
X1247778Y265426D01*
X1245874Y274948D02*
Y282566D01*
X1247778D01*
X1255396Y274948D01*
X1257300D01*
X1320800Y255270D02*
X1309374D01*
Y260983D01*
X1311278Y262887D01*
X1315087D01*
X1316991Y260983D01*
Y255270D01*
Y259079D02*
X1320800Y262887D01*
Y266696D02*
Y270505D01*
Y268601D01*
X1309374D01*
X1311278Y266696D01*
Y276218D02*
X1309374Y278123D01*
Y281931D01*
X1311278Y283836D01*
X1313183D01*
X1315087Y281931D01*
X1316991Y283836D01*
X1318896D01*
X1320800Y281931D01*
Y278123D01*
X1318896Y276218D01*
X1316991D01*
X1315087Y278123D01*
X1313183Y276218D01*
X1311278D01*
X1315087Y278123D02*
Y281931D01*
X118110Y269240D02*
X106684D01*
Y274953D01*
X108588Y276857D01*
X112397D01*
X114301Y274953D01*
Y269240D01*
Y273049D02*
X118110Y276857D01*
Y288284D02*
Y280666D01*
X110492Y288284D01*
X108588D01*
X106684Y286380D01*
Y282571D01*
X108588Y280666D01*
X106684Y292093D02*
Y299710D01*
X108588D01*
X116206Y292093D01*
X118110D01*
X196850Y267970D02*
X185424D01*
Y273683D01*
X187328Y275588D01*
X191137D01*
X193041Y273683D01*
Y267970D01*
Y271779D02*
X196850Y275588D01*
Y287014D02*
Y279396D01*
X189233Y287014D01*
X187328D01*
X185424Y285110D01*
Y281301D01*
X187328Y279396D01*
Y290823D02*
X185424Y292727D01*
Y296536D01*
X187328Y298440D01*
X189233D01*
X191137Y296536D01*
X193041Y298440D01*
X194946D01*
X196850Y296536D01*
Y292727D01*
X194946Y290823D01*
X193041D01*
X191137Y292727D01*
X189233Y290823D01*
X187328D01*
X191137Y292727D02*
Y296536D01*
X273050Y267970D02*
X261624D01*
Y273683D01*
X263528Y275588D01*
X267337D01*
X269241Y273683D01*
Y267970D01*
Y271779D02*
X273050Y275588D01*
Y287014D02*
Y279396D01*
X265432Y287014D01*
X263528D01*
X261624Y285110D01*
Y281301D01*
X263528Y279396D01*
X271146Y290823D02*
X273050Y292727D01*
Y296536D01*
X271146Y298440D01*
X263528D01*
X261624Y296536D01*
Y292727D01*
X263528Y290823D01*
X265432D01*
X267337Y292727D01*
Y298440D01*
X629920Y228600D02*
X618494D01*
Y234313D01*
X620398Y236217D01*
X624207D01*
X626111Y234313D01*
Y228600D01*
Y232409D02*
X629920Y236217D01*
X620398Y240026D02*
X618494Y241931D01*
Y245739D01*
X620398Y247644D01*
X622303D01*
X624207Y245739D01*
Y243835D01*
Y245739D01*
X626111Y247644D01*
X628016D01*
X629920Y245739D01*
Y241931D01*
X628016Y240026D01*
X620398Y251453D02*
X618494Y253357D01*
Y257166D01*
X620398Y259070D01*
X622303D01*
X624207Y257166D01*
Y255261D01*
Y257166D01*
X626111Y259070D01*
X628016D01*
X629920Y257166D01*
Y253357D01*
X628016Y251453D01*
X795020Y207010D02*
X785625D01*
Y211707D01*
X787191Y213273D01*
X790322D01*
X791888Y211707D01*
Y207010D01*
Y210142D02*
X795020Y213273D01*
X787191Y216405D02*
X785625Y217971D01*
Y221102D01*
X787191Y222668D01*
X788757D01*
X790322Y221102D01*
Y219537D01*
Y221102D01*
X791888Y222668D01*
X793454D01*
X795020Y221102D01*
Y217971D01*
X793454Y216405D01*
X795020Y230497D02*
X785625D01*
X790322Y225800D01*
Y232063D01*
X741680Y209550D02*
X730254D01*
Y215263D01*
X732158Y217167D01*
X735967D01*
X737871Y215263D01*
Y209550D01*
Y213359D02*
X741680Y217167D01*
X732158Y220976D02*
X730254Y222881D01*
Y226689D01*
X732158Y228594D01*
X734062D01*
X735967Y226689D01*
Y224785D01*
Y226689D01*
X737871Y228594D01*
X739776D01*
X741680Y226689D01*
Y222881D01*
X739776Y220976D01*
X730254Y240020D02*
Y232403D01*
X735967D01*
X734062Y236211D01*
Y238116D01*
X735967Y240020D01*
X739776D01*
X741680Y238116D01*
Y234307D01*
X739776Y232403D01*
X1093470Y252730D02*
X1082044D01*
Y258443D01*
X1083948Y260347D01*
X1087757D01*
X1089661Y258443D01*
Y252730D01*
Y256539D02*
X1093470Y260347D01*
X1083948Y264156D02*
X1082044Y266061D01*
Y269869D01*
X1083948Y271774D01*
X1085853D01*
X1087757Y269869D01*
Y267965D01*
Y269869D01*
X1089661Y271774D01*
X1091566D01*
X1093470Y269869D01*
Y266061D01*
X1091566Y264156D01*
X1082044Y283200D02*
X1083948Y279391D01*
X1087757Y275583D01*
X1091566D01*
X1093470Y277487D01*
Y281296D01*
X1091566Y283200D01*
X1089661D01*
X1087757Y281296D01*
Y275583D01*
X1154430Y252730D02*
X1143004D01*
Y258443D01*
X1144908Y260347D01*
X1148717D01*
X1150621Y258443D01*
Y252730D01*
Y256539D02*
X1154430Y260347D01*
X1144908Y264156D02*
X1143004Y266061D01*
Y269869D01*
X1144908Y271774D01*
X1146813D01*
X1148717Y269869D01*
Y267965D01*
Y269869D01*
X1150621Y271774D01*
X1152526D01*
X1154430Y269869D01*
Y266061D01*
X1152526Y264156D01*
X1143004Y275583D02*
Y283200D01*
X1144908D01*
X1152526Y275583D01*
X1154430D01*
X1216660Y254000D02*
X1205234D01*
Y259713D01*
X1207138Y261618D01*
X1210947D01*
X1212851Y259713D01*
Y254000D01*
Y257809D02*
X1216660Y261618D01*
X1207138Y265426D02*
X1205234Y267331D01*
Y271140D01*
X1207138Y273044D01*
X1209043D01*
X1210947Y271140D01*
Y269235D01*
Y271140D01*
X1212851Y273044D01*
X1214756D01*
X1216660Y271140D01*
Y267331D01*
X1214756Y265426D01*
X1207138Y276853D02*
X1205234Y278757D01*
Y282566D01*
X1207138Y284470D01*
X1209043D01*
X1210947Y282566D01*
X1212851Y284470D01*
X1214756D01*
X1216660Y282566D01*
Y278757D01*
X1214756Y276853D01*
X1212851D01*
X1210947Y278757D01*
X1209043Y276853D01*
X1207138D01*
X1210947Y278757D02*
Y282566D01*
X1280160Y254000D02*
X1268734D01*
Y259713D01*
X1270638Y261618D01*
X1274447D01*
X1276351Y259713D01*
Y254000D01*
Y257809D02*
X1280160Y261618D01*
X1270638Y265426D02*
X1268734Y267331D01*
Y271140D01*
X1270638Y273044D01*
X1272542D01*
X1274447Y271140D01*
Y269235D01*
Y271140D01*
X1276351Y273044D01*
X1278256D01*
X1280160Y271140D01*
Y267331D01*
X1278256Y265426D01*
Y276853D02*
X1280160Y278757D01*
Y282566D01*
X1278256Y284470D01*
X1270638D01*
X1268734Y282566D01*
Y278757D01*
X1270638Y276853D01*
X1272542D01*
X1274447Y278757D01*
Y284470D01*
X481328Y357502D02*
X479423Y359406D01*
X475614D01*
X473710Y357502D01*
Y355597D01*
X475614Y353693D01*
X479423D01*
X481328Y351789D01*
Y349884D01*
X479423Y347980D01*
X475614D01*
X473710Y349884D01*
X485136Y359406D02*
Y347980D01*
X488945Y351789D01*
X492754Y347980D01*
Y359406D01*
X496563Y347980D02*
X500371D01*
X498467D01*
Y359406D01*
X496563Y357502D01*
X1167130Y317496D02*
Y307974D01*
X1169034Y306070D01*
X1172843D01*
X1174747Y307974D01*
Y317496D01*
X1178556Y315592D02*
X1180461Y317496D01*
X1184269D01*
X1186174Y315592D01*
Y313687D01*
X1184269Y311783D01*
X1182365D01*
X1184269D01*
X1186174Y309879D01*
Y307974D01*
X1184269Y306070D01*
X1180461D01*
X1178556Y307974D01*
X1248410Y336546D02*
Y327024D01*
X1250314Y325120D01*
X1254123D01*
X1256028Y327024D01*
Y336546D01*
X1265549Y325120D02*
Y336546D01*
X1259836Y330833D01*
X1267454D01*
X980948Y299970D02*
Y290448D01*
X982852Y288544D01*
X986661D01*
X988566Y290448D01*
Y299970D01*
X999992D02*
X996183Y298066D01*
X992374Y294257D01*
Y290448D01*
X994279Y288544D01*
X998087D01*
X999992Y290448D01*
Y292353D01*
X998087Y294257D01*
X992374D01*
X749300Y377186D02*
X756917Y365760D01*
Y377186D02*
X749300Y365760D01*
X760726D02*
X764535D01*
X762631D01*
Y377186D01*
X760726Y375282D01*
X774700Y377186D02*
Y367664D01*
X776604Y365760D01*
X780413D01*
X782318Y367664D01*
Y377186D01*
X786126Y365760D02*
X789935D01*
X788031D01*
Y377186D01*
X786126Y375282D01*
X869950Y180340D02*
Y191766D01*
X875663D01*
X877568Y189862D01*
Y186053D01*
X875663Y184149D01*
X869950D01*
X881376Y182244D02*
X883281Y180340D01*
X887089D01*
X888994Y182244D01*
Y189862D01*
X887089Y191766D01*
X883281D01*
X881376Y189862D01*
Y187957D01*
X883281Y186053D01*
X888994D01*
X951230Y175260D02*
Y186686D01*
X956943D01*
X958848Y184782D01*
Y180973D01*
X956943Y179069D01*
X951230D01*
X962656Y175260D02*
X966465D01*
X964561D01*
Y186686D01*
X962656Y184782D01*
X972178D02*
X974083Y186686D01*
X977891D01*
X979796Y184782D01*
Y177164D01*
X977891Y175260D01*
X974083D01*
X972178Y177164D01*
Y184782D01*
X1586230Y234950D02*
Y246376D01*
X1591943D01*
X1593848Y244472D01*
Y240663D01*
X1591943Y238759D01*
X1586230D01*
X1590039D02*
X1593848Y234950D01*
X1603369D02*
Y246376D01*
X1597656Y240663D01*
X1605274D01*
X1609083Y246376D02*
X1616700D01*
Y244472D01*
X1609083Y236854D01*
Y234950D01*
X1586230Y309880D02*
Y321306D01*
X1591943D01*
X1593848Y319402D01*
Y315593D01*
X1591943Y313689D01*
X1586230D01*
X1590039D02*
X1593848Y309880D01*
X1603369D02*
Y321306D01*
X1597656Y315593D01*
X1605274D01*
X1616700Y321306D02*
X1612891Y319402D01*
X1609083Y315593D01*
Y311784D01*
X1610987Y309880D01*
X1614796D01*
X1616700Y311784D01*
Y313689D01*
X1614796Y315593D01*
X1609083D01*
X1549400Y373380D02*
Y384806D01*
X1555113D01*
X1557018Y382902D01*
Y379093D01*
X1555113Y377189D01*
X1549400D01*
X1553209D02*
X1557018Y373380D01*
X1566539D02*
Y384806D01*
X1560826Y379093D01*
X1568444D01*
X1579870Y384806D02*
X1572253D01*
Y379093D01*
X1576061Y380998D01*
X1577966D01*
X1579870Y379093D01*
Y375284D01*
X1577966Y373380D01*
X1574157D01*
X1572253Y375284D01*
X1548130Y309880D02*
Y321306D01*
X1553843D01*
X1555748Y319402D01*
Y315593D01*
X1553843Y313689D01*
X1548130D01*
X1551939D02*
X1555748Y309880D01*
X1565269D02*
Y321306D01*
X1559556Y315593D01*
X1567174D01*
X1576696Y309880D02*
Y321306D01*
X1570983Y315593D01*
X1578600D01*
X1548130Y242570D02*
Y253996D01*
X1553843D01*
X1555748Y252092D01*
Y248283D01*
X1553843Y246379D01*
X1548130D01*
X1551939D02*
X1555748Y242570D01*
X1565269D02*
Y253996D01*
X1559556Y248283D01*
X1567174D01*
X1570983Y252092D02*
X1572887Y253996D01*
X1576696D01*
X1578600Y252092D01*
Y250187D01*
X1576696Y248283D01*
X1574791D01*
X1576696D01*
X1578600Y246379D01*
Y244474D01*
X1576696Y242570D01*
X1572887D01*
X1570983Y244474D01*
X1463040Y255270D02*
X1451614D01*
Y260983D01*
X1453518Y262887D01*
X1457327D01*
X1459231Y260983D01*
Y255270D01*
Y259079D02*
X1463040Y262887D01*
Y272409D02*
X1451614D01*
X1457327Y266696D01*
Y274314D01*
X1463040Y285740D02*
Y278123D01*
X1455423Y285740D01*
X1453518D01*
X1451614Y283836D01*
Y280027D01*
X1453518Y278123D01*
X1403350Y255270D02*
X1391924D01*
Y260983D01*
X1393828Y262887D01*
X1397637D01*
X1399541Y260983D01*
Y255270D01*
Y259079D02*
X1403350Y262887D01*
Y272409D02*
X1391924D01*
X1397637Y266696D01*
Y274314D01*
X1403350Y278123D02*
Y281931D01*
Y280027D01*
X1391924D01*
X1393828Y278123D01*
X1344930Y256540D02*
X1333504D01*
Y262253D01*
X1335408Y264158D01*
X1339217D01*
X1341121Y262253D01*
Y256540D01*
Y260349D02*
X1344930Y264158D01*
Y273680D02*
X1333504D01*
X1339217Y267966D01*
Y275584D01*
X1335408Y279393D02*
X1333504Y281297D01*
Y285106D01*
X1335408Y287010D01*
X1343026D01*
X1344930Y285106D01*
Y281297D01*
X1343026Y279393D01*
X1335408D01*
X1587500Y196850D02*
Y208276D01*
X1593213D01*
X1595117Y206372D01*
Y202563D01*
X1593213Y200659D01*
X1587500D01*
X1591309D02*
X1595117Y196850D01*
X1606544D02*
X1598926D01*
X1606544Y204468D01*
Y206372D01*
X1604639Y208276D01*
X1600831D01*
X1598926Y206372D01*
X1617970Y208276D02*
X1614161Y206372D01*
X1610353Y202563D01*
Y198754D01*
X1612257Y196850D01*
X1616066D01*
X1617970Y198754D01*
Y200659D01*
X1616066Y202563D01*
X1610353D01*
X1584960Y267970D02*
Y279396D01*
X1590673D01*
X1592578Y277492D01*
Y273683D01*
X1590673Y271779D01*
X1584960D01*
X1588769D02*
X1592578Y267970D01*
X1604004D02*
X1596386D01*
X1604004Y275588D01*
Y277492D01*
X1602099Y279396D01*
X1598291D01*
X1596386Y277492D01*
X1615430Y279396D02*
X1607813D01*
Y273683D01*
X1611621Y275588D01*
X1613526D01*
X1615430Y273683D01*
Y269874D01*
X1613526Y267970D01*
X1609717D01*
X1607813Y269874D01*
X1549400Y331470D02*
Y342896D01*
X1555113D01*
X1557018Y340992D01*
Y337183D01*
X1555113Y335279D01*
X1549400D01*
X1553209D02*
X1557018Y331470D01*
X1568444D02*
X1560826D01*
X1568444Y339087D01*
Y340992D01*
X1566539Y342896D01*
X1562731D01*
X1560826Y340992D01*
X1577966Y331470D02*
Y342896D01*
X1572253Y337183D01*
X1579870D01*
X1548130Y267970D02*
Y279396D01*
X1553843D01*
X1555748Y277492D01*
Y273683D01*
X1553843Y271779D01*
X1548130D01*
X1551939D02*
X1555748Y267970D01*
X1567174D02*
X1559556D01*
X1567174Y275588D01*
Y277492D01*
X1565269Y279396D01*
X1561461D01*
X1559556Y277492D01*
X1570983D02*
X1572887Y279396D01*
X1576696D01*
X1578600Y277492D01*
Y275588D01*
X1576696Y273683D01*
X1574791D01*
X1576696D01*
X1578600Y271779D01*
Y269874D01*
X1576696Y267970D01*
X1572887D01*
X1570983Y269874D01*
X1548130Y203200D02*
Y214626D01*
X1553843D01*
X1555748Y212722D01*
Y208913D01*
X1553843Y207009D01*
X1548130D01*
X1551939D02*
X1555748Y203200D01*
X1567174D02*
X1559556D01*
X1567174Y210818D01*
Y212722D01*
X1565269Y214626D01*
X1561461D01*
X1559556Y212722D01*
X1578600Y203200D02*
X1570983D01*
X1578600Y210818D01*
Y212722D01*
X1576696Y214626D01*
X1572887D01*
X1570983Y212722D01*
X1498600Y255270D02*
X1487174D01*
Y260983D01*
X1489078Y262887D01*
X1492887D01*
X1494791Y260983D01*
Y255270D01*
Y259079D02*
X1498600Y262887D01*
Y274314D02*
Y266696D01*
X1490983Y274314D01*
X1489078D01*
X1487174Y272409D01*
Y268601D01*
X1489078Y266696D01*
X1498600Y278123D02*
Y281931D01*
Y280027D01*
X1487174D01*
X1489078Y278123D01*
X1440180Y255270D02*
X1428754D01*
Y260983D01*
X1430658Y262887D01*
X1434467D01*
X1436371Y260983D01*
Y255270D01*
Y259079D02*
X1440180Y262887D01*
Y274314D02*
Y266696D01*
X1432563Y274314D01*
X1430658D01*
X1428754Y272409D01*
Y268601D01*
X1430658Y266696D01*
Y278123D02*
X1428754Y280027D01*
Y283836D01*
X1430658Y285740D01*
X1438276D01*
X1440180Y283836D01*
Y280027D01*
X1438276Y278123D01*
X1430658D01*
X1381760Y255270D02*
X1370334D01*
Y260983D01*
X1372238Y262887D01*
X1376047D01*
X1377951Y260983D01*
Y255270D01*
Y259079D02*
X1381760Y262887D01*
Y266696D02*
Y270505D01*
Y268601D01*
X1370334D01*
X1372238Y266696D01*
X1379856Y276218D02*
X1381760Y278123D01*
Y281931D01*
X1379856Y283836D01*
X1372238D01*
X1370334Y281931D01*
Y278123D01*
X1372238Y276218D01*
X1374142D01*
X1376047Y278123D01*
Y283836D01*
X1539748Y182372D02*
Y193798D01*
X1545461D01*
X1547366Y191894D01*
Y188085D01*
X1545461Y186181D01*
X1539748D01*
X1551174Y182372D02*
X1554983D01*
X1553079D01*
Y193798D01*
X1551174Y191894D01*
X1568314Y193798D02*
X1564505Y191894D01*
X1560696Y188085D01*
Y184276D01*
X1562601Y182372D01*
X1566409D01*
X1568314Y184276D01*
Y186181D01*
X1566409Y188085D01*
X1560696D01*
X1463548Y182372D02*
Y193798D01*
X1469261D01*
X1471165Y191894D01*
Y188085D01*
X1469261Y186181D01*
X1463548D01*
X1474974Y182372D02*
X1478783D01*
X1476879D01*
Y193798D01*
X1474974Y191894D01*
X1492114Y193798D02*
X1484496D01*
Y188085D01*
X1488305Y189989D01*
X1490209D01*
X1492114Y188085D01*
Y184276D01*
X1490209Y182372D01*
X1486401D01*
X1484496Y184276D01*
X1386840Y182880D02*
Y194306D01*
X1392553D01*
X1394458Y192402D01*
Y188593D01*
X1392553Y186689D01*
X1386840D01*
X1398266Y182880D02*
X1402075D01*
X1400171D01*
Y194306D01*
X1398266Y192402D01*
X1413501Y182880D02*
Y194306D01*
X1407788Y188593D01*
X1415406D01*
X1272540Y179070D02*
Y190496D01*
X1278253D01*
X1280157Y188592D01*
Y184783D01*
X1278253Y182879D01*
X1272540D01*
X1283966Y179070D02*
X1287775D01*
X1285871D01*
Y190496D01*
X1283966Y188592D01*
X1293488D02*
X1295393Y190496D01*
X1299201D01*
X1301106Y188592D01*
Y186688D01*
X1299201Y184783D01*
X1297297D01*
X1299201D01*
X1301106Y182879D01*
Y180974D01*
X1299201Y179070D01*
X1295393D01*
X1293488Y180974D01*
X1593848Y226692D02*
X1591943Y228596D01*
X1588134D01*
X1586230Y226692D01*
Y219074D01*
X1588134Y217170D01*
X1591943D01*
X1593848Y219074D01*
X1605274Y217170D02*
X1597656D01*
X1605274Y224788D01*
Y226692D01*
X1603369Y228596D01*
X1599561D01*
X1597656Y226692D01*
X1609083Y219074D02*
X1610987Y217170D01*
X1614796D01*
X1616700Y219074D01*
Y226692D01*
X1614796Y228596D01*
X1610987D01*
X1609083Y226692D01*
Y224788D01*
X1610987Y222883D01*
X1616700D01*
X1592578Y297812D02*
X1590673Y299716D01*
X1586864D01*
X1584960Y297812D01*
Y290194D01*
X1586864Y288290D01*
X1590673D01*
X1592578Y290194D01*
X1604004Y288290D02*
X1596386D01*
X1604004Y295907D01*
Y297812D01*
X1602099Y299716D01*
X1598291D01*
X1596386Y297812D01*
X1607813D02*
X1609717Y299716D01*
X1613526D01*
X1615430Y297812D01*
Y295907D01*
X1613526Y294003D01*
X1615430Y292099D01*
Y290194D01*
X1613526Y288290D01*
X1609717D01*
X1607813Y290194D01*
Y292099D01*
X1609717Y294003D01*
X1607813Y295907D01*
Y297812D01*
X1609717Y294003D02*
X1613526D01*
X1555748Y361312D02*
X1553843Y363216D01*
X1550034D01*
X1548130Y361312D01*
Y353694D01*
X1550034Y351790D01*
X1553843D01*
X1555748Y353694D01*
X1567174Y351790D02*
X1559556D01*
X1567174Y359408D01*
Y361312D01*
X1565269Y363216D01*
X1561461D01*
X1559556Y361312D01*
X1570983Y363216D02*
X1578600D01*
Y361312D01*
X1570983Y353694D01*
Y351790D01*
X1554478Y296542D02*
X1552573Y298446D01*
X1548764D01*
X1546860Y296542D01*
Y288924D01*
X1548764Y287020D01*
X1552573D01*
X1554478Y288924D01*
X1565904Y287020D02*
X1558286D01*
X1565904Y294638D01*
Y296542D01*
X1563999Y298446D01*
X1560191D01*
X1558286Y296542D01*
X1577330Y298446D02*
X1573521Y296542D01*
X1569713Y292733D01*
Y288924D01*
X1571617Y287020D01*
X1575426D01*
X1577330Y288924D01*
Y290829D01*
X1575426Y292733D01*
X1569713D01*
X1554478Y231772D02*
X1552573Y233676D01*
X1548764D01*
X1546860Y231772D01*
Y224154D01*
X1548764Y222250D01*
X1552573D01*
X1554478Y224154D01*
X1565904Y222250D02*
X1558286D01*
X1565904Y229867D01*
Y231772D01*
X1563999Y233676D01*
X1560191D01*
X1558286Y231772D01*
X1577330Y233676D02*
X1569713D01*
Y227963D01*
X1573521Y229867D01*
X1575426D01*
X1577330Y227963D01*
Y224154D01*
X1575426Y222250D01*
X1571617D01*
X1569713Y224154D01*
X1472568Y261618D02*
X1470664Y259713D01*
Y255904D01*
X1472568Y254000D01*
X1480186D01*
X1482090Y255904D01*
Y259713D01*
X1480186Y261618D01*
X1482090Y273044D02*
Y265426D01*
X1474473Y273044D01*
X1472568D01*
X1470664Y271140D01*
Y267331D01*
X1472568Y265426D01*
X1482090Y282566D02*
X1470664D01*
X1476377Y276853D01*
Y284470D01*
X1414148Y262887D02*
X1412244Y260983D01*
Y257174D01*
X1414148Y255270D01*
X1421766D01*
X1423670Y257174D01*
Y260983D01*
X1421766Y262887D01*
X1423670Y274314D02*
Y266696D01*
X1416053Y274314D01*
X1414148D01*
X1412244Y272409D01*
Y268601D01*
X1414148Y266696D01*
Y278123D02*
X1412244Y280027D01*
Y283836D01*
X1414148Y285740D01*
X1416053D01*
X1417957Y283836D01*
Y281931D01*
Y283836D01*
X1419861Y285740D01*
X1421766D01*
X1423670Y283836D01*
Y280027D01*
X1421766Y278123D01*
X1353188Y262887D02*
X1351284Y260983D01*
Y257174D01*
X1353188Y255270D01*
X1360806D01*
X1362710Y257174D01*
Y260983D01*
X1360806Y262887D01*
X1362710Y274314D02*
Y266696D01*
X1355092Y274314D01*
X1353188D01*
X1351284Y272409D01*
Y268601D01*
X1353188Y266696D01*
X1362710Y285740D02*
Y278123D01*
X1355092Y285740D01*
X1353188D01*
X1351284Y283836D01*
Y280027D01*
X1353188Y278123D01*
X674370Y388620D02*
Y400046D01*
X678179Y396237D01*
X681988Y400046D01*
Y388620D01*
X687701Y396237D02*
X691509D01*
X693414Y394333D01*
Y388620D01*
X687701D01*
X685796Y390524D01*
X687701Y392429D01*
X693414D01*
X697223Y396237D02*
Y388620D01*
Y392429D01*
X699127Y394333D01*
X701031Y396237D01*
X702936D01*
X708649Y388620D02*
Y400046D01*
Y392429D02*
X714362Y396237D01*
X708649Y392429D02*
X714362Y388620D01*
X731502D02*
Y400046D01*
X737215D01*
X739119Y398142D01*
Y394333D01*
X737215Y392429D01*
X731502D01*
X735310D02*
X739119Y388620D01*
X742928D02*
X746737D01*
X744832D01*
Y396237D01*
X742928D01*
X760067D02*
X754354D01*
X752450Y394333D01*
Y390524D01*
X754354Y388620D01*
X760067D01*
X765780Y396237D02*
X769589D01*
X771494Y394333D01*
Y388620D01*
X765780D01*
X763876Y390524D01*
X765780Y392429D01*
X771494D01*
X775303Y388620D02*
X779111D01*
X777207D01*
Y400046D01*
X775303D01*
X792442D02*
Y388620D01*
X786729D01*
X784824Y390524D01*
Y394333D01*
X786729Y396237D01*
X792442D01*
X801964Y388620D02*
X798155D01*
X796251Y390524D01*
Y394333D01*
X798155Y396237D01*
X801964D01*
X803868Y394333D01*
Y392429D01*
X796251D01*
X821690Y403856D02*
Y392430D01*
X827403D01*
X829307Y394334D01*
Y401952D01*
X827403Y403856D01*
X821690D01*
X833116Y400047D02*
Y392430D01*
Y396239D01*
X835021Y398143D01*
X836925Y400047D01*
X838829D01*
X844543Y392430D02*
X848351D01*
X846447D01*
Y400047D01*
X844543D01*
X854065D02*
X857873Y392430D01*
X861682Y400047D01*
X871204Y392430D02*
X867395D01*
X865491Y394334D01*
Y398143D01*
X867395Y400047D01*
X871204D01*
X873108Y398143D01*
Y396239D01*
X865491D01*
X876917Y400047D02*
Y392430D01*
Y396239D01*
X878822Y398143D01*
X880726Y400047D01*
X882630D01*
X907387Y401952D02*
X905483Y403856D01*
X901674D01*
X899770Y401952D01*
Y394334D01*
X901674Y392430D01*
X905483D01*
X907387Y394334D01*
X913101Y392430D02*
X916909D01*
X918814Y394334D01*
Y398143D01*
X916909Y400047D01*
X913101D01*
X911196Y398143D01*
Y394334D01*
X913101Y392430D01*
X922623D02*
Y400047D01*
X928336D01*
X930240Y398143D01*
Y392430D01*
X935953Y401952D02*
Y400047D01*
X934049D01*
X937858D01*
X935953D01*
Y394334D01*
X937858Y392430D01*
X943571Y400047D02*
Y392430D01*
Y396239D01*
X945475Y398143D01*
X947380Y400047D01*
X949284D01*
X956901Y392430D02*
X960710D01*
X962615Y394334D01*
Y398143D01*
X960710Y400047D01*
X956901D01*
X954997Y398143D01*
Y394334D01*
X956901Y392430D01*
X966423D02*
X970232D01*
X968328D01*
Y403856D01*
X966423D01*
X975945Y392430D02*
X981658D01*
X983563Y394334D01*
X981658Y396239D01*
X977850D01*
X975945Y398143D01*
X977850Y400047D01*
X983563D01*
X998798Y403856D02*
Y392430D01*
X1004511D01*
X1006415Y394334D01*
Y396239D01*
X1004511Y398143D01*
X998798D01*
X1004511D01*
X1006415Y400047D01*
Y401952D01*
X1004511Y403856D01*
X998798D01*
X1012129Y392430D02*
X1015937D01*
X1017842Y394334D01*
Y398143D01*
X1015937Y400047D01*
X1012129D01*
X1010224Y398143D01*
Y394334D01*
X1012129Y392430D01*
X1023555Y400047D02*
X1027364D01*
X1029268Y398143D01*
Y392430D01*
X1023555D01*
X1021650Y394334D01*
X1023555Y396239D01*
X1029268D01*
X1033077Y400047D02*
Y392430D01*
Y396239D01*
X1034981Y398143D01*
X1036886Y400047D01*
X1038790D01*
X1052121Y403856D02*
Y392430D01*
X1046408D01*
X1044503Y394334D01*
Y398143D01*
X1046408Y400047D01*
X1052121D01*
X1067356D02*
X1071165Y392430D01*
X1074973Y400047D01*
X1078782Y392430D02*
X1082591D01*
X1080686D01*
Y403856D01*
X1078782Y401952D01*
X1088304Y392430D02*
Y394334D01*
X1090208D01*
Y392430D01*
X1088304D01*
X1097826Y401952D02*
X1099730Y403856D01*
X1103539D01*
X1105443Y401952D01*
Y394334D01*
X1103539Y392430D01*
X1099730D01*
X1097826Y394334D01*
Y401952D01*
D38*
X1371600Y343535D02*
D03*
Y389255D02*
D03*
M02*
